<svg width="39" height="36" viewBox="0 0 39 36" fill="none" xmlns="http://www.w3.org/2000/svg">
<path d="M31.0781 13.3473C31.4987 13.3473 31.8398 13.0325 31.8398 12.6442V10.5377H36.6387C37.9408 10.5377 39 9.56053 39 8.35945V3.88716C39 1.74375 37.1093 0 34.7854 0H4.21482C1.89074 0 0 1.74389 0 3.88737V8.34799C0 9.55533 1.06481 10.5376 2.37367 10.5376C2.73564 10.5376 3.05807 10.7478 3.17599 11.0605C5.83004 18.1014 5.76195 24.6989 2.95844 31.7841H2.28363C1.02451 31.7841 0 32.7298 0 33.892C0 35.0543 1.02451 36 2.28363 36H36.7164C37.9755 36 39 35.0543 39 33.892C39 32.7298 37.9755 31.7841 36.7164 31.7841H35.6119C36.0971 31.4044 36.5419 30.9966 36.938 30.5648C37.2092 30.2688 37.1696 29.8245 36.8489 29.5734C36.7118 29.4666 36.5366 29.4068 36.3568 29.4068C36.1329 29.4068 35.9204 29.4975 35.7756 29.6557C35.036 30.4636 34.0603 31.2005 32.9695 31.7841H22.3252C21.8629 31.5366 21.4172 31.2588 20.9983 30.9551C20.0294 30.2555 19.2311 29.4307 18.6903 28.5701C18.116 27.6553 17.8242 26.7082 17.8242 25.7555V23.2045H37.4766V24.217C37.4766 24.6052 37.8186 24.9209 38.2383 24.9209C38.6587 24.9209 39 24.6052 39 24.217V22.5014C39 22.3165 38.9185 22.1351 38.7768 22.0043C38.6351 21.8735 38.4386 21.7983 38.2383 21.7983H31.7872C31.509 20.186 30.1459 18.9038 28.4121 18.6087V13.3473H31.0781ZM30.3164 11.941H24.9844V10.5377H30.3164V11.941ZM4.6148 10.5983C4.60703 10.5777 4.59735 10.558 4.5889 10.5376H12.9492C13.3698 10.5376 13.7109 10.2228 13.7109 9.83447C13.7109 9.44613 13.3698 9.13134 12.9492 9.13134C12.9492 9.13134 2.46827 9.13134 2.37367 9.13134C1.90483 9.13134 1.52344 8.77992 1.52344 8.34799V3.88737C1.52344 2.5193 2.73084 1.40625 4.21482 1.40625H34.7854C36.2693 1.40625 37.4766 2.51923 37.4766 3.88716V8.35938C37.4766 8.78505 37.1007 9.13134 36.6387 9.13134H18.898C16.7331 9.13134 14.7971 10.4676 14.19 12.3807C12.1127 18.9274 12.313 25.1085 14.8319 31.7489H4.59179C7.32385 24.5391 7.32621 17.7912 4.6148 10.5983ZM36.7164 33.1903C37.1353 33.1903 37.4766 33.5053 37.4766 33.892C37.4766 34.2787 37.1353 34.5938 36.7164 34.5938H2.28363C1.86469 34.5938 1.52344 34.2787 1.52344 33.892C1.52344 33.5053 1.86469 33.1903 2.28363 33.1903H36.7164ZM26.8887 21.7983H25.0675C25.2995 20.963 25.9969 20.2982 26.8887 20.0526V21.7983ZM30.2333 21.7983H28.4121V20.0526C29.3039 20.2982 30.0013 20.963 30.2333 21.7983ZM26.8887 18.6087C25.1548 18.9038 23.7918 20.186 23.5136 21.7983H17.0625C16.8622 21.7983 16.6656 21.8735 16.524 22.0043C16.3823 22.1351 16.3008 22.3158 16.3008 22.5014V25.7555C16.3008 26.3686 16.3968 26.9859 16.5857 27.5906C16.7654 28.1644 17.0305 28.7311 17.3725 29.276C17.8615 30.0516 18.5021 30.7821 19.2761 31.4459C19.4101 31.5612 19.548 31.6744 19.6889 31.7841H16.4649C13.8748 25.2415 13.6171 19.1893 15.6519 12.7761C16.0701 11.4581 17.405 10.5377 18.8979 10.5377H23.4609V12.6442C23.4609 13.0325 23.802 13.3473 24.2227 13.3473H26.8887V18.6087Z" fill="#D7210A"/>
<path d="M37.9941 28.0625C38.4148 28.0625 38.7559 27.7477 38.7559 27.3594C38.7559 26.971 38.4148 26.6562 37.9941 26.6562C37.5735 26.6562 37.2324 26.971 37.2324 27.3594C37.2324 27.7477 37.5735 28.0625 37.9941 28.0625Z" fill="#D7210A"/>
</svg>
