<svg width="47" height="39" viewBox="0 0 47 39" fill="none" xmlns="http://www.w3.org/2000/svg">
<g clip-path="url(#clip0)">
<path d="M39.4222 14.7773H27.6308C27.1238 14.7773 26.7128 15.1184 26.7128 15.5391C26.7128 15.9598 27.1238 16.3008 27.6308 16.3008H35.8007V19.5762C35.8007 21.2982 34.1123 22.6992 32.037 22.6992H14.9629C12.8876 22.6992 11.1992 21.2982 11.1992 19.5762V16.3008H19.3691C19.8761 16.3008 20.2871 15.9598 20.2871 15.5391C20.2871 15.1184 19.8761 14.7773 19.3691 14.7773H7.57763C7.07064 14.7773 6.65967 15.1184 6.65967 15.5391C6.65967 15.9598 7.07064 16.3008 7.57763 16.3008H9.36326V19.5762C9.36326 21.833 11.3127 23.7183 13.8874 24.1357L10.2243 38.0759C10.1651 38.3011 10.2321 38.5365 10.4063 38.7159C10.5805 38.8955 10.8434 38.9999 11.1212 38.9999H15.1039C15.5358 38.9999 15.9091 38.7502 16.0009 38.4001L18.0907 30.4306H28.909L30.9989 38.4001C31.0907 38.7502 31.4641 38.9999 31.8958 38.9999H35.8786C36.1564 38.9999 36.4193 38.8955 36.5935 38.7159C36.7677 38.5364 36.8347 38.3011 36.7755 38.0759L33.1123 24.1357C35.687 23.7183 37.6364 21.833 37.6364 19.5762V16.3008H39.422C39.929 16.3008 40.34 15.9598 40.34 15.5391C40.3402 15.1184 39.9292 14.7773 39.4222 14.7773ZM14.3642 37.4765H12.2608L15.7436 24.2226H17.8398L14.3642 37.4765ZM18.4902 28.9072L19.7186 24.2226H27.2812L28.5096 28.9072H18.4902ZM32.6356 37.4765L29.1601 24.2226H31.2563L34.739 37.4765H32.6356Z" fill="#D7210A"/>
<path d="M41.584 9.75021C41.077 9.75021 40.666 10.0912 40.666 10.5119C40.666 11.016 40.1719 11.426 39.5645 11.426C38.9571 11.426 38.4629 11.016 38.4629 10.5119C38.4629 10.0912 38.0519 9.75021 37.5449 9.75021H35.9427C35.5563 8.77818 34.4521 8.07443 33.1529 8.07443C32.5396 8.07443 31.9698 8.23142 31.4982 8.49924C31.1717 8.23683 30.7278 8.07443 30.2384 8.07443H27.9894C27.5 8.07443 27.0561 8.23683 26.7296 8.49924C26.258 8.23142 25.6881 8.07443 25.0748 8.07443C24.4647 8.07443 23.8975 8.22975 23.4273 8.49505C23.1001 8.22914 22.653 8.06453 22.1599 8.06453H19.9109C19.418 8.06453 18.9709 8.22914 18.6438 8.4949C18.1737 8.22967 17.6065 8.07443 16.9964 8.07443C16.3862 8.07443 15.819 8.22975 15.3488 8.49498C15.0217 8.22906 14.5745 8.06445 14.0816 8.06445H11.8326C10.8329 8.06445 10.0196 8.73933 10.0196 9.56884V9.75013H5.41552C4.90853 9.75013 4.49756 10.0912 4.49756 10.5119C4.49756 10.9325 4.90853 11.2736 5.41552 11.2736H10.0195V11.4351C10.0195 12.2646 10.8328 12.9394 11.8325 12.9394H14.0815C14.5674 12.9394 15.0082 12.7792 15.334 12.52C15.8072 12.7905 16.3797 12.9493 16.9964 12.9493C17.613 12.9493 18.1855 12.7905 18.6585 12.5202C18.9843 12.7792 19.4251 12.9394 19.9109 12.9394H22.1599C22.6458 12.9394 23.0866 12.7792 23.4125 12.52C23.8856 12.7905 24.4582 12.9493 25.0748 12.9493C25.6882 12.9493 26.258 12.7924 26.7296 12.5245C27.0561 12.7869 27.4999 12.9493 27.9894 12.9493H30.2384C30.7278 12.9493 31.1717 12.7869 31.4982 12.5245C31.9698 12.7924 32.5396 12.9493 33.1529 12.9493C34.4521 12.9493 35.5563 12.2456 35.9427 11.2736H36.7739C37.1601 12.2457 38.2652 12.9493 39.5645 12.9493C41.1842 12.9493 42.502 11.8559 42.502 10.5119C42.502 10.0912 42.091 9.75021 41.584 9.75021ZM14.0586 11.416H11.8555V9.58789H14.0586V11.416ZM16.9964 11.426C16.389 11.426 15.8948 11.016 15.8948 10.5119C15.8948 10.0079 16.389 9.59787 16.9964 9.59787C17.6038 9.59787 18.0979 10.0079 18.0979 10.5119C18.0979 11.016 17.6038 11.426 16.9964 11.426ZM22.137 11.416H19.9339V9.58789H22.137V11.416ZM25.0748 11.426C24.4674 11.426 23.9733 11.016 23.9733 10.5119C23.9733 10.0079 24.4674 9.59787 25.0748 9.59787C25.6823 9.59787 26.1764 10.0079 26.1764 10.5119C26.1764 11.016 25.6823 11.426 25.0748 11.426ZM30.2155 11.426H28.0123V9.59787H30.2155V11.426ZM33.1529 11.426C32.5455 11.426 32.0514 11.016 32.0514 10.5119C32.0514 10.0079 32.5455 9.59787 33.1529 9.59787C33.7604 9.59787 34.2545 10.0079 34.2545 10.5119C34.2545 11.016 33.7604 11.426 33.1529 11.426Z" fill="#D7210A"/>
<path d="M30.5538 5.13749C30.3228 5.51203 30.5015 5.97089 30.9528 6.16262C31.0866 6.21944 31.2294 6.2464 31.3702 6.2464C31.7038 6.2464 32.0257 6.09497 32.1881 5.83157C32.778 4.87501 32.778 3.73281 32.1881 2.77624C31.8661 2.25424 31.8661 1.63092 32.1881 1.10892C32.419 0.734379 32.2404 0.27552 31.7891 0.0837951C31.3378 -0.107853 30.7848 0.0403771 30.5538 0.414838C29.9638 1.3714 29.9638 2.5136 30.5538 3.47017C30.8756 3.99217 30.8756 4.61549 30.5538 5.13749Z" fill="#D7210A"/>
<path d="M22.6944 5.13749C22.4635 5.51203 22.6421 5.97089 23.0934 6.16262C23.2273 6.21944 23.3701 6.2464 23.5108 6.2464C23.8445 6.2464 24.1663 6.09497 24.3287 5.83157C24.9187 4.87501 24.9187 3.73281 24.3287 2.77624C24.0068 2.25424 24.0068 1.63092 24.3287 1.10892C24.5597 0.734379 24.381 0.27552 23.9297 0.0837951C23.4787 -0.107853 22.9254 0.0403771 22.6944 0.414838C22.1045 1.3714 22.1045 2.5136 22.6944 3.47017C23.0164 3.99217 23.0164 4.61549 22.6944 5.13749Z" fill="#D7210A"/>
<path d="M14.8347 5.13749C14.6037 5.51203 14.7823 5.97089 15.2336 6.16262C15.3675 6.21944 15.5103 6.2464 15.651 6.2464C15.9847 6.2464 16.3065 6.09497 16.4689 5.83157C17.0589 4.87501 17.0589 3.73281 16.4689 2.77624C16.147 2.25424 16.147 1.63092 16.4689 1.10892C16.6999 0.734379 16.5212 0.27552 16.07 0.0837951C15.6188 -0.107853 15.0656 0.0403771 14.8346 0.414838C14.2446 1.3714 14.2446 2.5136 14.8346 3.47017C15.1566 3.99217 15.1566 4.61549 14.8347 5.13749Z" fill="#D7210A"/>
<path d="M24.1485 16.0776C24.3193 15.9359 24.4175 15.7394 24.4175 15.5391C24.4175 15.3387 24.3193 15.1422 24.1485 15.0005C23.9778 14.8588 23.7409 14.7773 23.4995 14.7773C23.2581 14.7773 23.0212 14.8588 22.8505 15.0005C22.6798 15.1422 22.5815 15.3387 22.5815 15.5391C22.5815 15.7394 22.6798 15.9359 22.8505 16.0776C23.0212 16.2193 23.2581 16.3008 23.4995 16.3008C23.7409 16.3008 23.9778 16.2192 24.1485 16.0776Z" fill="#D7210A"/>
</g>
<defs>
<clipPath id="clip0">
<rect width="47" height="39" fill="white"/>
</clipPath>
</defs>
</svg>
