<svg width="48" height="43" viewBox="0 0 48 43" fill="none" xmlns="http://www.w3.org/2000/svg">
<path d="M34.6875 21.5C35.632 21.499 36.5375 21.1625 37.2054 20.5642C37.8733 19.9659 38.2489 19.1547 38.25 18.3086V9.91016C38.2489 9.06404 37.8733 8.25284 37.2054 7.65455C36.5375 7.05625 35.632 6.71971 34.6875 6.71875H32.25C32.25 6.71665 32.25 6.71463 32.25 6.71262C32.25 6.70422 32.2491 6.69582 32.2486 6.6881C32.2479 6.6713 32.2467 6.65517 32.2446 6.63897C32.2435 6.63124 32.242 6.62343 32.2406 6.6157C32.2377 6.5989 32.2344 6.58211 32.2299 6.56531C32.2291 6.56212 32.2288 6.55884 32.228 6.55574C31.9743 5.64217 31.3864 4.83103 30.558 4.2517C29.7297 3.67237 28.7086 3.35823 27.6578 3.35938H26.7907L26.2116 1.80314C26.1618 1.66936 26.0663 1.553 25.9386 1.47055C25.8109 1.3881 25.6574 1.34374 25.5 1.34375H22.5C22.3426 1.34374 22.1892 1.3881 22.0614 1.47055C21.9337 1.553 21.8382 1.66936 21.7884 1.80314L21.2094 3.35938H20.3423C19.3934 3.35841 18.4664 3.61457 17.683 4.09422C16.8997 4.57386 16.2966 5.25455 15.953 6.04688H14.25C14.0511 6.04688 13.8603 6.11766 13.7197 6.24366C13.579 6.36966 13.5 6.54056 13.5 6.71875V7.05469C13.4986 7.75608 13.7064 8.44507 14.102 9.05035C14.4976 9.65564 15.0665 10.1552 15.75 10.4974V21.0931C15.7489 22.451 16.1051 23.7901 16.7896 25.0016C16.6994 25.0643 16.6265 25.1446 16.5763 25.2364C16.5261 25.3282 16.5 25.429 16.5 25.5312V28.1096L15.9333 29.6326C15.3146 31.2939 14.9994 33.0337 15 34.785V38.9688C15 39.1469 15.079 39.3178 15.2197 39.4438C15.3603 39.5698 15.5511 39.6406 15.75 39.6406V40.9844C15.75 41.1626 15.829 41.3335 15.9697 41.4595C16.1103 41.5855 16.3011 41.6562 16.5 41.6562H19.5C19.6989 41.6562 19.8897 41.5855 20.0303 41.4595C20.171 41.3335 20.25 41.1626 20.25 40.9844V39.6406H27.75V40.9844C27.75 41.1626 27.829 41.3335 27.9697 41.4595C28.1103 41.5855 28.3011 41.6562 28.5 41.6562H31.5C31.6989 41.6562 31.8897 41.5855 32.0303 41.4595C32.171 41.3335 32.25 41.1626 32.25 40.9844V39.6406C32.4489 39.6406 32.6397 39.5698 32.7803 39.4438C32.921 39.3178 33 39.1469 33 38.9688V34.785C33.0006 33.0337 32.6854 31.2939 32.0667 29.6326L31.5 28.1096V25.5312C31.5 25.429 31.4739 25.3282 31.4237 25.2364C31.3735 25.1446 31.3006 25.0643 31.2104 25.0016C31.8255 23.9126 32.1758 22.7192 32.2382 21.5H34.6875ZM32.25 10.75H33.75V17.4688H32.25V10.75ZM34.6875 8.0625C35.2343 8.06306 35.7586 8.2579 36.1452 8.60428C36.5319 8.95066 36.7494 9.4203 36.75 9.91016V18.3086C36.7494 18.7985 36.5319 19.2681 36.1452 19.6145C35.7586 19.9609 35.2343 20.1557 34.6875 20.1562H32.25V18.8125H34.5C34.6989 18.8125 34.8897 18.7417 35.0303 18.6157C35.171 18.4897 35.25 18.3188 35.25 18.1406V10.0781C35.25 9.89993 35.171 9.72904 35.0303 9.60304C34.8897 9.47704 34.6989 9.40625 34.5 9.40625H32.25V8.0625H34.6875ZM23.0406 2.6875H24.9594L25.2094 3.35938H22.7906L23.0406 2.6875ZM20.3423 4.70312H27.6578C28.2008 4.70255 28.735 4.82556 29.2104 5.0606C29.6859 5.29564 30.0868 5.63501 30.3758 6.04688H17.6243C17.9132 5.63501 18.3142 5.29564 18.7896 5.0606C19.265 4.82556 19.7993 4.70255 20.3423 4.70312ZM15.024 7.39062H30.75V21.0931C30.7516 22.4198 30.3497 23.7218 29.5875 24.8594H26.25V24.1875C26.25 24.0832 26.2229 23.9803 26.1708 23.887L25.5258 22.7314C26.1039 22.2845 26.578 21.7399 26.9208 21.1286C26.9657 21.0496 26.9928 20.9634 27.0004 20.875C27.008 20.7866 26.996 20.6977 26.9651 20.6135C26.9341 20.5293 26.8849 20.4513 26.8202 20.3842C26.7555 20.3171 26.6766 20.2622 26.5881 20.2225C26.4995 20.1829 26.4031 20.1593 26.3044 20.1532C26.2056 20.147 26.1065 20.1585 26.0127 20.1869C25.9189 20.2152 25.8323 20.2599 25.7579 20.3184C25.6835 20.3769 25.6228 20.448 25.5792 20.5276C25.222 21.1637 24.6755 21.699 24 22.0743C23.3246 21.699 22.778 21.1637 22.4208 20.5276C22.3309 20.3697 22.175 20.25 21.987 20.1946C21.799 20.1392 21.5942 20.1526 21.4172 20.2319C21.2402 20.3112 21.1053 20.4499 21.042 20.6179C20.9787 20.7859 20.9921 20.9694 21.0792 21.1286C21.422 21.7399 21.8961 22.2845 22.4742 22.7314L21.8292 23.887C21.7771 23.9803 21.75 24.0832 21.75 24.1875V24.8594H18.4125C17.6503 23.7218 17.2484 22.4198 17.25 21.0931V10.0781C17.25 9.94548 17.2062 9.81579 17.1241 9.70542C17.0419 9.59504 16.9252 9.50892 16.7885 9.4579C16.3173 9.28295 15.906 8.99966 15.5962 8.63667C15.2863 8.27367 15.089 7.84385 15.024 7.39062ZM18 26.2031H30V27.5469H18V26.2031ZM23.25 24.3461L23.7135 23.5156H23.9963H23.9994H24.0006H24.0038H24.2865L24.75 24.3461V24.8594H23.25V24.3461ZM16.5 34.7854C16.4994 33.1786 16.7886 31.5823 17.3564 30.0581L17.7906 28.8907H30.2094L30.6436 30.0581C31.2113 31.5821 31.5005 33.1783 31.5 34.785V38.2969H16.5V34.7854ZM18.75 40.3125H17.25V39.6406H18.75V40.3125ZM30.75 40.3125H29.25V39.6406H30.75V40.3125Z" fill="#D7210A"/>
<path d="M24 36.9531C24.7417 36.9531 25.4667 36.7561 26.0834 36.387C26.7001 36.0178 27.1807 35.4932 27.4646 34.8793C27.7484 34.2655 27.8227 33.59 27.678 32.9384C27.5333 32.2867 27.1761 31.6881 26.6517 31.2183C26.1272 30.7485 25.459 30.4285 24.7316 30.2989C24.0042 30.1693 23.2502 30.2358 22.5649 30.4901C21.8797 30.7444 21.294 31.1749 20.882 31.7274C20.4699 32.2798 20.25 32.9293 20.25 33.5938C20.2511 34.4844 20.6466 35.3383 21.3496 35.9681C22.0526 36.5979 23.0058 36.9521 24 36.9531ZM23.25 31.6937V32.9219C23.25 33.1001 23.329 33.271 23.4697 33.397C23.6103 33.523 23.8011 33.5938 24 33.5938C24.1989 33.5938 24.3897 33.523 24.5303 33.397C24.671 33.271 24.75 33.1001 24.75 32.9219V31.6937C25.2504 31.8522 25.6722 32.1641 25.9407 32.5742C26.2093 32.9843 26.3074 33.4663 26.2176 33.9349C26.1279 34.4035 25.8561 34.8286 25.4503 35.1351C25.0445 35.4416 24.5308 35.6097 24 35.6097C23.4692 35.6097 22.9556 35.4416 22.5498 35.1351C22.144 34.8286 21.8722 34.4035 21.7824 33.9349C21.6927 33.4663 21.7907 32.9843 22.0593 32.5742C22.3278 32.1641 22.7496 31.8522 23.25 31.6937Z" fill="#D7210A"/>
<path d="M22.5 11.4219H25.5C25.6989 11.4219 25.8897 11.3511 26.0303 11.2251C26.171 11.0991 26.25 10.9282 26.25 10.75C26.25 10.5718 26.171 10.4009 26.0303 10.2749C25.8897 10.1489 25.6989 10.0781 25.5 10.0781H22.5C22.3011 10.0781 22.1103 10.1489 21.9697 10.2749C21.829 10.4009 21.75 10.5718 21.75 10.75C21.75 10.9282 21.829 11.0991 21.9697 11.2251C22.1103 11.3511 22.3011 11.4219 22.5 11.4219Z" fill="#D7210A"/>
<path d="M22.5 14.1094H25.5C25.6989 14.1094 25.8897 14.0386 26.0303 13.9126C26.171 13.7866 26.25 13.6157 26.25 13.4375C26.25 13.2593 26.171 13.0884 26.0303 12.9624C25.8897 12.8364 25.6989 12.7656 25.5 12.7656H22.5C22.3011 12.7656 22.1103 12.8364 21.9697 12.9624C21.829 13.0884 21.75 13.2593 21.75 13.4375C21.75 13.6157 21.829 13.7866 21.9697 13.9126C22.1103 14.0386 22.3011 14.1094 22.5 14.1094Z" fill="#D7210A"/>
<path d="M22.5 16.7969H25.5C25.6989 16.7969 25.8897 16.7261 26.0303 16.6001C26.171 16.4741 26.25 16.3032 26.25 16.125C26.25 15.9468 26.171 15.7759 26.0303 15.6499C25.8897 15.5239 25.6989 15.4531 25.5 15.4531H22.5C22.3011 15.4531 22.1103 15.5239 21.9697 15.6499C21.829 15.7759 21.75 15.9468 21.75 16.125C21.75 16.3032 21.829 16.4741 21.9697 16.6001C22.1103 16.7261 22.3011 16.7969 22.5 16.7969Z" fill="#D7210A"/>
</svg>
