<svg width="45" height="36" viewBox="0 0 45 36" fill="none" xmlns="http://www.w3.org/2000/svg">
<path fill-rule="evenodd" clip-rule="evenodd" d="M3.64844 30.375C3.64844 29.1343 4.73963 28.125 6.08087 28.125C7.42211 28.125 8.5133 29.1343 8.5133 30.375C8.5133 31.6156 7.42211 32.625 6.08087 32.625C4.73963 32.625 3.64844 31.6156 3.64844 30.375ZM5.27047 30.3749C5.27047 30.7885 5.6342 31.1249 6.08128 31.1249C6.52836 31.1249 6.89209 30.7885 6.89209 30.3749C6.89209 29.9614 6.52836 29.6249 6.08128 29.6249C5.6342 29.6249 5.27047 29.9614 5.27047 30.3749Z" fill="#D7210A"/>
<path fill-rule="evenodd" clip-rule="evenodd" d="M10.9458 30.375C10.9458 29.1343 12.037 28.125 13.3782 28.125C14.7195 28.125 15.8107 29.1343 15.8107 30.375C15.8107 31.6156 14.7195 32.625 13.3782 32.625C12.037 32.625 10.9458 31.6156 10.9458 30.375ZM12.5678 30.3749C12.5678 30.7885 12.9315 31.1249 13.3786 31.1249C13.8257 31.1249 14.1894 30.7885 14.1894 30.3749C14.1894 29.9614 13.8257 29.6249 13.3786 29.6249C12.9315 29.6249 12.5678 29.9614 12.5678 30.3749Z" fill="#D7210A"/>
<path fill-rule="evenodd" clip-rule="evenodd" d="M18.2432 30.375C18.2432 29.1343 19.3344 28.125 20.6756 28.125C22.0168 28.125 23.108 29.1343 23.108 30.375C23.108 31.6156 22.0168 32.625 20.6756 32.625C19.3344 32.625 18.2432 31.6156 18.2432 30.375ZM19.8651 30.3749C19.8651 30.7885 20.2288 31.1249 20.6759 31.1249C21.123 31.1249 21.4867 30.7885 21.4867 30.3749C21.4867 29.9614 21.123 29.6249 20.6759 29.6249C20.2288 29.6249 19.8651 29.9614 19.8651 30.3749Z" fill="#D7210A"/>
<path fill-rule="evenodd" clip-rule="evenodd" d="M25.5405 30.375C25.5405 29.1343 26.6317 28.125 27.973 28.125C29.3142 28.125 30.4054 29.1343 30.4054 30.375C30.4054 31.6156 29.3142 32.625 27.973 32.625C26.6317 32.625 25.5405 31.6156 25.5405 30.375ZM27.1624 30.3749C27.1624 30.7885 27.5261 31.1249 27.9732 31.1249C28.4203 31.1249 28.784 30.7885 28.784 30.3749C28.784 29.9614 28.4203 29.6249 27.9732 29.6249C27.5261 29.6249 27.1624 29.9614 27.1624 30.3749Z" fill="#D7210A"/>
<path fill-rule="evenodd" clip-rule="evenodd" d="M41.9238 0H3.07617C1.37997 0 0 1.10398 0 2.46094V33.5391C0 34.896 1.37997 36 3.07617 36H41.9238C43.62 36 45 34.896 45 33.5391V2.46094C45 1.10398 43.62 0 41.9238 0ZM43.2422 33.5391C43.2422 34.1207 42.6508 34.5938 41.9238 34.5938H3.07617C2.34923 34.5938 1.75781 34.1207 1.75781 33.5391V27.4103H43.2422V33.5391ZM1.75781 26.004H43.2422V2.46094C43.2422 1.87938 42.6508 1.40625 41.9238 1.40625H3.07617C2.34923 1.40625 1.75781 1.87938 1.75781 2.46094V26.004Z" fill="#D7210A"/>
<path fill-rule="evenodd" clip-rule="evenodd" d="M7.29736 19.6875C7.29736 16.896 10.0253 14.625 13.3784 14.625C16.7315 14.625 19.4595 16.896 19.4595 19.6875C19.4595 22.479 16.7315 24.75 13.3784 24.75C10.0253 24.75 7.29736 22.479 7.29736 19.6875ZM8.9981 19.6876C8.9981 21.6982 10.963 23.334 13.3782 23.334C15.7933 23.334 17.7583 21.6982 17.7583 19.6876C17.7583 17.6769 15.7933 16.0411 13.3782 16.0411C10.963 16.0411 8.9981 17.6769 8.9981 19.6876Z" fill="#D7210A"/>
<path fill-rule="evenodd" clip-rule="evenodd" d="M7.29736 8.4375C7.29736 5.64604 10.0253 3.375 13.3784 3.375C16.7315 3.375 19.4595 5.64604 19.4595 8.4375C19.4595 11.229 16.7315 13.5 13.3784 13.5C10.0253 13.5 7.29736 11.229 7.29736 8.4375ZM8.9981 8.43755C8.9981 10.4482 10.963 12.084 13.3782 12.084C15.7933 12.084 17.7583 10.4482 17.7583 8.43755C17.7583 6.42693 15.7933 4.79114 13.3782 4.79114C10.963 4.79114 8.9981 6.42693 8.9981 8.43755Z" fill="#D7210A"/>
<path fill-rule="evenodd" clip-rule="evenodd" d="M25.5405 19.6875C25.5405 16.896 28.2685 14.625 31.6216 14.625C34.9747 14.625 37.7027 16.896 37.7027 19.6875C37.7027 22.479 34.9747 24.75 31.6216 24.75C28.2685 24.75 25.5405 22.479 25.5405 19.6875ZM27.2413 19.6876C27.2413 21.6982 29.2063 23.334 31.6214 23.334C34.0366 23.334 36.0015 21.6982 36.0015 19.6876C36.0015 17.6769 34.0366 16.0411 31.6214 16.0411C29.2063 16.0411 27.2413 17.6769 27.2413 19.6876Z" fill="#D7210A"/>
<path fill-rule="evenodd" clip-rule="evenodd" d="M25.5405 8.4375C25.5405 5.64604 28.2685 3.375 31.6216 3.375C34.9747 3.375 37.7027 5.64604 37.7027 8.4375C37.7027 11.229 34.9747 13.5 31.6216 13.5C28.2685 13.5 25.5405 11.229 25.5405 8.4375ZM27.2413 8.43755C27.2413 10.4482 29.2063 12.084 31.6214 12.084C34.0366 12.084 36.0015 10.4482 36.0015 8.43755C36.0015 6.42693 34.0366 4.79114 31.6214 4.79114C29.2063 4.79114 27.2413 6.42693 27.2413 8.43755Z" fill="#D7210A"/>
<path fill-rule="evenodd" clip-rule="evenodd" d="M10.9458 19.125C10.9458 17.8843 12.037 16.875 13.3782 16.875C14.7195 16.875 15.8107 17.8843 15.8107 19.125C15.8107 20.3656 14.7195 21.375 13.3782 21.375C12.037 21.375 10.9458 20.3656 10.9458 19.125ZM12.5678 19.1249C12.5678 19.5385 12.9315 19.8749 13.3786 19.8749C13.8257 19.8749 14.1894 19.5385 14.1894 19.1249C14.1894 18.7114 13.8257 18.3749 13.3786 18.3749C12.9315 18.3749 12.5678 18.7114 12.5678 19.1249Z" fill="#D7210A"/>
<path fill-rule="evenodd" clip-rule="evenodd" d="M29.189 19.125C29.189 17.8843 30.2802 16.875 31.6214 16.875C32.9626 16.875 34.0538 17.8843 34.0538 19.125C34.0538 20.3656 32.9626 21.375 31.6214 21.375C30.2802 21.375 29.189 20.3656 29.189 19.125ZM30.811 19.1249C30.811 19.5385 31.1747 19.8749 31.6218 19.8749C32.0689 19.8749 32.4326 19.5385 32.4326 19.1249C32.4326 18.7114 32.0689 18.3749 31.6218 18.3749C31.1747 18.3749 30.811 18.7114 30.811 19.1249Z" fill="#D7210A"/>
<path fill-rule="evenodd" clip-rule="evenodd" d="M29.189 7.875C29.189 6.63435 30.2802 5.625 31.6214 5.625C32.9626 5.625 34.0538 6.63435 34.0538 7.875C34.0538 9.11565 32.9626 10.125 31.6214 10.125C30.2802 10.125 29.189 9.11565 29.189 7.875ZM30.811 7.87491C30.811 8.28846 31.1747 8.62491 31.6218 8.62491C32.0689 8.62491 32.4326 8.28846 32.4326 7.87491C32.4326 7.46136 32.0689 7.12491 31.6218 7.12491C31.1747 7.12491 30.811 7.46136 30.811 7.87491Z" fill="#D7210A"/>
<path fill-rule="evenodd" clip-rule="evenodd" d="M10.9458 7.875C10.9458 6.63435 12.037 5.625 13.3782 5.625C14.7195 5.625 15.8107 6.63435 15.8107 7.875C15.8107 9.11565 14.7195 10.125 13.3782 10.125C12.037 10.125 10.9458 9.11565 10.9458 7.875ZM12.5678 7.87491C12.5678 8.28846 12.9315 8.62491 13.3786 8.62491C13.8257 8.62491 14.1894 8.28846 14.1894 7.87491C14.1894 7.46136 13.8257 7.12491 13.3786 7.12491C12.9315 7.12491 12.5678 7.46136 12.5678 7.87491Z" fill="#D7210A"/>
<path d="M39.5271 30.375C39.8629 30.375 40.1352 30.1232 40.1352 29.8125C40.1352 29.5018 39.8629 29.25 39.5271 29.25C39.1912 29.25 38.9189 29.5018 38.9189 29.8125C38.9189 30.1232 39.1912 30.375 39.5271 30.375Z" fill="#D7210A"/>
<path d="M39.5271 32.625C39.8629 32.625 40.1352 32.3732 40.1352 32.0625C40.1352 31.7518 39.8629 31.5 39.5271 31.5C39.1912 31.5 38.9189 31.7518 38.9189 32.0625C38.9189 32.3732 39.1912 32.625 39.5271 32.625Z" fill="#D7210A"/>
</svg>
