<svg width="37" height="30" viewBox="0 0 37 30" fill="none" xmlns="http://www.w3.org/2000/svg">
<path fill-rule="evenodd" clip-rule="evenodd" d="M9.37962 3.375C11.3335 3.375 12.923 4.72079 12.923 6.37498C12.923 8.02917 11.3335 9.37496 9.37962 9.37496C7.42579 9.37496 5.83621 8.02917 5.83621 6.37498C5.83621 4.72079 7.42579 3.375 9.37962 3.375ZM7.25359 6.37508C7.25359 7.3676 8.20733 8.17508 9.37964 8.17508C10.5519 8.17508 11.5057 7.3676 11.5057 6.37508C11.5057 5.38255 10.5519 4.57507 9.37964 4.57507C8.20733 4.57507 7.25359 5.38255 7.25359 6.37508Z" fill="#D7210A"/>
<path fill-rule="evenodd" clip-rule="evenodd" d="M9.37961 15C14.6147 15 18.7592 11.5875 18.7592 7.50001C18.7592 3.3645 14.5516 0 9.37961 0C4.20762 0 0 3.3645 0 7.50001C0 11.5872 4.14384 15 9.37961 15ZM5.77569 13.1545C5.85138 11.617 7.43848 10.3846 9.37962 10.3846C11.3208 10.3846 12.9079 11.617 12.9836 13.1545C11.8739 13.6074 10.6367 13.8461 9.37962 13.8461C8.12254 13.8461 6.88537 13.6074 5.77569 13.1545ZM17.3162 7.49991C17.3162 4.00065 13.7558 1.15377 9.3796 1.15377C5.00338 1.15377 1.44303 4.00065 1.44303 7.49991C1.44303 9.43884 2.56468 11.2651 4.43108 12.4597C4.90114 10.6195 6.94134 9.23068 9.3796 9.23068C11.8179 9.23068 13.8581 10.6195 14.3281 12.4597C16.1946 11.265 17.3162 9.43878 17.3162 7.49991Z" fill="#D7210A"/>
<path fill-rule="evenodd" clip-rule="evenodd" d="M27.3051 18.375C29.2589 18.375 30.8485 19.7208 30.8485 21.375C30.8485 23.0292 29.2589 24.375 27.3051 24.375C25.3512 24.375 23.7617 23.0292 23.7617 21.375C23.7617 19.7208 25.3512 18.375 27.3051 18.375ZM25.1791 21.3749C25.1791 22.3675 26.1328 23.1749 27.3051 23.1749C28.4774 23.1749 29.4311 22.3675 29.4311 21.3749C29.4311 20.3824 28.4774 19.5749 27.3051 19.5749C26.1328 19.5749 25.1791 20.3824 25.1791 21.3749Z" fill="#D7210A"/>
<path fill-rule="evenodd" clip-rule="evenodd" d="M27.3051 15C22.1331 15 17.9255 18.3645 17.9255 22.5C17.9255 26.5875 22.0692 30 27.3051 30C32.5401 30 36.6847 26.5874 36.6847 22.5C36.6847 18.3645 32.4771 15 27.3051 15ZM23.7012 28.1546C23.7768 26.6171 25.364 25.3847 27.3051 25.3847C29.2463 25.3847 30.8334 26.6171 30.9091 28.1546C29.7994 28.6075 28.5622 28.8462 27.3051 28.8462C26.048 28.8462 24.8108 28.6075 23.7012 28.1546ZM27.3051 24.2309C29.7434 24.2309 31.7836 25.6197 32.2536 27.4599C34.1201 26.2652 35.2417 24.439 35.2417 22.5001C35.2417 19.0008 31.6813 16.1539 27.3051 16.1539C22.9289 16.1539 19.3685 19.0008 19.3685 22.5001C19.3685 24.439 20.4902 26.2653 22.3566 27.4599C22.8266 25.6197 24.8668 24.2309 27.3051 24.2309Z" fill="#D7210A"/>
<path fill-rule="evenodd" clip-rule="evenodd" d="M11.8391 22.8938C11.8391 25.1373 14.0645 26.9625 16.7999 26.9625C17.1912 26.9625 17.5086 27.2227 17.5086 27.5438C17.5086 27.8648 17.1912 28.125 16.7999 28.125H11.1305C7.61356 28.125 4.75233 25.7783 4.75233 22.8938V22.3125H4.04365C3.7752 22.3125 3.52993 22.1881 3.40981 21.9912C3.28969 21.7943 3.3157 21.5586 3.47671 21.3825L7.72879 16.7325C7.86266 16.5861 8.07271 16.5 8.29574 16.5C8.51876 16.5 8.72881 16.5861 8.86268 16.7325L13.1148 21.3825C13.2758 21.5586 13.3017 21.7943 13.1817 21.9912C13.0616 22.1881 12.8163 22.3125 12.5478 22.3125H11.8391V22.8938ZM6.1697 22.8938C6.1697 25.1373 8.39502 26.9625 11.1305 26.9625H12.7952C11.3484 26.0027 10.4218 24.5353 10.4218 22.8938V21.7313C10.4218 21.4102 10.7391 21.15 11.1305 21.15L8.29574 18.05L5.46102 21.15C5.85235 21.15 6.1697 21.4102 6.1697 21.7313V22.8938Z" fill="#D7210A"/>
<path d="M19.8848 3.0375C22.6202 3.0375 24.8455 4.86274 24.8455 7.10625V7.6875H24.1369C23.8684 7.6875 23.6231 7.81188 23.503 8.00881C23.383 8.20574 23.4089 8.44138 23.5699 8.6175L27.822 13.2675C27.9559 13.4139 28.1659 13.5 28.389 13.5C28.612 13.5 28.822 13.4139 28.9559 13.2675L33.208 8.6175C33.369 8.44138 33.395 8.20574 33.2749 8.00881C33.1548 7.81188 32.9095 7.6875 32.641 7.6875H31.9324V7.10625C31.9324 6.94954 31.9238 6.79127 31.9068 6.63578C31.8721 6.31604 31.5278 6.08005 31.1379 6.10853C30.7481 6.13707 30.4603 6.41944 30.4952 6.73919C30.5083 6.86038 30.515 6.98389 30.515 7.10619V8.26869C30.515 8.58971 30.8323 8.84994 31.2237 8.84994L28.389 11.9499L25.5542 8.85C25.9456 8.85 26.2629 8.58977 26.2629 8.26875V7.10625C26.2629 5.46468 25.3363 3.99732 23.8895 3.0375H25.5542C26.121 3.0375 26.6764 3.1151 27.2051 3.26814C27.5745 3.3748 27.979 3.21612 28.1092 2.9134C28.2395 2.61069 28.0459 2.27868 27.6768 2.17184C26.9962 1.97486 26.2821 1.875 25.5542 1.875H19.8848C19.4934 1.875 19.1761 2.13523 19.1761 2.45625C19.1761 2.77727 19.4934 3.0375 19.8848 3.0375Z" fill="#D7210A"/>
<path d="M30.4316 4.87495C30.8921 4.87495 31.2653 4.53918 31.2653 4.12498C31.2653 3.71078 30.8921 3.375 30.4316 3.375C29.9712 3.375 29.5979 3.71078 29.5979 4.12498C29.5979 4.53918 29.9712 4.87495 30.4316 4.87495Z" stroke="#D7210A" stroke-width="3"/>
</svg>
