<svg width="45" height="39" viewBox="0 0 45 39" fill="none" xmlns="http://www.w3.org/2000/svg">
<g clip-path="url(#clip0)">
<path d="M15.5042 7.80054C15.2549 7.80054 15.0529 7.95408 15.0529 8.14347V12.9447H13.8602V8.14347C13.8602 7.95408 13.6582 7.80054 13.4089 7.80054C13.1597 7.80054 12.9577 7.95408 12.9577 8.14347V12.9447H11.7915V8.14347C11.7915 7.95408 11.5896 7.80054 11.3403 7.80054C11.091 7.80054 10.8891 7.95408 10.8891 8.14347V12.9447H9.69397V8.14347C9.69397 7.95408 9.492 7.80054 9.24274 7.80054C8.99348 7.80054 8.7915 7.95408 8.7915 8.14347V15.2038C8.7915 15.9332 9.30868 16.6117 10.1411 16.9746L10.8891 17.3008V19.404C10.5877 19.6718 10.4181 20.0165 10.4181 20.3711V20.7223C10.4181 20.935 10.5151 21.1309 10.6771 21.2856C10.515 21.4404 10.4181 21.6363 10.4181 21.849V27.2137C10.4181 27.4031 10.6201 27.5567 10.8693 27.5567C11.1186 27.5567 11.3206 27.4031 11.3206 27.2137V21.849C11.3206 21.7274 11.4507 21.6285 11.6106 21.6285H13.1363C13.2962 21.6285 13.4263 21.7274 13.4263 21.849V29.7145C13.4263 30.1557 12.9539 30.5147 12.3734 30.5147C11.7929 30.5147 11.3205 30.1557 11.3205 29.7145V28.8104C11.3205 28.6211 11.1185 28.4675 10.8693 28.4675C10.62 28.4675 10.418 28.6211 10.418 28.8104V29.7145C10.418 30.5339 11.2952 31.2005 12.3734 31.2005C13.4516 31.2005 14.3287 30.5339 14.3287 29.7145V21.849C14.3287 21.6362 14.2317 21.4404 14.0697 21.2856C14.2318 21.1308 14.3287 20.935 14.3287 20.7222V20.3711C14.3287 20.0175 14.1599 19.6735 13.8601 19.406V17.3006L14.6069 16.9747C15.4386 16.6116 15.9553 15.9333 15.9553 15.2043L15.9554 8.14347C15.9554 7.95408 15.7534 7.80054 15.5042 7.80054V7.80054ZM15.0529 15.2043C15.0529 15.6884 14.7098 16.1388 14.1574 16.3799L13.1842 16.8047C13.044 16.8659 12.9576 16.9793 12.9576 17.1021V19.542C12.9576 19.636 13.0085 19.7259 13.0982 19.7907C13.3098 19.9433 13.4263 20.1495 13.4263 20.3711V20.7222C13.4263 20.8438 13.2962 20.9427 13.1363 20.9427H11.6106C11.4507 20.9427 11.3206 20.8438 11.3206 20.7222V20.3711C11.3206 20.1489 11.4377 19.9423 11.6503 19.7895C11.7405 19.7247 11.7915 19.6346 11.7915 19.5403V17.1021C11.7915 16.9793 11.705 16.8658 11.5648 16.8047L10.5902 16.3797C10.0374 16.1388 9.69397 15.6881 9.69397 15.2038V13.6306H15.0528V15.2043H15.0529Z" fill="#D7210A"/>
<path d="M24.1357 13.5495C24.1357 14.2472 23.9342 14.7905 23.5684 15.0792C23.2194 15.3545 22.6863 15.4124 22.3005 15.4124C21.9148 15.4124 21.3816 15.3546 21.0327 15.0791C20.6669 14.7905 20.4655 14.2473 20.4655 13.5495C20.4655 13.3601 20.2635 13.2065 20.0142 13.2065C19.765 13.2065 19.563 13.3601 19.563 13.5495C19.563 14.4383 19.8464 15.1318 20.3827 15.5549C20.9516 16.0039 21.7397 16.0982 22.3005 16.0982C22.8614 16.0982 23.6494 16.0039 24.2185 15.5549C24.7547 15.1317 25.0381 14.4383 25.0381 13.5495C25.0381 13.3601 24.8362 13.2065 24.5869 13.2065C24.3376 13.2065 24.1357 13.3601 24.1357 13.5495Z" fill="#D7210A"/>
<path d="M22.3008 7.80005C21.0744 7.80005 19.906 8.4936 19.0108 9.75291C18.2265 10.8563 17.7583 12.2756 17.7583 13.5495C17.7583 15.5011 18.8671 16.8544 20.8164 17.3079V19.4035C20.5151 19.6713 20.3455 20.016 20.3455 20.3706V20.7217C20.3455 20.9344 20.4424 21.1303 20.6045 21.2851C20.4424 21.4398 20.3454 21.6357 20.3454 21.8484V29.7139C20.3454 30.5333 21.2226 31.2 22.3008 31.2C23.379 31.2 24.2561 30.5333 24.2561 29.7139V24.6334C24.2561 24.444 24.0541 24.2904 23.8049 24.2904C23.5556 24.2904 23.3536 24.444 23.3536 24.6334V29.714C23.3536 30.1552 22.8813 30.5142 22.3008 30.5142C21.7202 30.5142 21.2479 30.1552 21.2479 29.714V21.8485C21.2479 21.7269 21.378 21.628 21.5379 21.628H23.0636C23.2235 21.628 23.3536 21.7269 23.3536 21.8485V23.0521C23.3536 23.2415 23.5556 23.3951 23.8048 23.3951C24.0541 23.3951 24.2561 23.2415 24.2561 23.0521V21.8485C24.2561 21.6358 24.1591 21.4399 23.997 21.2851C24.1591 21.1304 24.2561 20.9345 24.2561 20.7218V20.3706C24.2561 20.017 24.0873 19.6731 23.7874 19.4056V17.3074C25.7353 16.8534 26.8432 15.5003 26.8432 13.5496C26.8432 12.2756 26.375 10.8563 25.5907 9.75296C24.6955 8.4936 23.5272 7.80005 22.3008 7.80005V7.80005ZM23.238 16.7088C23.0316 16.7438 22.885 16.8829 22.885 17.0435V19.5415C22.885 19.6356 22.9359 19.7255 23.0256 19.7902C23.2372 19.9429 23.3537 20.149 23.3537 20.3706V20.7218C23.3537 20.8433 23.2236 20.9422 23.0637 20.9422H21.538C21.3781 20.9422 21.248 20.8433 21.248 20.7218V20.3706C21.248 20.1484 21.3651 19.9419 21.5777 19.789C21.6678 19.7242 21.7189 19.6341 21.7189 19.5399V17.0439C21.7189 16.8833 21.5722 16.7441 21.3658 16.7092C19.6215 16.4139 18.6608 15.2918 18.6608 13.5496C18.6608 12.3842 19.0885 11.0868 19.8049 10.079C20.5245 9.06654 21.4342 8.48592 22.3008 8.48592C23.1674 8.48592 24.0771 9.06654 24.7967 10.0789C25.5131 11.0867 25.9408 12.3842 25.9408 13.5495C25.9408 15.2911 24.9809 16.4131 23.238 16.7088Z" fill="#D7210A"/>
<path d="M33.8399 22.1996C33.8399 21.8459 33.6711 21.502 33.3712 21.2346V12.7152C33.3712 12.5258 33.1692 12.3722 32.92 12.3722C32.6707 12.3722 32.4688 12.5258 32.4688 12.7152V21.3705C32.4688 21.4645 32.5196 21.5544 32.6094 21.6192C32.821 21.7718 32.9374 21.9779 32.9374 22.1996V22.5507C32.9374 22.6722 32.8074 22.7711 32.6474 22.7711H31.1218C30.9619 22.7711 30.8317 22.6722 30.8317 22.5507V22.1996C30.8317 21.9774 30.9488 21.7708 31.1614 21.618C31.2516 21.5532 31.3027 21.4631 31.3027 21.3688V19.7532C31.3027 19.5639 31.1007 19.4103 30.8515 19.4103H29.7955V11.3561C29.7955 10.0664 30.8919 8.95572 32.4688 8.57734V11.1488C32.4688 11.3382 32.6708 11.4917 32.92 11.4917C33.1693 11.4917 33.3713 11.3382 33.3713 11.1488V8.143C33.3713 8.04209 33.3128 7.94634 33.2115 7.88114C33.11 7.81598 32.976 7.78804 32.8452 7.80482C30.5552 8.09764 28.8931 9.59116 28.8931 11.3561V19.7533C28.8931 19.9427 29.095 20.0963 29.3443 20.0963H30.4003V21.2325C30.0989 21.5003 29.9293 21.845 29.9293 22.1997V22.5508C29.9293 22.7635 30.0263 22.9594 30.1883 23.1142C30.0263 23.2689 29.9293 23.4648 29.9293 23.6775V29.7141C29.9293 30.5334 30.8065 31.2001 31.8847 31.2001C32.9629 31.2001 33.84 30.5334 33.84 29.7141V23.6775C33.84 23.4647 33.743 23.2689 33.581 23.1141C33.7431 22.9593 33.84 22.7635 33.84 22.5507V22.1996H33.8399ZM32.9374 29.714C32.9374 30.1552 32.4651 30.5142 31.8846 30.5142C31.304 30.5142 30.8317 30.1552 30.8317 29.714V23.6775C30.8317 23.556 30.9618 23.4571 31.1217 23.4571H32.6474C32.8073 23.4571 32.9374 23.556 32.9374 23.6775V29.714H32.9374Z" fill="#D7210A"/>
</g>
<path d="M44.5 19.5C44.5 29.9286 34.7198 38.5 22.5 38.5C10.2802 38.5 0.5 29.9286 0.5 19.5C0.5 9.07137 10.2802 0.5 22.5 0.5C34.7198 0.5 44.5 9.07137 44.5 19.5Z" stroke="#D7210A"/>
<defs>
<clipPath id="clip0">
<rect width="30.7895" height="23.4" fill="white" transform="translate(5.9209 7.80005)"/>
</clipPath>
</defs>
</svg>
