<svg width="42" height="27" viewBox="0 0 42 27" fill="none" xmlns="http://www.w3.org/2000/svg">
<path d="M41.3438 3.79688H0.65625C0.293836 3.79688 0 3.98577 0 4.21875V6.75C0 6.98298 0.293836 7.17188 0.65625 7.17188H2.625V22.7812C2.625 23.0142 2.91884 23.2031 3.28125 23.2031H5.90625C6.26866 23.2031 6.5625 23.0142 6.5625 22.7812V7.17188H35.4375V22.7812C35.4375 23.0142 35.7313 23.2031 36.0938 23.2031H38.7188C39.0812 23.2031 39.375 23.0142 39.375 22.7812V7.17188H41.3438C41.7062 7.17188 42 6.98298 42 6.75V4.21875C42 3.98577 41.7062 3.79688 41.3438 3.79688ZM40.6875 6.32812H38.7188C38.3563 6.32812 38.0625 6.51702 38.0625 6.75V22.3594H36.75V6.75C36.75 6.51702 36.4562 6.32812 36.0938 6.32812H5.90625C5.54384 6.32812 5.25 6.51702 5.25 6.75V22.3594H3.9375V6.75C3.9375 6.51702 3.64366 6.32812 3.28125 6.32812H1.3125V4.64062H40.6875V6.32812Z" fill="#D7210A"/>
</svg>
