<svg width="40" height="36" viewBox="0 0 40 36" fill="none" xmlns="http://www.w3.org/2000/svg">
<path d="M14.5757 14.5464C14.4305 14.4156 14.2289 14.3411 14.0234 14.3411C13.818 14.3411 13.6164 14.4156 13.4711 14.5464C13.3257 14.6779 13.2422 14.8586 13.2422 15.0442C13.2422 15.2291 13.3258 15.4098 13.4711 15.5413C13.6164 15.6721 13.818 15.7473 14.0234 15.7473C14.2289 15.7473 14.4305 15.6721 14.5757 15.5413C14.7211 15.4098 14.8047 15.2291 14.8047 15.0442C14.8047 14.8586 14.721 14.6771 14.5757 14.5464Z" fill="#D7210A"/>
<path d="M39.2188 8.43726C38.7873 8.43726 38.4375 8.75204 38.4375 9.14038V19.5437H27.9688C27.5373 19.5437 27.1875 19.8585 27.1875 20.2468V23.6218V30.2322C27.1875 30.6205 27.5373 30.9353 27.9688 30.9353C28.4002 30.9353 28.75 30.6205 28.75 30.2322V24.3249H38.4375V30.2322C38.4375 30.6205 38.7873 30.9353 39.2188 30.9353C39.6502 30.9353 40 30.6205 40 30.2322V23.6218V20.2468V9.14038C40 8.75197 39.6502 8.43726 39.2188 8.43726ZM38.4375 22.9186H28.75V20.9499H38.4375V22.9186Z" fill="#D7210A"/>
<path d="M12.0312 19.5436H1.5625V9.14038C1.5625 8.75204 1.21266 8.43726 0.78125 8.43726C0.349844 8.43726 0 8.75204 0 9.14038V20.2468V23.6218V30.2322C0 30.6205 0.349844 30.9353 0.78125 30.9353C1.21266 30.9353 1.5625 30.6205 1.5625 30.2322V24.3249H11.25V30.2322C11.25 30.6205 11.5998 30.9353 12.0312 30.9353C12.4627 30.9353 12.8125 30.6205 12.8125 30.2322V23.6218V20.2468C12.8125 19.8585 12.4627 19.5436 12.0312 19.5436ZM11.25 22.9186H1.5625V20.9499H11.25V22.9186Z" fill="#D7210A"/>
<path d="M29.5312 10.9655H28.75V9.72501C29.6593 9.43476 30.3125 8.65324 30.3125 7.73657V5.76782C30.3125 5.37949 29.9627 5.0647 29.5312 5.0647H26.4062C25.9748 5.0647 25.625 5.37949 25.625 5.76782V7.73657C25.625 8.65317 26.2782 9.43476 27.1875 9.72501V10.9655H23.7479C24.2395 10.3775 24.5312 9.64696 24.5312 8.85616C24.5312 8.46782 24.1814 8.15303 23.75 8.15303H16.25C15.8186 8.15303 15.4688 8.46782 15.4688 8.85616C15.4688 9.64696 15.7605 10.3775 16.2521 10.9655H12.8125V9.72501C13.7218 9.43476 14.375 8.65324 14.375 7.73657V5.76782C14.375 5.37949 14.0252 5.0647 13.5938 5.0647H10.4688C10.0373 5.0647 9.6875 5.37949 9.6875 5.76782V7.73657C9.6875 8.65317 10.3407 9.43476 11.25 9.72501V10.9655H10.4688C9.00406 10.9655 7.8125 12.0379 7.8125 13.3562C7.8125 14.6744 9.00406 15.7468 10.4688 15.7468H10.8984C11.3298 15.7468 11.6797 15.432 11.6797 15.0437C11.6797 14.6553 11.3298 14.3405 10.8984 14.3405H10.4688C9.86562 14.3405 9.375 13.899 9.375 13.3562C9.375 12.8133 9.86562 12.3718 10.4688 12.3718H19.375H20.625H29.5312C30.1344 12.3718 30.625 12.8133 30.625 13.3562C30.625 13.899 30.1344 14.3405 29.5312 14.3405H21.5625H18.4375H16.9141C16.4827 14.3405 16.1328 14.6553 16.1328 15.0437C16.1328 15.432 16.4827 15.7468 16.9141 15.7468H17.6562V26.9701C16.2262 27.4942 15.2152 28.7581 15.2152 30.2312C15.2152 30.6195 15.565 30.9343 15.9964 30.9343H24.0234C24.4548 30.9343 24.8047 30.6195 24.8047 30.2312C24.8047 28.7513 23.7842 27.4827 22.3438 26.963V15.7468H29.5312C30.9959 15.7468 32.1875 14.6744 32.1875 13.3562C32.1875 12.0379 30.9959 10.9655 29.5312 10.9655ZM12.058 8.43836C12.0491 8.43808 12.0403 8.43717 12.0312 8.43717C12.0222 8.43717 12.0134 8.43808 12.0045 8.43836C11.5862 8.42549 11.25 8.11605 11.25 7.73643V6.47081H12.8125V7.73643C12.8125 8.11605 12.4763 8.42549 12.058 8.43836ZM20.625 10.9655H19.375C18.3565 10.9655 17.4876 10.3778 17.1652 9.55928H22.8348C22.5124 10.3778 21.6435 10.9655 20.625 10.9655ZM27.9955 8.43836C27.9866 8.43808 27.9778 8.43717 27.9688 8.43717C27.9597 8.43717 27.9509 8.43808 27.942 8.43836C27.5237 8.42549 27.1875 8.11605 27.1875 7.73643V6.47081H28.75V7.73643C28.75 8.11605 28.4138 8.42549 27.9955 8.43836ZM19.2188 15.7468H20.7812V26.6921H19.2188V15.7468ZM23.1086 29.528H16.9113C17.2339 28.707 18.1049 28.1173 19.1263 28.1173H20.8936C21.9149 28.1173 22.7859 28.707 23.1086 29.528Z" fill="#D7210A"/>
</svg>
