<svg width="47" height="34" viewBox="0 0 47 34" fill="none" xmlns="http://www.w3.org/2000/svg">
<g clip-path="url(#clip0)">
<path d="M46.4511 16.1765H7.37703C7.05199 16.1765 6.78856 16.3671 6.78856 16.6022C6.78856 16.8374 7.05199 17.0279 7.37703 17.0279H45.813C45.5238 18.2402 44.0715 19.1262 42.3709 19.1278H4.70917C3.0086 19.1265 1.55582 18.2402 1.26711 17.0279H4.39517C4.7202 17.0279 4.98363 16.8374 4.98363 16.6022C5.00662 9.90314 11.8342 4.23536 21.0046 3.30249C21.0106 3.30249 21.0147 3.29816 21.0207 3.29816C21.2745 3.29816 21.4211 3.16413 21.4211 2.38358C21.4211 1.53717 22.3695 0.851064 23.5396 0.851064C24.7096 0.851064 25.6581 1.53717 25.6581 2.38358C25.6581 2.39322 25.6558 2.40287 25.6553 2.41251C24.9528 2.35631 24.2467 2.32804 23.54 2.32704C23.215 2.32704 22.9516 2.51761 22.9516 2.75274C22.9516 2.98787 23.215 3.17844 23.54 3.17844C32.7964 3.19606 40.6285 8.1305 41.9231 14.7608C41.9631 14.9713 42.2114 15.1282 42.5052 15.1286C42.5323 15.1286 42.5594 15.1273 42.5861 15.1246C42.9079 15.0927 43.1332 14.8778 43.089 14.645C41.8831 8.47804 35.308 3.58119 26.8216 2.53024C26.8262 2.48169 26.8354 2.43213 26.8354 2.38391C26.8354 1.06724 25.3601 0 23.54 0C21.7199 0 20.2446 1.06724 20.2446 2.38391C20.2446 2.43114 20.2534 2.47969 20.258 2.52725C10.9942 3.67697 4.1253 9.38066 3.82049 16.1765H0.628992C0.303957 16.1765 0.0405273 16.3671 0.0405273 16.6022C0.0437455 18.4663 2.13234 19.9772 4.70917 19.9792H13.1909C15.4151 23.9462 15.1287 28.0209 14.9756 29.2425H14.3434C13.2667 29.2435 12.3941 29.8747 12.3928 30.6536V33.5743C12.3928 33.8094 12.6562 34 12.9812 34H26.8354C27.1605 34 27.4239 33.8094 27.4239 33.5743C27.4239 33.3391 27.1605 33.1486 26.8354 33.1486H13.5692V30.6523C13.5697 30.3433 13.9159 30.0929 14.343 30.0925H28.7273C29.1548 30.0929 29.501 30.3433 29.5015 30.6523V33.573C29.5015 33.8081 29.7649 33.9986 30.0899 33.9986C30.415 33.9986 30.6784 33.8081 30.6784 33.573V30.6523C30.677 29.8734 29.8044 29.2421 28.7273 29.2411H28.5002C31.8921 26.5662 36.2895 21.7555 36.7419 19.9779H42.3709C44.9482 19.9759 47.0363 18.465 47.0396 16.6009C47.0386 16.3664 46.7752 16.1765 46.4511 16.1765ZM26.8722 29.2411H16.1608C16.5309 26.1006 15.9502 22.9395 14.4588 19.9779H15.0193C16.233 19.9795 17.3373 20.4864 17.8568 21.2803C18.5988 22.3861 19.2084 23.5361 19.6796 24.7171C19.7909 25.0616 20.1403 25.34 20.6037 25.4531C23.2297 26.1292 31.2747 21.9793 32.8911 21.1226C33.6846 20.639 34.594 20.2656 35.5746 20.0205C35.0404 21.4159 30.6715 26.5243 26.8722 29.2411ZM32.1647 20.4511C28.4284 22.428 22.4941 25.0364 20.9977 24.6509C20.9025 24.632 20.8322 24.5738 20.8179 24.5029C20.3301 23.2714 19.6971 22.0728 18.9266 20.9194C18.6921 20.5645 18.3661 20.2456 17.9662 19.9792H33.0497C32.5753 20.2084 32.2401 20.4049 32.1647 20.4511Z" fill="#D7210A"/>
<path d="M24.3248 5.59058C23.9998 5.59058 23.7363 5.78114 23.7363 6.01628C23.7363 6.25141 23.9998 6.44198 24.3248 6.44198C24.6222 6.44198 24.9174 6.44896 25.2103 6.46259H25.2489C25.5739 6.47024 25.8456 6.28566 25.8562 6.05053C25.8668 5.8154 25.6116 5.61885 25.2866 5.6112C24.9698 5.59756 24.6489 5.59058 24.3248 5.59058Z" fill="#D7210A"/>
<path d="M28.1494 5.95629C27.9448 5.91305 27.7241 5.95329 27.5724 6.06138C27.4207 6.16947 27.3614 6.32844 27.417 6.47677C27.4731 6.62543 27.6358 6.7405 27.8423 6.77808C31.5349 7.5031 34.6271 9.32928 36.3483 11.8013C36.4982 12.0059 36.8472 12.0863 37.1331 11.9822C37.4195 11.8778 37.5377 11.6271 37.3993 11.4182C35.5273 8.73031 32.1647 6.74449 28.1494 5.95629Z" fill="#D7210A"/>
</g>
<defs>
<clipPath id="clip0">
<rect width="47" height="34" fill="white"/>
</clipPath>
</defs>
</svg>
