<svg width="40" height="30" viewBox="0 0 40 30" fill="none" xmlns="http://www.w3.org/2000/svg">
<path d="M38.75 26.4844V3.51562C38.749 2.8321 38.3865 2.17678 37.7421 1.69345C37.0976 1.21013 36.2239 0.93826 35.3125 0.9375H4.6875C3.77613 0.93826 2.90238 1.21013 2.25794 1.69345C1.6135 2.17678 1.25101 2.8321 1.25 3.51562V26.4844C1.25101 27.1679 1.6135 27.8232 2.25794 28.3065C2.90238 28.7899 3.77613 29.0617 4.6875 29.0625H35.3125C36.2239 29.0617 37.0976 28.7899 37.7421 28.3065C38.3865 27.8232 38.749 27.1679 38.75 26.4844ZM2.5 3.51562C2.50066 3.08066 2.73134 2.66365 3.14143 2.35608C3.55153 2.04851 4.10754 1.8755 4.6875 1.875H35.3125C35.8925 1.8755 36.4485 2.04851 36.8586 2.35608C37.2687 2.66365 37.4993 3.08066 37.5 3.51562V5.625H2.5V3.51562ZM2.5 26.4844V6.5625H37.5V26.4844C37.4993 26.9193 37.2687 27.3364 36.8586 27.6439C36.4485 27.9515 35.8925 28.1245 35.3125 28.125H4.6875C4.10754 28.1245 3.55153 27.9515 3.14143 27.6439C2.73134 27.3364 2.50066 26.9193 2.5 26.4844Z" fill="#D7210A"/>
<path d="M36.25 26.7188V7.96875C36.25 7.84443 36.1842 7.7252 36.0669 7.63729C35.9497 7.54939 35.7908 7.5 35.625 7.5H4.375C4.20924 7.5 4.05027 7.54939 3.93306 7.63729C3.81585 7.7252 3.75 7.84443 3.75 7.96875V26.7188C3.75 26.8431 3.81585 26.9623 3.93306 27.0502C4.05027 27.1381 4.20924 27.1875 4.375 27.1875H35.625C35.7908 27.1875 35.9497 27.1381 36.0669 27.0502C36.1842 26.9623 36.25 26.8431 36.25 26.7188ZM5 15.9375H35V16.875H5V15.9375ZM18.125 14.0625C18.2908 14.0625 18.4497 14.1119 18.5669 14.1998C18.6842 14.2877 18.75 14.4069 18.75 14.5312C18.75 14.6556 18.6842 14.7748 18.5669 14.8627C18.4497 14.9506 18.2908 15 18.125 15H17.5V14.0625H18.125ZM16.25 15H14.8925C14.9926 14.7879 15.0234 14.5609 14.9823 14.338C14.9412 14.1152 14.8293 13.9029 14.6561 13.7192C14.4829 13.5355 14.2535 13.3857 13.9871 13.2823C13.7206 13.1789 13.425 13.1249 13.125 13.125H12.6075C12.7551 12.8124 13.0452 12.5489 13.4266 12.3812C13.8081 12.2135 14.2563 12.1522 14.6921 12.2083C15.1279 12.2644 15.5232 12.4342 15.8083 12.6877C16.0934 12.9412 16.2498 13.2621 16.25 13.5938V15ZM12.5 14.0625H13.125C13.2908 14.0625 13.4497 14.1119 13.5669 14.1998C13.6842 14.2877 13.75 14.4069 13.75 14.5312C13.75 14.6556 13.6842 14.7748 13.5669 14.8627C13.4497 14.9506 13.2908 15 13.125 15H12.5V14.0625ZM11.25 15H7.5V13.5938C7.5 13.2208 7.69754 12.8631 8.04917 12.5994C8.40081 12.3357 8.87772 12.1875 9.375 12.1875C9.87228 12.1875 10.3492 12.3357 10.7008 12.5994C11.0525 12.8631 11.25 13.2208 11.25 13.5938V15ZM22.5656 15L23.0656 11.25H25.6844L26.1844 15H22.5656ZM28.8156 15L29.3156 11.25H31.9344L32.4344 15H28.8156ZM35 8.4375V15H33.6906L33.1219 10.7344C33.1064 10.6188 33.0342 10.5116 32.9193 10.4336C32.8044 10.3557 32.6549 10.3125 32.5 10.3125H28.75C28.5951 10.3125 28.4456 10.3557 28.3307 10.4336C28.2158 10.5116 28.1436 10.6188 28.1281 10.7344L27.5594 15H27.4406L26.8719 10.7344C26.8564 10.6188 26.7842 10.5116 26.6693 10.4336C26.5544 10.3557 26.4049 10.3125 26.25 10.3125H22.5C22.3451 10.3125 22.1956 10.3557 22.0807 10.4336C21.9658 10.5116 21.8936 10.6188 21.8781 10.7344L21.3094 15H19.8925C19.9926 14.7879 20.0234 14.5609 19.9823 14.338C19.9412 14.1152 19.8293 13.9029 19.6561 13.7192C19.4829 13.5355 19.2535 13.3857 18.9871 13.2823C18.7206 13.1789 18.425 13.1249 18.125 13.125H17.4375C17.3173 12.6822 17.0289 12.275 16.6071 11.9523C16.1853 11.6297 15.6481 11.4054 15.0602 11.3065C14.4723 11.2076 13.8589 11.2383 13.2937 11.3949C12.7286 11.5515 12.2359 11.8273 11.875 12.1891C11.4819 11.7952 10.9335 11.5041 10.3074 11.3571C9.68139 11.21 9.00951 11.2145 8.38708 11.37C7.76464 11.5254 7.22325 11.8238 6.83966 12.223C6.45607 12.6221 6.24977 13.1017 6.25 13.5938V15H5V8.4375H35ZM26.875 22.5C26.5436 22.5003 26.2259 22.5992 25.9916 22.7749C25.7572 22.9507 25.6254 23.1889 25.625 23.4375V23.7794C25.459 23.7076 25.3173 23.6081 25.2108 23.4886C25.1043 23.3692 25.0359 23.2329 25.0108 23.0905C24.9858 22.948 25.0048 22.8031 25.0664 22.667C25.1279 22.5309 25.2304 22.4073 25.3659 22.3057C25.5014 22.2041 25.6663 22.1272 25.8477 22.081C26.0291 22.0348 26.2223 22.0206 26.4123 22.0394C26.6023 22.0582 26.7839 22.1095 26.9432 22.1894C27.1025 22.2692 27.2351 22.3755 27.3309 22.5H26.875ZM27.3309 23.4375C27.2211 23.5792 27.0639 23.697 26.875 23.7794V23.4375H27.3309ZM26.875 26.216V24.7844C27.307 24.7 27.7012 24.5307 28.0169 24.2939C28.3326 24.0572 28.5583 23.7615 28.6709 23.4375H30.5796C30.4433 24.138 30.0091 24.7869 29.3416 25.2875C28.6741 25.7881 27.809 26.1137 26.875 26.216ZM28.6709 22.5C28.5606 22.1799 28.3395 21.8874 28.03 21.6521C27.7204 21.4168 27.3334 21.2471 26.9082 21.1601C26.483 21.0731 26.0347 21.072 25.6087 21.1568C25.1827 21.2416 24.7942 21.4094 24.4826 21.6432C24.1709 21.8769 23.9472 22.1683 23.8341 22.4878C23.721 22.8073 23.7225 23.1435 23.8384 23.4624C23.9544 23.7813 24.1808 24.0716 24.4945 24.3037C24.8083 24.5359 25.1983 24.7017 25.625 24.7844V26.216C24.8213 26.129 24.0657 25.8761 23.4428 25.4854C22.8199 25.0947 22.3543 24.5818 22.098 24.0039C21.8417 23.426 21.8049 22.806 21.9918 22.2134C22.1786 21.6207 22.5816 21.0787 23.1558 20.6481C23.73 20.2175 24.4526 19.9152 25.2428 19.7751C26.0331 19.635 26.8597 19.6625 27.6302 19.8547C28.4007 20.047 29.0847 20.3962 29.6056 20.8634C30.1265 21.3305 30.4637 21.8972 30.5796 22.5H28.6709ZM20.625 22.9688C20.625 23.5972 20.8125 24.2177 21.1738 24.7848C21.5351 25.3519 22.061 25.8511 22.713 26.2459C22.6422 26.2485 22.5713 26.25 22.5 26.25C21.3397 26.25 20.2269 25.9043 19.4064 25.2889C18.5859 24.6736 18.125 23.839 18.125 22.9688C18.125 22.0985 18.5859 21.2639 19.4064 20.6486C20.2269 20.0332 21.3397 19.6875 22.5 19.6875C22.5714 19.6875 22.6426 19.6888 22.7134 19.6913C22.0613 20.0861 21.5353 20.5854 21.1739 21.1525C20.8126 21.7196 20.625 22.3402 20.625 22.9688ZM16.875 22.9688C16.875 23.5972 17.0625 24.2177 17.4237 24.7847C17.785 25.3517 18.3108 25.851 18.9627 26.2458C18.892 26.2483 18.8212 26.25 18.75 26.25C17.5897 26.25 16.4769 25.9043 15.6564 25.2889C14.8359 24.6736 14.375 23.839 14.375 22.9688C14.375 22.0985 14.8359 21.2639 15.6564 20.6486C16.4769 20.0332 17.5897 19.6875 18.75 19.6875C18.8214 19.6875 18.8926 19.6888 18.9634 19.6913C18.3113 20.0861 17.7853 20.5854 17.4239 21.1525C17.0626 21.7196 16.875 22.3402 16.875 22.9688ZM13.125 22.9688C13.125 23.5973 13.3125 24.2178 13.6739 24.7849C14.0352 25.3521 14.5612 25.8513 15.2133 26.2461C15.1424 26.2487 15.0714 26.25 15 26.25C13.8397 26.25 12.7269 25.9043 11.9064 25.2889C11.0859 24.6736 10.625 23.839 10.625 22.9688C10.625 22.0985 11.0859 21.2639 11.9064 20.6486C12.7269 20.0332 13.8397 19.6875 15 19.6875C15.0712 19.6875 15.1422 19.689 15.213 19.6916C14.561 20.0864 14.0351 20.5856 13.6738 21.1527C13.3125 21.7198 13.125 22.3403 13.125 22.9688ZM9.375 22.9688C9.37491 23.594 9.5604 24.2113 9.91801 24.7761C10.2756 25.3408 10.7964 25.8388 11.4425 26.2338C10.3626 26.1531 9.3613 25.7743 8.63298 25.1709C7.90466 24.5675 7.50133 23.7827 7.50133 22.9688C7.50133 22.1548 7.90466 21.37 8.63298 20.7666C9.3613 20.1632 10.3626 19.7844 11.4425 19.7037C10.7964 20.0987 10.2756 20.5967 9.91801 21.1614C9.5604 21.7262 9.37491 22.3435 9.375 22.9688ZM29.7801 26.25C30.9339 25.5527 31.6741 24.5419 31.8395 23.4375H32.5V26.25H29.7801ZM33.75 26.25V23.4375C33.7496 23.1889 33.6178 22.9507 33.3834 22.7749C33.1491 22.5992 32.8314 22.5003 32.5 22.5H31.8395C31.7458 21.8688 31.4632 21.2616 31.0128 20.7238C30.5624 20.186 29.9558 19.7314 29.2384 19.3941C28.521 19.0567 27.7112 18.8453 26.8695 18.7755C26.0278 18.7057 25.176 18.7795 24.3777 18.9912C23.1644 18.6696 21.8409 18.6696 20.6277 18.9912C19.4141 18.6694 18.0902 18.6694 16.8766 18.9912C15.77 18.6974 14.5684 18.6711 13.4407 18.9159C12.1927 18.6441 10.8577 18.7048 9.66264 19.0879C8.46762 19.4709 7.48639 20.1525 6.88582 21.0169C6.28525 21.8813 6.10243 22.875 6.36843 23.829C6.63444 24.7831 7.33286 25.6386 8.34492 26.25H5V17.8125H35V26.25H33.75Z" fill="#D7210A"/>
<path d="M14.375 2.34375H5.625C5.45924 2.34375 5.30027 2.39314 5.18306 2.48104C5.06585 2.56895 5 2.68818 5 2.8125V4.6875C5 4.81182 5.06585 4.93105 5.18306 5.01896C5.30027 5.10686 5.45924 5.15625 5.625 5.15625H14.375C14.5408 5.15625 14.6997 5.10686 14.8169 5.01896C14.9342 4.93105 15 4.81182 15 4.6875V2.8125C15 2.68818 14.9342 2.56895 14.8169 2.48104C14.6997 2.39314 14.5408 2.34375 14.375 2.34375ZM13.75 4.21875H6.25V3.28125H13.75V4.21875Z" fill="#D7210A"/>
<path d="M23.125 2.34375C22.7542 2.34375 22.3917 2.42623 22.0833 2.58075C21.775 2.73527 21.5346 2.95489 21.3927 3.21185C21.2508 3.46881 21.2137 3.75156 21.286 4.02434C21.3584 4.29713 21.537 4.5477 21.7992 4.74437C22.0614 4.94104 22.3955 5.07497 22.7592 5.12923C23.1229 5.18349 23.4999 5.15564 23.8425 5.0492C24.1851 4.94277 24.478 4.76253 24.684 4.53127C24.89 4.30001 25 4.02813 25 3.75C24.9994 3.37717 24.8017 3.01974 24.4502 2.75611C24.0987 2.49248 23.6221 2.34418 23.125 2.34375ZM23.125 4.21875C23.0014 4.21875 22.8806 4.19126 22.7778 4.13975C22.675 4.08824 22.5949 4.01503 22.5476 3.92938C22.5003 3.84373 22.4879 3.74948 22.512 3.65855C22.5361 3.56762 22.5957 3.4841 22.6831 3.41854C22.7705 3.35299 22.8818 3.30834 23.0031 3.29026C23.1243 3.27217 23.25 3.28145 23.3642 3.31693C23.4784 3.35241 23.576 3.41249 23.6447 3.48958C23.7133 3.56666 23.75 3.65729 23.75 3.75C23.7498 3.87428 23.6839 3.99342 23.5667 4.0813C23.4496 4.16918 23.2907 4.21861 23.125 4.21875Z" fill="#D7210A"/>
<path d="M18.125 2.34375C17.7542 2.34375 17.3917 2.42623 17.0833 2.58075C16.775 2.73527 16.5346 2.95489 16.3927 3.21185C16.2508 3.46881 16.2137 3.75156 16.286 4.02434C16.3584 4.29713 16.537 4.5477 16.7992 4.74437C17.0614 4.94104 17.3955 5.07497 17.7592 5.12923C18.1229 5.18349 18.4999 5.15564 18.8425 5.0492C19.1851 4.94277 19.478 4.76253 19.684 4.53127C19.89 4.30001 20 4.02813 20 3.75C19.9994 3.37717 19.8017 3.01974 19.4502 2.75611C19.0987 2.49248 18.6221 2.34418 18.125 2.34375ZM18.125 4.21875C18.0014 4.21875 17.8806 4.19126 17.7778 4.13975C17.675 4.08824 17.5949 4.01503 17.5476 3.92938C17.5003 3.84373 17.4879 3.74948 17.512 3.65855C17.5361 3.56762 17.5957 3.4841 17.6831 3.41854C17.7705 3.35299 17.8818 3.30834 18.0031 3.29026C18.1243 3.27217 18.25 3.28145 18.3642 3.31693C18.4784 3.35241 18.576 3.41249 18.6447 3.48958C18.7134 3.56666 18.75 3.65729 18.75 3.75C18.7498 3.87428 18.6839 3.99342 18.5667 4.0813C18.4496 4.16918 18.2907 4.21861 18.125 4.21875Z" fill="#D7210A"/>
<path d="M33.125 2.34375C32.7542 2.34375 32.3917 2.42623 32.0833 2.58075C31.775 2.73527 31.5346 2.95489 31.3927 3.21185C31.2508 3.46881 31.2137 3.75156 31.286 4.02434C31.3584 4.29713 31.537 4.5477 31.7992 4.74437C32.0614 4.94104 32.3955 5.07497 32.7592 5.12923C33.1229 5.18349 33.4999 5.15564 33.8425 5.0492C34.1851 4.94277 34.478 4.76253 34.684 4.53127C34.89 4.30001 35 4.02813 35 3.75C34.9994 3.37717 34.8017 3.01974 34.4502 2.75611C34.0987 2.49248 33.6221 2.34418 33.125 2.34375ZM33.125 4.21875C33.0014 4.21875 32.8806 4.19126 32.7778 4.13975C32.675 4.08824 32.5949 4.01503 32.5476 3.92938C32.5003 3.84373 32.4879 3.74948 32.512 3.65855C32.5361 3.56762 32.5957 3.4841 32.6831 3.41854C32.7705 3.35299 32.8818 3.30834 33.0031 3.29026C33.1243 3.27217 33.25 3.28145 33.3642 3.31693C33.4784 3.35241 33.576 3.41249 33.6447 3.48958C33.7133 3.56666 33.75 3.65729 33.75 3.75C33.7498 3.87428 33.6839 3.99342 33.5667 4.0813C33.4496 4.16918 33.2907 4.21861 33.125 4.21875Z" fill="#D7210A"/>
<path d="M28.125 2.34375C27.7542 2.34375 27.3917 2.42623 27.0833 2.58075C26.775 2.73527 26.5346 2.95489 26.3927 3.21185C26.2508 3.46881 26.2137 3.75156 26.286 4.02434C26.3584 4.29713 26.537 4.5477 26.7992 4.74437C27.0614 4.94104 27.3955 5.07497 27.7592 5.12923C28.1229 5.18349 28.4999 5.15564 28.8425 5.0492C29.1851 4.94277 29.478 4.76253 29.684 4.53127C29.89 4.30001 30 4.02813 30 3.75C29.9994 3.37717 29.8017 3.01974 29.4502 2.75611C29.0987 2.49248 28.6221 2.34418 28.125 2.34375ZM28.125 4.21875C28.0014 4.21875 27.8806 4.19126 27.7778 4.13975C27.675 4.08824 27.5949 4.01503 27.5476 3.92938C27.5003 3.84373 27.4879 3.74948 27.512 3.65855C27.5361 3.56762 27.5957 3.4841 27.6831 3.41854C27.7705 3.35299 27.8818 3.30834 28.0031 3.29026C28.1243 3.27217 28.25 3.28145 28.3642 3.31693C28.4784 3.35241 28.576 3.41249 28.6447 3.48958C28.7133 3.56666 28.75 3.65729 28.75 3.75C28.7498 3.87428 28.6839 3.99342 28.5667 4.0813C28.4496 4.16918 28.2907 4.21861 28.125 4.21875Z" fill="#D7210A"/>
<path d="M8.125 10.3125H8.75C8.91576 10.3125 9.07473 10.2631 9.19194 10.1752C9.30915 10.0873 9.375 9.96807 9.375 9.84375C9.375 9.71943 9.30915 9.6002 9.19194 9.51229C9.07473 9.42439 8.91576 9.375 8.75 9.375H8.125C7.95924 9.375 7.80027 9.42439 7.68306 9.51229C7.56585 9.6002 7.5 9.71943 7.5 9.84375C7.5 9.96807 7.56585 10.0873 7.68306 10.1752C7.80027 10.2631 7.95924 10.3125 8.125 10.3125Z" fill="#D7210A"/>
<path d="M11.25 10.3125H13.75C13.9158 10.3125 14.0747 10.2631 14.1919 10.1752C14.3092 10.0873 14.375 9.96807 14.375 9.84375C14.375 9.71943 14.3092 9.6002 14.1919 9.51229C14.0747 9.42439 13.9158 9.375 13.75 9.375H11.25C11.0842 9.375 10.9253 9.42439 10.8081 9.51229C10.6908 9.6002 10.625 9.71943 10.625 9.84375C10.625 9.96807 10.6908 10.0873 10.8081 10.1752C10.9253 10.2631 11.0842 10.3125 11.25 10.3125Z" fill="#D7210A"/>
</svg>
