<svg width="43" height="36" viewBox="0 0 43 36" fill="none" xmlns="http://www.w3.org/2000/svg">
<path fill-rule="evenodd" clip-rule="evenodd" d="M5.51632 35.8245C5.23681 36.0585 4.78372 36.0585 4.50421 35.8245L0.209569 32.2286C-0.0698563 31.9946 -0.0698563 31.6152 0.209569 31.3812L4.80484 27.5336C4.38092 26.8176 4.54779 25.9552 5.21999 25.388L8.08308 22.9907C8.21729 22.8783 8.39932 22.8152 8.58914 22.8151H10.4401L13.0935 20.5917C13.373 20.3577 13.8261 20.3577 14.1056 20.5917L14.3153 20.7673L15.5321 19.7484C11.1243 14.3776 12.331 7.07923 18.3157 2.91309C24.3004 -1.25305 33.0907 -0.913949 38.5926 3.69529C44.0944 8.30453 44.4945 15.6649 39.5155 20.6736C34.5365 25.6823 25.8193 26.6886 19.4073 22.9949L18.1905 24.0138L18.401 24.1894C18.6804 24.4234 18.6804 24.8028 18.401 25.0368L15.2516 27.6738C15.5696 27.9921 15.7448 28.3934 15.7469 28.8083C15.7469 29.8013 14.7855 30.6063 13.5996 30.6063H13.4679C13.676 31.0762 13.6361 31.598 13.3582 32.0418C13.0803 32.4857 12.5905 32.81 12.0105 32.934C12.2793 33.4875 12.2009 34.1167 11.8015 34.6118C11.4021 35.107 10.7342 35.4028 10.0207 35.4008H7.15759C6.83872 35.3998 6.52427 35.3383 6.23782 35.221L5.51632 35.8245ZM7.15771 34.2023H10.0208C10.4161 34.2023 10.7366 33.934 10.7366 33.603C10.7366 33.272 10.4161 33.0037 10.0208 33.0037H7.15771C6.7624 33.0037 6.44193 33.272 6.44193 33.603C6.44193 33.934 6.7624 34.2023 7.15771 34.2023ZM11.4524 31.805H8.58931C8.194 31.805 7.87354 31.5367 7.87354 31.2057C7.87354 30.8747 8.194 30.6064 8.58931 30.6064H11.4524C11.8477 30.6064 12.1682 30.8747 12.1682 31.2057C12.1682 31.5367 11.8477 31.805 11.4524 31.805ZM10.7364 29.4076H13.5995C13.9948 29.4076 14.3153 29.1393 14.3153 28.8083C14.3153 28.4773 13.9948 28.209 13.5995 28.209H10.7364C10.3411 28.209 10.0207 28.4773 10.0207 28.8083C10.0207 29.1393 10.3411 29.4076 10.7364 29.4076ZM14.3155 12.6268C14.3155 6.33793 20.4043 1.23977 27.9152 1.23977C35.4261 1.23977 41.5149 6.33793 41.5149 12.6268C41.5149 18.9157 35.4261 24.0139 27.9152 24.0139C20.4077 24.0069 14.3238 18.9128 14.3155 12.6268ZM18.2609 22.2602C17.5918 21.7892 16.9725 21.2707 16.41 20.7104L15.3277 21.6166L17.1787 23.1664L18.2609 22.2602ZM6.23226 26.2355L8.88563 24.0138H11.4524C11.8477 24.0138 12.1682 24.2821 12.1682 24.6131C12.1682 24.9441 11.8477 25.2124 11.4524 25.2124H10.0209C9.83103 25.2125 9.649 25.2756 9.5148 25.388L7.36748 27.186C7.2173 27.3121 7.01327 27.3828 6.80058 27.3826C6.4759 27.3827 6.1831 27.219 6.05883 26.9679C5.93455 26.7167 6.00329 26.4276 6.23297 26.2355H6.23226ZM8.37945 28.0334C7.70626 28.6032 6.67059 28.7437 5.81697 28.381L1.72776 31.8049L5.0103 34.5528L5.22503 34.373C5.08494 34.1331 5.01153 33.8698 5.0103 33.6029C5.01444 32.7928 5.66508 32.085 6.59932 31.8744C6.33059 31.3209 6.409 30.6917 6.80838 30.1966C7.20777 29.7015 7.8756 29.4056 8.58917 29.4076H8.72087C8.6361 29.2157 8.59154 29.0129 8.58917 28.8083C8.58917 27.8153 9.55056 27.0104 10.7365 27.0104H13.5996C13.7276 27.0117 13.8553 27.0225 13.9811 27.0427L16.8821 24.6131L13.5996 21.8646L12.2926 22.959C13.2311 23.2937 13.7588 24.1352 13.5551 24.9722C13.3513 25.8091 12.4724 26.4105 11.4523 26.411H10.317L8.37945 28.0334Z" fill="#D7210A"/>
<path fill-rule="evenodd" clip-rule="evenodd" d="M40.0685 12.7316C40.0685 18.3083 34.5993 22.8292 27.8526 22.8292C21.1091 22.8229 15.6442 18.3057 15.6367 12.7316C15.6367 7.15487 21.106 2.63403 27.8526 2.63403C34.5993 2.63403 40.0685 7.15487 40.0685 12.7316ZM38.6312 12.7318C38.6312 7.81118 33.8054 3.82221 27.8524 3.82221C21.9023 3.82777 17.0804 7.81348 17.0737 12.7318C17.0737 17.6525 21.8995 21.6414 27.8524 21.6414C33.8054 21.6414 38.6312 17.6525 38.6312 12.7318Z" fill="#D7210A"/>
<path fill-rule="evenodd" clip-rule="evenodd" d="M28.3405 16.6828C25.6418 16.6828 23.4541 14.7173 23.4541 12.2926C23.4572 9.86907 25.6431 7.90511 28.3405 7.90234C31.0391 7.90234 33.2268 9.86792 33.2268 12.2926C33.2268 14.7173 31.0391 16.6828 28.3405 16.6828ZM28.3408 15.4287C30.2684 15.4287 31.8311 14.0247 31.8311 12.2928C31.8287 10.5618 30.2675 9.15898 28.3408 9.15691C26.4132 9.15691 24.8505 10.5609 24.8505 12.2928C24.8505 14.0247 26.4132 15.4287 28.3408 15.4287Z" fill="#D7210A"/>
<path d="M28.3414 5.6059V4.39014C23.4861 4.39516 19.5515 7.93026 19.5459 12.2926H20.899C20.9039 8.60143 24.2331 5.61025 28.3414 5.6059Z" fill="#D7210A"/>
<rect x="17.5908" y="14.0488" width="1.95455" height="0.878049" fill="#D7210A"/>
<rect x="19.5459" y="16.6829" width="1.95455" height="0.878049" fill="#D7210A"/>
</svg>
