<svg width="44" height="37" viewBox="0 0 44 37" fill="none" xmlns="http://www.w3.org/2000/svg">
<g clip-path="url(#clip0)">
<path d="M17.4212 14.1313C17.4212 13.832 17.1327 13.5894 16.7767 13.5894H8.62939C8.27336 13.5894 7.98486 13.832 7.98486 14.1313C7.98486 14.4307 8.27336 14.6733 8.62939 14.6733H16.7767C17.1327 14.6733 17.4212 14.4307 17.4212 14.1313Z" fill="#D7210A"/>
<path d="M9.91895 16.1643C9.56291 16.1643 9.27441 16.4069 9.27441 16.7063C9.27441 17.0057 9.56291 17.2483 9.91895 17.2483H15.4881C15.8442 17.2483 16.1327 17.0057 16.1327 16.7063C16.1327 16.4069 15.8442 16.1643 15.4881 16.1643H9.91895Z" fill="#D7210A"/>
<path d="M40.2593 13.3748C39.9032 13.3748 39.6147 13.6174 39.6147 13.9167V36.458C39.6147 36.7574 39.9032 37 40.2593 37C40.6153 37 40.9038 36.7574 40.9038 36.458V13.9167C40.9038 13.6174 40.6153 13.3748 40.2593 13.3748Z" fill="#D7210A"/>
<path d="M35.5179 0.0276777H29.4809C26.511 0.0276777 24.0949 2.05943 24.0949 4.55685V32.471C24.0949 33.2549 23.3365 33.8927 22.4043 33.8927H16.2414C15.3092 33.8927 14.5508 33.2549 14.5508 32.471V29.6911H15.8283C16.8957 29.6911 17.7641 28.9609 17.7641 28.0633V27.1342C20.3812 26.5273 22.3096 24.509 22.3096 22.1178V20.2515C22.3096 19.9521 22.0211 19.7095 21.665 19.7095C21.309 19.7095 21.0205 19.9521 21.0205 20.2515V22.1178C21.0205 24.3896 18.8226 26.2379 16.121 26.2379H9.28504C6.58342 26.2379 4.38557 24.3896 4.38557 22.1178V12.098H21.0204V18.0844C21.0204 18.3838 21.3089 18.6264 21.6649 18.6264C22.021 18.6264 22.3095 18.3838 22.3095 18.0844V11.9571C22.3095 11.4371 21.8064 11.014 21.188 11.014H20.9713V10.0792C20.9713 9.34756 20.2635 8.75231 19.3934 8.75231H18.285V1.55667C18.2851 0.698303 17.4547 0 16.4339 0C15.4132 0 14.5828 0.698303 14.5828 1.55667V8.75231H10.8235V1.55667C10.8235 0.698303 9.99308 0 8.9724 0C7.95163 0 7.12122 0.698303 7.12122 1.55667V3.21719C7.12122 3.51659 7.40971 3.75919 7.76575 3.75919C8.12179 3.75919 8.41028 3.51659 8.41028 3.21719V1.55667C8.41028 1.29608 8.66251 1.08398 8.9724 1.08398C9.28229 1.08398 9.53443 1.29608 9.53443 1.55667V8.75223H8.41028V5.38422C8.41028 5.08483 8.12179 4.84223 7.76575 4.84223C7.40971 4.84223 7.12122 5.08483 7.12122 5.38422V8.75231H6.01271C5.14268 8.75231 4.43481 9.34756 4.43481 10.0792V11.014H4.21816C3.59984 11.014 3.09668 11.437 3.09668 11.9571V22.1178C3.09668 24.509 5.02503 26.5273 7.64217 27.1342V28.0633C7.64217 28.9609 8.51048 29.6911 9.57791 29.6911H10.8555V32.4709C10.8555 34.9683 13.2717 37 16.2415 37H22.4043C25.3742 37 27.7903 34.9683 27.7903 32.4709V4.55685C27.7903 3.77284 28.5487 3.1351 29.481 3.1351H35.518C36.4502 3.1351 37.2086 3.77284 37.2086 4.55685V36.458C37.2086 36.7574 37.4971 37 37.8532 37C38.2092 37 38.4977 36.7574 38.4977 36.458V4.55685C38.4977 3.17521 37.161 2.05112 35.518 2.05112H29.481C27.8379 2.05112 26.5012 3.17521 26.5012 4.55685V32.471C26.5012 34.3706 24.6634 35.9161 22.4043 35.9161H16.2415C13.9825 35.9161 12.1446 34.3706 12.1446 32.471V29.6911H13.2618V32.4709C13.2618 33.8525 14.5985 34.9766 16.2415 34.9766H22.4043C24.0474 34.9766 25.3841 33.8525 25.3841 32.4709V4.55685C25.3841 2.65721 27.2219 1.11166 29.481 1.11166H35.518C37.777 1.11166 39.6149 2.65721 39.6149 4.55685V11.7497C39.6149 12.0491 39.9034 12.2917 40.2594 12.2917C40.6154 12.2917 40.9039 12.0491 40.9039 11.7497V4.55685C40.9039 2.05943 38.4877 0.0276777 35.5179 0.0276777ZM15.8719 1.55667C15.8719 1.29608 16.124 1.08398 16.4339 1.08398C16.7438 1.08398 16.996 1.29608 16.996 1.55667V8.75231H15.8719V1.55667ZM5.72388 10.0792C5.72388 9.94527 5.85347 9.83636 6.01271 9.83636H19.3935C19.5529 9.83636 19.6824 9.94534 19.6824 10.0792V11.0141H5.72388V10.0792ZM9.57791 28.6071C9.22136 28.6071 8.93123 28.3631 8.93123 28.0633V27.3127C9.22952 27.327 16.1779 27.327 16.4752 27.3127V28.0633C16.4752 28.3631 16.185 28.6071 15.8285 28.6071C15.1222 28.6071 10.283 28.6071 9.57791 28.6071Z" fill="#D7210A"/>
</g>
<defs>
<clipPath id="clip0">
<rect width="44" height="37" fill="white"/>
</clipPath>
</defs>
</svg>
