<svg width="31" height="31" viewBox="0 0 31 31" fill="none" xmlns="http://www.w3.org/2000/svg">
<path d="M29.2888 5.47839e-08H1.70974C0.76535 0.000473077 -0.000236456 0.766533 5.47839e-08 1.71116V29.2903C0.000473077 30.2346 0.766533 31.0002 1.71116 31H29.2888C30.2337 31.0002 30.9998 30.2344 31 29.2896C31 29.2893 31 29.2891 31 29.2888V1.70974C30.9995 0.76535 30.2335 -0.000236456 29.2888 5.47839e-08Z" fill="#4267B2"/>
<path d="M21.0953 31V18.7012H25.2395L25.8603 13.8872H21.0953V10.8213C21.0953 9.43072 21.4812 8.48322 23.4742 8.48322H26V4.18926C25.5606 4.13078 24.0528 4 22.2985 4C18.6355 4 16.1286 6.23615 16.1286 10.3445V13.8872H12V18.7012H16.1286V31H21.0953Z" fill="white"/>
</svg>
