<svg width="19" height="15" viewBox="0 0 19 15" fill="none" xmlns="http://www.w3.org/2000/svg">
<path d="M9.66531 14.1657C9.60422 14.1997 9.5495 14.2298 9.50164 14.2559C9.45357 14.2293 9.39854 14.1987 9.33709 14.1641C9.0819 14.0204 8.71612 13.8091 8.27666 13.5402C7.39674 13.0016 6.22633 12.2347 5.05851 11.3192C3.88799 10.4014 2.73595 9.34661 1.88068 8.23483C1.02038 7.1165 0.5 5.99219 0.5 4.92538C0.5 2.50381 2.56698 0.500149 5.16802 0.500163L5.17173 0.500135C6.75897 0.488338 8.233 1.24945 9.08679 2.50281L9.49761 3.10588L9.91172 2.50505C10.7723 1.25646 12.2438 0.496678 13.8302 0.500146C16.4264 0.51249 18.487 2.50915 18.5 4.92679C18.4995 6.01275 17.9779 7.14608 17.1189 8.26594C16.264 9.38045 15.1125 10.4327 13.9424 11.3456C12.775 12.2564 11.605 13.0163 10.7254 13.5492C10.286 13.8152 9.92039 14.0239 9.66531 14.1657Z" fill="#3D3838" stroke="white"/>
</svg>
