<svg width="100" height="78" viewBox="0 0 100 78" fill="none" xmlns="http://www.w3.org/2000/svg">
<path d="M50.4765 52.875C72.8558 52.875 84.6945 25.6612 68.4738 9.44205C58.55 -0.480778 42.403 -0.480586 32.4793 9.44205C16.4326 25.4873 27.9531 52.875 50.4765 52.875Z" stroke="#D7210A" stroke-width="4"/>
<path d="M95.3603 60.4931L77.6821 42.7C74.8155 48.169 70.3411 52.706 65 55.6269L82.5977 73.3388C86.1336 76.8936 91.843 76.8812 95.3605 73.3369C98.8799 69.7964 98.8799 64.0335 95.3603 60.4931V60.4931Z" stroke="#D7210A" stroke-width="3"/>
<path d="M2.69854 37.15H14.3015C17.897 37.15 17.902 31.6 14.3015 31.6H2.69854C-0.897065 31.6 -0.901961 37.15 2.69854 37.15Z" fill="#D7210A"/>
<path d="M2.78054 49.175H19.2195C22.9242 49.175 22.9294 43.625 19.2195 43.625H2.78054C-0.924324 43.625 -0.929368 49.175 2.78054 49.175Z" fill="#D7210A"/>
<path d="M2.86605 61.2H32.134C35.9526 61.2 35.958 55.65 32.134 55.65H2.86605C-0.95275 55.65 -0.95795 61.2 2.86605 61.2Z" fill="#D7210A"/>
<path d="M65.171 67.675H2.82899C-0.940336 67.675 -0.945658 73.225 2.82899 73.225H65.171C68.9403 73.225 68.9457 67.675 65.171 67.675Z" fill="#D7210A"/>
</svg>
