<svg width="42" height="43" viewBox="0 0 42 43" fill="none" xmlns="http://www.w3.org/2000/svg">
<g clip-path="url(#clip0)">
<path d="M34.2222 0H30.5741C30.2342 0 29.9588 0.281936 29.9588 0.629883C29.9588 0.97783 30.2342 1.25977 30.5741 1.25977H34.1723V1.85295L27.575 4.06518C27.4139 2.86546 26.5318 1.89847 25.3919 1.6382V1.25977H28.0688C28.4087 1.25977 28.6841 0.97783 28.6841 0.629883C28.6841 0.281936 28.4087 0 28.0688 0H25.3652C24.7014 0 24.1614 0.552869 24.1614 1.23247V1.6382C23.5026 1.78862 22.9299 2.17494 22.5326 2.70623H20.4279C19.8285 2.70623 19.3409 3.20543 19.3409 3.81919V3.8312H17.5775C13.3796 3.8312 9.96428 7.32781 9.96428 11.6257V22.087H9.13896C8.36689 22.087 7.73877 22.7301 7.73877 23.5207V24.522C7.73877 24.8824 7.91227 25.2013 8.17748 25.3982L7.28711 32.1519C7.24166 32.4966 7.47775 32.8139 7.81457 32.8604C8.15049 32.9069 8.46114 32.6652 8.50658 32.3204L9.39195 25.6048H11.7672L13.3273 37.4386C13.3506 37.6153 13.2831 37.7446 13.2444 37.7796H7.91473C7.87601 37.7446 7.80842 37.6154 7.83171 37.4386L8.17124 34.8636C8.21669 34.5189 7.9806 34.2016 7.64378 34.1551C7.30778 34.1085 6.99721 34.3503 6.95176 34.6951L6.61224 37.2701C6.54801 37.7576 6.68508 38.254 6.97875 38.598C7.22181 38.8827 7.54682 39.0394 7.89389 39.0394H13.2651C13.6122 39.0394 13.9372 38.8827 14.1802 38.598C14.4739 38.2539 14.6109 37.7575 14.5466 37.2701L12.9815 25.3981C13.2467 25.2012 13.4202 24.8822 13.4202 24.5219V23.5206C13.4202 22.73 12.7921 22.087 12.0199 22.087H11.1947V11.6256C11.1947 8.02244 14.058 5.09088 17.5774 5.09088H19.3408V5.10289C19.3408 5.71656 19.8284 6.21577 20.4279 6.21577H22.2183V7.82953C22.2183 7.87513 22.1871 7.91519 22.1457 7.92267C18.6898 8.55204 16.1814 11.6203 16.1814 15.2184V15.4593H16.125C15.7851 15.4593 15.5098 15.7413 15.5098 16.0892C15.5098 16.4372 15.7851 16.7191 16.125 16.7191H16.1814V34.0192H16.125C15.7851 34.0192 15.5098 34.3012 15.5098 34.6491C15.5098 34.997 15.7851 35.279 16.125 35.279H16.1814V37.76C16.1814 39.0449 17.035 40.1291 18.1919 40.4509V41.3267C18.1919 42.2493 18.9251 43 19.8264 43H29.9689C30.8701 43 31.6033 42.2493 31.6033 41.3267V40.371C32.6353 39.974 33.3718 38.9535 33.3718 37.76V35.279H33.4283C33.7681 35.279 34.0435 34.997 34.0435 34.6491C34.0435 34.3012 33.7681 34.0192 33.4283 34.0192H33.3718V23.7412C33.3718 23.3933 33.0964 23.1113 32.7566 23.1113C32.4167 23.1113 32.1414 23.3933 32.1414 23.7412V34.0193H17.4121V16.7191H32.1414V21.1762C32.1414 21.5242 32.4168 21.8061 32.7567 21.8061C33.0965 21.8061 33.3719 21.5242 33.3719 21.1762V16.7191H33.4283C33.7682 16.7191 34.0436 16.4372 34.0436 16.0892C34.0436 15.7413 33.7682 15.4593 33.4283 15.4593H33.3719V15.2184C33.3719 11.6203 30.8636 8.55204 27.4076 7.92267C27.3661 7.91511 27.335 7.87513 27.335 7.82953V5.68709C27.3723 5.60579 27.4062 5.52256 27.4361 5.4374L28.6946 5.01538L33.7617 6.28321C33.8108 6.29547 33.8598 6.30143 33.9082 6.30143C34.1852 6.30143 34.4367 6.1086 34.5053 5.82087C34.586 5.483 34.3838 5.14203 34.0537 5.05955L30.9092 4.27279L34.5897 3.03864C35.076 2.87562 35.4028 2.41396 35.4028 1.88998V1.2087C35.4028 0.542203 34.8732 0 34.2222 0V0ZM12.1899 23.5207V24.3451H8.96932V23.5207C8.96932 23.4248 9.04553 23.3469 9.13905 23.3469H12.02C12.1137 23.3468 12.1899 23.4248 12.1899 23.5207ZM30.3729 41.3267C30.3729 41.5547 30.1917 41.7402 29.969 41.7402H19.8265C19.6037 41.7402 19.4225 41.5547 19.4225 41.3267V40.5485H30.3728V41.3267H30.3729ZM32.1414 35.279V37.76C32.1414 38.6029 31.4715 39.2887 30.6481 39.2887H18.9053C18.0819 39.2887 17.4121 38.6029 17.4121 37.76V35.279H32.1414ZM24.7767 2.82809C25.6561 2.82809 26.3716 3.56069 26.3716 4.461C26.3716 5.36131 25.656 6.09382 24.7767 6.09382C23.8973 6.09382 23.1817 5.36131 23.1817 4.461C23.1817 3.56069 23.8972 2.82809 24.7767 2.82809ZM20.5713 3.96599H21.9934C21.9662 4.12699 21.9512 4.29219 21.9512 4.46108C21.9512 4.62989 21.9662 4.79509 21.9934 4.95609H20.5713V3.96599ZM32.1414 15.2184V15.4593H17.4121V15.2184C17.4121 12.2318 19.4935 9.68516 22.3613 9.16286C22.9915 9.04814 23.4489 8.48738 23.4489 7.82944V7.01328C23.845 7.23013 24.297 7.35359 24.7767 7.35359C25.2565 7.35359 25.7085 7.23022 26.1046 7.01328V7.82944C26.1046 8.48738 26.562 9.04814 27.1922 9.16286C30.0599 9.68516 32.1414 12.2319 32.1414 15.2184Z" fill="#D7210A"/>
<path d="M20.8784 18.7634C20.1827 18.7634 19.6167 19.3428 19.6167 20.0552V30.6833C19.6167 31.3955 20.1826 31.975 20.8784 31.975H28.6751C29.3708 31.975 29.9368 31.3956 29.9368 30.6833V20.0552C29.9368 19.3429 29.3709 18.7634 28.6751 18.7634H20.8784ZM28.7063 20.0552V30.6833C28.7063 30.7009 28.6922 30.7153 28.675 30.7153H20.8784C20.8612 30.7153 20.8472 30.7009 20.8472 30.6833V20.0552C20.8472 20.0376 20.8612 20.0232 20.8784 20.0232H28.6751C28.6923 20.0232 28.7063 20.0376 28.7063 20.0552Z" fill="#D7210A"/>
<path d="M26.7888 21.1853H22.7646C22.4248 21.1853 22.1494 21.4672 22.1494 21.8152C22.1494 22.1631 22.4248 22.4451 22.7646 22.4451H26.7888C27.1286 22.4451 27.404 22.1631 27.404 21.8152C27.404 21.4672 27.1286 21.1853 26.7888 21.1853Z" fill="#D7210A"/>
<path d="M26.7888 23.5547H22.7646C22.4248 23.5547 22.1494 23.8366 22.1494 24.1846C22.1494 24.5325 22.4248 24.8145 22.7646 24.8145H26.7888C27.1286 24.8145 27.404 24.5325 27.404 24.1846C27.404 23.8366 27.1286 23.5547 26.7888 23.5547Z" fill="#D7210A"/>
<path d="M26.7888 25.9241H22.7646C22.4248 25.9241 22.1494 26.206 22.1494 26.554C22.1494 26.9019 22.4248 27.1838 22.7646 27.1838H26.7888C27.1286 27.1838 27.404 26.9019 27.404 26.554C27.404 26.206 27.1286 25.9241 26.7888 25.9241Z" fill="#D7210A"/>
<path d="M26.7888 28.2935H22.7646C22.4248 28.2935 22.1494 28.5754 22.1494 28.9233C22.1494 29.2713 22.4248 29.5532 22.7646 29.5532H26.7888C27.1286 29.5532 27.404 29.2713 27.404 28.9233C27.404 28.5754 27.1286 28.2935 26.7888 28.2935Z" fill="#D7210A"/>
</g>
<defs>
<clipPath id="clip0">
<rect width="42" height="43" fill="white"/>
</clipPath>
</defs>
</svg>
