<svg width="44" height="38" viewBox="0 0 44 38" fill="none" xmlns="http://www.w3.org/2000/svg">
<path d="M43.2667 15.2C43.6716 15.2 44 14.9164 44 14.5667V10.7667C44 10.4169 43.6716 10.1333 43.2667 10.1333H39.5626C39.1771 5.84875 35.0427 2.5399 30.0667 2.53333H24.0651C24.152 2.33051 24.1975 2.11628 24.2 1.9C24.2 0.850646 23.215 0 22 0C20.785 0 19.8 0.850646 19.8 1.9C19.8025 2.11628 19.848 2.33051 19.9349 2.53333H13.9333C8.9573 2.5399 4.82295 5.84875 4.4374 10.1333H0.733333C0.32835 10.1333 0 10.4169 0 10.7667V14.5667C0 14.9164 0.32835 15.2 0.733333 15.2H4.4V19H0.733333C0.32835 19 0 19.2836 0 19.6333V23.4333C0 23.7831 0.32835 24.0667 0.733333 24.0667H4.4V27.8667H0.733333C0.32835 27.8667 0 28.1502 0 28.5V32.3C0 32.6498 0.32835 32.9333 0.733333 32.9333H4.4V37.3667C4.4 37.7164 4.72835 38 5.13333 38H38.8667C39.2717 38 39.6 37.7164 39.6 37.3667V32.9333H43.2667C43.6716 32.9333 44 32.6498 44 32.3V28.5C44 28.1502 43.6716 27.8667 43.2667 27.8667H39.6V24.0667H43.2667C43.6716 24.0667 44 23.7831 44 23.4333V19.6333C44 19.2836 43.6716 19 43.2667 19H39.6V15.2H43.2667ZM39.6 11.4H42.5333V13.9333H39.6V11.4ZM4.4 31.6667H1.46667V29.1333H4.4V31.6667ZM4.4 22.8H1.46667V20.2667H4.4V22.8ZM4.4 13.9333H1.46667V11.4H4.4V13.9333ZM22 1.26667C22.405 1.26667 22.7333 1.55024 22.7333 1.9C22.7333 2.24976 22.405 2.53333 22 2.53333C21.595 2.53333 21.2667 2.24976 21.2667 1.9C21.2667 1.55024 21.595 1.26667 22 1.26667ZM13.9333 3.8H30.0667C34.2358 3.80428 37.7162 6.54803 38.1003 10.1333H5.89967C6.28384 6.54803 9.76424 3.80428 13.9333 3.8ZM38.1333 32.9333H33V34.2H38.1333V34.8333H35.9333V36.1H38.1333V36.7333H5.86667V29.1333H38.1333V32.9333ZM38.1333 27.8667H5.86667V20.2667H38.1333V27.8667ZM38.1333 19H5.86667V11.4H38.1333V19ZM42.5333 29.1333V31.6667H39.6V29.1333H42.5333ZM42.5333 20.2667V22.8H39.6V20.2667H42.5333Z" fill="#D7210A"/>
<path d="M34.4667 34.8333H33V36.0999H34.4667V34.8333Z" fill="#D7210A"/>
</svg>
