<svg width="49" height="35" viewBox="0 0 49 35" fill="none" xmlns="http://www.w3.org/2000/svg">
<path d="M48.1834 25.8245V10.3162C48.1834 9.12564 46.9339 8.12875 45.2769 7.9975L43.2834 7.83925V6.41669C43.2834 5.45187 42.1841 4.66669 40.8334 4.66669H31.85C30.4992 4.66669 29.4 5.45187 29.4 6.41669V6.73723L26.1334 6.47794V6.41676C26.1334 5.6564 25.4505 5.00801 24.5 4.76711V3.5C25.4008 3.5 26.1334 2.97678 26.1334 2.33331V1.16669C26.1334 0.523223 25.4008 0 24.5 0H3.26663C2.36588 0 1.63327 0.523223 1.63327 1.16669V2.33338C1.63327 2.97678 2.36578 3.50007 3.26663 3.50007V4.76711C2.31621 5.00794 1.63327 5.6564 1.63327 6.41676V25.6668C0.732512 25.6667 0 26.1899 0 26.8333V32.6666C0 33.9535 1.46512 35 3.26663 35H45.7333C47.5349 35 49 33.9535 49 32.6667V26.8334C49 26.4025 48.6708 26.0265 48.1834 25.8245ZM23.6834 5.83331C24.1334 5.83331 24.5 6.0952 24.5 6.41662V6.99993V24.8417L22.6274 23.5041C22.4746 23.3945 22.2664 23.3332 22.05 23.3332H17.9666V10.5C17.9666 10.0692 17.6374 9.69322 17.15 9.49115V5.83331H23.6834ZM15.5166 9.33331H12.25V5.83331H15.5166V9.33331ZM11.4325 10.5H11.4334H16.3334V23.3333H11.4334L11.4325 10.5ZM10.6166 24.5H17.15H21.7119L23.3452 25.6667H4.42139L6.05475 24.5H10.6166ZM26.1334 10.5684L46.55 12.1888V25.6667H26.1334V10.5684ZM31.0334 6.41669C31.0334 6.09526 31.3992 5.83338 31.85 5.83338H40.8334C41.2841 5.83338 41.65 6.09526 41.65 6.41669V7.70964L31.0334 6.86684V6.41669ZM30.0648 7.96373C30.1022 7.96879 30.1406 7.97159 30.1797 7.97289L45.0971 9.15722C45.9253 9.22257 46.55 9.7207 46.55 10.3163V11.0156L26.1334 9.39518V7.65167L30.0648 7.96373ZM3.26587 1.16669H3.26673H24.5V2.33338H22.8666H4.9H3.26663L3.26587 1.16669ZM22.8666 3.5V4.66669H16.3333H11.4333H4.9L4.89914 3.5H22.8666ZM4.08337 5.83331H10.6167V9.49108C10.1293 9.69315 9.8001 10.0691 9.8001 10.4999V23.3332H5.71663C5.50025 23.3332 5.292 23.3945 5.13926 23.5041L3.26663 24.8417V6.41669C3.26663 6.09526 3.63337 5.83331 4.08337 5.83331ZM1.63337 26.8333H2.45H25.3166H47.3666V31.5H1.63317L1.6325 26.8333H1.63337ZM45.7334 33.8333H3.26663C2.36588 33.8333 1.63327 33.3101 1.63327 32.6666H47.3666C47.3666 33.3101 46.6341 33.8333 45.7334 33.8333Z" fill="#D7210A"/>
<path d="M35.9334 18.0833C34.5826 18.0833 33.4834 18.8684 33.4834 19.8333V22.7499C33.4834 23.7148 34.5826 24.4999 35.9334 24.4999C37.2842 24.4999 38.3834 23.7148 38.3834 22.7499V19.8333C38.3834 18.8684 37.2842 18.0833 35.9334 18.0833ZM36.75 22.7499C36.75 23.0719 36.3842 23.3333 35.9334 23.3333C35.4826 23.3333 35.1168 23.0719 35.1168 22.7499V19.8333C35.1168 19.5113 35.4826 19.2499 35.9334 19.2499C36.3842 19.2499 36.75 19.5113 36.75 19.8333V22.7499Z" fill="#D7210A"/>
<path d="M42.4666 18.0833C41.1158 18.0833 40.0166 18.8684 40.0166 19.8333V22.7499C40.0166 23.7148 41.1158 24.4999 42.4666 24.4999C43.8174 24.4999 44.9166 23.7148 44.9166 22.7499V19.8333C44.9166 18.8684 43.8174 18.0833 42.4666 18.0833ZM43.2833 22.7499C43.2833 23.0719 42.9175 23.3333 42.4667 23.3333C42.0159 23.3333 41.6501 23.0719 41.6501 22.7499V19.8333C41.6501 19.5113 42.0159 19.2499 42.4667 19.2499C42.9175 19.2499 43.2833 19.5113 43.2833 19.8333V22.7499Z" fill="#D7210A"/>
</svg>
