<svg width="39" height="27" viewBox="0 0 39 27" fill="none" xmlns="http://www.w3.org/2000/svg">
<g clip-path="url(#clip0)">
<path d="M16.2504 1.80005H6.35214C6.08109 1.79983 5.83861 1.91606 5.74308 2.09163L3.79308 5.69163C3.71786 5.82983 3.74579 5.98496 3.86735 6.10647C3.9889 6.22776 4.18885 6.30027 4.40214 6.30005H16.2504C16.6093 6.30005 16.9004 6.09856 16.9004 5.85005V2.25005C16.9004 2.00154 16.6093 1.80005 16.2504 1.80005ZM15.6004 5.40005H10.3036L12.1066 4.40139C12.3869 4.24626 12.4322 3.96282 12.2079 3.7688C11.9838 3.57478 11.5744 3.54336 11.2941 3.69871L8.22216 5.40005H6.40228L8.20533 4.40139C8.48558 4.24626 8.53097 3.96282 8.30658 3.7688C8.08219 3.57478 7.67308 3.54336 7.39283 3.69871L5.7764 4.59453L6.8025 2.70005H15.6004V5.40005Z" fill="#D7210A"/>
<path d="M38.9591 7.49158L35.0591 0.291577C34.9635 0.116016 34.721 -0.000219416 34.45 3.10982e-07H4.55C4.27895 -0.000219416 4.03647 0.116016 3.94094 0.291577L0.0409424 7.49158C0.0203125 7.54343 0.00634766 7.59639 0 7.65V22.95C0 22.9603 0 22.995 0.00507812 23.0058L0.655078 26.6058C0.695703 26.831 0.972144 27 1.3 27H37.7C38.0279 27 38.3043 26.831 38.3449 26.6058L38.9949 23.0058C38.9949 22.9968 39 22.9608 39 22.95V7.65C38.9937 7.59639 38.9797 7.54343 38.9591 7.49158ZM19.5 0.9H33.9996L37.4121 7.2H19.5V0.9ZM5.00037 0.9H18.2V7.2H1.58787L5.00037 0.9ZM37.1262 26.1H1.87383L1.38633 23.4H37.6137L37.1262 26.1ZM37.7 22.5H1.3V10.8H37.7V22.5ZM37.7 9.9H1.3V8.1H37.7V9.9Z" fill="#D7210A"/>
<path d="M16.3801 14.5799C16.2573 14.6926 16.2179 14.8388 16.2741 14.9745L18.8741 21.2745C18.9541 21.4675 19.209 21.6002 19.4987 21.6002C19.7885 21.6002 20.0434 21.4675 20.1233 21.2745L22.7233 14.9745C22.7801 14.8392 22.7421 14.6931 22.6199 14.5799C23.0112 13.6597 22.5167 12.6687 21.3881 12.1122C20.2595 11.5554 18.7453 11.5554 17.6163 12.1122C16.4877 12.6687 15.9932 13.6597 16.3846 14.5799H16.3801ZM19.5 19.5119L17.762 15.3H21.238L19.5 19.5119ZM19.5 12.6C20.1367 12.5921 20.7372 12.8036 21.1028 13.1644C21.4684 13.5252 21.5512 13.9882 21.324 14.4H17.6658C17.45 13.9871 17.5395 13.5274 17.9048 13.1688C18.2705 12.8102 18.8659 12.5978 19.5 12.6Z" fill="#D7210A"/>
<path d="M12.3501 15.75H14.9501V16.65H12.3501V15.75Z" fill="#D7210A"/>
<path d="M12.5405 12.4681L13.4597 11.8318L15.41 13.1818L14.4905 13.8183L12.5405 12.4681Z" fill="#D7210A"/>
<path d="M12.5405 19.9318L14.4908 18.5818L15.41 19.2181L13.4597 20.5681L12.5405 19.9318Z" fill="#D7210A"/>
<path d="M24.0498 15.75H26.6498V16.65H24.0498V15.75Z" fill="#D7210A"/>
<path d="M23.5898 13.1818L25.5402 11.8318L26.4593 12.4681L24.5093 13.8183L23.5898 13.1818Z" fill="#D7210A"/>
<path d="M23.5908 19.2183L24.51 18.5818L26.4603 19.932L25.5408 20.5683L23.5908 19.2183Z" fill="#D7210A"/>
<path d="M35.2071 5.69163L33.2571 2.09163C33.1616 1.91606 32.9191 1.79983 32.648 1.80005H21.4498C21.0908 1.80005 20.7998 2.00154 20.7998 2.25005V5.85005C20.8084 5.89993 20.8227 5.94936 20.8427 5.9977C20.8706 6.04451 20.9039 6.08955 20.9423 6.13262C20.9493 6.13899 20.9604 6.14075 20.9674 6.14668C21.034 6.18975 21.107 6.22798 21.1851 6.2605C21.2683 6.28664 21.3584 6.30027 21.4498 6.30005H34.598C34.8113 6.30027 35.0113 6.22776 35.1328 6.10647C35.2544 5.98496 35.2823 5.82983 35.2071 5.69163ZM27.203 5.40005L29.0061 4.40139C29.2863 4.24626 29.3317 3.96282 29.1073 3.7688C28.8832 3.57478 28.4738 3.54336 28.1936 3.69871L25.1216 5.40005H23.3017L25.1048 4.40139C25.385 4.24626 25.4304 3.96282 25.206 3.7688C24.9816 3.57478 24.5725 3.54336 24.2923 3.69871L22.0998 4.91357V2.70005H32.1977L33.6602 5.40005H27.203Z" fill="#D7210A"/>
<path d="M30.5499 12.6H35.0999V14.85C35.0999 15.0985 35.3909 15.3 35.7499 15.3C36.1089 15.3 36.3999 15.0985 36.3999 14.85V12.15C36.3999 11.9014 36.1089 11.7 35.7499 11.7H30.5499C30.1909 11.7 29.8999 11.9014 29.8999 12.15C29.8999 12.3985 30.1909 12.6 30.5499 12.6Z" fill="#D7210A"/>
<path d="M35.7501 16.2C35.3911 16.2 35.1001 16.4014 35.1001 16.65V17.55C35.1001 17.7985 35.3911 18 35.7501 18C36.1091 18 36.4001 17.7985 36.4001 17.55V16.65C36.4001 16.4014 36.1091 16.2 35.7501 16.2Z" fill="#D7210A"/>
</g>
<defs>
<clipPath id="clip0">
<rect width="39" height="27" fill="white"/>
</clipPath>
</defs>
</svg>
