<svg width="43" height="40" viewBox="0 0 43 40" fill="none" xmlns="http://www.w3.org/2000/svg">
<path d="M35.6094 16.25C35.7876 16.25 35.9585 16.1842 36.0845 16.0669C36.2105 15.9497 36.2812 15.7908 36.2812 15.625V13.125C36.2812 12.9592 36.2105 12.8003 36.0845 12.6831C35.9585 12.5658 35.7876 12.5 35.6094 12.5C35.4312 12.5 35.2603 12.5658 35.1343 12.6831C35.0083 12.8003 34.9375 12.9592 34.9375 13.125V15.625C34.9375 15.7908 35.0083 15.9497 35.1343 16.0669C35.2603 16.1842 35.4312 16.25 35.6094 16.25Z" fill="#D7210A"/>
<path d="M35.6094 21.875C35.4312 21.875 35.2603 21.9408 35.1343 22.0581C35.0083 22.1753 34.9375 22.3342 34.9375 22.5V25C34.9375 25.1658 35.0083 25.3247 35.1343 25.4419C35.2603 25.5592 35.4312 25.625 35.6094 25.625C35.7876 25.625 35.9585 25.5592 36.0845 25.4419C36.2105 25.3247 36.2812 25.1658 36.2812 25V22.5C36.2812 22.3342 36.2105 22.1753 36.0845 22.0581C35.9585 21.9408 35.7876 21.875 35.6094 21.875Z" fill="#D7210A"/>
<path d="M39.6406 0.625H3.35938C2.64685 0.625744 1.96374 0.889376 1.45991 1.35806C0.956079 1.82673 0.672675 2.46219 0.671875 3.125V31.875C0.672675 32.5378 0.956079 33.1733 1.45991 33.6419C1.96374 34.1106 2.64685 34.3743 3.35938 34.375H19.4844V36.875C19.4844 37.0408 19.5552 37.1997 19.6812 37.3169C19.8072 37.4342 19.9781 37.5 20.1562 37.5V38.75C20.1562 38.9158 20.227 39.0747 20.353 39.1919C20.479 39.3092 20.6499 39.375 20.8281 39.375H36.9531C37.1313 39.375 37.3022 39.3092 37.4282 39.1919C37.5542 39.0747 37.625 38.9158 37.625 38.75V37.5C37.8032 37.5 37.9741 37.4342 38.1001 37.3169C38.2261 37.1997 38.2969 37.0408 38.2969 36.875V34.375H39.6406C40.3531 34.3743 41.0363 34.1106 41.5401 33.6419C42.0439 33.1733 42.3273 32.5378 42.3281 31.875V3.125C42.3273 2.46219 42.0439 1.82673 41.5401 1.35806C41.0363 0.889376 40.3531 0.625744 39.6406 0.625ZM36.2812 38.125H21.5V37.5H36.2812V38.125ZM36.9531 36.25H20.8281V20.625H36.9531V36.25ZM21.5 19.375V18.75H36.2812V19.375H21.5ZM36.9531 17.5H20.8281V8.75H36.9531V17.5ZM40.9844 31.875C40.9839 32.2064 40.8422 32.5241 40.5903 32.7584C40.3384 32.9927 39.9969 33.1246 39.6406 33.125H38.2969V20C38.2969 19.8342 38.2261 19.6753 38.1001 19.5581C37.9741 19.4408 37.8032 19.375 37.625 19.375V18.75C37.8032 18.75 37.9741 18.6842 38.1001 18.5669C38.2261 18.4497 38.2969 18.2908 38.2969 18.125V8.125C38.2969 7.95924 38.2261 7.80027 38.1001 7.68306C37.9741 7.56585 37.8032 7.5 37.625 7.5H20.1562C19.9781 7.5 19.8072 7.56585 19.6812 7.68306C19.5552 7.80027 19.4844 7.95924 19.4844 8.125V18.125C19.4844 18.2908 19.5552 18.4497 19.6812 18.5669C19.8072 18.6842 19.9781 18.75 20.1562 18.75V19.375C19.9781 19.375 19.8072 19.4408 19.6812 19.5581C19.5552 19.6753 19.4844 19.8342 19.4844 20V33.125H3.35938C3.00313 33.1246 2.66162 32.9927 2.40972 32.7584C2.15781 32.5241 2.01609 32.2064 2.01562 31.875V5.625H40.9844V31.875ZM40.9844 4.375H2.01562V3.125C2.01609 2.79361 2.15781 2.47592 2.40972 2.2416C2.66162 2.00727 3.00313 1.87543 3.35938 1.875H39.6406C39.9969 1.87543 40.3384 2.00727 40.5903 2.2416C40.8422 2.47592 40.9839 2.79361 40.9844 3.125V4.375Z" fill="#D7210A"/>
<path d="M4.03125 3.75H8.0625C8.24069 3.75 8.41159 3.68415 8.53759 3.56694C8.66359 3.44973 8.73438 3.29076 8.73438 3.125C8.73438 2.95924 8.66359 2.80027 8.53759 2.68306C8.41159 2.56585 8.24069 2.5 8.0625 2.5H4.03125C3.85306 2.5 3.68216 2.56585 3.55616 2.68306C3.43016 2.80027 3.35938 2.95924 3.35938 3.125C3.35938 3.29076 3.43016 3.44973 3.55616 3.56694C3.68216 3.68415 3.85306 3.75 4.03125 3.75Z" fill="#D7210A"/>
<path d="M10.0781 3.75H10.75C10.9282 3.75 11.0991 3.68415 11.2251 3.56694C11.3511 3.44973 11.4219 3.29076 11.4219 3.125C11.4219 2.95924 11.3511 2.80027 11.2251 2.68306C11.0991 2.56585 10.9282 2.5 10.75 2.5H10.0781C9.89993 2.5 9.72904 2.56585 9.60304 2.68306C9.47704 2.80027 9.40625 2.95924 9.40625 3.125C9.40625 3.29076 9.47704 3.44973 9.60304 3.56694C9.72904 3.68415 9.89993 3.75 10.0781 3.75Z" fill="#D7210A"/>
<path d="M16.2509 22.0211L15.9822 22.0883L16.3223 22.2711C16.4766 22.354 16.5893 22.4905 16.6354 22.6506C16.6816 22.8108 16.6575 22.9814 16.5684 23.125C16.4793 23.2686 16.3325 23.3734 16.1604 23.4163C15.9882 23.4592 15.8048 23.4368 15.6504 23.3539L15.3103 23.1703L15.3817 23.4211C15.4045 23.5003 15.4104 23.5829 15.3989 23.6642C15.3874 23.7455 15.3588 23.8239 15.3148 23.895C15.2707 23.966 15.212 24.0283 15.1421 24.0782C15.0721 24.1281 14.9923 24.1647 14.9072 24.1859C14.8502 24.2004 14.7915 24.2078 14.7325 24.2078C14.5847 24.2076 14.4411 24.1621 14.3239 24.0783C14.2067 23.9946 14.1224 23.8773 14.0841 23.7445L13.6642 22.2867L11.4218 21.0828V23.4914L12.569 24.5578C12.6951 24.6751 12.7659 24.8341 12.7659 25C12.7659 25.1659 12.6951 25.3249 12.569 25.4422C12.443 25.5595 12.272 25.6253 12.0937 25.6253C11.9154 25.6253 11.7444 25.5595 11.6183 25.4422L11.4218 25.2586V25.625C11.4218 25.7908 11.351 25.9497 11.225 26.0669C11.099 26.1842 10.9281 26.25 10.7499 26.25C10.5717 26.25 10.4008 26.1842 10.2748 26.0669C10.1488 25.9497 10.078 25.7908 10.078 25.625V25.2586L9.88153 25.4422C9.75546 25.5595 9.58447 25.6253 9.40617 25.6253C9.22788 25.6253 9.05689 25.5595 8.93082 25.4422C8.80475 25.3249 8.73393 25.1659 8.73393 25C8.73393 24.8341 8.80475 24.6751 8.93082 24.5578L10.078 23.4914V21.0828L7.83567 22.2867L7.41575 23.7445C7.3774 23.8773 7.29312 23.9946 7.17593 24.0783C7.05874 24.1621 6.91516 24.2076 6.76739 24.2078C6.70837 24.2078 6.64962 24.2004 6.5927 24.1859C6.50754 24.1647 6.42771 24.1281 6.35777 24.0782C6.28782 24.0283 6.22914 23.966 6.18508 23.895C6.14101 23.8239 6.11242 23.7455 6.10094 23.6642C6.08947 23.5829 6.09533 23.5003 6.11819 23.4211L6.18957 23.1703L5.84944 23.3539C5.77301 23.3949 5.68863 23.4216 5.60114 23.4323C5.51364 23.443 5.42474 23.4376 5.3395 23.4163C5.25426 23.395 5.17435 23.3584 5.10435 23.3084C5.03434 23.2584 4.9756 23.1961 4.93149 23.125C4.88737 23.0539 4.85874 22.9754 4.84723 22.894C4.83572 22.8126 4.84156 22.7299 4.86441 22.6506C4.88726 22.5713 4.92668 22.497 4.98041 22.4319C5.03414 22.3668 5.10113 22.3121 5.17756 22.2711L5.5177 22.0883L5.24895 22.0211C5.07959 21.9759 4.9361 21.8706 4.8494 21.7279C4.76271 21.5852 4.73974 21.4165 4.78545 21.2582C4.83116 21.0999 4.94188 20.9647 5.09377 20.8816C5.24566 20.7985 5.42656 20.7743 5.59748 20.8141L7.16379 21.2047L9.40617 20L7.16379 18.7953L5.59748 19.1859C5.51175 19.2088 5.42197 19.2156 5.33338 19.2059C5.2448 19.1962 5.15918 19.1701 5.08152 19.1293C5.00387 19.0885 4.93573 19.0337 4.88108 18.9681C4.82644 18.9025 4.78637 18.8275 4.76323 18.7473C4.7401 18.6672 4.73434 18.5836 4.74631 18.5013C4.75828 18.4191 4.78772 18.3399 4.83294 18.2684C4.87815 18.1969 4.93822 18.1344 5.00964 18.0847C5.08107 18.035 5.16242 17.9991 5.24895 17.9789L5.5177 17.9117L5.17756 17.7289C5.10113 17.6879 5.03414 17.6332 4.98041 17.5681C4.92668 17.503 4.88726 17.4287 4.86441 17.3494C4.84156 17.2701 4.83572 17.1874 4.84723 17.106C4.85874 17.0246 4.88737 16.9461 4.93149 16.875C4.9756 16.8039 5.03434 16.7416 5.10435 16.6916C5.17435 16.6416 5.25426 16.605 5.3395 16.5837C5.42474 16.5624 5.51364 16.557 5.60114 16.5677C5.68863 16.5784 5.77301 16.6051 5.84944 16.6461L6.18957 16.8297L6.11819 16.5789C6.07703 16.4204 6.10411 16.2532 6.19364 16.113C6.28316 15.9728 6.42805 15.8707 6.59738 15.8285C6.76671 15.7863 6.94707 15.8073 7.09996 15.8871C7.25286 15.9668 7.36618 16.0991 7.41575 16.2555L7.83567 17.7133L10.078 18.9172V16.5086L8.93082 15.4422C8.80475 15.3249 8.73393 15.1659 8.73393 15C8.73393 14.8341 8.80475 14.6751 8.93082 14.5578C9.05689 14.4405 9.22788 14.3747 9.40617 14.3747C9.58447 14.3747 9.75546 14.4405 9.88153 14.5578L10.078 14.7414V14.375C10.078 14.2092 10.1488 14.0503 10.2748 13.9331C10.4008 13.8158 10.5717 13.75 10.7499 13.75C10.9281 13.75 11.099 13.8158 11.225 13.9331C11.351 14.0503 11.4218 14.2092 11.4218 14.375V14.7414L11.6183 14.5578C11.7444 14.4405 11.9154 14.3747 12.0937 14.3747C12.272 14.3747 12.443 14.4405 12.569 14.5578C12.6951 14.6751 12.7659 14.8341 12.7659 15C12.7659 15.1659 12.6951 15.3249 12.569 15.4422L11.4218 16.5086V18.9172L13.6642 17.7133L14.0841 16.2555C14.1337 16.0991 14.247 15.9668 14.3999 15.8871C14.5528 15.8073 14.7331 15.7863 14.9025 15.8285C15.0718 15.8707 15.2167 15.9728 15.3062 16.113C15.3957 16.2532 15.4228 16.4204 15.3817 16.5789L15.3103 16.8297L15.6504 16.6461C15.8048 16.5632 15.9882 16.5408 16.1604 16.5837C16.3325 16.6266 16.4793 16.7314 16.5684 16.875C16.6575 17.0186 16.6816 17.1892 16.6354 17.3494C16.5893 17.5095 16.4766 17.646 16.3223 17.7289L15.9822 17.9117L16.2509 17.9789C16.3374 17.9991 16.4188 18.035 16.4902 18.0847C16.5616 18.1344 16.6217 18.1969 16.6669 18.2684C16.7121 18.3399 16.7416 18.4191 16.7535 18.5013C16.7655 18.5836 16.7598 18.6672 16.7366 18.7473C16.7135 18.8275 16.6734 18.9025 16.6188 18.9681C16.5641 19.0337 16.496 19.0885 16.4183 19.1293C16.3407 19.1701 16.2551 19.1962 16.1665 19.2059C16.0779 19.2156 15.9881 19.2088 15.9024 19.1859L14.3361 18.7953L12.0937 20L14.3361 21.2047L15.9024 20.8141C16.0733 20.7743 16.2542 20.7985 16.4061 20.8816C16.558 20.9647 16.6687 21.0999 16.7144 21.2582C16.7601 21.4165 16.7371 21.5852 16.6504 21.7279C16.5637 21.8706 16.4203 21.9759 16.2509 22.0211Z" fill="#D7210A"/>
<path d="M6.71875 8.75H15.4531C15.6313 8.75 15.8022 8.68415 15.9282 8.56694C16.0542 8.44973 16.125 8.29076 16.125 8.125C16.125 7.95924 16.0542 7.80027 15.9282 7.68306C15.8022 7.56585 15.6313 7.5 15.4531 7.5H6.71875C6.54056 7.5 6.36966 7.56585 6.24366 7.68306C6.11766 7.80027 6.04688 7.95924 6.04688 8.125C6.04688 8.29076 6.11766 8.44973 6.24366 8.56694C6.36966 8.68415 6.54056 8.75 6.71875 8.75Z" fill="#D7210A"/>
<path d="M6.71875 10.625H12.7656C12.9438 10.625 13.1147 10.5592 13.2407 10.4419C13.3667 10.3247 13.4375 10.1658 13.4375 10C13.4375 9.83424 13.3667 9.67527 13.2407 9.55806C13.1147 9.44085 12.9438 9.375 12.7656 9.375H6.71875C6.54056 9.375 6.36966 9.44085 6.24366 9.55806C6.11766 9.67527 6.04688 9.83424 6.04688 10C6.04688 10.1658 6.11766 10.3247 6.24366 10.4419C6.36966 10.5592 6.54056 10.625 6.71875 10.625Z" fill="#D7210A"/>
<path d="M15.4531 9.375H14.7812C14.6031 9.375 14.4322 9.44085 14.3062 9.55806C14.1802 9.67527 14.1094 9.83424 14.1094 10C14.1094 10.1658 14.1802 10.3247 14.3062 10.4419C14.4322 10.5592 14.6031 10.625 14.7812 10.625H15.4531C15.6313 10.625 15.8022 10.5592 15.9282 10.4419C16.0542 10.3247 16.125 10.1658 16.125 10C16.125 9.83424 16.0542 9.67527 15.9282 9.55806C15.8022 9.44085 15.6313 9.375 15.4531 9.375Z" fill="#D7210A"/>
<path d="M6.71875 12.5H15.4531C15.6313 12.5 15.8022 12.4342 15.9282 12.3169C16.0542 12.1997 16.125 12.0408 16.125 11.875C16.125 11.7092 16.0542 11.5503 15.9282 11.4331C15.8022 11.3158 15.6313 11.25 15.4531 11.25H6.71875C6.54056 11.25 6.36966 11.3158 6.24366 11.4331C6.11766 11.5503 6.04688 11.7092 6.04688 11.875C6.04688 12.0408 6.11766 12.1997 6.24366 12.3169C6.36966 12.4342 6.54056 12.5 6.71875 12.5Z" fill="#D7210A"/>
<path d="M15.4531 26.875H6.04688C5.86868 26.875 5.69779 26.9408 5.57179 27.0581C5.44579 27.1753 5.375 27.3342 5.375 27.5V31.25C5.375 31.4158 5.44579 31.5747 5.57179 31.6919C5.69779 31.8092 5.86868 31.875 6.04688 31.875H15.4531C15.6313 31.875 15.8022 31.8092 15.9282 31.6919C16.0542 31.5747 16.125 31.4158 16.125 31.25V27.5C16.125 27.3342 16.0542 27.1753 15.9282 27.0581C15.8022 26.9408 15.6313 26.875 15.4531 26.875ZM14.7812 30.625H6.71875V28.125H14.7812V30.625Z" fill="#D7210A"/>
</svg>
