<svg width="41" height="39" viewBox="0 0 41 39" fill="none" xmlns="http://www.w3.org/2000/svg">
<path d="M27.707 1.21875H13.293C12.656 1.21944 12.0454 1.46041 11.5951 1.88881C11.1447 2.31722 10.8913 2.89806 10.8906 3.50391V36.5625C10.891 36.8856 11.0261 37.1954 11.2663 37.4239C11.5065 37.6523 11.8322 37.7809 12.1719 37.7812H28.8281C29.1678 37.7809 29.4935 37.6523 29.7337 37.4239C29.9739 37.1954 30.109 36.8856 30.1094 36.5625V3.50391C30.1087 2.89806 29.8553 2.31722 29.4049 1.88881C28.9546 1.46041 28.344 1.21944 27.707 1.21875ZM12.1719 14.625H28.8281V31.6875H12.1719V14.625ZM13.293 2.4375H27.707C28.0043 2.4378 28.2892 2.55025 28.4994 2.75018C28.7096 2.9501 28.8278 3.22117 28.8281 3.50391V13.4062H12.1719V3.50391C12.1722 3.22117 12.2904 2.9501 12.5006 2.75018C12.7108 2.55025 12.9957 2.4378 13.293 2.4375ZM28.8281 36.5625H12.1719V32.9062H28.8281L28.8288 36.5625H28.8281Z" fill="#D7210A"/>
<path d="M14.0938 12.1875H16.6562C16.8262 12.1875 16.9891 12.1233 17.1092 12.009C17.2294 11.8947 17.2969 11.7397 17.2969 11.5781C17.2969 11.4165 17.2294 11.2615 17.1092 11.1472C16.9891 11.033 16.8262 10.9688 16.6562 10.9688H14.0938C13.9238 10.9688 13.7609 11.033 13.6408 11.1472C13.5206 11.2615 13.4531 11.4165 13.4531 11.5781C13.4531 11.7397 13.5206 11.8947 13.6408 12.009C13.7609 12.1233 13.9238 12.1875 14.0938 12.1875Z" fill="#D7210A"/>
<path d="M16.6562 15.8438H14.0938C13.9238 15.8438 13.7609 15.908 13.6408 16.0222C13.5206 16.1365 13.4531 16.2915 13.4531 16.4531C13.4531 16.6147 13.5206 16.7697 13.6408 16.884C13.7609 16.9983 13.9238 17.0625 14.0938 17.0625H16.6562C16.8262 17.0625 16.9891 16.9983 17.1092 16.884C17.2294 16.7697 17.2969 16.6147 17.2969 16.4531C17.2969 16.2915 17.2294 16.1365 17.1092 16.0222C16.9891 15.908 16.8262 15.8438 16.6562 15.8438Z" fill="#D7210A"/>
<path d="M26.9062 34.125H14.0938C13.9238 34.125 13.7609 34.1892 13.6408 34.3035C13.5206 34.4178 13.4531 34.5728 13.4531 34.7344C13.4531 34.896 13.5206 35.051 13.6408 35.1653C13.7609 35.2795 13.9238 35.3438 14.0938 35.3438H26.9062C27.0762 35.3438 27.2391 35.2795 27.3592 35.1653C27.4794 35.051 27.5469 34.896 27.5469 34.7344C27.5469 34.5728 27.4794 34.4178 27.3592 34.3035C27.2391 34.1892 27.0762 34.125 26.9062 34.125Z" fill="#D7210A"/>
</svg>
