<svg width="35" height="33" viewBox="0 0 35 33" fill="none" xmlns="http://www.w3.org/2000/svg">
<g clip-path="url(#clip0)">
<path d="M33.8333 0.825195H3.5V1.9252H5.25V9.07519C5.25 10.0103 6.00822 10.7252 7 10.7252H28C28.9918 10.7252 29.75 10.0103 29.75 9.07519V5.94009L31.2083 4.12519H33.8333C34.4751 4.12519 35 3.63025 35 3.02519V1.9252C35 1.32014 34.4751 0.825195 33.8333 0.825195ZM6.41667 4.12519H7.58333V5.22519H6.41667V4.12519ZM26.25 5.22519H25.0833V4.12519H26.25V5.22519ZM27.4167 4.12519H28.5833V5.22519H27.4167V4.12519ZM22.75 5.22519V4.12519H23.9167V5.22519H22.75ZM23.9167 6.32519V7.42519H22.75V6.32519H23.9167ZM11.0833 5.22519V4.12519H12.25V5.22519H11.0833ZM12.25 6.32519V7.42519H11.0833V6.32519H12.25ZM13.4167 4.12519H14.5833V5.22519H13.4167V4.12519ZM15.75 4.12519H16.9167V5.22519H15.75V4.12519ZM18.0833 4.12519H19.25V5.22519H18.0833V4.12519ZM20.4167 4.12519H21.5833V5.22519H20.4167V4.12519ZM25.0833 3.02519V1.9252H26.25V3.02519H25.0833ZM23.9167 3.02519H22.75V1.9252H23.9167V3.02519ZM21.5833 3.02519H20.4167V1.9252H21.5833V3.02519ZM19.25 3.02519H18.0833V1.9252H19.25V3.02519ZM16.9167 3.02519H15.75V1.9252H16.9167V3.02519ZM14.5833 3.02519H13.4167V1.9252H14.5833V3.02519ZM12.25 3.02519H11.0833V1.9252H12.25V3.02519ZM9.91667 3.02519H8.75V1.9252H9.91667V3.02519ZM9.91667 4.12519V5.22519H8.75V4.12519H9.91667ZM6.41667 6.32519H7.58333V7.42519H6.41667V6.32519ZM8.75 6.32519H9.91667V7.42519H8.75V6.32519ZM9.91667 8.52519V9.62519H8.75V8.52519H9.91667ZM11.0833 8.52519H12.25V9.62519H11.0833V8.52519ZM13.4167 8.52519H14.5833V9.62519H13.4167V8.52519ZM13.4167 7.42519V6.32519H14.5833V7.42519H13.4167ZM15.75 6.32519H16.9167V7.42519H15.75V6.32519ZM18.0833 6.32519H19.25V7.42519H18.0833V6.32519ZM20.4167 6.32519H21.5833V7.42519H20.4167V6.32519ZM21.5833 8.52519V9.62519H20.4167V8.52519H21.5833ZM22.75 8.52519H23.9167V9.62519H22.75V8.52519ZM25.0833 8.52519H26.25V9.62519H25.0833V8.52519ZM25.0833 7.42519V6.32519H26.25V7.42519H25.0833ZM27.4167 6.32519H28.5833V7.42519H27.4167V6.32519ZM28.5833 3.02519H27.4167V1.9252H28.5833V3.02519ZM7.58333 1.9252V3.02519H6.41667V1.9252H7.58333ZM6.41667 9.07519V8.52519H7.58333V9.62519H7C6.64994 9.62519 6.41667 9.40525 6.41667 9.07519ZM15.75 9.62519V8.52519H16.9167V9.62519H15.75ZM18.0833 8.52519H19.25V9.62519H18.0833V8.52519ZM28 9.62519H27.4167V8.52519H28.5833V9.07519C28.5833 9.40525 28.3501 9.62519 28 9.62519ZM33.8333 3.02519H30.625L29.75 4.12519V1.9252H33.8333V3.02519Z" fill="#D7210A"/>
<path d="M33.8333 14.025H31.5V13.475C31.5 12.5398 30.7418 11.825 29.75 11.825H5.25C4.25822 11.825 3.5 12.5398 3.5 13.475V14.025H1.16667C0.524943 14.025 0 14.5199 0 15.125V17.325H3.5V30.525H4.08333V32.175H5.25V30.525H29.75V32.175H30.9167V30.525H31.5V17.325H35V15.125C35 14.5199 34.4751 14.025 33.8333 14.025ZM5.25 12.925H29.75C30.1001 12.925 30.3333 13.1449 30.3333 13.475V22.825H4.66667V13.475C4.66667 13.1449 4.89994 12.925 5.25 12.925ZM4.66667 23.925H30.3333V29.425H4.66667V23.925ZM1.16667 16.225V15.125H3.5V16.225H1.16667ZM33.8333 16.225H31.5V15.125H33.8333V16.225Z" fill="#D7210A"/>
<path d="M23.333 26.675H25.6663V27.775H23.333V26.675Z" fill="#D7210A"/>
<path d="M26.833 26.675H29.1663V27.775H26.833V26.675Z" fill="#D7210A"/>
<path d="M5.83301 28.3249H11.083V25.0249H5.83301V28.3249ZM6.99967 26.1249H9.91634V27.2249H6.99967V26.1249Z" fill="#D7210A"/>
<path d="M12.25 28.3249H17.5V25.0249H12.25V28.3249ZM13.4167 26.1249H16.3333V27.2249H13.4167V26.1249Z" fill="#D7210A"/>
<path d="M26.2497 21.7251C27.8829 21.7251 29.1663 20.515 29.1663 18.9751C29.1663 17.4352 27.8829 16.2251 26.2497 16.2251C24.6165 16.2251 23.333 17.4352 23.333 18.9751C23.333 20.515 24.6165 21.7251 26.2497 21.7251ZM26.2497 20.6251C26.0164 20.6251 25.7247 20.57 25.4915 20.4602L27.8248 18.2602C27.9413 18.4802 27.9997 18.7001 27.9997 18.9751C27.9997 19.9102 27.2415 20.6251 26.2497 20.6251ZM26.2497 17.3251C26.483 17.3251 26.7746 17.3802 27.0079 17.49L24.6746 19.69C24.5581 19.47 24.4997 19.195 24.4997 18.9751C24.4997 18.04 25.2579 17.3251 26.2497 17.3251Z" fill="#D7210A"/>
</g>
<defs>
<clipPath id="clip0">
<rect width="35" height="33" fill="white"/>
</clipPath>
</defs>
</svg>
