<svg width="38" height="35" viewBox="0 0 38 35" fill="none" xmlns="http://www.w3.org/2000/svg">
<path d="M19 26.7969C23.2269 26.7969 24.3438 24.6504 24.3438 23.5156C24.3438 22.5296 23.6894 21.6256 23.0565 20.7512C22.5215 20.0123 21.9688 19.2484 21.9688 18.5938V18.0469H21.375C21.3578 18.0469 20.3401 18.0622 19.5011 18.8371C19.155 17.3698 17.92 16.9531 17.2188 16.9531H16.625V17.5C16.625 18.0381 16.1203 18.6774 15.5355 19.4173C14.6983 20.4777 13.6562 21.7968 13.6562 23.5156C13.6562 24.6504 14.7731 26.7969 19 26.7969ZM16.4956 20.061C16.9985 19.4245 17.4806 18.8141 17.6955 18.1759C18.0257 18.3482 18.4062 18.7502 18.4062 19.6875V22.4219H19.5938V21.875C19.5938 20.0878 20.3437 19.4688 20.8745 19.2538C21.0775 19.9888 21.5792 20.6823 22.0685 21.3582C22.6035 22.097 23.1562 22.861 23.1562 23.5156C23.1562 24.272 22.2876 25.7031 19 25.7031C15.7124 25.7031 14.8438 24.272 14.8438 23.5156C14.8438 22.1528 15.6839 21.0891 16.4956 20.061Z" fill="#D7210A"/>
<path d="M23.75 11.6112V10.9375C23.75 10.033 22.9508 9.29688 21.9688 9.29688H21.3821L21.3809 8.20312H22.5625C23.5446 8.20312 24.3438 7.46703 24.3438 6.5625C24.3438 5.65797 23.5446 4.92188 22.5625 4.92188H21.3768L21.3756 3.82812C22.0305 3.82758 22.5625 3.33758 22.5625 2.73438V1.64062C22.5625 1.03742 22.0299 0.546875 21.375 0.546875H16.625C15.9701 0.546875 15.4375 1.03742 15.4375 1.64062V2.73438C15.4375 3.33758 15.9701 3.82812 16.625 3.82812H16.6256L16.6268 4.92188H13.6562V3.82812C13.6562 3.22492 13.1237 2.73438 12.4688 2.73438H11.2812C10.6263 2.73438 10.0938 3.22492 10.0938 3.82812V9.29688C10.0938 9.90008 10.6263 10.3906 11.2812 10.3906H12.4688C13.1237 10.3906 13.6562 9.90008 13.6562 9.29688V8.20312H16.6292L16.6315 9.29688H16.0312C15.0492 9.29688 14.25 10.033 14.25 10.9375V11.6112C11.8738 12.1105 10.0938 14.0689 10.0938 16.4062V27.3438C10.0938 29.0943 11.0948 30.6305 12.594 31.5033C12.16 31.803 11.875 32.276 11.875 32.8125C11.875 33.717 12.6742 34.4531 13.6562 34.4531H24.3438C25.3258 34.4531 26.125 33.717 26.125 32.8125C26.125 32.276 25.84 31.803 25.406 31.5033C26.9052 30.6305 27.9062 29.0943 27.9062 27.3438V16.4062C27.9062 14.0689 26.1262 12.1105 23.75 11.6112ZM12.4688 9.29688L11.2812 9.29742V3.82812H12.4688V9.29688ZM16.625 1.64062H21.375L21.3756 2.73438H16.625V1.64062ZM17.8131 3.82812H20.1881L20.1893 4.92188H17.8143L17.8131 3.82812ZM13.6562 6.01562H22.5625C22.8897 6.01562 23.1562 6.26117 23.1562 6.5625C23.1562 6.86383 22.8897 7.10938 22.5625 7.10938H13.6562V6.01562ZM17.8167 8.20312H20.1934L20.1946 9.29688H17.819L17.8167 8.20312ZM15.4375 10.9375C15.4375 10.6362 15.7041 10.3906 16.0312 10.3906H21.9688C22.2959 10.3906 22.5625 10.6362 22.5625 10.9375V11.4844H15.4375V10.9375ZM15.4375 12.5781H22.5625C24.2161 12.5781 25.6435 13.4745 26.312 14.7656H11.688C12.3565 13.4745 13.7839 12.5781 15.4375 12.5781ZM26.7188 16.4062V27.3438C26.7188 27.5297 26.6992 27.7113 26.6712 27.8906H11.3287C11.3008 27.7113 11.2812 27.5297 11.2812 27.3438V16.4062C11.2812 16.2203 11.3008 16.0387 11.3287 15.8594H26.6712C26.6992 16.0387 26.7188 16.2203 26.7188 16.4062ZM24.3438 32.2656C24.6709 32.2656 24.9375 32.5112 24.9375 32.8125C24.9375 33.1138 24.6709 33.3594 24.3438 33.3594H13.6562C13.3291 33.3594 13.0625 33.1138 13.0625 32.8125C13.0625 32.5112 13.3291 32.2656 13.6562 32.2656H15.4375H22.5625H24.3438ZM22.5625 31.1719H15.4375C13.7839 31.1719 12.3565 30.2755 11.688 28.9844H26.312C25.6435 30.2755 24.2161 31.1719 22.5625 31.1719Z" fill="#D7210A"/>
</svg>
