<svg width="41" height="30" viewBox="0 0 41 30" fill="none" xmlns="http://www.w3.org/2000/svg">
<path d="M39.9844 17.4219H35.2812C35.2797 16.9126 35.0668 16.4247 34.6891 16.0646C34.3115 15.7045 33.7997 15.5015 33.2656 15.5H30.5781C30.044 15.5015 29.5323 15.7045 29.1546 16.0646C28.777 16.4247 28.5641 16.9126 28.5625 17.4219H25.875V14.8594C26.4091 14.8579 26.9208 14.6549 27.2985 14.2948C27.6762 13.9347 27.889 13.4467 27.8906 12.9375V10.375C27.889 9.86576 27.6762 9.3778 27.2985 9.01771C26.9208 8.65762 26.4091 8.45465 25.875 8.45312V1.40625C25.875 1.23635 25.8042 1.0734 25.6782 0.95326C25.5522 0.833119 25.3813 0.765625 25.2031 0.765625H15.7969C15.6187 0.765625 15.4478 0.833119 15.3218 0.95326C15.1958 1.0734 15.125 1.23635 15.125 1.40625V8.45312C14.5909 8.45465 14.0792 8.65762 13.7015 9.01771C13.3238 9.3778 13.111 9.86576 13.1094 10.375V12.9375C13.111 13.4467 13.3238 13.9347 13.7015 14.2948C14.0792 14.6549 14.5909 14.8579 15.125 14.8594V17.4219H12.4375C12.4359 16.9126 12.223 16.4247 11.8454 16.0646C11.4677 15.7045 10.956 15.5015 10.4219 15.5H7.73438C7.20029 15.5015 6.68853 15.7045 6.31087 16.0646C5.93322 16.4247 5.72035 16.9126 5.71875 17.4219H1.01562C0.837433 17.4219 0.666539 17.4894 0.540538 17.6095C0.414537 17.7297 0.34375 17.8926 0.34375 18.0625V27.0312C0.34375 27.2012 0.414537 27.3641 0.540538 27.4842C0.666539 27.6044 0.837433 27.6719 1.01562 27.6719H5.71875C5.72035 28.1811 5.93322 28.6691 6.31087 29.0292C6.68853 29.3893 7.20029 29.5922 7.73438 29.5938H10.4219C10.956 29.5922 11.4677 29.3893 11.8454 29.0292C12.223 28.6691 12.4359 28.1811 12.4375 27.6719H28.5625C28.5641 28.1811 28.777 28.6691 29.1546 29.0292C29.5323 29.3893 30.044 29.5922 30.5781 29.5938H33.2656C33.7997 29.5922 34.3115 29.3893 34.6891 29.0292C35.0668 28.6691 35.2797 28.1811 35.2812 27.6719H39.9844C40.1626 27.6719 40.3335 27.6044 40.4595 27.4842C40.5855 27.3641 40.6562 27.2012 40.6562 27.0312V18.0625C40.6562 17.8926 40.5855 17.7297 40.4595 17.6095C40.3335 17.4894 40.1626 17.4219 39.9844 17.4219ZM5.71875 26.3906H1.6875V18.7031H5.71875V26.3906ZM11.0938 27.6719C11.0938 27.8418 11.023 28.0047 10.897 28.1249C10.771 28.245 10.6001 28.3125 10.4219 28.3125H7.73438C7.55618 28.3125 7.38529 28.245 7.25929 28.1249C7.13329 28.0047 7.0625 27.8418 7.0625 27.6719V17.4219C7.0625 17.252 7.13329 17.089 7.25929 16.9689C7.38529 16.8487 7.55618 16.7812 7.73438 16.7812H10.4219C10.6001 16.7812 10.771 16.8487 10.897 16.9689C11.023 17.089 11.0938 17.252 11.0938 17.4219V27.6719ZM16.4688 2.04688H24.5312V8.45312H16.4688V2.04688ZM14.4531 12.9375V10.375C14.4531 10.2051 14.5239 10.0421 14.6499 9.92201C14.7759 9.80187 14.9468 9.73438 15.125 9.73438H25.875C26.0532 9.73438 26.2241 9.80187 26.3501 9.92201C26.4761 10.0421 26.5469 10.2051 26.5469 10.375V12.9375C26.5469 13.1074 26.4761 13.2704 26.3501 13.3905C26.2241 13.5106 26.0532 13.5781 25.875 13.5781H15.125C14.9468 13.5781 14.7759 13.5106 14.6499 13.3905C14.5239 13.2704 14.4531 13.1074 14.4531 12.9375ZM28.5625 26.3906H12.4375V18.7031H15.7969C15.9751 18.7031 16.146 18.6356 16.272 18.5155C16.398 18.3953 16.4688 18.2324 16.4688 18.0625V14.8594H24.5312V18.0625C24.5312 18.2324 24.602 18.3953 24.728 18.5155C24.854 18.6356 25.0249 18.7031 25.2031 18.7031H28.5625V26.3906ZM33.9375 27.6719C33.9375 27.8418 33.8667 28.0047 33.7407 28.1249C33.6147 28.245 33.4438 28.3125 33.2656 28.3125H30.5781C30.3999 28.3125 30.229 28.245 30.103 28.1249C29.977 28.0047 29.9062 27.8418 29.9062 27.6719V17.4219C29.9062 17.252 29.977 17.089 30.103 16.9689C30.229 16.8487 30.3999 16.7812 30.5781 16.7812H33.2656C33.4438 16.7812 33.6147 16.8487 33.7407 16.9689C33.8667 17.089 33.9375 17.252 33.9375 17.4219V27.6719ZM39.3125 26.3906H35.2812V18.7031H39.3125V26.3906Z" fill="#D7210A"/>
<path d="M3.03125 19.9844H4.375V21.2656H3.03125V19.9844Z" fill="#D7210A"/>
<path d="M15.125 23.8281H16.4688V25.1094H15.125V23.8281Z" fill="#D7210A"/>
<path d="M17.8125 23.8281H20.5V25.1094H17.8125V23.8281Z" fill="#D7210A"/>
<path d="M36.625 19.9844H37.9688V21.2656H36.625V19.9844Z" fill="#D7210A"/>
</svg>
