<svg width="43" height="42" viewBox="0 0 43 42" fill="none" xmlns="http://www.w3.org/2000/svg">
<path d="M10.35 21C10.35 18.8832 10.9528 16.9002 12 15.2023V8H4.55597C1.60148 11.7124 0 16.2369 0 21C0 25.7631 1.60148 30.2875 4.55597 34H12V26.7977C10.9528 25.0998 10.35 23.1168 10.35 21Z" fill="#FBBD00"/>
<path d="M22.005 32.5063L17 37.2531L22.005 42C26.7663 42 31.289 40.531 35 37.8209V31H27.8082C26.0961 31.9641 24.1055 32.5063 22.005 32.5063Z" fill="#0F9D58"/>
<path d="M11.2215 27L4 33.9408C4.56746 34.6491 5.18537 35.3275 5.85398 35.9702C9.89963 39.8585 15.2786 42 21 42V32.3497C16.8479 32.3497 13.2088 30.2009 11.2215 27Z" fill="#31AA52"/>
<path d="M43 20.7057C43 19.4566 42.8788 18.2052 42.6397 16.9863L42.4463 16H21V25.6237H31.4373C30.4237 27.5052 28.8653 29.0403 26.9785 30.0857L34.3877 37C35.1446 36.4561 35.8695 35.8638 36.5563 35.223C40.7116 31.3452 43 26.1896 43 20.7057Z" fill="#3C79E6"/>
<path d="M30.0333 13.1288L30.9184 14L38 7.03019L37.1149 6.159C33.0795 2.18733 27.7143 0 22.0074 0L17 4.92845L22.0074 9.8569C25.0391 9.8569 27.8894 11.0189 30.0333 13.1288Z" fill="#CF2D48"/>
<path d="M21 9.65028V0C15.2786 0 9.89969 2.14148 5.85397 6.02982C5.18536 6.67245 4.56745 7.35078 4 8.05919L11.2214 15C13.2089 11.7991 16.8479 9.65028 21 9.65028Z" fill="#EB4132"/>
</svg>
