<svg width="47" height="39" viewBox="0 0 47 39" fill="none" xmlns="http://www.w3.org/2000/svg">
<path d="M23.9766 6.62451H23.0219C14.7189 6.63121 7.99001 12.2148 7.98193 19.1045V19.8967C7.99001 26.7864 14.7189 32.37 23.0219 32.3767H23.9766C32.2796 32.37 39.0085 26.7864 39.0166 19.8967V19.1045C39.0085 12.2148 32.2796 6.63121 23.9766 6.62451ZM11.75 26.1562C10.2497 24.3058 9.44949 22.1257 9.45215 19.8955V19.1045C9.44949 16.8743 10.2497 14.6942 11.75 12.8438V26.1562ZM15.4219 29.2201C14.623 28.7664 13.8845 28.2435 13.2188 27.6601V11.3399C13.8845 10.757 14.6231 10.2344 15.4219 9.78107V29.2201ZM19.0938 30.6711C18.3344 30.4779 17.5971 30.2293 16.8906 29.9282V9.07176C17.5971 8.77065 18.3344 8.52211 19.0938 8.32893V30.6711ZM22.7656 31.1458C22.0265 31.1349 21.2896 31.0738 20.5625 30.963V8.03826C21.2896 7.92743 22.0265 7.86627 22.7656 7.85545V31.1458ZM26.4375 30.9617C25.7104 31.0726 24.9735 31.1337 24.2344 31.1445V7.85423C24.9735 7.86505 25.7104 7.92621 26.4375 8.03704V30.9617ZM30.1094 29.9282C29.4029 30.2293 28.6656 30.4779 27.9063 30.6711V8.32893C28.6656 8.52211 29.4029 8.77065 30.1094 9.07176V29.9282ZM33.7813 27.6601C33.1156 28.243 32.377 28.7655 31.5781 29.2189V9.77986C32.377 10.2332 33.1156 10.7558 33.7813 11.3386V27.6601ZM35.25 12.8438C36.7503 14.6942 37.5505 16.8743 37.5479 19.1045V19.8955C37.5505 22.1257 36.7503 24.3058 35.25 26.1562V12.8438Z" fill="#D7210A"/>
<path d="M46.2656 14.625H43.3281C42.9226 14.625 42.5938 14.8978 42.5938 15.2344V17.0625H41.6971C40.5011 9.7404 32.9732 4.27576 24.0684 4.26562H22.9316C14.0282 4.27728 6.50234 9.74154 5.30659 17.0625H4.40625V15.2344C4.40625 14.8978 4.07743 14.625 3.67188 14.625H0.734375C0.328816 14.625 0 14.8978 0 15.2344V23.7656C0 24.1022 0.328816 24.375 0.734375 24.375H3.67188C4.07743 24.375 4.40625 24.1022 4.40625 23.7656V21.9375H5.30292C6.49885 29.2596 14.0268 34.7242 22.9316 34.7344H24.0684C32.9732 34.7242 40.5011 29.2596 41.6971 21.9375H42.5938V23.7656C42.5938 24.1022 42.9226 24.375 43.3281 24.375H46.2656C46.6712 24.375 47 24.1022 47 23.7656V15.2344C47 14.8978 46.6712 14.625 46.2656 14.625ZM2.9375 23.1562H1.46875V15.8438H2.9375V23.1562ZM5.14062 20.7188H4.40625V18.2812H5.14062V20.7188ZM40.3906 19.9717C40.3809 27.4485 33.0789 33.5076 24.0684 33.5156H22.9316C13.9211 33.5076 6.61911 27.4485 6.60938 19.9717V19.0283C6.61911 11.5515 13.9211 5.49245 22.9316 5.48438H24.0684C33.0789 5.49245 40.3809 11.5515 40.3906 19.0283V19.9717ZM42.5938 20.7188H41.8594V18.2812H42.5938V20.7188ZM45.5312 23.1562H44.0625V15.8438H45.5312V23.1562Z" fill="#D7210A"/>
</svg>
