<svg width="47" height="38" viewBox="0 0 47 38" fill="none" xmlns="http://www.w3.org/2000/svg">
<path d="M41.4452 11.2943L38.529 8.93653C37.5581 8.15159 36.2671 7.71875 34.8938 7.71875H27.9062C25.3073 7.71875 23.1578 9.28863 22.8178 11.3157C21.9549 11.4517 21.2521 11.9961 21.0751 12.7128L20.8416 13.6562H20.047L19.6952 14.4406L18.7611 14.0867L18.3594 14.4115V7.71875H19.5476L21.0163 5.34375H24.0295L25.9881 0.59375H4.85569L6.81427 5.34375H9.82741L11.2962 7.71875H12.4844V14.8438H8.07812V14.25C8.07812 13.2679 7.08966 12.4688 5.875 12.4688H2.9375C1.72284 12.4688 0.734375 13.2679 0.734375 14.25V20.1875C0.734375 21.1696 1.72284 21.9688 2.9375 21.9688H5.875C7.08966 21.9688 8.07812 21.1696 8.07812 20.1875V19.5938H15.4219V20.6037L16.392 20.8881L15.9543 21.644L17.824 23.1562H11.75C10.5353 23.1562 9.54688 23.9554 9.54688 24.9375V33.25C9.54688 34.2321 10.5353 35.0312 11.75 35.0312H11.9116L12.6452 37.4062H19.6673L20.4009 35.0312H35.4116L36.1452 37.4062H43.1673L43.9009 35.0312H44.0625C45.2772 35.0312 46.2656 34.2321 46.2656 33.25V15.4375C46.2656 13.2335 44.1301 11.4291 41.4452 11.2943ZM27.9062 8.90625H34.8938C35.875 8.90625 36.7973 9.21559 37.4906 9.77609L39.3522 11.2812H24.3085C24.65 9.92809 26.1335 8.90625 27.9062 8.90625ZM6.89431 1.78125H23.9502L22.9713 4.15625H7.87323L6.89431 1.78125ZM11.4695 5.34375H19.3743L18.6399 6.53125H12.2038L11.4695 5.34375ZM13.9531 7.71875H16.8906V14.8438H13.9531V7.71875ZM6.60938 20.1875C6.60938 20.5152 6.28038 20.7812 5.875 20.7812H2.9375C2.53212 20.7812 2.20312 20.5152 2.20312 20.1875V14.25C2.20312 13.9222 2.53212 13.6562 2.9375 13.6562H5.875C6.28038 13.6562 6.60938 13.9222 6.60938 14.25V20.1875ZM15.4219 17.3963V18.4062H8.07812V16.0312H16.356L15.9558 16.3548L16.3927 17.1113L15.4219 17.3963ZM20.857 22.6676L20.7086 22.4052L19.9515 22.1516L19.0717 22.4847L17.7219 21.3934L18.1339 20.6821L17.8064 20.0408L16.8906 19.7713V18.2287L17.495 18.0506L17.8196 17.9307L18.1325 17.3191L17.7212 16.6066L19.0702 15.5159L19.9508 15.849L20.7439 15.5842L21.0773 14.8438H22.9852L23.2055 15.3324L23.3539 15.5948L24.111 15.8484L24.9915 15.5153L26.3406 16.606L25.9293 17.3185L26.2561 17.9592L27.1719 18.2287V19.7713L26.5675 19.9494L26.2429 20.0693L25.9293 20.6815L26.3413 21.3928L24.9915 22.4841L24.1117 22.151L23.3186 22.4158L22.9852 23.1562H21.2969H21.0773L20.857 22.6676ZM11.75 24.3438H20.0477H21.2969H24.0148L24.3666 23.5594L25.3014 23.9133L28.1067 21.6452L27.669 20.8893L28.6406 20.6037V17.3963L27.6705 17.1119L28.1075 16.3554L25.3022 14.0879L24.368 14.4418L24.0148 13.6562H22.3397L22.5152 12.9455C22.5835 12.6694 22.8861 12.4688 23.2356 12.4688H41.125C43.1497 12.4688 44.7969 13.8005 44.7969 15.4375V31.4688H11.0156V24.9375C11.0156 24.6098 11.3446 24.3438 11.75 24.3438ZM18.5202 36.2188H13.7923L13.4244 35.0312H18.8874L18.5202 36.2188ZM42.0202 36.2188H37.2923L36.9244 35.0312H42.3874L42.0202 36.2188ZM44.0625 33.8438H11.75C11.3446 33.8438 11.0156 33.5778 11.0156 33.25V32.6562H44.7969V33.25C44.7969 33.5778 44.4679 33.8438 44.0625 33.8438Z" fill="#D7210A"/>
<path d="M25.7031 19C25.7031 17.363 24.0559 16.0312 22.0312 16.0312C20.0066 16.0312 18.3594 17.363 18.3594 19C18.3594 20.637 20.0066 21.9688 22.0312 21.9688C24.0559 21.9688 25.7031 20.637 25.7031 19ZM19.8281 19C19.8281 18.0179 20.8166 17.2188 22.0312 17.2188C23.2459 17.2188 24.2344 18.0179 24.2344 19C24.2344 19.9821 23.2459 20.7812 22.0312 20.7812C20.8166 20.7812 19.8281 19.9821 19.8281 19Z" fill="#D7210A"/>
<path d="M38.1875 30.2812C41.0215 30.2812 43.3281 28.4163 43.3281 26.125C43.3281 23.8337 41.0215 21.9688 38.1875 21.9688C35.3535 21.9688 33.0469 23.8337 33.0469 26.125C33.0469 28.4163 35.3535 30.2812 38.1875 30.2812ZM38.9219 23.2162V26.7188H37.4531V23.2162C37.6903 23.177 37.9363 23.1562 38.1875 23.1562C38.4387 23.1562 38.6847 23.177 38.9219 23.2162ZM35.9844 23.7654V27.9062H40.3906V23.7654C41.277 24.3081 41.8594 25.1596 41.8594 26.125C41.8594 27.762 40.2122 29.0938 38.1875 29.0938C36.1628 29.0938 34.5156 27.762 34.5156 26.125C34.5156 25.159 35.098 24.3075 35.9844 23.7654Z" fill="#D7210A"/>
<path d="M43.3281 16.0312H33.0469V20.7812H43.3281V16.0312ZM41.8594 19.5938H34.5156V17.2188H41.8594V19.5938Z" fill="#D7210A"/>
<path d="M12.4844 27.9062H13.9531V29.0938H12.4844V27.9062Z" fill="#D7210A"/>
<path d="M12.4844 25.5312H13.9531V26.7188H12.4844V25.5312Z" fill="#D7210A"/>
</svg>
