<svg width="35" height="43" viewBox="0 0 35 43" fill="none" xmlns="http://www.w3.org/2000/svg">
<path fill-rule="evenodd" clip-rule="evenodd" d="M30.4679 15.2229C30.4679 8.68106 24.6507 3.35889 17.5004 3.35889C10.35 3.35889 4.53271 8.68106 4.53271 15.2229C4.53271 21.7647 10.35 27.0867 17.5004 27.0867C24.6507 27.0867 30.4679 21.7646 30.4679 15.2229ZM6.36865 15.2229C6.36865 9.60724 11.3623 5.03857 17.5004 5.03857C23.6383 5.03857 28.632 9.60716 28.632 15.2229C28.632 20.8385 23.6384 25.4071 17.5004 25.4071C11.3624 25.4071 6.36865 20.8385 6.36865 15.2229Z" fill="#D7210A"/>
<path fill-rule="evenodd" clip-rule="evenodd" d="M24.7796 34.034C25.8085 33.0157 26.7983 31.9206 27.6726 30.8486C31.988 25.5571 34.4631 20.0123 34.4631 15.636C34.4631 11.5377 32.6023 7.49132 29.3581 4.53448C26.148 1.6088 21.9607 0 17.5667 0C17.5249 0 17.4826 0 17.4407 0C13.0401 0 8.85219 1.60897 5.64251 4.5344C2.39823 7.49124 0.537598 11.5376 0.537598 15.636C0.537598 20.0123 3.01263 25.557 7.32809 30.8486C8.20227 31.9205 9.19211 33.0157 10.221 34.0339C8.1359 34.9921 6.96411 36.3369 6.96411 37.8214C6.96411 39.3171 8.14646 40.6742 10.2933 41.6426C12.2338 42.5179 14.7933 43 17.5005 43C20.2076 43 22.7672 42.5179 24.7077 41.6426C26.8546 40.6742 28.0369 39.3172 28.0369 37.8214C28.0365 36.3377 26.8645 34.9923 24.7796 34.034ZM2.37344 15.636C2.37344 11.981 4.03717 8.36837 6.93814 5.72438C9.80137 3.11473 13.5291 1.67969 17.4479 1.67969H17.5595C21.471 1.67969 25.1993 3.11498 28.0624 5.72446C30.9634 8.36837 32.6271 11.981 32.6271 15.636C32.6271 19.658 30.2849 24.8366 26.2011 29.8442C22.2302 34.7133 18.6617 36.9816 17.5003 36.9816C16.3389 36.9816 12.7704 34.7132 8.7995 29.8442C4.71564 24.8366 2.37344 19.6579 2.37344 15.636ZM17.5002 41.3202C12.373 41.3202 8.79987 39.4763 8.79987 37.8214C8.79987 36.9256 9.85305 35.9828 11.5779 35.3096C13.7542 37.2451 15.956 38.6613 17.5002 38.6613C19.0444 38.6613 21.2462 37.245 23.4226 35.3095C25.147 35.9826 26.2007 36.9263 26.2007 37.8214C26.2006 39.4763 22.6275 41.3202 17.5002 41.3202Z" fill="#D7210A"/>
<path fill-rule="evenodd" clip-rule="evenodd" d="M21.7546 21.4422C22.3609 21.3453 22.7664 20.8172 22.6607 20.2626L21.9704 16.6478L24.8127 14.1286C25.0035 13.974 25.1376 13.759 25.1764 13.5101C25.2629 12.9533 24.8397 12.4376 24.2312 12.3584L20.259 11.8418L18.5001 8.5557C18.3958 8.35708 18.2206 8.18801 17.9875 8.08371C17.4366 7.8373 16.7716 8.046 16.5022 8.54999L14.7403 11.8418L10.7681 12.3584L10.7683 12.3595C10.5329 12.39 10.3065 12.4894 10.1278 12.6573C9.69969 13.06 9.70942 13.7041 10.1496 14.0959L13.0289 16.6478L12.3386 20.2626L12.3403 20.2629C12.2993 20.477 12.3325 20.7049 12.4519 20.9121C12.7381 21.4095 13.4109 21.6004 13.9546 21.3385L17.4997 19.6205L20.9879 21.3109C21.2097 21.4335 21.4792 21.4862 21.7546 21.4422Z" fill="#D7210A"/>
</svg>
