<svg width="50" height="45" viewBox="0 0 50 45" fill="none" xmlns="http://www.w3.org/2000/svg">
<g clip-path="url(#clip0)">
<path d="M46.5505 11.638C46.4212 11.638 46.2893 11.6116 46.1652 11.5565L35.8203 6.90126C35.3945 6.70966 35.2221 6.24331 35.435 5.86002C35.6479 5.47673 36.1669 5.3223 36.5919 5.5132L46.9367 10.1684C47.3626 10.36 47.535 10.8264 47.3221 11.2097C47.1712 11.4812 46.8669 11.638 46.5505 11.638Z" fill="#E7ECED"/>
<path d="M40.5176 21.7241C40.2607 21.7241 40.0064 21.6209 39.8366 21.4247L33.8021 14.4419C33.5098 14.1028 33.578 13.6164 33.953 13.3534C34.3289 13.0881 34.8703 13.1517 35.1625 13.4892L41.1969 20.4719C41.4892 20.811 41.4211 21.2975 41.0461 21.5605C40.8883 21.6714 40.7021 21.7241 40.5176 21.7241Z" fill="#E7ECED"/>
<path d="M27.7652 34.9875C27.5031 34.9875 27.2445 34.8804 27.0747 34.6772C26.7894 34.335 26.8661 33.8485 27.2472 33.5917L32.0627 30.3416C32.4437 30.0848 32.9843 30.1539 33.2696 30.4968C33.555 30.839 33.4782 31.3255 33.0972 31.5823L28.2816 34.8324C28.1265 34.9363 27.9454 34.9875 27.7652 34.9875Z" fill="#E7ECED"/>
<path d="M11.2066 38.0173H5.17217C4.69629 38.0173 4.31006 37.6705 4.31006 37.2414C4.31006 36.8123 4.69629 36.4655 5.17217 36.4655H11.2066C11.6825 36.4655 12.0688 36.8123 12.0688 37.2414C12.0687 37.6705 11.6824 38.0173 11.2066 38.0173Z" fill="#E7ECED"/>
<path d="M22.953 22.6281C22.7798 22.6281 22.6039 22.5807 22.4521 22.4829L15.015 17.6998C14.6279 17.4507 14.5382 16.9666 14.815 16.6175C15.0918 16.2684 15.6305 16.1884 16.0175 16.4375L23.4547 21.2207C23.8418 21.4697 23.9314 21.9538 23.6547 22.3029C23.4867 22.5156 23.222 22.6281 22.953 22.6281Z" fill="#E7ECED"/>
<path d="M14.7163 13.1354C14.4758 13.1354 14.237 13.0461 14.0672 12.87C13.7534 12.5473 13.7904 12.0569 14.1491 11.7752L20.9853 6.39853C21.3431 6.11614 21.8879 6.14875 22.2017 6.47227C22.5155 6.79501 22.4785 7.28535 22.1198 7.56704L15.2836 12.9438C15.1197 13.0725 14.9172 13.1354 14.7163 13.1354Z" fill="#E7ECED"/>
<path d="M8.62041 10.8621C8.14453 10.8621 7.7583 10.5152 7.7583 10.0862V4.65522C7.7583 4.22613 8.14453 3.87932 8.62041 3.87932C9.09629 3.87932 9.48252 4.22613 9.48252 4.65522V10.0862C9.48242 10.5152 9.09629 10.8621 8.62041 10.8621Z" fill="#E7ECED"/>
<path d="M35.8843 42.0246C35.7576 42.0246 35.6292 41.9997 35.5076 41.9462L26.3463 37.9389C25.9179 37.7519 25.7394 37.2872 25.9481 36.9016C26.1567 36.516 26.6713 36.3561 27.1006 36.5432L36.2619 40.5505C36.6903 40.7374 36.8688 41.2022 36.6601 41.5877C36.5111 41.864 36.2042 42.0246 35.8843 42.0246Z" fill="#E7ECED"/>
<path d="M17.2414 17.8448C17.2414 13.5597 13.3819 10.0862 8.6207 10.0862C3.85947 10.0862 0 13.5598 0 17.8448C0 20.7147 1.73623 23.2146 4.31035 24.5567V22.5115C4.31035 21.648 5.1207 20.9481 6.11982 20.9481H11.1216C12.1207 20.9481 12.9311 21.6479 12.9311 22.5115V24.5551C15.5061 23.2153 17.2414 20.7148 17.2414 17.8448Z" fill="#366DB6"/>
<path d="M47.4139 13.9656C48.8422 13.9656 50.0001 12.9235 50.0001 11.6379C50.0001 10.3524 48.8422 9.31034 47.4139 9.31034C45.9855 9.31034 44.8276 10.3524 44.8276 11.6379C44.8276 12.9235 45.9855 13.9656 47.4139 13.9656Z" fill="#DD352E"/>
<path d="M2.58623 39.569C4.01457 39.569 5.17246 38.5269 5.17246 37.2414C5.17246 35.9559 4.01457 34.9138 2.58623 34.9138C1.15789 34.9138 0 35.9559 0 37.2414C0 38.5269 1.15789 39.569 2.58623 39.569Z" fill="#DD352E"/>
<path d="M37.931 45C39.3593 45 40.5172 43.9579 40.5172 42.6724C40.5172 41.3869 39.3593 40.3448 37.931 40.3448C36.5026 40.3448 35.3447 41.3869 35.3447 42.6724C35.3447 43.9579 36.5026 45 37.931 45Z" fill="#DD352E"/>
<path d="M24.9998 25.6035C26.4281 25.6035 27.586 24.5614 27.586 23.2759C27.586 21.9904 26.4281 20.9483 24.9998 20.9483C23.5715 20.9483 22.4136 21.9904 22.4136 23.2759C22.4136 24.5614 23.5715 25.6035 24.9998 25.6035Z" fill="#DD352E"/>
<path d="M8.62041 17.8449C10.0487 17.8449 11.2066 16.8028 11.2066 15.5173C11.2066 14.2318 10.0487 13.1897 8.62041 13.1897C7.19207 13.1897 6.03418 14.2318 6.03418 15.5173C6.03418 16.8028 7.19207 17.8449 8.62041 17.8449Z" fill="white"/>
<path d="M11.1213 20.9483H6.11953C5.12041 20.9483 4.31006 21.6481 4.31006 22.5117V24.5569C5.579 25.2187 7.04795 25.6035 8.62041 25.6035C10.1929 25.6035 11.6618 25.2187 12.9308 24.5569V22.5117C12.9308 21.6481 12.1204 20.9483 11.1213 20.9483Z" fill="white"/>
<path d="M37.9313 7.75863C37.9313 3.47353 34.0719 0 29.3106 0C24.5494 0 20.6899 3.47353 20.6899 7.75863C20.6899 10.6285 22.4262 13.1284 25.0003 14.4706V12.4254C25.0003 11.5618 25.8106 10.862 26.8098 10.862H31.8115C32.8106 10.862 33.621 11.5617 33.621 12.4254V14.469C36.196 13.1291 37.9313 10.6285 37.9313 7.75863Z" fill="#366DB6"/>
<path d="M29.3104 7.75863C30.7387 7.75863 31.8966 6.71653 31.8966 5.43103C31.8966 4.14553 30.7387 3.10342 29.3104 3.10342C27.882 3.10342 26.7241 4.14553 26.7241 5.43103C26.7241 6.71653 27.882 7.75863 29.3104 7.75863Z" fill="white"/>
<path d="M31.8112 10.8621H26.8095C25.8104 10.8621 25 11.5618 25 12.4255V14.4707C26.2689 15.1325 27.7379 15.5173 29.3104 15.5173C30.8828 15.5173 32.3518 15.1325 33.6207 14.4707V12.4255C33.6207 11.5619 32.8104 10.8621 31.8112 10.8621Z" fill="white"/>
<path d="M49.1379 27.931C49.1379 23.6459 45.2784 20.1724 40.5172 20.1724C35.756 20.1724 31.8965 23.6459 31.8965 27.931C31.8965 30.8009 33.6327 33.3008 36.2068 34.643V32.5978C36.2068 31.7342 37.0172 31.0344 38.0163 31.0344H43.0181C44.0172 31.0344 44.8275 31.7341 44.8275 32.5978V34.6414C47.4025 33.3016 49.1379 30.8009 49.1379 27.931Z" fill="#366DB6"/>
<path d="M40.5174 27.931C41.9457 27.931 43.1036 26.8889 43.1036 25.6034C43.1036 24.3179 41.9457 23.2758 40.5174 23.2758C39.089 23.2758 37.9312 24.3179 37.9312 25.6034C37.9312 26.8889 39.089 27.931 40.5174 27.931Z" fill="white"/>
<path d="M43.0183 31.0344H38.0165C37.0174 31.0344 36.207 31.7342 36.207 32.5978V34.6431C37.476 35.3049 38.9449 35.6897 40.5174 35.6897C42.0898 35.6897 43.5588 35.3049 44.8277 34.6431V32.5978C44.8277 31.7343 44.0175 31.0344 43.0183 31.0344Z" fill="white"/>
<path d="M28.4484 37.2414C28.4484 32.9563 24.589 29.4827 19.8277 29.4827C15.0665 29.4827 11.207 32.9563 11.207 37.2414C11.207 40.1113 12.9433 42.6111 15.5174 43.9533V41.9081C15.5174 41.0446 16.3277 40.3447 17.3269 40.3447H22.3286C23.3277 40.3447 24.1381 41.0445 24.1381 41.9081V43.9517C26.7131 42.6119 28.4484 40.1113 28.4484 37.2414Z" fill="#366DB6"/>
<path d="M19.8274 37.2414C21.2558 37.2414 22.4137 36.1993 22.4137 34.9138C22.4137 33.6283 21.2558 32.5862 19.8274 32.5862C18.3991 32.5862 17.2412 33.6283 17.2412 34.9138C17.2412 36.1993 18.3991 37.2414 19.8274 37.2414Z" fill="white"/>
<path d="M22.3283 40.3448H17.3266C16.3274 40.3448 15.5171 41.0446 15.5171 41.9082V43.9534C16.786 44.6152 18.255 45 19.8274 45C21.3999 45 22.8688 44.6152 24.1378 43.9534V41.9082C24.1378 41.0447 23.3274 40.3448 22.3283 40.3448Z" fill="white"/>
<path d="M8.6209 4.65521C10.0492 4.65521 11.2071 3.61311 11.2071 2.32761C11.2071 1.04211 10.0492 0 8.6209 0C7.19256 0 6.03467 1.04211 6.03467 2.32761C6.03467 3.61311 7.19256 4.65521 8.6209 4.65521Z" fill="#DD352E"/>
</g>
<defs>
<clipPath id="clip0">
<rect width="50" height="45" fill="white"/>
</clipPath>
</defs>
</svg>
