<svg width="49" height="46" viewBox="0 0 49 46" fill="none" xmlns="http://www.w3.org/2000/svg">
<g clip-path="url(#clip0)">
<path d="M46.0476 14.1247H40.5419L6.17334 29.6826V35.2167C6.23231 36.828 7.62601 38.1134 9.3433 38.1403H46.0476C47.7059 38.1125 49.0263 36.828 48.9967 35.2712C48.9964 35.253 48.9958 35.2348 48.9951 35.2167V17.1527C49.0882 15.5692 47.7964 14.2148 46.1098 14.1273C46.089 14.1263 46.0683 14.1254 46.0476 14.1247Z" fill="#2BA037"/>
<path d="M42.8779 14.2291V28.795C42.8779 30.4097 41.4835 31.7187 39.7636 31.7187H3.05926C1.36996 31.719 0.000319338 30.4336 0 28.8477C0 28.8301 0.000212892 28.8126 0.00053223 28.795V10.7833C-0.0302307 9.19776 1.31408 7.88899 3.00306 7.86021C3.02179 7.85991 3.04042 7.85971 3.05915 7.85971H39.7635C41.4834 7.85971 42.8778 9.16868 42.8778 10.7833V14.2291H42.8779Z" fill="#3BB54A"/>
<path d="M37.2611 28.6384C38.4897 28.6384 39.4856 27.7035 39.4856 26.5501C39.4856 25.3968 38.4897 24.4618 37.2611 24.4618C36.0326 24.4618 35.0366 25.3968 35.0366 26.5501C35.0366 27.7035 36.0326 28.6384 37.2611 28.6384Z" fill="#2BA037"/>
<path d="M21.4118 29.1083C26.8789 29.1083 31.3108 24.9477 31.3108 19.8153C31.3108 14.6829 26.8789 10.5223 21.4118 10.5223C15.9447 10.5223 11.5127 14.6829 11.5127 19.8153C11.5127 24.9477 15.9447 29.1083 21.4118 29.1083Z" fill="#2BA037"/>
<path d="M5.56191 15.0644C6.79048 15.0644 7.78642 14.1294 7.78642 12.9761C7.78642 11.8227 6.79048 10.8878 5.56191 10.8878C4.33335 10.8878 3.3374 11.8227 3.3374 12.9761C3.3374 14.1294 4.33335 15.0644 5.56191 15.0644Z" fill="#2BA037"/>
<path d="M24.748 16.7351H23.747C23.6806 16.3814 23.5877 16.0324 23.4689 15.6909H24.748C25.3623 15.6909 25.8602 15.2235 25.8602 14.6468C25.8602 14.0701 25.3623 13.6026 24.748 13.6026H17.9077C17.2934 13.6026 16.7954 14.0701 16.7954 14.6468C16.7954 15.2235 17.2934 15.6909 17.9077 15.6909H19.9097C20.4658 15.6909 20.9664 16.213 21.3 16.7351H17.9077C17.2934 16.7351 16.7954 17.2026 16.7954 17.7793C16.7954 18.3559 17.2934 18.8234 17.9077 18.8234H21.3C21.2444 18.8234 21.2444 18.8756 21.1888 18.9278C20.8319 19.2105 20.3764 19.3593 19.9097 19.3455H17.9077C17.4532 19.3461 17.0501 19.6194 16.9066 20.0243C16.7538 20.4253 16.8623 20.8732 17.1847 21.1728L22.023 25.5061C22.2339 25.6887 22.5151 25.783 22.8015 25.7671C23.4157 25.759 23.9066 25.285 23.898 24.7083C23.894 24.44 23.7802 24.1835 23.5801 23.9919L20.6326 21.3816C22.1134 21.1724 23.3295 20.1735 23.7469 18.8234H24.7479C25.3622 18.8234 25.8601 18.3559 25.8601 17.7793C25.8602 17.2026 25.3622 16.7351 24.748 16.7351Z" fill="#FEDB41"/>
</g>
<defs>
<clipPath id="clip0">
<rect width="49" height="46" fill="white"/>
</clipPath>
</defs>
</svg>
