<svg width="45" height="45" viewBox="0 0 45 45" fill="none" xmlns="http://www.w3.org/2000/svg">
<g clip-path="url(#clip0)">
<path d="M33.9407 20.3644V3.05085C33.9407 1.36591 32.5748 0 30.8898 0H3.4322C1.74726 0 0.381348 1.36591 0.381348 3.05085V32.0339C0.381348 33.7188 1.74726 35.0847 3.4322 35.0847H33.9407V20.3644Z" fill="#24AE5F"/>
<path d="M32.4154 20.3644V3.05085C32.4887 1.44262 31.2471 0.0781922 29.6391 0H4.68317C3.07517 0.0781922 1.83354 1.44262 1.9069 3.05085V32.0339C1.83354 33.6421 3.07517 35.0065 4.68317 35.0847H32.4154V20.3644Z" fill="#4FBA6F"/>
<path d="M18.6866 32.7966H17.9238C17.5026 32.7966 17.1611 32.4551 17.1611 32.0339C17.1611 31.6127 17.5026 31.2712 17.9238 31.2712H18.6866C19.1078 31.2712 19.4493 31.6127 19.4493 32.0339C19.4493 32.4551 19.1078 32.7966 18.6866 32.7966Z" fill="#4C8056"/>
<path d="M14.4914 32.7966H12.7753C12.354 32.7966 12.0126 32.4551 12.0126 32.0339C12.0126 31.6127 12.354 31.2712 12.7753 31.2712H14.4914C14.9126 31.2712 15.2541 31.6127 15.2541 32.0339C15.2541 32.4551 14.9126 32.7966 14.4914 32.7966ZM9.34307 32.7966H7.62697C7.20574 32.7966 6.86426 32.4551 6.86426 32.0339C6.86426 31.6127 7.20574 31.2712 7.62697 31.2712H9.34307C9.76431 31.2712 10.1058 31.6127 10.1058 32.0339C10.1058 32.4551 9.76431 32.7966 9.34307 32.7966Z" fill="#4C8056"/>
<path d="M4.19486 32.7966H3.43215C3.01091 32.7966 2.66943 32.4551 2.66943 32.0339V31.2712C2.66943 30.8499 3.01091 30.5085 3.43215 30.5085C3.85338 30.5085 4.19486 30.8499 4.19486 31.2712C4.61609 31.2712 4.95757 31.6127 4.95757 32.0339C4.95757 32.4551 4.61609 32.7966 4.19486 32.7966Z" fill="#4C8056"/>
<path d="M3.43214 28.8C3.01091 28.8 2.66943 28.4585 2.66943 28.0373V26.428C2.66943 26.0067 3.01091 25.6653 3.43214 25.6653C3.85338 25.6653 4.19486 26.0067 4.19486 26.428V28.0373C4.19486 28.4585 3.85338 28.8 3.43214 28.8ZM3.43214 23.9568C3.01091 23.9568 2.66943 23.6153 2.66943 23.1941V21.5771C2.66943 21.1559 3.01091 20.8144 3.43214 20.8144C3.85338 20.8144 4.19486 21.1559 4.19486 21.5771V23.1941C4.19486 23.6153 3.85338 23.9568 3.43214 23.9568ZM3.43214 19.1136C3.01091 19.1136 2.66943 18.7721 2.66943 18.3508V16.7339C2.66943 16.3127 3.01091 15.9712 3.43214 15.9712C3.85338 15.9712 4.19486 16.3127 4.19486 16.7339V18.3508C4.19486 18.7721 3.85338 19.1136 3.43214 19.1136ZM3.43214 14.2703C3.01091 14.2703 2.66943 13.9289 2.66943 13.5076V11.8907C2.66943 11.4694 3.01091 11.128 3.43214 11.128C3.85338 11.128 4.19486 11.4694 4.19486 11.8907V13.5076C4.19486 13.9289 3.85338 14.2703 3.43214 14.2703ZM3.43214 9.41949C3.01091 9.41949 2.66943 9.07801 2.66943 8.65678V7.04746C2.66943 6.62622 3.01091 6.28474 3.43214 6.28474C3.85338 6.28474 4.19486 6.62622 4.19486 7.04746V8.65678C4.19486 9.07801 3.85338 9.41949 3.43214 9.41949Z" fill="#4C8056"/>
<path d="M3.43215 4.57627C3.01091 4.57627 2.66943 4.23479 2.66943 3.81356V3.05084C2.66943 2.62961 3.01091 2.28813 3.43215 2.28813H4.19486C4.61609 2.28813 4.95757 2.62961 4.95757 3.05084C4.95757 3.47208 4.61609 3.81356 4.19486 3.81356C4.19486 4.23479 3.85338 4.57627 3.43215 4.57627Z" fill="#4C8056"/>
<path d="M27.0761 3.81355H25.5507C25.1295 3.81355 24.788 3.47208 24.788 3.05084C24.788 2.62961 25.1295 2.28813 25.5507 2.28813H27.0761C27.4974 2.28813 27.8389 2.62961 27.8389 3.05084C27.8389 3.47208 27.4974 3.81355 27.0761 3.81355ZM22.4999 3.81355H20.9744C20.5532 3.81355 20.2117 3.47208 20.2117 3.05084C20.2117 2.62961 20.5532 2.28813 20.9744 2.28813H22.4999C22.9211 2.28813 23.2626 2.62961 23.2626 3.05084C23.2626 3.47208 22.9211 3.81355 22.4999 3.81355ZM17.9236 3.81355H16.3982C15.9769 3.81355 15.6355 3.47208 15.6355 3.05084C15.6355 2.62961 15.9769 2.28813 16.3982 2.28813H17.9236C18.3448 2.28813 18.6863 2.62961 18.6863 3.05084C18.6863 3.47208 18.3448 3.81355 17.9236 3.81355ZM13.3473 3.81355H11.8219C11.4007 3.81355 11.0592 3.47208 11.0592 3.05084C11.0592 2.62961 11.4007 2.28813 11.8219 2.28813H13.3473C13.7686 2.28813 14.11 2.62961 14.11 3.05084C14.11 3.47208 13.7686 3.81355 13.3473 3.81355ZM8.77105 3.81355H7.24562C6.82439 3.81355 6.48291 3.47208 6.48291 3.05084C6.48291 2.62961 6.82439 2.28813 7.24562 2.28813H8.77105C9.19228 2.28813 9.53376 2.62961 9.53376 3.05084C9.53376 3.47208 9.19228 3.81355 8.77105 3.81355Z" fill="#4C8056"/>
<path d="M30.8897 4.57627C30.4684 4.57627 30.127 4.23479 30.127 3.81356C29.7057 3.81356 29.3643 3.47208 29.3643 3.05084C29.3643 2.62961 29.7057 2.28813 30.127 2.28813H30.8897C31.3109 2.28813 31.6524 2.62961 31.6524 3.05084V3.81356C31.6524 4.23479 31.3109 4.57627 30.8897 4.57627Z" fill="#4C8056"/>
<path d="M30.8897 9.15253C30.4684 9.15253 30.127 8.81105 30.127 8.38982V6.8644C30.127 6.44316 30.4684 6.10168 30.8897 6.10168C31.3109 6.10168 31.6524 6.44316 31.6524 6.8644V8.38982C31.6524 8.81105 31.3109 9.15253 30.8897 9.15253Z" fill="#4C8056"/>
<path d="M30.8897 12.9661C30.4684 12.9661 30.127 12.6246 30.127 12.2034V11.4407C30.127 11.0194 30.4684 10.678 30.8897 10.678C31.3109 10.678 31.6524 11.0194 31.6524 11.4407V12.2034C31.6524 12.6246 31.3109 12.9661 30.8897 12.9661Z" fill="#4C8056"/>
<path d="M32.4151 24.2924L28.9295 15.2924C28.3867 14.0441 26.9732 13.4255 25.688 13.8737C25.0683 14.0774 24.5552 14.5192 24.2617 15.1017C23.9784 15.6682 23.9507 16.3287 24.1854 16.9169L28.6092 28.3576" fill="#7F8284"/>
<path d="M35.3744 32.7203L36.2287 34.322C36.6176 35.0848 35.9007 34.7873 35.3515 35.4127C34.2227 36.7017 32.4151 38.6009 32.4151 38.0822V38.2271V38.1356C32.4151 36.6102 30.4321 36.2136 29.3643 35.0848C28.899 34.5814 29.7456 33.0407 29.1431 32.7203L29.7227 31.1949L29.799 30.989C30.4778 31.6297 31.4007 30.4932 32.4075 30.4932C33.4143 30.4932 34.1388 31.7059 34.7948 31.1797L35.3744 32.7203Z" fill="#7F8284"/>
<path d="M36.2285 28.3347L40.6522 16.8941C40.8909 16.3065 40.8631 15.6443 40.5759 15.0788C40.2824 14.4963 39.7693 14.0545 39.1497 13.8508C38.869 13.7603 38.5749 13.719 38.2802 13.7288C37.2428 13.7113 36.301 14.3321 35.9081 15.2924L32.4149 24.2924L32.3691 24.4068" fill="#7F8284"/>
<path d="M36.2287 28.2203C36.2287 30.3265 34.5213 32.0339 32.4151 32.0339C30.309 32.0339 28.6016 30.3265 28.6016 28.2203C28.6016 26.1142 30.309 24.4068 32.4151 24.4068C33.4265 24.4068 34.3965 24.8086 35.1117 25.5237C35.8269 26.2389 36.2287 27.2089 36.2287 28.2203Z" fill="#A5A5A4"/>
<path d="M30.7603 33.9636C30.2949 33.4614 29.7483 33.0411 29.1434 32.7203C28.2708 32.2628 27.299 32.027 26.3137 32.0339C22.9609 32.0347 20.2368 34.7405 20.2135 38.0933C20.1903 41.446 22.8766 44.1894 26.2291 44.2367C29.5816 44.2839 32.3441 41.6173 32.4154 38.2653V38.1356C32.4138 36.5851 31.822 35.0934 30.7603 33.9636ZM29.3645 38.1966C29.3313 39.8577 27.9751 41.1868 26.3137 41.1864C24.6288 41.1864 23.2629 39.8205 23.2629 38.1356C23.2629 36.4507 24.6288 35.0847 26.3137 35.0847H26.3595C28.018 35.0843 29.373 36.4089 29.4103 38.0669L29.3645 38.1966Z" fill="#E64C3C"/>
<path d="M42.9715 33.9636C41.8241 32.7227 40.2073 32.0222 38.5173 32.0339C35.1681 32.0338 32.4449 34.7332 32.4156 38.0822V38.2271C32.405 41.597 35.1283 44.3374 38.4982 44.3479C41.8681 44.3584 44.6084 41.6351 44.6189 38.2653V38.1356C44.6194 36.5862 44.0304 35.0946 42.9715 33.9636ZM41.5681 38.1966C41.5349 39.8577 40.1786 41.1868 38.5173 41.1864H38.4715C36.7866 41.1738 35.4309 39.7977 35.4435 38.1127C35.4562 36.4278 36.8323 35.0721 38.5173 35.0847C40.1757 35.0843 41.5308 36.4089 41.5681 38.067V38.1966Z" fill="#C03A2B"/>
<path d="M21.1595 13.1495H19.5031C19.3933 12.5679 19.2396 11.9943 19.043 11.433H21.1595C22.176 11.433 23 10.6645 23 9.71649C23 8.76847 22.176 8 21.1595 8H9.8405C8.82399 8 8 8.76847 8 9.71649C8 10.6645 8.82399 11.433 9.8405 11.433H13.1534C14.0735 11.433 14.9019 12.2911 15.4539 13.1495H9.8405C8.82399 13.1495 8 13.9179 8 14.866C8 15.814 8.82399 16.5825 9.8405 16.5825H15.4539C15.362 16.5825 15.362 16.6682 15.2699 16.7541C14.6794 17.2189 13.9256 17.4635 13.1534 17.4408H9.8405C9.08855 17.4418 8.42151 17.8911 8.18407 18.5565C7.93113 19.2158 8.11062 19.952 8.64415 20.4447L16.6503 27.5681C16.9994 27.8684 17.4646 28.0233 17.9386 27.9972C18.9549 27.9839 19.7673 27.2047 19.753 26.2567C19.7463 25.8156 19.558 25.3939 19.2269 25.079L14.3495 20.7879C16.8 20.444 18.8122 18.802 19.5029 16.5825H21.1593C22.1758 16.5825 22.9998 15.814 22.9998 14.866C23 13.9179 22.1758 13.1495 21.1595 13.1495Z" fill="white"/>
</g>
<defs>
<clipPath id="clip0">
<rect width="45" height="45" fill="white"/>
</clipPath>
</defs>
</svg>
