<svg width="59" height="51" viewBox="0 0 59 51" fill="none" xmlns="http://www.w3.org/2000/svg">
<path fill-rule="evenodd" clip-rule="evenodd" d="M50.3969 35.4831C49.5632 32.4197 46.7881 30.9836 43.3068 30.4536C42.5064 30.3318 41.6732 30.2567 40.8162 30.2221C40.1833 30.2046 39.658 30.0918 39.2124 29.9093C36.7119 34.0065 25.2803 33.717 23.3721 29.9093V29.8805C22.9103 30.0801 22.3611 30.2046 21.6985 30.2221C20.8649 30.2567 20.0546 30.326 19.2782 30.4419C15.8936 30.9431 13.1689 32.2921 12.2183 35.1442C13.6875 36.3633 25.6183 45.6608 25.7119 46.1701H50.7615V40.9585C50.7615 40.4025 51.0527 39.9013 51.5114 39.5655L50.3969 35.4831Z" fill="#64B0D9"/>
<path d="M8.31889 30.0824C8.08527 30.0824 7.8521 30.0042 7.67655 29.8482C7.33039 29.5416 7.33759 29.0505 7.69275 28.7517C8.539 28.0389 8.3576 27.7319 7.91962 26.991C7.41862 26.1432 6.66104 24.8623 8.60472 23.2814C8.96528 22.988 9.53335 23.0024 9.8732 23.3144C10.2126 23.6265 10.1955 24.1171 9.83449 24.4105C8.8721 25.1934 9.06116 25.5132 9.51804 26.2852C10.0042 27.1081 10.7393 28.3513 8.94547 29.8622C8.77082 30.0093 8.54485 30.0824 8.31889 30.0824Z" fill="#666666"/>
<path d="M13.2865 25.9245C13.0529 25.9245 12.8193 25.8463 12.6437 25.6903C12.2976 25.3837 12.3048 24.8926 12.6599 24.5938C13.5062 23.881 13.3243 23.5747 12.8855 22.8335C12.3836 21.986 11.6246 20.7047 13.5683 19.1234C13.9293 18.8301 14.4969 18.8448 14.8368 19.1569C15.1766 19.4686 15.1595 19.9592 14.7985 20.253C13.8366 21.0355 14.0261 21.3549 14.4834 22.1269C14.9705 22.9498 15.7074 24.193 13.9127 25.7047C13.738 25.8514 13.512 25.9245 13.2865 25.9245Z" fill="#666666"/>
<path d="M54.5109 40.1609C54.0153 40.1609 53.6138 39.8138 53.6138 39.3858V26.7241C53.6138 26.2961 54.0153 25.949 54.5109 25.949C55.0065 25.949 55.4085 26.2961 55.4085 26.7241V39.3854C55.4085 39.8138 55.0065 40.1609 54.5109 40.1609Z" fill="#666666"/>
<path fill-rule="evenodd" clip-rule="evenodd" d="M21.6987 30.2221C20.865 30.2567 20.0548 30.326 19.2783 30.4419V35.1442L21.096 36.5543L23.3723 35.1442V29.8805C22.9105 30.0801 22.3613 30.2046 21.6987 30.2221Z" fill="#E6E6E6"/>
<path fill-rule="evenodd" clip-rule="evenodd" d="M19.104 44.8876H23.9781C24.8518 44.8876 25.5814 45.4464 25.712 46.1701H46.5572L44.9602 38.1815C44.8098 37.4057 44.217 36.7485 43.3064 36.7485V30.4536C42.5065 30.3318 41.6728 30.2567 40.8158 30.2221C40.1833 30.2046 39.6576 30.0918 39.2124 29.9093V36.7485H26.6964C26.723 36.922 20.5638 44.3694 19.104 44.8876Z" fill="#E6E6E6"/>
<path fill-rule="evenodd" clip-rule="evenodd" d="M37.2547 28.0852L31.5537 26.5303L25.2771 28.056L25.2604 28.0821C24.8422 28.8494 24.2494 29.498 23.3726 29.8801V29.9093C25.2807 33.7166 36.7123 34.0065 39.2128 29.9093C38.2959 29.5326 37.7134 28.8552 37.2547 28.0852Z" fill="#FCC368"/>
<path fill-rule="evenodd" clip-rule="evenodd" d="M38.1117 13.2543C33.5726 12.6726 29.0064 12.6609 24.4137 13.2543C23.088 13.4251 21.7624 13.648 20.4336 13.9204V21.4689C20.4336 24.1417 22.6861 26.5015 25.2775 28.0564C27.3931 29.3303 29.7361 30.063 31.2458 29.9933C33.1539 29.9007 35.3434 29.2116 37.2547 28.0852C39.973 26.4813 42.1287 23.9911 42.1287 21.0666V13.9177C40.7932 13.648 39.454 13.4251 38.1117 13.2543Z" fill="#FFDDA6"/>
<path fill-rule="evenodd" clip-rule="evenodd" d="M31.5641 1.39453C29.4719 1.40037 27.2689 2.32681 26.1746 4.17153H23.2352C18.9873 4.17153 16.4567 8.20766 20.4332 10.3473V15.9616C21.7624 15.6896 23.0881 15.4694 24.4137 15.2959C29.0064 14.7021 33.5726 14.7138 38.1117 15.2959C39.454 15.4694 40.7927 15.6896 42.1287 15.9616V10.3473C46.1057 8.20766 43.6853 4.17153 39.4374 4.17153H36.277C35.6581 2.32681 33.6928 1.40037 31.6041 1.39453H31.5641Z" fill="#E6E6E6"/>
<path fill-rule="evenodd" clip-rule="evenodd" d="M42.1286 10.3473C46.1055 8.20766 43.6851 4.17114 39.4372 4.17114H36.9565C40.766 4.17114 43.1193 7.11584 40.6891 9.33099C39.909 10.0403 39.6614 9.67262 39.6614 10.666L39.6515 15.5157C40.4784 15.6461 41.3053 15.7939 42.1286 15.9616V10.3473Z" fill="#C2C7CC"/>
<path fill-rule="evenodd" clip-rule="evenodd" d="M42.1285 19.7172C41.9881 19.6939 40.7291 19.4857 39.6514 18.7445V20.6207C39.6514 23.5448 37.4921 26.0381 34.7742 27.6393C32.8625 28.7684 30.6735 29.4548 28.7654 29.5474C28.6983 29.5501 28.6313 29.5532 28.561 29.5532C29.572 29.8688 30.5092 30.0279 31.2456 29.9933C33.1538 29.9007 35.3432 29.2116 37.2545 28.0852C39.9728 26.4809 42.1285 23.9907 42.1285 21.0662V19.7172Z" fill="#FCC368"/>
<path fill-rule="evenodd" clip-rule="evenodd" d="M39.2132 29.9093C38.2958 29.5326 37.7134 28.8552 37.2547 28.0852C36.1298 28.7482 34.905 29.2606 33.7031 29.5879C34.2554 30.5116 34.7105 30.9342 36.3076 31.5886C36.4985 31.6668 36.706 31.7334 36.9265 31.7824C37.9308 31.3166 38.7343 30.691 39.2132 29.9093Z" fill="#EDA93B"/>
<path fill-rule="evenodd" clip-rule="evenodd" d="M50.397 35.4831C49.5633 32.4197 46.7883 30.9836 43.3069 30.4536C42.5066 30.3318 41.6734 30.2567 40.8163 30.2221C40.1834 30.2046 39.6581 30.0918 39.2125 29.9093C38.734 30.691 37.9305 31.3166 36.9263 31.7828C37.2243 31.852 37.5488 31.8929 37.9107 31.9015C38.3523 31.9217 38.7844 31.9478 39.2125 31.9882C39.6176 32.026 40.0128 32.0723 40.4013 32.133C41.442 32.2921 42.4229 32.5326 43.3069 32.8715C45.3721 33.6703 46.9084 35.017 47.4945 37.1652C48.3381 40.2605 48.6595 42.9939 48.6595 46.1701H50.7616V40.9585C50.7616 40.4025 51.0528 39.9013 51.5115 39.5655L50.397 35.4831Z" fill="#4A83C9"/>
<path fill-rule="evenodd" clip-rule="evenodd" d="M43.3068 30.4536C42.5065 30.3318 41.6733 30.2567 40.8162 30.2221C40.1833 30.2046 39.658 30.0918 39.2124 29.9093V31.9882C39.6175 32.026 40.0127 32.0723 40.4012 32.133C41.4419 32.2921 42.4228 32.5326 43.3068 32.8715V30.4536Z" fill="#C2C7CC"/>
<path fill-rule="evenodd" clip-rule="evenodd" d="M58.2601 42.3772C58.2601 40.5935 56.573 39.1344 54.5109 39.1344H52.8706C52.3552 39.1344 51.8799 39.2963 51.5116 39.5655C51.053 39.9013 50.7617 40.4025 50.7617 40.9585V46.8219C50.7617 47.8265 51.7124 48.6487 52.8706 48.6487H54.5109C56.573 48.6487 58.2601 47.1896 58.2601 45.4059V42.3772Z" fill="#FFDDA6"/>
<path fill-rule="evenodd" clip-rule="evenodd" d="M56.4157 15.5013H52.6062C51.1833 15.5013 50.022 16.5091 50.022 17.7367V24.4887C50.022 25.7195 51.1833 26.7241 52.6062 26.7241H56.4157C57.2156 26.7241 57.9317 26.4058 58.4075 25.9078C58.7757 25.5198 58.9999 25.0276 58.9999 24.4891V17.7367C58.9999 17.2009 58.7757 16.706 58.4075 16.3208C57.9322 15.8227 57.2156 15.5013 56.4157 15.5013Z" fill="#E6E6E6"/>
<path fill-rule="evenodd" clip-rule="evenodd" d="M44.9601 38.1815C44.8098 37.4057 44.2174 36.7485 43.3068 36.7485H40.9233L42.8747 46.1701H46.5572L44.9601 38.1815Z" fill="#C2C7CC"/>
<path fill-rule="evenodd" clip-rule="evenodd" d="M58.26 42.3772C58.26 40.5935 56.5729 39.1344 54.5108 39.1344H52.8705C52.6531 39.1344 52.4424 39.1632 52.2412 39.2181C53.8986 39.5511 55.1437 40.8453 55.1437 42.3772V45.4059C55.1437 46.9378 53.8986 48.2292 52.2412 48.565C52.4424 48.6172 52.6531 48.6491 52.8705 48.6491H54.5108C56.5729 48.6491 58.26 47.1896 58.26 45.4059V42.3772Z" fill="#FCC368"/>
<path fill-rule="evenodd" clip-rule="evenodd" d="M33.3077 36.7485C33.1704 35.8481 32.2701 35.1442 31.1889 35.1442H27.5937C26.3315 35.1442 26.1173 36.1722 25.8463 37.229C25.709 37.7558 28.4643 38.3496 28.2464 38.8418H31.1889C32.3674 38.8418 33.328 38.0107 33.328 36.9944C33.328 36.9107 33.3212 36.8294 33.3077 36.7485Z" fill="#FCC368"/>
<path fill-rule="evenodd" clip-rule="evenodd" d="M5.73111 35.1442H2.13589C0.960587 35.1442 0 35.9781 0 36.9944C0 38.0107 0.960587 38.8418 2.13589 38.8418H5.07166L7.85979 36.5543L5.73111 35.1442Z" fill="#FCC368"/>
<path fill-rule="evenodd" clip-rule="evenodd" d="M23.3725 35.1442H5.73128C4.46911 35.1442 4.2751 36.2504 4.54608 37.3099C4.68337 37.843 4.86072 38.3523 5.07184 38.8418C6.31691 41.7056 8.8075 43.8192 11.9539 44.8876L16.0281 47.088L21.468 44.8876C24.5775 43.7787 27.0312 41.578 28.2465 38.8418C28.464 38.3496 28.6449 37.8372 28.7786 37.3099C29.05 36.2504 28.8592 35.1442 27.5939 35.1442H23.3725Z" fill="#F78411"/>
<path fill-rule="evenodd" clip-rule="evenodd" d="M21.4676 44.8876H7.65212C6.68478 44.8876 5.89795 45.5709 5.89795 46.4047V47.9888C5.89795 48.8226 6.68478 49.5059 7.65212 49.5059H26.3412C27.3054 49.5059 28.0954 48.8226 28.0954 47.9888V46.4047C28.0954 46.3265 28.0887 46.2456 28.072 46.1701C27.9415 45.4464 27.2118 44.8876 26.3412 44.8876H21.4676Z" fill="#808080"/>
<path fill-rule="evenodd" clip-rule="evenodd" d="M27.5938 35.1442H23.9347C25.1969 35.1442 25.3909 36.2504 25.1199 37.3099C24.9826 37.8372 24.8053 38.3496 24.5842 38.8418C24.3533 39.3659 24.0756 39.8667 23.7573 40.3476C23.1852 41.2075 22.4821 41.992 21.6687 42.6811C21.6152 42.7246 21.5616 42.7709 21.508 42.8145C20.4367 43.6888 19.1849 44.3954 17.8057 44.8876H21.468C22.1238 44.653 22.7499 44.3721 23.3423 44.0449C25.5552 42.8258 27.2855 41.0017 28.2465 38.8418C28.464 38.3496 28.6449 37.8372 28.7786 37.3099C28.829 37.122 28.8623 36.9337 28.8758 36.7485C28.9496 35.8944 28.635 35.1442 27.5938 35.1442Z" fill="#F74311"/>
<path fill-rule="evenodd" clip-rule="evenodd" d="M28.0723 46.1701C27.9417 45.4464 27.2121 44.8876 26.3415 44.8876H22.6792C23.5529 44.8876 24.2794 45.4464 24.4136 46.1701C24.4266 46.2456 24.4334 46.3265 24.4334 46.4047V47.9888C24.4334 48.8226 23.6434 49.5059 22.6792 49.5059H26.3415C27.3057 49.5059 28.0957 48.8226 28.0957 47.9888V46.4047C28.0957 46.3265 28.0894 46.2456 28.0723 46.1701Z" fill="#666666"/>
<path fill-rule="evenodd" clip-rule="evenodd" d="M58.4077 16.3208C57.9323 15.8227 57.2157 15.5013 56.4158 15.5013H52.9106C54.3304 15.5013 55.4953 16.5091 55.4953 17.7367V24.4887C55.4953 25.7195 54.3304 26.7241 52.9106 26.7241H56.4158C57.2157 26.7241 57.9319 26.4058 58.4077 25.9078C58.7759 25.5198 59.0001 25.0276 59.0001 24.4891V17.7367C59.0001 17.2009 58.7759 16.706 58.4077 16.3208Z" fill="#C2C7CC"/>
<path fill-rule="evenodd" clip-rule="evenodd" d="M42.1285 15.9616C40.793 15.6896 39.4538 15.4694 38.1115 15.2959C37.6393 18.9729 41.8607 19.6764 42.1285 19.7172V15.9616Z" fill="#808080"/>
<path fill-rule="evenodd" clip-rule="evenodd" d="M24.4137 15.2959C23.088 15.4694 21.7624 15.6896 20.4336 15.9616V19.7114C21.0125 19.6129 24.8625 18.8079 24.4137 15.2959Z" fill="#808080"/>
<path fill-rule="evenodd" clip-rule="evenodd" d="M42.1285 15.9616C41.3052 15.7939 40.4783 15.6461 39.6514 15.5157V18.7441C40.729 19.4853 41.988 19.6939 42.1285 19.7172V15.9616Z" fill="#666666"/>
<path d="M25.8454 20.1989C25.6189 20.1989 25.3925 20.125 25.2179 19.9775C24.8632 19.6783 24.8582 19.1861 25.2044 18.8799C25.8449 18.3133 26.9558 18.2484 27.4042 18.2468H27.4222C27.8885 18.2468 28.9972 18.3106 29.6463 18.8752C29.9956 19.1791 29.9938 19.6701 29.6422 19.9721C29.2907 20.2736 28.7226 20.2721 28.3733 19.9686C28.0848 19.7441 26.778 19.7417 26.4854 19.9658C26.3099 20.1211 26.0781 20.1989 25.8454 20.1989Z" fill="#666666"/>
<path d="M33.1127 20.1989C32.8862 20.1989 32.6598 20.125 32.4847 19.9775C32.1305 19.6779 32.1251 19.1861 32.4717 18.8799C33.1127 18.3133 34.2236 18.2484 34.6715 18.2468H34.6895C35.1554 18.2468 36.2641 18.3106 36.9136 18.8752C37.2629 19.1791 37.2611 19.6701 36.9096 19.9721C36.558 20.2736 35.9899 20.2721 35.6402 19.9686C35.3516 19.7441 34.0453 19.7417 33.7528 19.9658C33.5772 20.1211 33.3449 20.1989 33.1127 20.1989Z" fill="#666666"/>
<path d="M31.149 10.6886C30.6534 10.6886 30.2515 10.3411 30.2515 9.91308V6.35165C30.2515 5.92326 30.6534 5.57618 31.149 5.57618C31.6446 5.57618 32.0462 5.92326 32.0462 6.35165V9.91308C32.0462 10.3411 31.6446 10.6886 31.149 10.6886Z" fill="#C2C7CC"/>
<path d="M25.0563 12.2955C24.5607 12.2955 24.1587 11.9481 24.1587 11.5201V7.96136C24.1587 7.53335 24.5607 7.18627 25.0563 7.18627C25.5519 7.18627 25.9534 7.53335 25.9534 7.96136V11.5201C25.9534 11.9481 25.5519 12.2955 25.0563 12.2955Z" fill="#C2C7CC"/>
<path d="M37.2409 12.2955C36.7453 12.2955 36.3438 11.9481 36.3438 11.5201V7.96136C36.3438 7.53335 36.7453 7.18627 37.2409 7.18627C37.7365 7.18627 38.1384 7.53335 38.1384 7.96136V11.5201C38.1384 11.9481 37.7365 12.2955 37.2409 12.2955Z" fill="#C2C7CC"/>
</svg>
