<svg width="50" height="50" viewBox="0 0 50 50" fill="none" xmlns="http://www.w3.org/2000/svg">
<path d="M26.9913 44.1406H5.95703C5.14736 44.1406 4.49219 43.4855 4.49219 42.6758V1.46484C4.49219 0.655176 5.14736 0 5.95703 0H35.2539C36.0636 0 36.7188 0.655176 36.7188 1.46484V30.957C36.7188 31.7667 36.0636 32.4219 35.2539 32.4219C31.2142 32.4219 27.9297 35.7077 27.9297 39.7461C27.9297 40.6072 28.0728 41.4141 28.356 42.1465C28.7302 43.1126 28.0136 44.1406 26.9913 44.1406Z" fill="#E6F7FF"/>
<path d="M20.6055 44.1406H26.9913C28.0136 44.1406 28.7303 43.1126 28.3561 42.1465C28.0729 41.4141 27.9298 40.6072 27.9298 39.7461C27.9298 35.7077 31.2143 32.4219 35.254 32.4219C36.0637 32.4219 36.7188 31.7667 36.7188 30.957V1.46484C36.7188 0.655176 36.0637 0 35.254 0H20.6055V44.1406Z" fill="#CCEEFF"/>
<path d="M35.2539 50C29.4946 50 25 45.3037 25 39.7461C25 34.0927 29.6005 29.4922 35.2539 29.4922C40.9073 29.4922 45.5078 34.0927 45.5078 39.7461C45.5078 45.3995 40.9073 50 35.2539 50Z" fill="#97DE3D"/>
<path d="M11.8164 11.9141C12.6254 11.9141 13.2812 11.2582 13.2812 10.4492C13.2812 9.64021 12.6254 8.98438 11.8164 8.98438C11.0074 8.98438 10.3516 9.64021 10.3516 10.4492C10.3516 11.2582 11.0074 11.9141 11.8164 11.9141Z" fill="#47568C"/>
<path d="M11.8164 17.7734C12.6254 17.7734 13.2812 17.1176 13.2812 16.3086C13.2812 15.4996 12.6254 14.8438 11.8164 14.8438C11.0074 14.8438 10.3516 15.4996 10.3516 16.3086C10.3516 17.1176 11.0074 17.7734 11.8164 17.7734Z" fill="#47568C"/>
<path d="M11.8164 23.6328C12.6254 23.6328 13.2812 22.977 13.2812 22.168C13.2812 21.359 12.6254 20.7031 11.8164 20.7031C11.0074 20.7031 10.3516 21.359 10.3516 22.168C10.3516 22.977 11.0074 23.6328 11.8164 23.6328Z" fill="#47568C"/>
<path d="M11.8164 29.4922C12.6254 29.4922 13.2812 28.8364 13.2812 28.0273C13.2812 27.2183 12.6254 26.5625 11.8164 26.5625C11.0074 26.5625 10.3516 27.2183 10.3516 28.0273C10.3516 28.8364 11.0074 29.4922 11.8164 29.4922Z" fill="#47568C"/>
<path d="M29.3945 11.9141H17.6758C16.8661 11.9141 16.2109 11.2589 16.2109 10.4492C16.2109 9.63955 16.8661 8.98438 17.6758 8.98438H29.3945C30.2042 8.98438 30.8594 9.63955 30.8594 10.4492C30.8594 11.2589 30.2042 11.9141 29.3945 11.9141Z" fill="#99EEFF"/>
<path d="M29.3945 17.7734H17.6758C16.8661 17.7734 16.2109 17.1183 16.2109 16.3086C16.2109 15.4989 16.8661 14.8438 17.6758 14.8438H29.3945C30.2042 14.8438 30.8594 15.4989 30.8594 16.3086C30.8594 17.1183 30.2042 17.7734 29.3945 17.7734Z" fill="#99EEFF"/>
<path d="M29.3945 23.6328H17.6758C16.8661 23.6328 16.2109 22.9776 16.2109 22.168C16.2109 21.3583 16.8661 20.7031 17.6758 20.7031H29.3945C30.2042 20.7031 30.8594 21.3583 30.8594 22.168C30.8594 22.9776 30.2042 23.6328 29.3945 23.6328Z" fill="#99EEFF"/>
<path d="M23.5352 29.4922H17.6758C16.8661 29.4922 16.2109 28.837 16.2109 28.0273C16.2109 27.2177 16.8661 26.5625 17.6758 26.5625H23.5352C24.3448 26.5625 25 27.2177 25 28.0273C25 28.837 24.3448 29.4922 23.5352 29.4922Z" fill="#99EEFF"/>
<path d="M20.6055 29.4922H23.5352C24.3448 29.4922 25 28.837 25 28.0273C25 27.2177 24.3448 26.5625 23.5352 26.5625H20.6055V29.4922Z" fill="#80BFFF"/>
<path d="M20.6055 23.6328H29.3945C30.2042 23.6328 30.8594 22.9776 30.8594 22.168C30.8594 21.3583 30.2042 20.7031 29.3945 20.7031H20.6055V23.6328Z" fill="#80BFFF"/>
<path d="M20.6055 17.7734H29.3945C30.2042 17.7734 30.8594 17.1183 30.8594 16.3086C30.8594 15.4989 30.2042 14.8438 29.3945 14.8438H20.6055V17.7734Z" fill="#80BFFF"/>
<path d="M20.6055 11.9141H29.3945C30.2042 11.9141 30.8594 11.2589 30.8594 10.4492C30.8594 9.63955 30.2042 8.98438 29.3945 8.98438H20.6055V11.9141Z" fill="#80BFFF"/>
<path d="M45.5078 39.7461C45.5078 34.0927 40.9073 29.4922 35.2539 29.4922V50C40.9073 50 45.5078 45.3995 45.5078 39.7461Z" fill="#59C36A"/>
<path d="M32.7533 42.979L30.5561 40.7817C29.9839 40.2096 29.9839 39.2825 30.5561 38.7104C31.1282 38.1382 32.0553 38.1382 32.6275 38.7104L33.789 39.872L37.1479 36.5131C37.72 35.9409 38.6471 35.9409 39.2193 36.5131C39.7914 37.0853 39.7914 38.0123 39.2193 38.5845L34.8247 42.979C34.2525 43.5513 33.3255 43.5513 32.7533 42.979Z" fill="#F0F7FF"/>
<path d="M37.1479 36.5132L35.2539 38.4071V42.5499L39.2192 38.5846C39.7914 38.0124 39.7914 37.0853 39.2192 36.5132C38.6471 35.941 37.7201 35.9409 37.1479 36.5132Z" fill="#DFE7F4"/>
</svg>
