<svg width="47" height="47" viewBox="0 0 47 47" fill="none" xmlns="http://www.w3.org/2000/svg">
<g clip-path="url(#clip0)">
<path d="M45.5312 6.85416V8.32291H1.46875V6.85416C1.46875 3.81874 3.93625 1.35124 6.97167 1.35124H40.0283C43.0638 1.35124 45.5312 3.81874 45.5312 6.85416Z" fill="#607D8B"/>
<path d="M45.5312 8.32292V39.4017C45.5312 40.6158 44.5521 41.6146 43.3379 41.6146H3.66208C2.44792 41.6146 1.46875 40.6158 1.46875 39.4017V8.32292H45.5312Z" fill="#ECEFF1"/>
<path d="M33.1784 24.1717L23.9252 21.0247C23.6491 20.9307 23.3495 20.9307 23.0753 21.0247L13.8222 24.1717C13.2856 24.3538 12.9253 24.8571 12.9253 25.4231V32.5044C12.9253 41.1485 22.572 45.3491 22.9833 45.5234C23.1497 45.5939 23.324 45.6292 23.5003 45.6292C23.6765 45.6292 23.8508 45.5939 24.0173 45.5234C24.4285 45.3491 34.0753 41.1485 34.0753 32.5044V25.4231C34.0753 24.8571 33.715 24.3538 33.1784 24.1717Z" fill="#4CAF50"/>
<path d="M41.6146 43.0833H38.07C37.2593 43.0833 36.6013 42.4253 36.6013 41.6146C36.6013 40.8038 37.2593 40.1458 38.07 40.1458H41.6146C42.9639 40.1458 44.0625 39.0472 44.0625 37.6979V5.38542C44.0625 4.03613 42.9639 2.9375 41.6146 2.9375H5.38542C4.03613 2.9375 2.9375 4.03613 2.9375 5.38542V37.6979C2.9375 39.0472 4.03613 40.1458 5.38542 40.1458H8.93C9.74075 40.1458 10.3988 40.8038 10.3988 41.6146C10.3988 42.4253 9.74075 43.0833 8.93 43.0833H5.38542C2.41463 43.0833 0 40.6687 0 37.6979V5.38542C0 2.41463 2.41463 0 5.38542 0H41.6146C44.5854 0 47 2.41463 47 5.38542V37.6979C47 40.6687 44.5854 43.0833 41.6146 43.0833Z" fill="black"/>
<path d="M45.5312 9.79167H1.46875C0.658 9.79167 0 9.13367 0 8.32292C0 7.51217 0.658 6.85417 1.46875 6.85417H45.5312C46.342 6.85417 47 7.51217 47 8.32292C47 9.13367 46.342 9.79167 45.5312 9.79167Z" fill="black"/>
<path d="M23.5 47C23.3042 47 23.1103 46.9608 22.9262 46.8825C22.4699 46.6886 11.75 42.0219 11.75 32.4183V24.5497C11.75 23.921 12.1495 23.3629 12.7468 23.1592L23.028 19.6617C23.3335 19.5559 23.6665 19.5559 23.972 19.6617L34.2532 23.1592C34.8505 23.361 35.25 23.9191 35.25 24.5497V32.4183C35.25 42.0219 24.5301 46.6906 24.0738 46.8845C23.8897 46.9608 23.6958 47 23.5 47ZM14.6875 25.6013V32.4183C14.6875 38.9748 21.4535 42.8777 23.498 43.9058C25.5386 42.8718 32.3125 38.9493 32.3125 32.4183V25.6013L23.5 22.6031L14.6875 25.6013Z" fill="black"/>
<path d="M23.0104 38.1875C22.6227 38.1875 22.2467 38.0328 21.9725 37.7567L18.0558 33.84C17.482 33.2662 17.482 32.336 18.0558 31.7622C18.6296 31.1884 19.5598 31.1884 20.1336 31.7622L22.8537 34.4823L27.7104 28.0042C28.1922 27.356 29.1145 27.2228 29.7667 27.7104C30.4149 28.198 30.5461 29.1185 30.0585 29.7667L24.1835 37.6C23.9289 37.9408 23.5392 38.1542 23.1122 38.1836C23.079 38.1875 23.0457 38.1875 23.0104 38.1875Z" fill="black"/>
</g>
<defs>
<clipPath id="clip0">
<rect width="47" height="47" fill="white"/>
</clipPath>
</defs>
</svg>