<svg width="46" height="40" viewBox="0 0 46 40" fill="none" xmlns="http://www.w3.org/2000/svg">
<path d="M12.2188 2.34375V0H0V10.625H2.69531V4.00086L11.266 11.4535L13.1715 9.79648L4.60099 2.34375H12.2188Z" fill="#97DE3D"/>
<path d="M43.3049 35.9991L34.7342 28.5465L32.8286 30.2035L41.3992 37.6562H33.7814V40H46.0002V29.375H43.3049V35.9991Z" fill="#59C36A"/>
<path d="M33.7814 0V2.34375H41.3992L32.8286 9.79648L34.7342 11.4535L43.3049 4.00086V10.625H46.0002V0H33.7814Z" fill="#59C36A"/>
<path d="M11.266 28.5465L2.69531 35.9991V29.375H0V40H12.2188V37.6562H4.60099L13.1715 30.2035L11.266 28.5465Z" fill="#97DE3D"/>
<path d="M23 30.5469C29.6986 30.5469 35.1289 25.8249 35.1289 20C35.1289 14.1751 29.6986 9.45312 23 9.45312C16.3014 9.45312 10.8711 14.1751 10.8711 20C10.8711 25.8249 16.3014 30.5469 23 30.5469Z" fill="#FED843"/>
<path d="M35.1289 20C35.1289 14.1751 29.6987 9.45312 23 9.45312V30.5469C29.6987 30.5469 35.1289 25.8249 35.1289 20Z" fill="#FABE2C"/>
<path d="M26.0184 17.3472H25.135C25.0764 16.9692 24.9944 16.5963 24.8896 16.2314H26.0184C26.5605 16.2314 27 15.7319 27 15.1157C27 14.4995 26.5605 14 26.0184 14H19.9816C19.4395 14 19 14.4995 19 15.1157C19 15.7319 19.4395 16.2314 19.9816 16.2314H21.7485C22.2392 16.2314 22.681 16.7892 22.9754 17.3472H19.9816C19.4395 17.3472 19 17.8467 19 18.4629C19 19.0791 19.4395 19.5786 19.9816 19.5786H22.9754C22.9264 19.5786 22.9264 19.6343 22.8773 19.6902C22.5624 19.9923 22.1603 20.1512 21.7485 20.1365H19.9816C19.5806 20.1372 19.2248 20.4292 19.0982 20.8617C18.9633 21.2902 19.059 21.7688 19.3435 22.089L23.6135 26.7193C23.7997 26.9144 24.0478 27.0151 24.3006 26.9982C24.8426 26.9895 25.2759 26.4831 25.2683 25.8668C25.2647 25.5801 25.1643 25.306 24.9877 25.1014L22.3864 22.3121C23.6933 22.0886 24.7665 21.0213 25.1349 19.5786H26.0183C26.5604 19.5786 26.9999 19.0791 26.9999 18.4629C27 17.8467 26.5604 17.3472 26.0184 17.3472Z" fill="white"/>
</svg>
