<svg width="46" height="41" viewBox="0 0 46 41" fill="none" xmlns="http://www.w3.org/2000/svg">
<g clip-path="url(#clip0)">
<path d="M40.3525 26.368H4.17359C2.72889 26.368 1.55811 25.3244 1.55811 24.0371V2.66902C1.55811 1.38136 2.72889 0.33783 4.17359 0.33783H40.3525C41.7968 0.33783 42.9676 1.38136 42.9676 2.66902V24.0371C42.9676 25.3244 41.7968 26.368 40.3525 26.368Z" fill="#F9CFCF"/>
<path d="M1.55811 2.66902V4.22293H42.9676V2.66902C42.9676 1.38136 41.7968 0.33783 40.3525 0.33783H4.17359C2.72889 0.33783 1.55811 1.38169 1.55811 2.66902Z" fill="#4671C6"/>
<path d="M40.3526 26.7058H4.17335C2.52248 26.7058 1.1792 25.5085 1.1792 24.0371V2.66903C1.1792 1.19727 2.52248 0 4.17335 0H40.3523C42.0035 0 43.3468 1.19727 43.3468 2.66903V24.0371C43.3468 25.5085 42.0035 26.7058 40.3526 26.7058ZM4.17335 0.67567C2.94038 0.67567 1.93727 1.56975 1.93727 2.66903V24.0371C1.93727 25.136 2.94038 26.0301 4.17335 26.0301H40.3523C41.5856 26.0301 42.5887 25.136 42.5887 24.0371V2.66903C42.5887 1.56975 41.5856 0.67567 40.3523 0.67567H4.17335Z" fill="#3762CC"/>
<path d="M31.9483 11.6979V11.6985C31.2846 11.0525 30.5188 10.4633 29.6515 9.95029C27.4717 8.66098 24.9761 8.03678 22.5013 8.02391V8.02886C19.8721 7.95892 17.1952 8.57817 14.8755 9.95029C14.0082 10.4633 13.242 11.0525 12.5787 11.6985L12.5783 11.6979C12.5783 11.6979 11.1136 13.0525 10.0269 14.6503L13.0203 17.3322C13.2013 17.4998 13.3878 17.6608 13.5788 17.8165C13.5803 17.8178 13.5822 17.8195 13.5836 17.8211L13.5833 17.8201C16.0148 19.799 19.2432 20.8257 22.5009 20.791V20.7881C25.5958 20.7227 28.6299 19.7023 30.9426 17.8198V17.8208C30.9441 17.8191 30.9459 17.8178 30.9474 17.8162C31.1384 17.6604 31.325 17.4994 31.506 17.3322L34.4994 14.65C33.413 13.0528 31.9483 11.6979 31.9483 11.6979Z" fill="#E0EBFC"/>
<path d="M29.2914 14.4081C29.2914 17.7868 26.2184 20.5258 22.4277 20.5258C18.637 20.5258 15.564 17.7868 15.564 14.4081C15.564 11.0291 18.637 8.29016 22.4277 8.29016C26.2184 8.29016 29.2914 11.0291 29.2914 14.4081Z" fill="#4671C6"/>
<path d="M40.136 3.1088H35.23C34.8095 3.1088 34.4683 2.80462 34.4683 2.42983V2.42786C34.4683 2.05307 34.8095 1.74889 35.23 1.74889H40.136C40.5565 1.74889 40.8978 2.05307 40.8978 2.42786V2.42983C40.8978 2.80462 40.5565 3.1088 40.136 3.1088Z" fill="#E0EBFC"/>
<path d="M19.9719 11.6382C19.7202 11.527 19.4248 11.6906 19.4248 11.941V16.8749C19.4248 17.1253 19.7202 17.2886 19.9719 17.1778L25.5671 14.711C25.8484 14.587 25.8484 14.2293 25.5671 14.1053L19.9719 11.6382Z" fill="#F9A7A7"/>
<path d="M18.6468 40.6623H15.549C15.0104 40.6623 14.5732 40.273 14.5732 39.7926V35.2365C14.5732 34.7561 15.0104 34.3668 15.549 34.3668H18.6468C19.1853 34.3668 19.6225 34.7561 19.6225 35.2365V39.7926C19.6225 40.273 19.1853 40.6623 18.6468 40.6623Z" fill="#6BDDDD"/>
<path d="M26.8952 40.6623H23.7356C23.2141 40.6623 22.791 40.2852 22.791 39.82V29.2689C22.791 28.8041 23.2141 28.427 23.7356 28.427H26.8952C27.4168 28.427 27.8399 28.8041 27.8399 29.2689V39.82C27.8399 40.2852 27.4168 40.6623 26.8952 40.6623Z" fill="#6BDDDD"/>
<path d="M35.3503 40.6623H31.7161C31.3253 40.6623 31.0088 40.3799 31.0088 40.0315V31.549C31.0088 31.2006 31.3253 30.9182 31.7161 30.9182H35.3503C35.7408 30.9182 36.0576 31.2006 36.0576 31.549V40.0315C36.0576 40.3799 35.7408 40.6623 35.3503 40.6623Z" fill="#6BDDDD"/>
<path d="M18.6465 41.0001H15.5491C14.8021 41.0001 14.1943 40.4584 14.1943 39.7926V35.2365C14.1943 34.5704 14.8021 34.029 15.5491 34.029H18.6465C19.3935 34.029 20.0013 34.5707 20.0013 35.2365V39.7926C20.0013 40.4584 19.3935 41.0001 18.6465 41.0001ZM15.5491 34.7046C15.22 34.7046 14.9524 34.9432 14.9524 35.2365V39.7926C14.9524 40.0859 15.22 40.3244 15.5491 40.3244H18.6465C18.9756 40.3244 19.2432 40.0859 19.2432 39.7926V35.2365C19.2432 34.9432 18.9756 34.7046 18.6465 34.7046H15.5491Z" fill="#3762CC"/>
<path d="M26.8954 41.0001H23.7358C23.0058 41.0001 22.4121 40.4706 22.4121 39.82V29.2689C22.4121 28.6183 23.0058 28.0891 23.7358 28.0891H26.8954C27.6253 28.0891 28.219 28.6187 28.219 29.2689V39.82C28.219 40.4706 27.625 41.0001 26.8954 41.0001ZM23.7358 28.7645C23.4237 28.7645 23.1702 28.9908 23.1702 29.2689V39.82C23.1702 40.0981 23.4237 40.3241 23.7358 40.3241H26.8954C27.2071 40.3241 27.461 40.0981 27.461 39.82V29.2689C27.461 28.9908 27.2071 28.7645 26.8954 28.7645H23.7358Z" fill="#3762CC"/>
<path d="M35.3504 41.0001H31.7163C31.117 41.0001 30.6299 40.5656 30.6299 40.0315V31.549C30.6299 31.0148 31.117 30.5803 31.7163 30.5803H35.3504C35.9493 30.5803 36.4368 31.0148 36.4368 31.549V40.0315C36.4368 40.5656 35.9493 41.0001 35.3504 41.0001ZM31.7163 31.256C31.5353 31.256 31.388 31.3873 31.388 31.549V40.0315C31.388 40.1931 31.5353 40.3244 31.7163 40.3244H35.3504C35.5314 40.3244 35.6787 40.1931 35.6787 40.0315V31.549C35.6787 31.3873 35.5314 31.256 35.3504 31.256H31.7163Z" fill="#3762CC"/>
<path d="M43.4619 40.6623H40.2823C39.7659 40.6623 39.3477 40.2891 39.3477 39.8289V24.4881C39.3477 24.0279 39.7659 23.6547 40.2823 23.6547H43.4619C43.9779 23.6547 44.3965 24.0279 44.3965 24.4881V39.8289C44.3965 40.2891 43.9779 40.6623 43.4619 40.6623Z" fill="#6BDDDD"/>
<path d="M43.462 41.0001H40.2824C39.558 41.0001 38.9688 40.4748 38.9688 39.8289V24.4881C38.9688 23.8424 39.558 23.3169 40.2824 23.3169H43.462C44.1864 23.3169 44.7757 23.8421 44.7757 24.4881V39.8289C44.7757 40.4745 44.1864 41.0001 43.462 41.0001ZM40.2824 23.9925C39.9763 23.9925 39.7268 24.2149 39.7268 24.4881V39.8289C39.7268 40.102 39.9759 40.3244 40.2824 40.3244H43.462C43.7685 40.3244 44.0176 40.102 44.0176 39.8289V24.4881C44.0176 24.2149 43.7685 23.9925 43.462 23.9925H40.2824Z" fill="#3762CC"/>
<path d="M17.0981 29.7912C16.9926 29.7912 16.8878 29.7526 16.813 29.676C16.6746 29.5358 16.6905 29.3224 16.8482 29.1993L25.0659 22.7804C25.1766 22.694 25.3332 22.6726 25.4672 22.725L33.4513 25.8302L41.6076 18.7258C41.7571 18.5954 41.997 18.5978 42.1436 18.731C42.2894 18.8647 42.2868 19.0784 42.1373 19.2088L33.7985 26.4722C33.6882 26.5686 33.5231 26.595 33.3821 26.5402L25.3843 23.4301L17.3479 29.7074C17.2757 29.7638 17.1865 29.7912 17.0981 29.7912Z" fill="#3762CC"/>
<path d="M18.1878 29.4534C18.1878 29.9898 17.6999 30.4246 17.098 30.4246C16.4962 30.4246 16.0083 29.9898 16.0083 29.4534C16.0083 28.9169 16.4962 28.4821 17.098 28.4821C17.6999 28.4821 18.1878 28.9169 18.1878 29.4534Z" fill="#FFEA92"/>
<path d="M26.4055 23.0345C26.4055 23.5709 25.9177 24.0057 25.3158 24.0057C24.7139 24.0057 24.2261 23.5709 24.2261 23.0345C24.2261 22.498 24.7139 22.0632 25.3158 22.0632C25.9177 22.0632 26.4055 22.498 26.4055 23.0345Z" fill="#FFEA92"/>
<path d="M34.6233 26.2307C34.6233 26.7672 34.1354 27.202 33.5336 27.202C32.9317 27.202 32.4438 26.7672 32.4438 26.2307C32.4438 25.6946 32.9317 25.2594 33.5336 25.2594C34.1354 25.2594 34.6233 25.6946 34.6233 26.2307Z" fill="#FFEA92"/>
<path d="M42.9622 18.9673C42.9622 19.5037 42.4743 19.9385 41.8724 19.9385C41.2706 19.9385 40.7827 19.5037 40.7827 18.9673C40.7827 18.4311 41.2706 17.996 41.8724 17.996C42.4743 17.996 42.9622 18.4311 42.9622 18.9673Z" fill="#FFEA92"/>
<path d="M17.0977 30.7625C16.2878 30.7625 15.6289 30.1752 15.6289 29.4534C15.6289 28.7318 16.2878 28.1442 17.0977 28.1442C17.9076 28.1442 18.5664 28.7318 18.5664 29.4534C18.5664 30.1752 17.9076 30.7625 17.0977 30.7625ZM17.0977 28.8199C16.7057 28.8199 16.387 29.1043 16.387 29.4534C16.387 29.8027 16.7057 30.0868 17.0977 30.0868C17.4893 30.0868 17.8084 29.8027 17.8084 29.4534C17.8084 29.1043 17.4893 28.8199 17.0977 28.8199Z" fill="#3762CC"/>
<path d="M25.315 24.3436C24.5051 24.3436 23.8462 23.7564 23.8462 23.0345C23.8462 22.313 24.5051 21.7254 25.315 21.7254C26.1245 21.7254 26.7837 22.313 26.7837 23.0345C26.7837 23.7564 26.1245 24.3436 25.315 24.3436ZM25.315 22.401C24.923 22.401 24.6043 22.6854 24.6043 23.0345C24.6043 23.3839 24.923 23.6679 25.315 23.6679C25.7066 23.6679 26.0256 23.3839 26.0256 23.0345C26.0256 22.6854 25.7066 22.401 25.315 22.401Z" fill="#3762CC"/>
<path d="M33.5332 27.5398C32.7233 27.5398 32.0645 26.9526 32.0645 26.2307C32.0645 25.5092 32.7233 24.9216 33.5332 24.9216C34.3431 24.9216 35.002 25.5092 35.002 26.2307C35.002 26.9526 34.3431 27.5398 33.5332 27.5398ZM33.5332 25.5973C33.1416 25.5973 32.8225 25.8817 32.8225 26.2307C32.8225 26.5801 33.1416 26.8642 33.5332 26.8642C33.9248 26.8642 34.2439 26.5801 34.2439 26.2307C34.2439 25.8817 33.9252 25.5973 33.5332 25.5973Z" fill="#3762CC"/>
<path d="M41.8721 20.2764C41.0622 20.2764 40.4033 19.6891 40.4033 18.9673C40.4033 18.2457 41.0622 17.6582 41.8721 17.6582C42.682 17.6582 43.3408 18.2457 43.3408 18.9673C43.3408 19.6891 42.682 20.2764 41.8721 20.2764ZM41.8721 18.3338C41.4805 18.3338 41.1614 18.6182 41.1614 18.9673C41.1614 19.3166 41.4805 19.6007 41.8721 19.6007C42.2637 19.6007 42.5828 19.3166 42.5828 18.9673C42.5828 18.6182 42.2641 18.3338 41.8721 18.3338Z" fill="#3762CC"/>
</g>
<defs>
<clipPath id="clip0">
<rect width="46" height="41" fill="white"/>
</clipPath>
</defs>
</svg>
