<svg width="63" height="54" viewBox="0 0 63 54" fill="none" xmlns="http://www.w3.org/2000/svg">
<path d="M57.5126 24.4053C57.3792 23.2877 57.1452 22.1674 56.8071 21.0535C56.6971 20.6912 56.8102 20.306 57.1089 20.0328L60.2129 17.1957C60.5963 16.8453 60.6667 16.3211 60.3866 15.9051L56.7322 10.4797C56.4519 10.0637 55.8869 9.85395 55.3412 9.96339L50.8908 10.8558C50.469 10.9403 50.0267 10.8342 49.7156 10.5756C48.7589 9.77994 47.7362 9.05195 46.659 8.3948C46.3032 8.17768 46.101 7.82038 46.125 7.44652L46.3757 3.56304C46.4066 3.08334 46.0676 2.64288 45.5408 2.47851L38.6726 0.336594C38.146 0.172335 37.556 0.322969 37.22 0.707296L34.4793 3.84294C34.219 4.14073 33.7998 4.30302 33.3668 4.27556C32.0523 4.19228 30.7227 4.19468 29.3886 4.28591C28.9533 4.31567 28.5306 4.15326 28.2688 3.85373L25.5514 0.744573C25.2153 0.360029 24.6253 0.209503 24.0986 0.373871L18.8244 2.01974L17.2304 2.51699C16.7037 2.68125 16.3647 3.12171 16.3956 3.6014L16.6479 7.51323C16.6718 7.88447 16.4725 8.2398 16.1207 8.45726C15.0347 9.12825 14.0195 9.86442 13.0798 10.6572C12.7685 10.9197 12.323 11.0283 11.8978 10.9431L7.48483 10.0583C6.93917 9.94889 6.37418 10.1586 6.09391 10.5746L2.43947 16C2.1592 16.4161 2.22978 16.9402 2.61318 17.2906L5.74459 20.1526C6.04165 20.4241 6.15521 20.8064 6.04839 21.1672C5.72323 22.265 5.49357 23.3866 5.36475 24.5234C5.32254 24.896 5.06198 25.2242 4.67209 25.3926L0.699487 27.1084C0.202022 27.3232 -0.074433 27.7906 0.0175066 28.2615L1.22824 34.4697C1.32132 34.947 1.77046 35.3146 2.33113 35.3722L6.86682 35.8384C7.29778 35.8826 7.67176 36.1129 7.86022 36.4481C8.44403 37.4858 9.11215 38.47 9.85466 39.3974C10.1015 39.7056 10.1485 40.0998 9.977 40.4436L8.19466 44.0142C7.97416 44.4558 8.11697 44.969 8.54627 45.2778L14.144 49.3049C14.5733 49.6138 15.1881 49.6453 15.6572 49.3824L19.4915 47.2346C19.8547 47.0312 20.3134 47.0015 20.7091 47.154C21.9174 47.6195 23.1667 48.0079 24.4464 48.3128C24.8664 48.4129 25.1982 48.6892 25.3243 49.0469L26.6373 52.7676C26.7995 53.2274 27.2939 53.542 27.8545 53.542H35.1632C35.7238 53.542 36.2182 53.2274 36.3804 52.7676L37.4475 49.7434L37.7061 49.0119C37.8319 48.6563 38.1607 48.3813 38.5778 48.2798C38.7723 48.2325 38.9665 48.1833 39.1604 48.1324L58.3939 35.4898L60.5832 35.2644C61.143 35.2067 61.5917 34.8401 61.6855 34.3635L62.9072 28.1548C63.0001 27.6828 62.723 27.2142 62.224 26.9994L58.206 25.2698C57.8174 25.1023 57.5568 24.7763 57.5126 24.4053ZM31.6854 36.7872C25.0483 36.8927 19.6432 32.2596 19.7663 26.5708C19.8823 21.2094 24.9863 16.8346 31.2412 16.7352C37.8783 16.6297 43.2834 21.2627 43.1603 26.9516C43.0444 32.3129 37.9404 36.6878 31.6854 36.7872Z" fill="#2B597F"/>
<path d="M31.527 11.229C21.5548 11.229 13.4697 18.1591 13.4697 26.7067C13.4697 35.2543 21.5548 42.1844 31.527 42.1844C31.6656 42.1844 31.803 42.1833 31.9403 42.18C41.6836 41.9925 49.5233 35.1889 49.5843 26.8059V26.7067C49.5843 18.1591 41.4992 11.229 31.527 11.229ZM32.365 35.5061C32.0891 35.5257 31.8093 35.5355 31.527 35.5355C25.8377 35.5355 21.2267 31.5832 21.2267 26.7067C21.2267 21.8301 25.8377 17.8779 31.527 17.8779C37.2163 17.8779 41.8273 21.8301 41.8273 26.7067C41.8273 26.9007 41.8197 27.0936 41.8044 27.2844C41.4763 31.6541 37.4401 35.1562 32.365 35.5061Z" fill="#F5F5F5"/>
<path d="M16.013 26.7067C16.013 18.5253 23.4191 11.8263 32.7987 11.2672C32.379 11.2421 31.9543 11.229 31.527 11.229C21.5548 11.229 13.4697 18.1591 13.4697 26.7067C13.4697 35.2543 21.5548 42.1844 31.527 42.1844C31.6656 42.1844 31.803 42.1833 31.9403 42.18C32.2264 42.1746 32.5113 42.1637 32.7936 42.1462C23.4165 41.5849 16.013 34.8859 16.013 26.7067Z" fill="#E6E6E6"/>
<path d="M53.8779 47.9534L56.3958 45.7953L62.4551 51.0673C63.1756 51.673 63.1825 52.6651 62.4705 53.2754C61.764 53.881 60.6174 53.8805 59.9084 53.2743L53.8779 47.9534Z" fill="#6B96AE"/>
<path d="M56.308 45.7164L53.7661 47.851L57.0008 50.7084L59.5156 48.5094L56.308 45.7164Z" fill="#2B597F"/>
<path d="M38.933 32.841V40.8262C36.7916 41.6524 34.4276 42.132 31.9403 42.1799C31.7305 41.3243 31.6211 40.437 31.6211 39.5291C31.6211 38.1546 31.8703 36.802 32.365 35.506C34.9375 35.3283 37.243 34.3419 38.933 32.841Z" fill="#E6E6E6"/>
<path d="M34.1641 39.529C34.1641 38.2741 34.4143 37.0693 34.8744 35.9492C36.5962 31.7576 41.2566 28.7533 46.7356 28.7533C53.6788 28.7533 59.3072 33.5778 59.3072 39.5289C59.3072 45.4801 53.6786 50.3046 46.7356 50.3046C39.7926 50.3046 34.1641 45.4802 34.1641 39.529Z" fill="#50758D"/>
<path d="M55.6743 39.5291C55.6743 40.9079 55.2483 42.2017 54.5031 43.3201C54.4459 43.4062 54.3874 43.4901 54.3263 43.574C52.7508 45.7453 49.9404 47.1906 46.7359 47.1906C41.7994 47.1906 37.7988 43.7604 37.7988 39.5291C37.7988 38.6364 37.9756 37.7797 38.3037 36.984C38.7564 35.881 39.4965 34.8935 40.4451 34.0869C40.6079 33.9484 40.777 33.8155 40.9512 33.689C42.5103 32.5522 44.5296 31.8677 46.7359 31.8677C51.6724 31.8677 55.6743 35.2978 55.6743 39.5291Z" fill="#27BDF3"/>
<path d="M55.6743 39.5291C55.6743 40.9079 55.2483 42.2017 54.5031 43.3201C52.9441 44.4591 50.9235 45.1447 48.7159 45.1447C43.7807 45.1447 39.7788 41.7145 39.7788 37.4832C39.7788 36.5916 39.9568 35.7349 40.2837 34.9381C40.463 34.5022 40.6868 34.0847 40.9513 33.689C42.5103 32.5522 44.5297 31.8677 46.736 31.8677C51.6725 31.8677 55.6743 35.2978 55.6743 39.5291Z" fill="#2EDFFC"/>
</svg>
