<svg width="64" height="64" viewBox="0 0 64 64" fill="none" xmlns="http://www.w3.org/2000/svg">
<path d="M38 0H7.33333C3.28 0 0 3.28 0 7.33333V48.6667C0 52.72 3.28 56 7.33333 56H24.9067C23.4667 52.96 22.6667 49.5733 22.6667 46C22.6667 42.9333 23.2533 40 24.3733 37.3067C24.9067 35.9467 25.5733 34.64 26.3467 33.44C28.08 30.7467 30.32 28.4533 32.96 26.6667C34.32 25.7333 35.76 24.96 37.3067 24.3733C39.7867 23.3333 42.5067 22.7467 45.3333 22.6933V7.33333C45.3333 3.28 42.0533 0 38 0Z" fill="#ECEFF1"/>
<path d="M22.6667 0H7.33333C3.28 0 0 3.28 0 7.33333V48.6667C0 52.72 3.28 56 7.33333 56H22.6667V46V0Z" fill="#CDD0D2"/>
<path d="M46 64C36.0747 64 28 55.9253 28 46C28 36.0747 36.0747 28 46 28C55.9253 28 64 36.0747 64 46C64 55.9253 55.9253 64 46 64Z" fill="#2EDFFC"/>
<path d="M46.0002 56C44.5282 56 43.3335 54.8053 43.3335 53.3333V38.6667C43.3335 37.1947 44.5282 36 46.0002 36C47.4722 36 48.6668 37.1947 48.6668 38.6667V53.3333C48.6668 54.8053 47.4722 56 46.0002 56Z" fill="white"/>
<path d="M53.3333 48.6667H38.6667C37.1947 48.6667 36 47.472 36 46C36 44.528 37.1947 43.3334 38.6667 43.3334H53.3333C54.8053 43.3334 56 44.528 56 46C56 47.472 54.8053 48.6667 53.3333 48.6667Z" fill="white"/>
<path d="M46 28C36.072 28 28 36.072 28 46C28 55.928 36.072 64 46 64V56C44.5253 56 43.3333 54.808 43.3333 53.3333V48.6667H38.6667C37.192 48.6667 36 47.4747 36 46C36 44.5253 37.192 43.3333 38.6667 43.3333H43.3333V38.6667C43.3333 37.192 44.5253 36 46 36V28Z" fill="#09B3CF"/>
<path d="M46.0002 48.6667H43.3335V53.3333C43.3335 54.808 44.5255 56 46.0002 56V48.6667ZM46.0002 36C44.5255 36 43.3335 37.192 43.3335 38.6667V43.3333H46.0002V36Z" fill="#DEDEDE"/>
<path d="M46 43.3334H43.3333H38.6667C37.192 43.3334 36 44.5254 36 46C36 47.4747 37.192 48.6667 38.6667 48.6667H43.3333H46V43.3334Z" fill="#DEDEDE"/>
<path d="M37.3333 23.9999L37.3067 24.3733C35.76 24.9599 34.32 25.7332 32.96 26.6666H10.6667C9.2 26.6666 8 25.4666 8 23.9999C8 22.5333 9.2 21.3333 10.6667 21.3333H34.6667C36.1333 21.3333 37.3333 22.5333 37.3333 23.9999Z" fill="#90A4AE"/>
<path d="M26.3467 33.44C25.5733 34.64 24.9067 35.9467 24.3733 37.3067L24 37.3333H10.6667C9.2 37.3333 8 36.1333 8 34.6667C8 33.2 9.2 32 10.6667 32H24C25.0133 32 25.92 32.5867 26.3467 33.44Z" fill="#90A4AE"/>
<path d="M21.3333 16H10.6667C9.19467 16 8 14.808 8 13.3333C8 11.8586 9.19467 10.6666 10.6667 10.6666H21.3333C22.8053 10.6666 24 11.8586 24 13.3333C24 14.808 22.8053 16 21.3333 16Z" fill="#90A4AE"/>
<path d="M37.3333 24H8C8 25.4667 9.2 26.6667 10.6667 26.6667H32.96C34.32 25.7333 35.76 24.96 37.3067 24.3733L37.3333 24Z" fill="#7D8F97"/>
<path d="M25.6133 34.6666H8C8 36.1333 9.2 37.3333 10.6667 37.3333H24L24.3733 37.3066C24.7307 36.3973 25.1467 35.512 25.6133 34.6666Z" fill="#7D8F97"/>
<path d="M24 13.3334H8C8 14.808 9.19467 16 10.6667 16H21.3333C22.8053 16 24 14.808 24 13.3334Z" fill="#7D8F97"/>
</svg>
