<svg width="43" height="38" viewBox="0 0 43 38" fill="none" xmlns="http://www.w3.org/2000/svg">
<path d="M4.30003 35.4667H5.73337V38H10.0334V35.4667H32.9667V38H37.2667V35.4667H38.7V6.33333H40.1334V2.53333H37.2667V0H25.8V2.53333H17.2V0H5.73337V2.53333H2.8667V6.33333H4.30003V35.4667ZM8.60003 36.7333H7.1667V35.4667H8.60003V36.7333ZM35.8334 36.7333H34.4V35.4667H35.8334V36.7333ZM37.2667 34.2H5.73337V31.6667H37.2667V34.2ZM37.2667 30.4H5.73337V6.33333H37.2667V30.4ZM27.2334 1.26667H35.8334V2.53333H27.2334V1.26667ZM7.1667 1.26667H15.7667V2.53333H7.1667V1.26667ZM4.30003 3.8H38.7V5.06667H4.30003V3.8Z" fill="#D7210A"/>
<path d="M12.1836 24.0668H16.4836V21.5334H19.3502V24.0668H23.6502V21.5334H26.5169V24.0668H30.8169V21.5334H33.6836V15.2001H29.3836V13.9334H30.8169V9.5001C30.8169 8.45083 29.8542 7.6001 28.6669 7.6001C27.4796 7.6001 26.5169 8.45083 26.5169 9.5001V13.9334H27.9502V15.2001H22.2169V13.9334H23.6502V9.5001C23.6502 8.45083 22.6876 7.6001 21.5002 7.6001C20.3129 7.6001 19.3502 8.45083 19.3502 9.5001V13.9334H20.7836V15.2001H15.0502V13.9334H16.4836V9.5001C16.4836 8.45083 15.5209 7.6001 14.3336 7.6001C13.1462 7.6001 12.1836 8.45083 12.1836 9.5001V13.9334H13.6169V15.2001H9.31689V21.5334H12.1836V24.0668ZM15.0502 22.8001H13.6169V21.5334H15.0502V22.8001ZM22.2169 22.8001H20.7836V21.5334H22.2169V22.8001ZM29.3836 22.8001H27.9502V21.5334H29.3836V22.8001ZM27.9502 9.5001C27.9502 9.15034 28.2711 8.86676 28.6669 8.86676C29.0627 8.86676 29.3836 9.15034 29.3836 9.5001V12.6668H27.9502V9.5001ZM27.9502 16.4668H29.3836V17.7334H27.9502V16.4668ZM20.7836 9.5001C20.7836 9.15034 21.1045 8.86676 21.5002 8.86676C21.896 8.86676 22.2169 9.15034 22.2169 9.5001V12.6668H20.7836V9.5001ZM20.7836 16.4668H22.2169V17.7334H20.7836V16.4668ZM13.6169 9.5001C13.6169 9.15034 13.9378 8.86676 14.3336 8.86676C14.7293 8.86676 15.0502 9.15034 15.0502 9.5001V12.6668H13.6169V9.5001ZM13.6169 16.4668H15.0502V17.7334H13.6169V16.4668ZM10.7502 20.2668V16.4668H12.1836V19.0001H16.4836V16.4668H19.3502V19.0001H23.6502V16.4668H26.5169V19.0001H30.8169V16.4668H32.2502V20.2668H10.7502Z" fill="#D7210A"/>
<path d="M29.3833 29.1334H35.8333V21.5334H34.4V27.8668H29.3833V29.1334Z" fill="#D7210A"/>
<path d="M26.5166 27.8667H27.9499V29.1334H26.5166V27.8667Z" fill="#D7210A"/>
</svg>
