<svg width="10" height="8" viewBox="0 0 10 8" fill="none" xmlns="http://www.w3.org/2000/svg">
<mask id="path-1-inside-1" fill="white">
<path d="M9.60938 3.6875H5.39062V0.3125C5.39062 0.139906 5.21574 0 5 0C4.78426 0 4.60938 0.139906 4.60938 0.3125V3.6875H0.390625C0.174883 3.6875 0 3.82741 0 4C0 4.17259 0.174883 4.3125 0.390625 4.3125H4.60938V7.6875C4.60938 7.86009 4.78426 8 5 8C5.21574 8 5.39062 7.86009 5.39062 7.6875V4.3125H9.60938C9.82512 4.3125 10 4.17259 10 4C10 3.82741 9.82512 3.6875 9.60938 3.6875Z"/>
</mask>
<path d="M9.60938 3.6875H5.39062V0.3125C5.39062 0.139906 5.21574 0 5 0C4.78426 0 4.60938 0.139906 4.60938 0.3125V3.6875H0.390625C0.174883 3.6875 0 3.82741 0 4C0 4.17259 0.174883 4.3125 0.390625 4.3125H4.60938V7.6875C4.60938 7.86009 4.78426 8 5 8C5.21574 8 5.39062 7.86009 5.39062 7.6875V4.3125H9.60938C9.82512 4.3125 10 4.17259 10 4C10 3.82741 9.82512 3.6875 9.60938 3.6875Z" fill="white"/>
<path d="M5.39062 3.6875H-0.609375V9.6875H5.39062V3.6875ZM4.60938 3.6875V9.6875H10.6094V3.6875H4.60938ZM4.60938 4.3125H10.6094V-1.6875H4.60938V4.3125ZM5.39062 4.3125V-1.6875H-0.609375V4.3125H5.39062ZM9.60938 -2.3125H5.39062V9.6875H9.60938V-2.3125ZM11.3906 3.6875V0.3125H-0.609375V3.6875H11.3906ZM11.3906 0.3125C11.3906 -4.35399 7.21086 -6 5 -6V6C3.84105 6 2.59356 5.62915 1.52805 4.77674C0.451467 3.91548 -0.609375 2.37529 -0.609375 0.3125H11.3906ZM5 -6C2.78914 -6 -1.39062 -4.35399 -1.39062 0.3125H10.6094C10.6094 2.37529 9.54853 3.91548 8.47195 4.77674C7.40644 5.62915 6.15895 6 5 6V-6ZM-1.39062 0.3125V3.6875H10.6094V0.3125H-1.39062ZM4.60938 -2.3125H0.390625V9.6875H4.60938V-2.3125ZM0.390625 -2.3125C-1.82024 -2.3125 -6 -0.666495 -6 4H6C6 6.06279 4.93916 7.60298 3.86258 8.46424C2.79706 9.31666 1.54958 9.6875 0.390625 9.6875V-2.3125ZM-6 4C-6 8.66649 -1.82024 10.3125 0.390625 10.3125V-1.6875C1.54958 -1.6875 2.79706 -1.31665 3.86258 -0.46424C4.93916 0.397022 6 1.93721 6 4H-6ZM0.390625 10.3125H4.60938V-1.6875H0.390625V10.3125ZM-1.39062 4.3125V7.6875H10.6094V4.3125H-1.39062ZM-1.39062 7.6875C-1.39062 12.354 2.78914 14 5 14V2C6.15895 2 7.40644 2.37085 8.47195 3.22326C9.54853 4.08452 10.6094 5.62471 10.6094 7.6875H-1.39062ZM5 14C7.21086 14 11.3906 12.354 11.3906 7.6875H-0.609375C-0.609375 5.62471 0.451467 4.08452 1.52805 3.22326C2.59356 2.37085 3.84105 2 5 2V14ZM11.3906 7.6875V4.3125H-0.609375V7.6875H11.3906ZM5.39062 10.3125H9.60938V-1.6875H5.39062V10.3125ZM9.60938 10.3125C11.8202 10.3125 16 8.66649 16 4H4C4 1.93721 5.06084 0.397022 6.13742 -0.46424C7.20294 -1.31665 8.45042 -1.6875 9.60938 -1.6875V10.3125ZM16 4C16 -0.666495 11.8202 -2.3125 9.60938 -2.3125V9.6875C8.45042 9.6875 7.20294 9.31666 6.13742 8.46424C5.06084 7.60298 4 6.06279 4 4H16Z" fill="white" mask="url(#path-1-inside-1)"/>
</svg>
