<svg width="47" height="42" viewBox="0 0 47 42" fill="none" xmlns="http://www.w3.org/2000/svg">
<path d="M3.0658 2.91593C-0.61701 6.33366 0.136735 9.96424 0.136735 20.9938C0.136735 30.1531 -1.65194 39.3351 7.70933 41.4967C10.6325 42.1684 36.5332 42.1684 39.4525 41.4932C43.3501 40.5947 46.5213 37.7701 46.9548 32.8451C47.0154 32.1577 47.0154 9.84211 46.9529 9.14077C46.4921 3.89467 42.8776 0.871227 38.1149 0.258862C37.0234 0.117547 36.8047 0.0756759 31.2043 0.0669527C11.3394 0.0756759 6.98488 -0.714641 3.0658 2.91593Z" fill="url(#paint0_linear)"/>
<path fill-rule="evenodd" clip-rule="evenodd" d="M24.9968 6.01494C24.4352 6.01493 23.8757 6.01125 23.3206 6.00759C16.9949 5.96598 11.2208 5.928 8.89941 11.3559C7.97762 13.5109 7.98859 16.2348 8.00364 19.9685C8.00562 20.4604 8.00767 20.9699 8.00767 21.4978C8.00767 21.9267 8.00605 22.3528 8.00444 22.7748C7.99111 26.2686 7.97886 29.479 8.89941 31.638C11.2153 37.0686 17.0334 37.0299 23.3255 36.9881H23.3257H23.3258H23.326C23.8799 36.9844 24.4374 36.9807 24.9966 36.9807C25.5805 36.9807 26.166 36.9855 26.7501 36.9904C32.8354 37.0408 38.7633 37.0899 41.0957 31.638C42.018 29.4642 42.0069 26.7789 41.9916 23.0466C41.9895 22.5493 41.9874 22.0335 41.9874 21.4978C41.9874 20.9191 41.9908 20.3599 41.994 19.8194L41.994 19.8182C42.0247 14.7104 42.0454 11.2638 39.1339 8.61289C36.211 5.95006 32.3649 5.97372 26.9361 6.00711C26.311 6.01095 25.6649 6.01493 24.9968 6.01494ZM23.4778 8.80507C24.4437 8.80368 25.3535 8.79587 26.2102 8.78852C38.2356 8.68534 39.7833 8.67206 38.8309 27.749C38.5018 34.3117 33.4912 34.2616 27.0134 34.1969C26.357 34.1903 25.6855 34.1836 25.0023 34.1836C11.4634 34.1836 11.0741 33.8307 11.0741 21.4908C11.0741 9.00774 12.148 8.81206 23.4778 8.80158V8.80507ZM32.0326 13.2322C32.0326 12.2067 32.9455 11.3751 34.0711 11.3751C35.1968 11.3751 36.1097 12.2067 36.1097 13.2322C36.1097 14.2578 35.1968 15.0894 34.0711 15.0894C32.9455 15.0894 32.0326 14.2578 32.0326 13.2322ZM25.0004 13.5467C20.1812 13.5467 16.2749 17.1073 16.2749 21.4978C16.2749 25.8883 20.1812 29.4472 25.0004 29.4472C29.8196 29.4472 33.724 25.8883 33.724 21.4978C33.724 17.1073 29.8196 13.5467 25.0004 13.5467ZM25.0004 16.3369C32.489 16.3369 32.4986 26.6588 25.0004 26.6588C17.5137 26.6588 17.5022 16.3369 25.0004 16.3369Z" fill="white"/>
<defs>
<linearGradient id="paint0_linear" x1="23.5692" y1="57.5115" x2="59.8364" y2="16.9398" gradientUnits="userSpaceOnUse">
<stop stop-color="#FFDD55"/>
<stop offset="0.5" stop-color="#FF543E"/>
<stop offset="1" stop-color="#C837AB"/>
</linearGradient>
</defs>
</svg>
