<svg width="29" height="50" viewBox="0 0 29 50" fill="none" xmlns="http://www.w3.org/2000/svg">
<path fill-rule="evenodd" clip-rule="evenodd" d="M27.7164 1.39979V1.39463C26.8995 0.502454 25.7892 0.000516529 24.631 0H4.36426C1.95714 0.00852273 0.00784426 2.12642 0 4.74174V45.2531C0.00047541 46.5115 0.462455 47.7178 1.28361 48.6054C2.09929 49.4963 3.20771 49.9981 4.36426 50H24.6357C25.7923 49.9981 26.9007 49.4963 27.7164 48.6054C28.5364 47.7191 28.9982 46.5149 29 45.2583V4.7469C28.9982 3.49032 28.5364 2.28603 27.7164 1.39979ZM14.5 46.782C13.8488 46.782 13.321 46.2085 13.321 45.501C13.321 44.7935 13.8488 44.22 14.5 44.22C15.1512 44.22 15.679 44.7935 15.679 45.501C15.679 46.2085 15.1512 46.782 14.5 46.782ZM22.6818 41.8388C24.2572 41.8388 25.5343 40.4513 25.5343 38.7396L25.539 8.54853C25.539 6.83688 24.2619 5.44935 22.6866 5.44935H6.31345C4.73806 5.44935 3.46099 6.83688 3.46099 8.54853V38.7396C3.46099 40.4513 4.73806 41.8388 6.31345 41.8388H22.6818Z" fill="#D7210A"/>
</svg>
