<svg width="47" height="42" viewBox="0 0 47 42" fill="none" xmlns="http://www.w3.org/2000/svg">
<path d="M44.4057 7.42234e-08H2.59219C1.16037 0.000640943 -0.000358498 1.03853 8.30595e-08 2.31834V39.6836C0.000717246 40.9631 1.16216 42.0003 2.59434 42H44.4057C45.8382 42.0003 46.9996 40.9628 47 39.6826C47 39.6823 47 39.682 47 39.6817V2.31642C46.9993 1.03693 45.8378 -0.00032036 44.4057 7.42234e-08Z" fill="#4267B2"/>
<path d="M32.2927 42V25.6016H38.8049L39.7805 19.183H32.2927V15.095C32.2927 13.241 32.899 11.9776 36.0309 11.9776H40V6.25234C39.3095 6.17438 36.9402 6 34.1833 6C28.4272 6 24.4878 8.98153 24.4878 14.4593V19.183H18V25.6016H24.4878V42H32.2927Z" fill="white"/>
</svg>
