<svg width="44" height="40" viewBox="0 0 44 40" fill="none" xmlns="http://www.w3.org/2000/svg">
<path fill-rule="evenodd" clip-rule="evenodd" d="M37.5893 5.81299C33.4531 2.06641 27.9523 0.00219726 22.092 0C10.0164 0 0.188622 8.89136 0.183765 19.8196C0.182146 23.313 1.19083 26.7231 3.10809 29.729L0 40L11.6139 37.2437C14.814 38.823 18.4167 39.6553 22.0831 39.6562H22.0923C34.1665 39.6562 43.9954 30.7642 44 19.8354C44.0024 14.5391 41.7257 9.55933 37.5893 5.81299ZM22.092 36.3088H22.0845C18.8172 36.3076 15.6127 35.5132 12.8166 34.0125L12.152 33.6553L5.26011 35.291L7.09965 29.2117L6.66654 28.5884C4.84373 25.9653 3.88119 22.9336 3.88281 19.8208C3.88659 10.7375 12.0554 3.34766 22.0993 3.34766C26.963 3.34912 31.535 5.06494 34.9728 8.17896C38.4107 11.293 40.3028 15.4321 40.3012 19.8342C40.2969 28.9182 32.1287 36.3088 22.092 36.3088ZM28.3395 22.3589C28.8414 22.5244 31.5328 23.7222 32.0801 23.9702C32.1875 24.0189 32.2879 24.0628 32.3809 24.1035C32.7619 24.27 33.0192 24.3826 33.129 24.5486C33.2661 24.7554 33.2661 25.7468 32.81 26.9038C32.3534 28.0605 30.1669 29.1165 29.115 29.2588C28.1716 29.3862 26.9787 29.4395 25.6672 29.0625C24.872 28.8342 23.8525 28.5298 22.5464 28.019C17.415 26.0145 13.9468 21.5146 13.2912 20.664C13.2452 20.6044 13.2131 20.5627 13.1952 20.541L13.1903 20.5351C12.899 20.1833 10.9601 17.8414 10.9601 15.4177C10.9601 13.1365 12.1983 11.941 12.7684 11.3905C12.8075 11.3527 12.8435 11.318 12.8757 11.2861C13.3776 10.79 13.9707 10.6663 14.3356 10.6663C14.7007 10.6663 15.0658 10.6692 15.3847 10.6836C15.424 10.6854 15.4648 10.6851 15.507 10.6849C15.8262 10.6832 16.2238 10.6811 16.6166 11.5337C16.7665 11.8599 16.9855 12.3424 17.2168 12.8519C17.689 13.892 18.2123 15.0449 18.3039 15.2112C18.441 15.459 18.5325 15.7483 18.3498 16.0789C18.1674 16.4092 17.574 17.1072 16.9814 17.7729C16.9561 17.8014 16.9299 17.8295 16.9038 17.8576C16.6794 18.0987 16.4556 18.3394 16.7412 18.7837C17.0607 19.2793 18.1593 20.9011 19.7864 22.2144C21.5364 23.6263 23.057 24.2231 23.8275 24.5255C23.9777 24.5844 24.0994 24.6322 24.1887 24.6726C24.7362 24.9207 25.0552 24.8792 25.3747 24.5486C25.6942 24.2183 26.7431 23.1025 27.1082 22.6069C27.4727 22.1113 27.8381 22.1936 28.3395 22.3589Z" fill="#D7210A"/>
</svg>
