<svg width="31" height="32" viewBox="0 0 31 32" fill="none" xmlns="http://www.w3.org/2000/svg">
<path d="M2.02212 2.22166C-0.406964 4.82565 0.0901871 7.5918 0.0901871 15.9953C0.0901871 22.9738 -1.08958 29.9696 5.08488 31.6165C7.01295 32.1283 24.0964 32.1283 26.0219 31.6139C28.5926 30.9293 30.6843 28.7773 30.9702 25.0248C31.0101 24.5011 31.0101 7.49875 30.9689 6.9644C30.665 2.96737 28.281 0.663792 25.1396 0.197228C24.4197 0.0895596 24.2754 0.0576578 20.5816 0.0510116C7.47919 0.0576578 4.60705 -0.544489 2.02212 2.22166Z" fill="url(#paint0_linear)"/>
<path fill-rule="evenodd" clip-rule="evenodd" d="M15.998 4.01157C15.6345 4.01156 15.2725 4.00871 14.9133 4.00588C10.8202 3.97366 7.08408 3.94426 5.58197 8.14647C4.98552 9.81489 4.99262 11.9237 5.00235 14.8143C5.00364 15.1952 5.00497 15.5896 5.00497 15.9983C5.00497 16.3303 5.00391 16.6602 5.00287 16.9869C4.99425 19.6918 4.98632 22.1773 5.58197 23.8488C7.08051 28.0531 10.8452 28.0232 14.9165 27.9908H14.9166H14.9166H14.9167C15.2751 27.9879 15.6359 27.9851 15.9978 27.9851C16.3755 27.9851 16.7543 27.9888 17.1322 27.9926H17.1323H17.1323H17.1324C21.07 28.0316 24.9056 28.0696 26.4149 23.8488C27.0116 22.1659 27.0045 20.0869 26.9946 17.1973C26.9932 16.8124 26.9919 16.413 26.9919 15.9983C26.9919 15.5499 26.994 15.1167 26.9961 14.6979C27.016 10.7435 27.0294 8.07521 25.1455 6.02288C23.2542 3.96134 20.7655 3.97965 17.2528 4.0055C16.8483 4.00848 16.4303 4.01155 15.998 4.01157ZM15.998 4.01157L16.0003 4.01157H15.9953L15.998 4.01157ZM15.015 6.17167C15.64 6.17059 16.2288 6.16455 16.7831 6.15886C24.5642 6.07897 25.5656 6.06869 24.9494 20.8379C24.7364 25.9188 21.4943 25.88 17.3028 25.8298L17.3024 25.8298C16.8778 25.8247 16.4434 25.8195 16.0015 25.8195C7.24101 25.8195 6.98911 25.5463 6.98911 15.9929C6.98911 6.32857 7.68399 6.17708 15.015 6.16896V6.17167ZM20.5505 9.59916C20.5505 8.80518 21.1412 8.16135 21.8696 8.16135C22.598 8.16135 23.1886 8.80518 23.1886 9.59916C23.1886 10.3931 22.598 11.037 21.8696 11.037C21.1412 11.037 20.5505 10.3931 20.5505 9.59916ZM16.0003 9.84263C12.882 9.84263 10.3543 12.5992 10.3543 15.9983C10.3543 19.3974 12.882 22.1526 16.0003 22.1526C19.1186 22.1526 21.645 19.3974 21.645 15.9983C21.645 12.5992 19.1186 9.84263 16.0003 9.84263ZM16.0003 12.0027C20.8459 12.0027 20.8521 19.9939 16.0003 19.9939C11.1559 19.9939 11.1485 12.0027 16.0003 12.0027Z" fill="white"/>
<defs>
<linearGradient id="paint0_linear" x1="15.5457" y1="43.8182" x2="43.3375" y2="16.9035" gradientUnits="userSpaceOnUse">
<stop stop-color="#FFDD55"/>
<stop offset="0.5" stop-color="#FF543E"/>
<stop offset="1" stop-color="#C837AB"/>
</linearGradient>
</defs>
</svg>
