<svg width="52" height="32" viewBox="0 0 52 32" fill="none" xmlns="http://www.w3.org/2000/svg">
<path fill-rule="evenodd" clip-rule="evenodd" d="M47.4297 0H4.57031C2.05339 0 0 1.65711 0 3.69231V28.3077C0 30.336 2.04425 32 4.57031 32H47.4297C49.9403 32 52 30.3485 52 28.3077V3.69231C52 1.664 49.9557 0 47.4297 0ZM46.7986 2.46154L26.0969 19.1863L5.21615 2.46154H46.7986ZM3.04688 4.19028V27.798L17.7205 15.9433L3.04688 4.19028ZM5.20132 29.5385L19.8842 17.6763L25.0291 21.7971C25.6246 22.2741 26.5857 22.2726 27.1788 21.7933L32.1953 17.7406L46.7987 29.5385H5.20132ZM34.3498 16L48.9531 27.7979V4.20201L34.3498 16Z" fill="#D7210A"/>
</svg>
