<svg width="46" height="40" viewBox="0 0 46 40" fill="none" xmlns="http://www.w3.org/2000/svg">
<g clip-path="url(#clip0)">
<path d="M4.45481 23.3781C4.43612 23.4 4.43109 23.4263 4.416 23.4494C4.39372 23.4831 4.37288 23.5163 4.3585 23.5544C4.34125 23.5988 4.33262 23.6437 4.32687 23.69C4.32472 23.7119 4.3125 23.7313 4.3125 23.7537V34.9987C4.3125 37.1981 6.19059 39.0187 8.625 39.3237V39.375C8.625 39.7206 8.94628 40 9.34375 40C9.74122 40 10.0625 39.7206 10.0625 39.375V39.3737H23.0014V39.375C23.0014 39.7206 23.3227 40 23.7202 40C24.1177 40 24.4389 39.7206 24.4389 39.375V39.3237C26.8733 39.0187 28.7514 37.1981 28.7514 34.9987V23.7537C28.7514 23.7281 28.7378 23.7069 28.7349 23.6819C28.7292 23.64 28.722 23.6 28.7069 23.5594C28.6911 23.5181 28.6681 23.4806 28.6436 23.4431C28.6293 23.4225 28.6257 23.3987 28.6077 23.3781L26.5938 21.045V20.8694L32.1188 22.4675C32.1935 22.4888 32.2704 22.4994 32.3452 22.4994C32.4329 22.4994 32.517 22.4819 32.5982 22.455C32.6248 22.4463 32.6471 22.4344 32.6729 22.4225C32.7232 22.4 32.7707 22.3731 32.8138 22.3394C32.8368 22.3225 32.8577 22.3056 32.8778 22.2863C32.9159 22.2488 32.9461 22.2075 32.9734 22.1625C32.987 22.1406 33.0028 22.1206 33.0136 22.0969C33.0172 22.0875 33.0251 22.0812 33.0287 22.0719C33.0417 22.0381 33.0366 22.0056 33.0431 21.9712C33.0496 21.9387 33.0654 21.9088 33.0654 21.875V19.3719C33.0654 19.3631 33.0603 19.3569 33.0596 19.3481C33.0575 19.3031 33.0431 19.2612 33.0294 19.2181C33.0187 19.1812 33.0136 19.1444 32.9949 19.1106C32.9762 19.075 32.9468 19.0462 32.9202 19.015C32.8929 18.9813 32.8699 18.9469 32.8347 18.9188C32.8052 18.8944 32.7671 18.8787 32.7312 18.8581C32.6873 18.8331 32.6471 18.8075 32.5968 18.7913C32.5874 18.7881 32.5817 18.7812 32.5723 18.7787L26.5938 17.0481V13.1281C26.9912 13.1281 27.3125 12.8487 27.3125 12.5031V11.255C27.3125 10.2212 26.3451 9.38 25.1562 9.38H19.4084V3.125H21.5596C23.1452 3.125 24.4346 2.00375 24.4346 0.625C24.4346 0.279375 24.1133 0 23.7159 0H9.34375C8.94628 0 8.625 0.279375 8.625 0.625C8.625 2.00375 9.91444 3.125 11.5 3.125V9.38H7.90769C6.71887 9.38 5.75144 10.2212 5.75144 11.255V12.5031C5.75144 12.8481 6.072 13.1275 6.46875 13.1281V21.045L4.45481 23.3781ZM7.54688 21.8787H25.5156L26.5945 23.1287H6.46803L7.54688 21.8787ZM25.1562 20.6287H7.90625V15.625H25.1562V20.6287ZM23.7202 38.1237H9.34375C7.36216 38.1237 5.75 36.7219 5.75 34.9987V24.3787H27.3139V34.9987C27.3139 36.7219 25.7018 38.1237 23.7202 38.1237ZM31.6264 19.8219V21.0069L26.5938 19.5513V18.3662L31.6264 19.8219ZM25.1562 14.375H7.90625V13.1281H25.1562V14.375ZM10.2623 1.25H22.7966C22.5472 1.62188 22.0886 1.875 21.5589 1.875H11.5C10.971 1.875 10.5117 1.62188 10.2623 1.25ZM12.9375 3.125H17.9709V9.38H12.9375V3.125ZM7.90769 10.63H25.1562C25.553 10.63 25.875 10.91 25.875 11.255V11.8781H7.18894V11.255C7.18894 10.91 7.51094 10.63 7.90769 10.63Z" fill="#D7210A"/>
<path d="M22.321 20.0025C22.7177 20.0025 23.0397 19.7231 23.0397 19.3775C23.0397 19.0318 22.7177 18.7524 22.321 18.7524H22.3131C21.9163 18.7524 21.5986 19.0318 21.5986 19.3775C21.5986 19.7231 21.9235 20.0025 22.321 20.0025Z" fill="#D7210A"/>
<path d="M23.7595 18.7512C24.1562 18.7512 24.4782 18.4718 24.4782 18.1262C24.4782 17.7806 24.1562 17.5012 23.7595 17.5012H23.7515C23.3548 17.5012 23.0371 17.7806 23.0371 18.1262C23.0371 18.4718 23.362 18.7512 23.7595 18.7512Z" fill="#D7210A"/>
<path d="M30.1899 23.7537V37.4993C30.1899 38.878 31.4801 39.9999 33.0657 39.9999C33.0671 39.9999 33.0678 39.9993 33.0693 39.9993H38.8142C40.3998 39.9993 41.6892 38.878 41.6892 37.4993V23.7537C41.6892 23.408 41.3679 23.1287 40.9705 23.1287H30.9087C30.5112 23.1287 30.1899 23.408 30.1899 23.7537ZM38.8142 38.7493H33.0657C33.0649 38.7493 33.0642 38.7499 33.0635 38.7499C32.2707 38.7486 31.6274 38.1886 31.6274 37.4993V28.1249H40.2517V37.4993C40.2517 38.1886 39.6063 38.7493 38.8142 38.7493ZM40.2517 24.3787V26.8749H31.6274V24.3787H40.2517Z" fill="#D7210A"/>
</g>
<defs>
<clipPath id="clip0">
<rect width="46" height="40" fill="white"/>
</clipPath>
</defs>
</svg>
