<svg width="41" height="38" viewBox="0 0 41 38" fill="none" xmlns="http://www.w3.org/2000/svg">
<g clip-path="url(#clip0)">
<path d="M19.2951 24.4262C18.9308 24.0868 18.3419 24.0868 17.9775 24.4245L14.5233 27.6286H12.1136C11.5983 27.6286 11.1818 28.0155 11.1818 28.4931V30.2212H9.31813C8.80283 30.2212 8.38634 30.6081 8.38634 31.0857V32.8139H6.52276C6.00842 32.8139 5.59097 33.2008 5.59097 33.6784V35.9135L5.20524 36.271H1.86366V33.1723L17.4306 18.7323C17.795 18.3955 17.795 17.8479 17.4316 17.5103L17.1586 17.2564C16.9098 17.0267 16.7737 16.7209 16.7737 16.3953V16.3918C16.7737 15.9142 16.3572 15.5291 15.8419 15.5291C15.3266 15.5291 14.9101 15.9177 14.9101 16.3953C14.9101 17.0111 15.1123 17.5983 15.4879 18.0906L0.272986 32.2033C0.0978555 32.3657 0 32.585 0 32.8147V37.1364C0 37.6131 0.417447 38 0.931789 38H5.59089C5.83786 38 6.07545 37.9085 6.2497 37.747L7.18149 36.8825C7.3567 36.7201 7.45447 36.5007 7.45447 36.2719V34.5437H9.31813C9.83343 34.5437 10.2499 34.1568 10.2499 33.6792V31.9511H12.1136C12.6289 31.9511 13.0454 31.5642 13.0454 31.0866V29.3585H14.909C15.1569 29.3585 15.3936 29.267 15.5678 29.1055L19.2951 25.6484C19.6595 25.3106 19.6595 24.7639 19.2951 24.4262Z" fill="#D7210A"/>
<path d="M33.7386 10.165L30.0114 6.70786C28.9137 5.68787 26.9961 5.68787 25.8983 6.70786C24.7644 7.75976 24.7644 9.47147 25.8983 10.5226L29.6256 13.9797C30.1744 14.4892 30.905 14.7699 31.6821 14.7699C32.4592 14.7699 33.1898 14.4892 33.7386 13.9797C34.8726 12.9278 34.8726 11.2161 33.7386 10.165ZM32.421 12.7568C32.0259 13.123 31.3383 13.123 30.9432 12.7568L27.2159 9.29966C26.8097 8.92225 26.8097 8.30735 27.2159 7.92906C27.4135 7.74596 27.6754 7.64495 27.9549 7.64495C28.2345 7.64495 28.4963 7.74596 28.6939 7.92906L32.4211 11.3862C32.8282 11.7636 32.8282 12.3794 32.421 12.7568Z" fill="#D7210A"/>
<path d="M40.0685 10.8498L29.2725 0.835907C28.0695 -0.27819 25.9766 -0.279081 24.7737 0.835907L15.8412 9.1208C15.2402 9.67781 14.9094 10.4188 14.9094 11.2073C14.9094 11.9958 15.2402 12.7368 15.8412 13.2938L24.7736 21.5787L24.2257 22.0874C23.9779 22.3171 23.648 22.4441 23.2976 22.4441H23.2967C22.9454 22.4441 22.6145 22.3171 22.3657 22.0866L19.7613 19.671C19.3969 19.3333 18.808 19.3333 18.4437 19.671L13.3187 24.4245C12.9543 24.7622 12.9543 25.3089 13.3187 25.6465C13.5004 25.8149 13.7389 25.8995 13.9775 25.8995C14.216 25.8995 14.4546 25.8149 14.6363 25.6465L19.1025 21.5045L21.0481 23.3086C21.6491 23.8656 22.4468 24.1722 23.2975 24.1722C23.2985 24.1722 23.2994 24.1722 23.3003 24.1722C24.1483 24.1713 24.945 23.8639 25.5432 23.3086L26.7499 22.1893C27.1143 21.8516 27.1143 21.3049 26.7499 20.9673L17.1588 12.071C16.9091 11.8404 16.7731 11.5338 16.7731 11.2074C16.7731 10.8809 16.9091 10.5744 17.1588 10.3429L26.0912 2.05881C26.5897 1.59591 27.4563 1.5968 27.9549 2.05881L38.7509 12.0727C39.0007 12.3033 39.1367 12.6099 39.1367 12.9363C39.1367 13.2627 39.0007 13.5693 38.7509 13.8008L29.8185 22.0848C29.5688 22.3163 29.2389 22.4432 28.8867 22.4432C28.3714 22.4432 27.955 22.8301 27.955 23.3077C27.955 23.7853 28.3714 24.1722 28.8867 24.1722C29.7357 24.1722 30.5352 23.8656 31.1361 23.3077L40.0685 15.0228C40.6695 14.4658 41.0003 13.7248 41.0003 12.9363C41.0003 12.147 40.6695 11.406 40.0685 10.8498Z" fill="#D7210A"/>
</g>
<defs>
<clipPath id="clip0">
<rect width="41" height="38" fill="white"/>
</clipPath>
</defs>
</svg>
