<svg width="39" height="34" viewBox="0 0 39 34" fill="none" xmlns="http://www.w3.org/2000/svg">
<path fill-rule="evenodd" clip-rule="evenodd" d="M35.013 18.757H33.6811C32.8752 21.8357 30.9809 24.6019 28.2689 26.5734C28.8715 27.4392 29.2519 28.3341 29.3857 29.2115H33.5985C35.1974 29.2115 36.498 30.4462 36.498 31.9638V33.3004C36.498 33.6868 36.168 34.0001 35.7609 34.0001H2.7746C2.36758 34.0001 2.03751 33.6868 2.03751 33.3004V31.9638C2.03751 30.4461 3.33913 29.2115 4.93912 29.2115H9.15171C9.28535 28.3336 9.66539 27.4384 10.2677 26.5727C7.55533 24.6008 5.66073 21.8349 4.85465 18.757H3.52458C1.80142 18.757 0.399414 17.4262 0.399414 15.7905C0.399414 14.1548 1.80142 12.824 3.52458 12.824H5.15634H7.52799L4.11631 4.08258C3.65217 2.89621 4.22555 1.59531 5.42199 1.12138C6.6412 0.639612 8.02073 1.17357 8.56322 2.33657L13.4665 12.8241H33.3792H35.013C36.7362 12.8241 38.1382 14.1548 38.1382 15.7905C38.1382 17.4262 36.7362 18.757 35.013 18.757ZM35.013 17.3578C35.9234 17.3578 36.664 16.6548 36.664 15.7906C36.664 14.9264 35.9234 14.2234 35.013 14.2234H34.1163V15.3841C34.1163 16.0493 34.0647 16.7085 33.9672 17.3578H35.013ZM5.49845 3.59602C5.31071 3.11607 5.52653 2.59631 5.98912 2.41301C6.46174 2.22634 7.00011 2.44183 7.21555 2.90366L11.8537 12.8241H9.09998L5.49845 3.59602ZM3.52459 14.2234C2.6142 14.2234 1.87357 14.9264 1.87357 15.7906C1.87357 16.6547 2.6142 17.3578 3.52459 17.3578H4.56846C4.47087 16.7085 4.41928 16.0493 4.41928 15.3841V14.2234H3.52459ZM6.37944 18.7571H15.9582C16.3653 18.7571 16.6953 18.4438 16.6953 18.0574C16.6953 17.671 16.3653 17.3578 15.9582 17.3578H6.05822C5.94972 16.7098 5.89341 16.0503 5.89341 15.3841V14.2234H32.642V15.3841C32.642 16.0503 32.5857 16.7099 32.4774 17.3578H22.5773C22.1703 17.3578 21.8402 17.671 21.8402 18.0574C21.8402 18.4438 22.1703 18.7571 22.5773 18.7571H32.1564C31.3828 21.3985 29.7131 23.7644 27.3633 25.4695C27.2015 25.2993 27.0315 25.1311 26.8522 24.9655C26.566 24.7011 26.1101 24.7011 25.8239 24.9655C25.0394 25.6904 24.4207 26.4631 23.9855 27.2499C23.5502 26.4632 22.9316 25.6905 22.147 24.9655C21.8608 24.7011 21.4049 24.7011 21.1187 24.9655C20.3338 25.6908 19.7149 26.4635 19.2793 27.2499C18.8436 26.4635 18.2247 25.6908 17.4398 24.9655C17.1536 24.7011 16.6977 24.7011 16.4115 24.9655C15.6204 25.6965 14.9983 26.476 14.5625 27.2694C14.1262 26.4756 13.5034 25.696 12.7113 24.9651C12.4249 24.701 11.9694 24.7012 11.6834 24.9655C11.5045 25.1308 11.3347 25.2988 11.1732 25.4687C8.8231 23.7631 7.15331 21.3976 6.37944 18.7571ZM20.083 29.2116H23.1808C22.991 28.3186 22.4546 27.3694 21.6328 26.4812C20.8101 27.3699 20.2733 28.3192 20.083 29.2116ZM18.4754 29.2116H15.3776C15.5675 28.3186 16.1038 27.3694 16.9256 26.4812C17.7483 27.3699 18.2852 28.3192 18.4754 29.2116ZM13.7473 29.2115C13.5573 28.3181 13.0204 27.3687 12.1978 26.4808C11.3759 27.3691 10.8395 28.3185 10.6495 29.2115H13.7473ZM35.0238 31.9637V32.6008H3.5117V31.9637C3.5117 31.2177 4.15208 30.6107 4.93913 30.6107H33.5984C34.3843 30.6107 35.0238 31.2177 35.0238 31.9637ZM26.3381 26.4812C25.5163 27.3693 24.98 28.3186 24.7901 29.2116H27.8879C27.6977 28.3192 27.1608 27.3699 26.3381 26.4812Z" fill="#D7210A"/>
<path d="M16.5795 10.0841C16.7599 10.2826 17.0477 10.3889 17.34 10.3889C17.5236 10.3889 17.7091 10.347 17.8711 10.2595C18.2906 10.0331 18.3926 9.58737 18.0988 9.2639C17.5563 8.66679 17.5563 7.61931 18.0994 7.02148C19.0869 5.93162 19.0867 4.22591 18.0988 3.13826C17.805 2.81494 17.2268 2.73623 16.8073 2.9627C16.3878 3.18909 16.2858 3.63487 16.5795 3.95827C17.1218 4.55517 17.1215 5.604 16.5795 6.20212C15.5908 7.29048 15.5908 8.99562 16.5795 10.0841Z" fill="#D7210A"/>
<path d="M21.2968 7.25061C21.4772 7.44927 21.7648 7.55556 22.0572 7.55556C22.2409 7.55556 22.4264 7.5136 22.5883 7.42625C23.0079 7.19978 23.1099 6.75407 22.8161 6.43067C22.2737 5.83348 22.2737 4.78594 22.8167 4.18818C23.8044 3.09824 23.8041 1.39253 22.8161 0.304878C22.5224 -0.0185216 21.9442 -0.097084 21.5245 0.12931C21.105 0.355776 21.003 0.801487 21.2968 1.12489C21.8391 1.72186 21.8388 2.77062 21.2968 3.36874C20.3082 4.4571 20.3082 6.16224 21.2968 7.25061Z" fill="#D7210A"/>
<path d="M26.8719 10.0841C27.0522 10.2826 27.3399 10.3889 27.6323 10.3889C27.8159 10.3889 28.0015 10.347 28.1634 10.2595C28.5829 10.0332 28.685 9.58737 28.3912 9.26397C27.8487 8.66686 27.8487 7.61931 28.3918 7.02155C29.3795 5.93161 29.3792 4.2259 28.3912 3.13825C28.0974 2.81485 27.5193 2.73629 27.0995 2.96268C26.6801 3.18915 26.5781 3.63486 26.8719 3.95826C27.4142 4.55523 27.4139 5.604 26.8719 6.20211C25.8833 7.29055 25.8833 8.99569 26.8719 10.0841Z" fill="#D7210A"/>
<path d="M19.2682 19.3612H19.2707C19.5071 19.3612 19.6977 19.0441 19.6977 18.6529C19.6977 18.2617 19.5047 17.9446 19.2682 17.9446C19.0317 17.9446 18.84 18.2617 18.84 18.6529C18.84 19.0441 19.0317 19.3612 19.2682 19.3612Z" fill="#D7210A"/>
</svg>
