<svg width="52" height="42" viewBox="0 0 52 42" fill="none" xmlns="http://www.w3.org/2000/svg">
<path fill-rule="evenodd" clip-rule="evenodd" d="M4.70382 0H47.2962C49.894 0 52 1.701 52 3.79924V38.2006C52 40.299 49.894 42 47.296 42H4.70382C2.106 42 0 40.299 0 38.2006V3.79924C0 1.701 2.106 0 4.70382 0ZM14.7221 37.3712C15.4782 37.3712 16.091 36.8762 16.091 36.2656V16.5365C16.091 15.9258 15.4782 15.4308 14.7221 15.4308H8.89513C8.13909 15.4308 7.52625 15.9258 7.52625 16.5365V36.2656C7.52625 36.8762 8.13909 37.3712 8.89513 37.3712H14.7221ZM11.8086 13.5711C8.75138 13.5711 6.27294 11.5692 6.27294 9.09993C6.27294 6.63061 8.75138 4.6288 11.8086 4.6288C14.8659 4.6288 17.3443 6.63061 17.3443 9.09993C17.3443 11.5692 14.866 13.5711 11.8086 13.5711ZM45.2841 37.3712C45.9792 37.3712 46.5427 36.916 46.5427 36.3546V26.8061V26.7356C46.543 22.57 46.5436 15.0998 36.5877 15.0998C32.0663 15.0998 29.9427 16.4366 28.5138 18.1686V16.4474C28.5138 15.886 27.9503 15.4308 27.2552 15.4308H21.2077C20.5126 15.4308 19.9491 15.886 19.9491 16.4474V36.3546C19.9491 36.916 20.5126 37.3712 21.2077 37.3712H27.2552C27.9504 37.3712 28.5138 36.916 28.5138 36.3546V25.681C28.6708 24.2469 29.4524 21.0511 33.306 21.0511C37.9081 21.0511 37.8169 25.0575 37.7785 26.7451C37.7754 26.8793 37.7727 26.9989 37.7727 27.1006V36.3546C37.7727 36.916 38.3363 37.3712 39.0313 37.3712H45.2841Z" fill="#0077B7"/>
</svg>
