<svg width="47" height="43" viewBox="0 0 47 43" fill="none" xmlns="http://www.w3.org/2000/svg">
<g clip-path="url(#clip0)">
<path fill-rule="evenodd" clip-rule="evenodd" d="M36.4679 15.2229C36.4679 8.68106 30.6507 3.35889 23.5004 3.35889C16.35 3.35889 10.5327 8.68106 10.5327 15.2229C10.5327 21.7647 16.35 27.0867 23.5004 27.0867C30.6507 27.0867 36.4679 21.7646 36.4679 15.2229ZM12.3687 15.2229C12.3687 9.60724 17.3623 5.03857 23.5004 5.03857C29.6383 5.03857 34.632 9.60716 34.632 15.2229C34.632 20.8385 29.6384 25.4071 23.5004 25.4071C17.3624 25.4071 12.3687 20.8385 12.3687 15.2229Z" fill="#D7210A"/>
<path fill-rule="evenodd" clip-rule="evenodd" d="M30.7796 34.034C31.8085 33.0157 32.7983 31.9206 33.6726 30.8486C37.988 25.5571 40.4631 20.0123 40.4631 15.636C40.4631 11.5377 38.6023 7.49132 35.3581 4.53448C32.148 1.6088 27.9607 0 23.5667 0C23.5249 0 23.4826 0 23.4407 0C19.0401 0 14.8522 1.60897 11.6425 4.5344C8.39823 7.49124 6.5376 11.5376 6.5376 15.636C6.5376 20.0123 9.01263 25.557 13.3281 30.8486C14.2023 31.9205 15.1921 33.0157 16.221 34.0339C14.1359 34.9921 12.9641 36.3369 12.9641 37.8214C12.9641 39.3171 14.1465 40.6742 16.2933 41.6426C18.2338 42.5179 20.7933 43 23.5005 43C26.2076 43 28.7672 42.5179 30.7077 41.6426C32.8546 40.6742 34.0369 39.3172 34.0369 37.8214C34.0365 36.3377 32.8645 34.9923 30.7796 34.034ZM8.37344 15.636C8.37344 11.981 10.0372 8.36837 12.9381 5.72438C15.8014 3.11473 19.5291 1.67969 23.4479 1.67969H23.5595C27.471 1.67969 31.1993 3.11498 34.0624 5.72446C36.9634 8.36837 38.6271 11.981 38.6271 15.636C38.6271 19.658 36.2849 24.8366 32.2011 29.8442C28.2302 34.7133 24.6617 36.9816 23.5003 36.9816C22.3389 36.9816 18.7704 34.7132 14.7995 29.8442C10.7156 24.8366 8.37344 19.6579 8.37344 15.636ZM23.5002 41.3202C18.373 41.3202 14.7999 39.4763 14.7999 37.8214C14.7999 36.9256 15.8531 35.9828 17.5779 35.3096C19.7542 37.2451 21.956 38.6613 23.5002 38.6613C25.0444 38.6613 27.2462 37.245 29.4226 35.3095C31.147 35.9826 32.2007 36.9263 32.2007 37.8214C32.2006 39.4763 28.6275 41.3202 23.5002 41.3202Z" fill="#D7210A"/>
<path fill-rule="evenodd" clip-rule="evenodd" d="M27.7546 21.4422C28.3609 21.3453 28.7664 20.8172 28.6607 20.2626L27.9704 16.6478L30.8127 14.1286C31.0035 13.974 31.1376 13.759 31.1764 13.5101C31.2629 12.9533 30.8397 12.4376 30.2312 12.3584L26.259 11.8418L24.5001 8.5557C24.3958 8.35708 24.2206 8.18801 23.9875 8.08371C23.4366 7.8373 22.7716 8.046 22.5022 8.54999L20.7403 11.8418L16.7681 12.3584L16.7683 12.3595C16.5329 12.39 16.3065 12.4894 16.1278 12.6573C15.6997 13.06 15.7094 13.7041 16.1496 14.0959L19.0289 16.6478L18.3386 20.2626L18.3403 20.2629C18.2993 20.477 18.3325 20.7049 18.4519 20.9121C18.7381 21.4095 19.4109 21.6004 19.9546 21.3385L23.4997 19.6205L26.9879 21.3109C27.2097 21.4335 27.4792 21.4862 27.7546 21.4422Z" fill="#D7210A"/>
</g>
<defs>
<clipPath id="clip0">
<rect width="47" height="43" fill="white"/>
</clipPath>
</defs>
</svg>
