<svg width="313" height="57" viewBox="0 0 313 57" fill="none" xmlns="http://www.w3.org/2000/svg">
<path d="M65.9746 38.25H60.1729V15.975H65.9746V38.25ZM72.4404 15.975H78.2771L72.1958 26.3363L78.7665 38.25H72.6851L66.6736 26.9776L72.4404 15.975ZM93.674 15.975V38.25H87.8722V15.975H93.674ZM119.419 15.975L119.175 18.6413H114.177V38.25H108.375V18.6413H103.202V15.975H119.419ZM137.814 17.73C136.299 17.73 135.309 18.585 134.843 20.295C134.377 21.9825 134.144 24.0413 134.144 26.4713C134.144 29.0813 134.494 31.1513 135.193 32.6813C135.915 34.2113 137.231 34.9763 139.142 34.9763C140.284 34.9763 141.262 34.695 142.078 34.1325C142.893 33.57 143.534 32.76 144 31.7025C144.909 32.13 145.363 32.8726 145.363 33.93C145.363 35.01 145.002 35.9325 144.28 36.6975C143.557 37.4625 142.625 38.0363 141.484 38.4188C140.365 38.8013 139.189 38.9925 137.954 38.9925C134.482 38.9925 131.942 37.9238 130.335 35.7863C128.727 33.6488 127.923 30.8026 127.923 27.2476C127.923 23.5351 128.762 20.6213 130.439 18.5063C132.117 16.3688 134.703 15.3 138.198 15.3C140.319 15.3 142.066 15.6713 143.441 16.4138C144.816 17.1563 145.503 18.36 145.503 20.025C145.503 21.015 145.165 21.8138 144.489 22.4213C143.837 23.0288 142.998 23.3326 141.973 23.3326C141.204 23.3326 140.598 23.2088 140.156 22.9613C140.319 22.2413 140.4 21.645 140.4 21.1725C140.4 18.8775 139.538 17.73 137.814 17.73ZM173.918 15.975V38.25H168.152V28.3275H161.686V38.25H155.884V15.975H161.686V25.6275H168.152V15.975H173.918ZM193.043 15.3C195.07 15.3 196.783 15.6488 198.181 16.3463C199.579 17.0438 200.278 18.18 200.278 19.755C200.278 20.745 199.952 21.51 199.299 22.05C198.647 22.59 197.797 22.86 196.748 22.86C196.026 22.86 195.42 22.7363 194.931 22.4888C195.094 21.9263 195.175 21.2738 195.175 20.5313C195.175 19.6313 194.966 18.9338 194.546 18.4388C194.15 17.9213 193.509 17.6625 192.624 17.6625C191.855 17.6625 191.238 17.865 190.772 18.27C190.329 18.675 190.107 19.2488 190.107 19.9913C190.107 20.7563 190.317 21.4425 190.737 22.05C191.156 22.635 191.669 23.1413 192.274 23.5688C192.903 23.9963 193.754 24.5138 194.826 25.1213C196.084 25.8413 197.098 26.4825 197.866 27.045C198.659 27.6075 199.323 28.3163 199.859 29.1713C200.418 30.0263 200.697 31.0501 200.697 32.2425C200.697 34.4701 199.882 36.1576 198.251 37.305C196.62 38.43 194.5 38.9925 191.89 38.9925C189.723 38.9925 187.894 38.6213 186.403 37.8788C184.935 37.1363 184.201 35.9325 184.201 34.2675C184.201 33.2775 184.527 32.4788 185.179 31.8713C185.855 31.2638 186.706 30.96 187.731 30.96C188.5 30.96 189.106 31.0838 189.548 31.3313C189.385 32.0288 189.304 32.625 189.304 33.12C189.304 35.46 190.306 36.63 192.309 36.63C193.241 36.63 193.999 36.3825 194.581 35.8875C195.164 35.37 195.455 34.6838 195.455 33.8288C195.455 33.0638 195.245 32.3888 194.826 31.8038C194.406 31.1963 193.882 30.6788 193.253 30.2513C192.624 29.8013 191.785 29.2725 190.737 28.6651C189.478 27.9451 188.453 27.3038 187.661 26.7413C186.892 26.1788 186.228 25.47 185.669 24.615C185.133 23.76 184.865 22.7475 184.865 21.5775C184.865 20.25 185.238 19.1138 185.983 18.1688C186.729 17.2238 187.719 16.515 188.954 16.0425C190.212 15.5475 191.575 15.3 193.043 15.3ZM225.37 15.975L225.125 18.6413H220.128V38.25H214.326V18.6413H209.153V15.975H225.37ZM246.107 15.975L252.013 38.25H246.107L244.778 32.7488H238.313L237.019 38.25H232.79L239.151 15.975H246.107ZM238.977 30.0826H244.149L241.528 19.2825L238.977 30.0826ZM278.649 22.32C278.649 23.85 278.265 25.155 277.496 26.235C276.75 27.315 275.713 28.08 274.385 28.5301L280.187 38.25H274.141L268.968 27.8888C268.805 27.4838 268.723 27.1463 268.723 26.8763C270.214 26.8763 271.275 26.5163 271.904 25.7963C272.556 25.0538 272.882 23.94 272.882 22.455C272.882 19.665 271.706 18.27 269.352 18.27C268.77 18.27 268.164 18.3263 267.535 18.4388V38.25H261.733V16.2113C264.739 15.9413 267.325 15.8063 269.492 15.8063C272.381 15.8063 274.63 16.3013 276.238 17.2913C277.845 18.2588 278.649 19.935 278.649 22.32ZM303.826 15.975L303.581 18.6413H298.583V38.25H292.782V18.6413H287.609V15.975H303.826Z" fill="black"/>
<path d="M130.715 54H129.534V47.565H130.715V54ZM132.775 47.565H133.997L132.058 50.5582L134.138 54H132.846L130.927 50.7435L132.775 47.565ZM139.043 46.98C139.265 46.98 139.443 47.032 139.578 47.136C139.719 47.24 139.79 47.3895 139.79 47.5845C139.79 47.786 139.715 47.942 139.568 48.0525C139.426 48.1565 139.241 48.2085 139.012 48.2085C138.79 48.2085 138.612 48.1565 138.477 48.0525C138.342 47.9485 138.275 47.799 138.275 47.604C138.275 47.4025 138.346 47.2498 138.487 47.1457C138.635 47.0353 138.821 46.98 139.043 46.98ZM139.568 53.2005C139.568 53.519 139.672 53.7335 139.881 53.844C139.826 53.9415 139.739 54.0163 139.618 54.0682C139.497 54.1202 139.366 54.1462 139.224 54.1462C138.968 54.1462 138.776 54.0748 138.649 53.9317C138.521 53.7887 138.457 53.5873 138.457 53.3272V49.0275H139.568V53.2005ZM146.663 49.4077C145.99 49.4077 145.653 50.1163 145.653 51.5332C145.653 52.1117 145.727 52.5797 145.875 52.9372C146.03 53.2882 146.326 53.4637 146.764 53.4637C147.06 53.4637 147.313 53.389 147.521 53.2395C147.737 53.0835 147.881 52.8658 147.955 52.5862C148.07 52.6382 148.151 52.7 148.197 52.7715C148.252 52.8365 148.278 52.9275 148.278 53.0445C148.278 53.2785 148.197 53.4865 148.036 53.6685C147.881 53.844 147.679 53.9773 147.43 54.0682C147.181 54.1657 146.925 54.2145 146.663 54.2145C145.922 54.2145 145.374 53.9837 145.017 53.5222C144.66 53.0542 144.482 52.427 144.482 51.6405C144.482 50.802 144.674 50.126 145.057 49.6125C145.448 49.0925 146.034 48.8325 146.814 48.8325C147.272 48.8325 147.649 48.9235 147.945 49.1055C148.242 49.2875 148.389 49.567 148.389 49.944C148.389 50.165 148.318 50.334 148.177 50.451C148.036 50.568 147.844 50.6265 147.602 50.6265C147.528 50.6265 147.45 50.6167 147.369 50.5972C147.296 50.5777 147.235 50.5517 147.188 50.5192C147.242 50.3632 147.268 50.217 147.268 50.0805C147.268 49.632 147.066 49.4077 146.663 49.4077ZM153.255 54V47.175L154.366 47.058V54H153.255ZM156.193 49.0275H157.364L155.618 51.0945L157.405 54H156.112L154.507 51.27L156.193 49.0275ZM163.545 49.3492C163.343 49.3492 163.182 49.4012 163.061 49.5052C162.939 49.6027 162.879 49.7458 162.879 49.9342C162.879 50.1877 162.967 50.3957 163.141 50.5582C163.323 50.7142 163.6 50.8897 163.969 51.0847C164.266 51.2407 164.501 51.3805 164.676 51.504C164.858 51.6275 165.013 51.7867 165.14 51.9817C165.269 52.1702 165.332 52.401 165.332 52.674C165.332 53.168 165.147 53.5483 164.777 53.8147C164.414 54.0812 163.949 54.2145 163.384 54.2145C162.893 54.2145 162.479 54.1333 162.142 53.9707C161.812 53.8082 161.647 53.5385 161.647 53.1615C161.647 52.9405 161.718 52.7715 161.859 52.6545C162 52.5375 162.192 52.479 162.435 52.479C162.61 52.479 162.744 52.5148 162.838 52.5862C162.785 52.7422 162.758 52.8885 162.758 53.025C162.758 53.233 162.825 53.3987 162.96 53.5222C163.095 53.6392 163.276 53.6977 163.505 53.6977C163.754 53.6977 163.943 53.636 164.07 53.5125C164.205 53.3825 164.272 53.194 164.272 52.947C164.272 52.6935 164.181 52.4887 164 52.3327C163.825 52.1702 163.552 51.9915 163.182 51.7965C162.886 51.634 162.647 51.491 162.465 51.3675C162.29 51.244 162.139 51.088 162.01 50.8995C161.883 50.7045 161.819 50.4705 161.819 50.1975C161.819 49.762 162 49.4272 162.364 49.1932C162.727 48.9527 163.169 48.8325 163.687 48.8325C164.165 48.8325 164.555 48.917 164.858 49.086C165.168 49.2485 165.322 49.5182 165.322 49.8952C165.322 50.1163 165.248 50.2852 165.1 50.4022C164.959 50.5192 164.767 50.5777 164.525 50.5777C164.35 50.5777 164.215 50.542 164.121 50.4705C164.175 50.3145 164.201 50.1682 164.201 50.0317C164.201 49.8172 164.145 49.6515 164.03 49.5345C163.923 49.411 163.761 49.3492 163.545 49.3492ZM169.664 49.4662L169.654 49.1737C169.957 49.0567 170.242 48.9007 170.512 48.7057C170.788 48.5107 171.02 48.2962 171.209 48.0622H171.522V49.0275H172.451V49.4662H171.501V53.0152C171.501 53.2102 171.538 53.3565 171.613 53.454C171.686 53.5515 171.804 53.6132 171.966 53.6392C171.932 53.7887 171.841 53.909 171.693 54C171.552 54.0975 171.387 54.1462 171.199 54.1462C170.653 54.1462 170.381 53.8472 170.381 53.2492V49.4662H169.664ZM179.778 53.5515C179.65 53.779 179.462 53.9447 179.213 54.0487C178.971 54.1592 178.694 54.2145 178.385 54.2145C177.921 54.2145 177.53 54.078 177.214 53.805C176.904 53.532 176.749 53.1778 176.749 52.7422C176.749 51.6892 177.722 51.1627 179.667 51.1627V50.3145C179.667 49.9895 179.617 49.749 179.516 49.593C179.415 49.4305 179.223 49.3492 178.94 49.3492C178.704 49.3492 178.509 49.411 178.355 49.5345C178.199 49.6515 178.123 49.8172 178.123 50.0317C178.123 50.1682 178.149 50.3145 178.203 50.4705C178.109 50.542 177.974 50.5777 177.8 50.5777C177.557 50.5777 177.365 50.5192 177.224 50.4022C177.083 50.2852 177.012 50.1163 177.012 49.8952C177.012 49.5832 177.194 49.3297 177.557 49.1347C177.921 48.9332 178.405 48.8325 179.011 48.8325C179.455 48.8325 179.805 48.8975 180.061 49.0275C180.317 49.151 180.498 49.346 180.606 49.6125C180.721 49.8725 180.778 50.2235 180.778 50.6655V53.2005C180.778 53.519 180.882 53.7335 181.091 53.844C181.037 53.9415 180.956 54.0163 180.849 54.0682C180.748 54.1202 180.63 54.1462 180.495 54.1462C180.3 54.1462 180.138 54.0943 180.011 53.9902C179.883 53.8798 179.805 53.7335 179.778 53.5515ZM178.779 53.5612C179.075 53.5612 179.297 53.454 179.445 53.2395C179.593 53.0185 179.667 52.7455 179.667 52.4205V51.6502C178.53 51.6502 177.961 52.0012 177.961 52.7032C177.961 52.9633 178.032 53.1712 178.173 53.3272C178.321 53.4832 178.523 53.5612 178.779 53.5612ZM187.771 49.5832C187.482 49.5832 187.293 49.7717 187.206 50.1487C187.125 50.5192 187.085 50.9645 187.085 51.4845V54H185.974V49.0275L186.903 48.9105L186.953 49.788C187.047 49.4955 187.212 49.2647 187.448 49.0957C187.683 48.9202 187.956 48.8325 188.266 48.8325C188.602 48.8325 188.868 48.9268 189.064 49.1152C189.266 49.3037 189.367 49.5605 189.367 49.8855C189.367 50.412 189.104 50.6752 188.579 50.6752C188.403 50.6752 188.269 50.6395 188.175 50.568C188.222 50.399 188.246 50.2528 188.246 50.1292C188.246 49.7653 188.087 49.5832 187.771 49.5832ZM193.225 49.4662L193.215 49.1737C193.518 49.0567 193.804 48.9007 194.073 48.7057C194.349 48.5107 194.581 48.2962 194.77 48.0622H195.083V49.0275H196.012V49.4662H195.063V53.0152C195.063 53.2102 195.099 53.3565 195.174 53.454C195.248 53.5515 195.366 53.6132 195.527 53.6392C195.493 53.7887 195.402 53.909 195.254 54C195.113 54.0975 194.948 54.1462 194.76 54.1462C194.215 54.1462 193.942 53.8472 193.942 53.2492V49.4662H193.225ZM209.856 49.0275L207.564 55.8817L206.453 55.755L207.453 53.532H206.948L205.666 49.0275H206.817L207.776 52.8787L208.806 49.0275H209.856ZM216.272 48.8325C217.026 48.8325 217.585 49.0697 217.948 49.5442C218.312 50.0122 218.493 50.646 218.493 51.4455C218.493 52.297 218.319 52.973 217.968 53.4735C217.619 53.9675 217.053 54.2145 216.272 54.2145C215.505 54.2145 214.943 53.9773 214.586 53.5027C214.236 53.0282 214.061 52.375 214.061 51.543C214.061 50.737 214.243 50.0837 214.606 49.5832C214.97 49.0828 215.525 48.8325 216.272 48.8325ZM216.272 53.6295C216.69 53.6295 216.963 53.4313 217.09 53.0347C217.218 52.6382 217.282 52.1248 217.282 51.4942C217.282 50.9158 217.211 50.425 217.07 50.022C216.935 49.619 216.67 49.4175 216.272 49.4175C215.606 49.4175 215.273 50.1097 215.273 51.4942C215.273 52.1248 215.333 52.6382 215.454 53.0347C215.582 53.4313 215.855 53.6295 216.272 53.6295ZM227.364 53.2005C227.364 53.519 227.469 53.7335 227.677 53.844C227.623 53.9415 227.542 54.0163 227.434 54.0682C227.334 54.1202 227.216 54.1462 227.081 54.1462C226.886 54.1462 226.725 54.0943 226.596 53.9902C226.469 53.8798 226.391 53.7335 226.364 53.5515C226.257 53.766 226.082 53.9285 225.839 54.039C225.604 54.156 225.348 54.2145 225.072 54.2145C224.587 54.2145 224.217 54.1138 223.961 53.9122C223.713 53.7043 223.547 53.4247 223.466 53.0737C223.386 52.7162 223.345 52.258 223.345 51.699V49.0275H224.456V51.6502C224.456 52.0468 224.47 52.375 224.496 52.635C224.53 52.8885 224.614 53.1062 224.749 53.2882C224.884 53.4703 225.089 53.5612 225.365 53.5612C225.661 53.5612 225.883 53.454 226.031 53.2395C226.179 53.0185 226.253 52.7455 226.253 52.4205V49.0275H227.364V53.2005ZM234.42 49.5832C234.131 49.5832 233.942 49.7717 233.854 50.1487C233.774 50.5192 233.733 50.9645 233.733 51.4845V54H232.623V49.0275L233.552 48.9105L233.602 49.788C233.697 49.4955 233.861 49.2647 234.097 49.0957C234.333 48.9202 234.606 48.8325 234.915 48.8325C235.252 48.8325 235.517 48.9268 235.712 49.1152C235.914 49.3037 236.015 49.5605 236.015 49.8855C236.015 50.412 235.753 50.6752 235.228 50.6752C235.053 50.6752 234.919 50.6395 234.824 50.568C234.871 50.399 234.894 50.2528 234.894 50.1292C234.894 49.7653 234.737 49.5832 234.42 49.5832ZM246.179 54V47.175L247.289 47.058V54H246.179ZM249.117 49.0275H250.288L248.541 51.0945L250.329 54H249.036L247.431 51.27L249.117 49.0275ZM255.399 46.98C255.621 46.98 255.799 47.032 255.934 47.136C256.075 47.24 256.146 47.3895 256.146 47.5845C256.146 47.786 256.072 47.942 255.924 48.0525C255.782 48.1565 255.597 48.2085 255.368 48.2085C255.146 48.2085 254.968 48.1565 254.833 48.0525C254.699 47.9485 254.631 47.799 254.631 47.604C254.631 47.4025 254.702 47.2498 254.843 47.1457C254.992 47.0353 255.177 46.98 255.399 46.98ZM255.924 53.2005C255.924 53.519 256.028 53.7335 256.237 53.844C256.183 53.9415 256.095 54.0163 255.974 54.0682C255.853 54.1202 255.722 54.1462 255.58 54.1462C255.325 54.1462 255.133 54.0748 255.005 53.9317C254.877 53.7887 254.813 53.5873 254.813 53.3272V49.0275H255.924V53.2005ZM260.566 49.4662L260.556 49.1737C260.859 49.0567 261.144 48.9007 261.414 48.7057C261.69 48.5107 261.922 48.2962 262.111 48.0622H262.424V49.0275H263.353V49.4662H262.404V53.0152C262.404 53.2102 262.44 53.3565 262.515 53.454C262.588 53.5515 262.706 53.6132 262.868 53.6392C262.834 53.7887 262.743 53.909 262.595 54C262.454 54.0975 262.289 54.1462 262.101 54.1462C261.555 54.1462 261.283 53.8472 261.283 53.2492V49.4662H260.566ZM269.782 49.4077C269.109 49.4077 268.772 50.1163 268.772 51.5332C268.772 52.1117 268.846 52.5797 268.994 52.9372C269.149 53.2882 269.446 53.4637 269.883 53.4637C270.179 53.4637 270.431 53.389 270.64 53.2395C270.855 53.0835 271.001 52.8658 271.074 52.5862C271.188 52.6382 271.269 52.7 271.317 52.7715C271.37 52.8365 271.397 52.9275 271.397 53.0445C271.397 53.2785 271.317 53.4865 271.155 53.6685C271 53.844 270.799 53.9773 270.549 54.0682C270.3 54.1657 270.044 54.2145 269.782 54.2145C269.042 54.2145 268.493 53.9837 268.136 53.5222C267.78 53.0542 267.601 52.427 267.601 51.6405C267.601 50.802 267.793 50.126 268.177 49.6125C268.567 49.0925 269.153 48.8325 269.933 48.8325C270.391 48.8325 270.768 48.9235 271.064 49.1055C271.36 49.2875 271.508 49.567 271.508 49.944C271.508 50.165 271.438 50.334 271.296 50.451C271.155 50.568 270.963 50.6265 270.721 50.6265C270.647 50.6265 270.569 50.6167 270.489 50.5972C270.415 50.5777 270.354 50.5517 270.307 50.5192C270.361 50.3632 270.388 50.217 270.388 50.0805C270.388 49.632 270.186 49.4077 269.782 49.4077ZM277.485 48.1597C277.485 48.8683 277.451 49.3882 277.384 49.7197C277.525 49.4272 277.723 49.2062 277.98 49.0567C278.235 48.9073 278.535 48.8325 278.878 48.8325C279.444 48.8325 279.838 48.9853 280.06 49.2907C280.282 49.5898 280.393 50.048 280.393 50.6655V53.2005C280.393 53.519 280.497 53.7335 280.706 53.844C280.651 53.9415 280.564 54.0163 280.443 54.0682C280.322 54.1202 280.194 54.1462 280.06 54.1462C279.797 54.1462 279.601 54.0748 279.474 53.9317C279.346 53.7887 279.282 53.5873 279.282 53.3272V50.802C279.282 50.3925 279.235 50.087 279.141 49.8855C279.046 49.684 278.838 49.5832 278.515 49.5832C278.104 49.5832 277.828 49.7587 277.687 50.1097C277.552 50.4607 277.485 50.9125 277.485 51.465V54H276.374V47.175L277.485 47.058V48.1597ZM288.842 52.6252C288.997 52.6967 289.075 52.8365 289.075 53.0445C289.075 53.2785 288.994 53.4865 288.832 53.6685C288.671 53.844 288.462 53.9773 288.206 54.0682C287.95 54.1657 287.691 54.2145 287.429 54.2145C286.688 54.2145 286.139 53.9837 285.783 53.5222C285.426 53.0542 285.248 52.427 285.248 51.6405C285.248 50.802 285.44 50.126 285.823 49.6125C286.213 49.0925 286.803 48.8325 287.59 48.8325C288.088 48.8325 288.489 48.9592 288.792 49.2127C289.095 49.4597 289.246 49.8107 289.246 50.2657C289.246 50.8312 289.04 51.2278 288.63 51.4552C288.226 51.6827 287.674 51.7965 286.974 51.7965C286.779 51.7965 286.594 51.79 286.419 51.777C286.439 52.2905 286.526 52.7 286.682 53.0055C286.843 53.311 287.126 53.4637 287.53 53.4637C287.826 53.4637 288.085 53.3923 288.307 53.2492C288.535 53.0998 288.714 52.8917 288.842 52.6252ZM287.429 49.3882C287.065 49.3882 286.809 49.5735 286.661 49.944C286.513 50.308 286.432 50.7565 286.419 51.2895C286.621 51.3025 286.769 51.309 286.863 51.309C287.711 51.309 288.135 50.9807 288.135 50.3242C288.135 50.0578 288.075 49.8367 287.954 49.6612C287.839 49.4792 287.664 49.3882 287.429 49.3882ZM294.099 49.0275L295.028 48.9105L295.078 49.788C295.206 49.476 295.401 49.2388 295.664 49.0762C295.933 48.9137 296.246 48.8325 296.603 48.8325C297.168 48.8325 297.562 48.9853 297.784 49.2907C298.006 49.5898 298.117 50.048 298.117 50.6655V53.2005C298.117 53.519 298.221 53.7335 298.43 53.844C298.376 53.9415 298.289 54.0163 298.168 54.0682C298.047 54.1202 297.919 54.1462 297.784 54.1462C297.522 54.1462 297.326 54.0748 297.199 53.9317C297.07 53.7887 297.007 53.5873 297.007 53.3272V50.802C297.007 50.3925 296.959 50.087 296.865 49.8855C296.771 49.684 296.562 49.5832 296.239 49.5832C295.828 49.5832 295.553 49.7587 295.411 50.1097C295.276 50.4607 295.209 50.9125 295.209 51.465V54H294.099V49.0275Z" fill="black"/>
<path d="M37.3999 12.8333H22.1652V31.9999H37.3999V12.8333Z" stroke="black" stroke-width="2"/>
<path d="M57.1156 47.8333H2.44958V54.4999H57.1156V47.8333Z" stroke="black" stroke-width="2"/>
<path d="M25.7498 51.1667H32.919" stroke="black" stroke-width="2"/>
<path d="M23.0613 51.1667H23.9575" stroke="black" stroke-width="2"/>
<path d="M34.7114 51.1667H35.6076" stroke="black" stroke-width="2"/>
<path d="M36.5037 51.1667H37.3998" stroke="black" stroke-width="2"/>
<path d="M21.2689 51.1667H22.1651" stroke="black" stroke-width="2"/>
<path d="M22.7359 31.8091L2.12415 47.6424" stroke="black" stroke-width="2"/>
<path d="M37.7285 32.645L57.4441 47.645" stroke="black" stroke-width="2"/>
<path d="M36.5038 38.2501C39.7208 38.2501 42.3288 35.825 42.3288 32.8335C42.3288 29.8419 39.7208 27.4167 36.5038 27.4167C33.2867 27.4167 30.6787 29.8419 30.6787 32.8335C30.6787 35.825 33.2867 38.2501 36.5038 38.2501Z" fill="white" stroke="black"/>
<path d="M39.1003 31.4511C38.8483 30.5987 38.1846 29.9043 37.3697 29.6406C37.0839 29.5483 36.7899 29.5 36.5043 29.5C35.9204 29.5 35.3574 29.689 34.887 30.0581C34.1896 30.5942 33.7738 31.4511 33.7738 32.3564C33.7738 32.9804 33.9628 33.5737 34.3199 34.0704L36.5043 37L38.6887 34.0704C39.2222 33.3232 39.3734 32.3696 39.1003 31.4511ZM36.5043 33.8945C35.6935 33.8945 35.034 33.2045 35.034 32.3564C35.034 31.5083 35.6935 30.8184 36.5043 30.8184C37.3151 30.8184 37.9745 31.5083 37.9745 32.3564C37.9745 33.2045 37.3151 33.8945 36.5043 33.8945Z" fill="#FF3636"/>
<path d="M38.6888 34.0704L36.5044 37V33.8945C37.3152 33.8945 37.9746 33.2045 37.9746 32.3564C37.9746 31.5083 37.3152 30.8184 36.5044 30.8184V29.5C36.79 29.5 37.084 29.5483 37.3697 29.6406C38.1847 29.9043 38.8484 30.5987 39.1004 31.4511C39.3734 32.3696 39.2223 33.3232 38.6888 34.0704Z" fill="#F40000"/>
</svg>
