<svg width="247" height="49" viewBox="0 0 247 49" fill="none" xmlns="http://www.w3.org/2000/svg">
<path d="M52.0631 32.8816H47.4847V13.7329H52.0631V32.8816ZM57.1655 13.7329H61.7715L56.9724 22.6399L62.1576 32.8816H57.3586L52.6147 23.1912L57.1655 13.7329ZM73.9216 13.7329V32.8816H69.3433V13.7329H73.9216ZM94.2382 13.7329L94.0451 16.0249H90.1011V32.8816H85.5227V16.0249H81.4407V13.7329H94.2382ZM108.754 15.2416C107.559 15.2416 106.778 15.9766 106.41 17.4466C106.042 18.8972 105.858 20.667 105.858 22.756C105.858 24.9997 106.134 26.7792 106.686 28.0944C107.256 29.4097 108.294 30.0673 109.802 30.0673C110.703 30.0673 111.475 29.8255 112.119 29.342C112.763 28.8584 113.268 28.1621 113.636 27.253C114.353 27.6205 114.712 28.2588 114.712 29.1679C114.712 30.0963 114.427 30.8893 113.857 31.547C113.287 32.2046 112.551 32.6978 111.65 33.0266C110.768 33.3555 109.839 33.5199 108.864 33.5199C106.125 33.5199 104.121 32.6011 102.852 30.7636C101.583 28.9261 100.949 26.4793 100.949 23.4233C100.949 20.2318 101.611 17.727 102.935 15.9089C104.259 14.0714 106.299 13.1526 109.058 13.1526C110.731 13.1526 112.11 13.4718 113.195 14.1101C114.279 14.7484 114.822 15.7832 114.822 17.2145C114.822 18.0655 114.555 18.7522 114.022 19.2744C113.507 19.7966 112.845 20.0578 112.036 20.0578C111.429 20.0578 110.951 19.9514 110.602 19.7386C110.731 19.1197 110.795 18.6071 110.795 18.2009C110.795 16.228 110.115 15.2416 108.754 15.2416ZM137.246 13.7329V32.8816H132.695V24.3517H127.592V32.8816H123.014V13.7329H127.592V22.0307H132.695V13.7329H137.246ZM152.338 13.1526C153.937 13.1526 155.289 13.4524 156.392 14.052C157.495 14.6516 158.047 15.6284 158.047 16.9824C158.047 17.8334 157.789 18.4911 157.275 18.9553C156.76 19.4195 156.089 19.6516 155.261 19.6516C154.691 19.6516 154.213 19.5452 153.827 19.3324C153.956 18.8489 154.02 18.288 154.02 17.6497C154.02 16.876 153.855 16.2764 153.524 15.8509C153.211 15.406 152.705 15.1836 152.007 15.1836C151.4 15.1836 150.913 15.3576 150.545 15.7058C150.196 16.054 150.021 16.5472 150.021 17.1855C150.021 17.8431 150.186 18.433 150.517 18.9553C150.848 19.4582 151.253 19.8934 151.731 20.2609C152.227 20.6284 152.899 21.0732 153.744 21.5955C154.737 22.2144 155.537 22.7657 156.144 23.2492C156.769 23.7328 157.293 24.342 157.716 25.077C158.157 25.812 158.378 26.6921 158.378 27.7172C158.378 29.6321 157.734 31.0828 156.447 32.0692C155.16 33.0363 153.487 33.5199 151.428 33.5199C149.718 33.5199 148.274 33.2007 147.097 32.5624C145.939 31.9242 145.36 30.8893 145.36 29.458C145.36 28.607 145.617 27.9203 146.132 27.3981C146.665 26.8759 147.336 26.6147 148.145 26.6147C148.752 26.6147 149.23 26.7211 149.58 26.9339C149.451 27.5335 149.387 28.0461 149.387 28.4716C149.387 30.4832 150.177 31.489 151.759 31.489C152.494 31.489 153.092 31.2762 153.551 30.8507C154.011 30.4058 154.241 29.8159 154.241 29.0809C154.241 28.4232 154.075 27.843 153.744 27.3401C153.413 26.8178 153 26.373 152.503 26.0055C152.007 25.6186 151.345 25.1641 150.517 24.6418C149.524 24.0229 148.715 23.4716 148.09 22.9881C147.484 22.5045 146.959 21.8953 146.518 21.1603C146.095 20.4253 145.884 19.5549 145.884 18.5491C145.884 17.4079 146.178 16.4311 146.766 15.6188C147.355 14.8064 148.136 14.1971 149.111 13.7909C150.104 13.3654 151.179 13.1526 152.338 13.1526ZM177.848 13.7329L177.655 16.0249H173.711V32.8816H169.132V16.0249H165.051V13.7329H177.848ZM194.212 13.7329L198.873 32.8816H194.212L193.164 28.1524H188.061L187.041 32.8816H183.704L188.723 13.7329H194.212ZM188.585 25.8604H192.667L190.599 16.5762L188.585 25.8604ZM219.893 19.1874C219.893 20.5026 219.589 21.6245 218.982 22.5529C218.394 23.4813 217.576 24.139 216.528 24.5258L221.106 32.8816H216.335L212.253 23.9745C212.124 23.6264 212.06 23.3363 212.06 23.1041C213.236 23.1041 214.073 22.7947 214.569 22.1757C215.084 21.5374 215.342 20.58 215.342 19.3034C215.342 16.905 214.413 15.7058 212.556 15.7058C212.096 15.7058 211.618 15.7541 211.122 15.8509V32.8816H206.543V13.936C208.915 13.7039 210.956 13.5878 212.666 13.5878C214.946 13.5878 216.721 14.0134 217.989 14.8644C219.258 15.6961 219.893 17.1371 219.893 19.1874ZM239.76 13.7329L239.567 16.0249H235.623V32.8816H231.045V16.0249H226.963V13.7329H239.76Z" fill="white"/>
<path d="M101.051 46.4211H99.7285V40.8892H101.051V46.4211ZM102.525 40.8892H103.856L102.469 43.4624L103.967 46.4211H102.581L101.211 43.6216L102.525 40.8892ZM107.983 40.2522C108.2 40.2522 108.373 40.3053 108.5 40.4115C108.633 40.5177 108.7 40.6657 108.7 40.8557C108.7 41.0512 108.63 41.2021 108.492 41.3083C108.355 41.4089 108.176 41.4592 107.959 41.4592C107.746 41.4592 107.571 41.4089 107.433 41.3083C107.3 41.2021 107.234 41.0568 107.234 40.8725C107.234 40.6769 107.303 40.526 107.441 40.4198C107.584 40.3081 107.765 40.2522 107.983 40.2522ZM108.556 45.5829C108.556 45.7394 108.575 45.8763 108.612 45.9936C108.649 46.1109 108.713 46.2143 108.803 46.3037C108.745 46.3819 108.654 46.4406 108.532 46.4797C108.415 46.5244 108.299 46.5468 108.182 46.5468C107.905 46.5468 107.696 46.4741 107.552 46.3289C107.409 46.178 107.337 45.9573 107.337 45.6667V42.1465H108.556V45.5829ZM114.262 42.4817C113.827 42.4817 113.609 43.0712 113.609 44.2502C113.609 44.7196 113.67 45.0912 113.792 45.365C113.914 45.6388 114.145 45.7757 114.485 45.7757C114.709 45.7757 114.897 45.7142 115.051 45.5913C115.21 45.4683 115.328 45.2952 115.402 45.0716C115.492 45.1051 115.561 45.161 115.609 45.2393C115.657 45.3119 115.681 45.3985 115.681 45.4991C115.681 45.7338 115.614 45.9349 115.481 46.1026C115.348 46.2646 115.176 46.3875 114.963 46.4713C114.751 46.5608 114.525 46.6055 114.286 46.6055C113.649 46.6055 113.165 46.4015 112.836 45.9936C112.512 45.5857 112.35 45.0269 112.35 44.3173C112.35 43.5909 112.523 43.0209 112.868 42.6074C113.213 42.1884 113.718 41.9788 114.382 41.9788C114.786 41.9788 115.117 42.0599 115.378 42.2219C115.643 42.3784 115.776 42.6326 115.776 42.9846C115.776 43.1969 115.704 43.3562 115.561 43.4624C115.418 43.5685 115.234 43.6216 115.011 43.6216C114.948 43.6216 114.878 43.616 114.804 43.6048C114.735 43.5881 114.682 43.5657 114.645 43.5378C114.677 43.3702 114.693 43.2388 114.693 43.1439C114.693 42.7024 114.549 42.4817 114.262 42.4817ZM119.459 46.4211V40.554L120.678 40.4198V46.4211H119.459ZM122.017 42.1465H123.148L121.905 43.8731L123.188 46.4211H121.834L120.79 44.0658L122.017 42.1465ZM128.136 42.4398C127.997 42.4398 127.886 42.4817 127.801 42.5655C127.722 42.6493 127.682 42.7611 127.682 42.9008C127.682 43.1131 127.756 43.2891 127.905 43.4288C128.053 43.5685 128.279 43.7222 128.582 43.8898C128.821 44.0295 129.012 44.1524 129.156 44.2586C129.299 44.3592 129.421 44.4905 129.522 44.6525C129.623 44.809 129.674 44.999 129.674 45.2225C129.674 45.6862 129.514 46.0327 129.196 46.2618C128.877 46.4909 128.465 46.6055 127.961 46.6055C127.546 46.6055 127.19 46.5356 126.893 46.3959C126.595 46.2562 126.447 46.0215 126.447 45.6919C126.447 45.4795 126.515 45.3203 126.654 45.2141C126.797 45.1079 126.981 45.0549 127.204 45.0549C127.379 45.0549 127.503 45.0828 127.578 45.1387C127.546 45.2616 127.53 45.3929 127.53 45.5326C127.53 45.7226 127.573 45.8735 127.658 45.9852C127.743 46.0914 127.868 46.1445 128.032 46.1445C128.202 46.1445 128.332 46.0942 128.423 45.9936C128.513 45.8874 128.558 45.7422 128.558 45.5578C128.558 45.3454 128.484 45.1694 128.335 45.0297C128.186 44.89 127.963 44.7364 127.666 44.5687C127.427 44.4346 127.233 44.3145 127.084 44.2083C126.941 44.1021 126.818 43.968 126.718 43.806C126.617 43.644 126.566 43.4512 126.566 43.2277C126.566 42.8086 126.726 42.4957 127.044 42.2889C127.363 42.0822 127.756 41.9788 128.224 41.9788C128.611 41.9788 128.949 42.0459 129.236 42.18C129.522 42.3141 129.666 42.5348 129.666 42.8421C129.666 43.0433 129.591 43.1998 129.443 43.3115C129.299 43.4177 129.118 43.4707 128.901 43.4707C128.837 43.4707 128.768 43.4651 128.694 43.454C128.624 43.4428 128.571 43.4232 128.534 43.3953C128.566 43.25 128.582 43.1159 128.582 42.993C128.582 42.8254 128.542 42.6913 128.463 42.5907C128.388 42.4901 128.279 42.4398 128.136 42.4398ZM133.016 42.5236V42.2638C133.271 42.1632 133.528 42.0235 133.789 41.8447C134.049 41.6659 134.264 41.4759 134.434 41.2748H134.777V42.1465H135.51V42.5236H134.769V45.5075C134.769 45.6807 134.798 45.8148 134.856 45.9098C134.92 45.9992 135.021 46.0579 135.159 46.0858C135.106 46.2311 135.008 46.3429 134.864 46.4211C134.721 46.5049 134.562 46.5468 134.386 46.5468C134.11 46.5468 133.9 46.4686 133.757 46.3121C133.619 46.1556 133.55 45.9293 133.55 45.6332V42.5236H133.016ZM141.256 46.0439C141.16 46.2394 141.017 46.3819 140.826 46.4713C140.634 46.5608 140.419 46.6055 140.18 46.6055C139.771 46.6055 139.426 46.4937 139.144 46.2702C138.863 46.0467 138.722 45.7365 138.722 45.3398C138.722 44.8146 138.953 44.457 139.415 44.267C139.877 44.077 140.459 43.982 141.16 43.982V43.2528C141.16 42.9902 141.126 42.7891 141.057 42.6493C140.987 42.5096 140.852 42.4398 140.65 42.4398C140.459 42.4398 140.31 42.5012 140.204 42.6242C140.098 42.7415 140.045 42.9036 140.045 43.1103C140.045 43.1998 140.061 43.3339 140.093 43.5126C140.055 43.5406 139.999 43.5629 139.925 43.5797C139.851 43.5909 139.782 43.5965 139.718 43.5965C139.5 43.5965 139.32 43.5434 139.176 43.4372C139.033 43.3255 138.961 43.1662 138.961 42.9595C138.961 42.641 139.131 42.3979 139.471 42.2303C139.816 42.0626 140.228 41.9788 140.706 41.9788C141.28 41.9788 141.702 42.0989 141.973 42.3392C142.244 42.5795 142.379 42.9846 142.379 43.5546V45.5829C142.379 45.7394 142.398 45.8763 142.435 45.9936C142.472 46.1109 142.536 46.2143 142.626 46.3037C142.568 46.3819 142.48 46.4406 142.363 46.4797C142.252 46.5244 142.138 46.5468 142.021 46.5468C141.824 46.5468 141.66 46.5049 141.527 46.4211C141.394 46.3316 141.304 46.2059 141.256 46.0439ZM140.555 46.0271C140.762 46.0271 140.913 45.9377 141.009 45.7589C141.11 45.5801 141.16 45.3622 141.16 45.1051V44.4011C140.374 44.4011 139.981 44.7028 139.981 45.3063C139.981 45.5186 140.029 45.6919 140.124 45.826C140.226 45.9601 140.369 46.0271 140.555 46.0271ZM147.994 42.6661C147.803 42.6661 147.68 42.7918 147.628 43.0433C147.574 43.2891 147.548 43.6076 147.548 43.9988V46.4211H146.329V42.1465L147.325 42.0459L147.381 42.8002C147.465 42.5432 147.604 42.342 147.795 42.1967C147.986 42.0515 148.212 41.9788 148.472 41.9788C148.775 41.9788 149.014 42.071 149.189 42.2554C149.369 42.4342 149.46 42.6801 149.46 42.993C149.46 43.2556 149.393 43.4568 149.261 43.5965C149.128 43.7362 148.939 43.806 148.695 43.806C148.636 43.806 148.568 43.7976 148.488 43.7809C148.408 43.7641 148.35 43.7417 148.313 43.7138C148.35 43.5909 148.369 43.4456 148.369 43.278C148.369 42.87 148.244 42.6661 147.994 42.6661ZM152.512 42.5236V42.2638C152.767 42.1632 153.024 42.0235 153.285 41.8447C153.545 41.6659 153.76 41.4759 153.93 41.2748H154.273V42.1465H155.006V42.5236H154.265V45.5075C154.265 45.6807 154.293 45.8148 154.352 45.9098C154.416 45.9992 154.517 46.0579 154.655 46.0858C154.602 46.2311 154.504 46.3429 154.36 46.4211C154.217 46.5049 154.058 46.5468 153.882 46.5468C153.606 46.5468 153.396 46.4686 153.253 46.3121C153.114 46.1556 153.046 45.9293 153.046 45.6332V42.5236H152.512ZM166.292 42.1465L164.404 48.0387L163.185 47.9297L164.045 45.9684H163.551L162.539 42.1465H163.814L164.5 45.365L165.241 42.1465H166.292ZM171.504 41.9788C172.142 41.9788 172.62 42.1772 172.939 42.5739C173.263 42.9706 173.425 43.521 173.425 44.2251C173.425 44.9515 173.263 45.5298 172.939 45.9601C172.614 46.3903 172.136 46.6055 171.504 46.6055C170.877 46.6055 170.399 46.3987 170.07 45.9852C169.741 45.5717 169.576 45.013 169.576 44.3089C169.576 43.5937 169.738 43.0265 170.062 42.6074C170.391 42.1884 170.873 41.9788 171.504 41.9788ZM171.504 46.1026C171.781 46.1026 171.959 45.9322 172.038 45.5913C172.118 45.2504 172.158 44.809 172.158 44.267C172.158 43.7529 172.115 43.3283 172.03 42.993C171.945 42.6521 171.77 42.4817 171.504 42.4817C171.239 42.4817 171.064 42.6521 170.979 42.993C170.893 43.3339 170.851 43.7585 170.851 44.267C170.851 44.809 170.891 45.2504 170.971 45.5913C171.05 45.9322 171.228 46.1026 171.504 46.1026ZM180.768 45.5829C180.768 45.7394 180.786 45.8763 180.824 45.9936C180.86 46.1109 180.924 46.2143 181.015 46.3037C180.951 46.3819 180.86 46.4406 180.744 46.4797C180.632 46.5244 180.518 46.5468 180.401 46.5468C180.21 46.5468 180.048 46.5049 179.915 46.4211C179.782 46.3316 179.692 46.2059 179.644 46.0439C179.538 46.2339 179.389 46.3735 179.198 46.463C179.012 46.5579 178.802 46.6055 178.569 46.6055C178.181 46.6055 177.884 46.5189 177.676 46.3456C177.474 46.1724 177.339 45.9322 177.27 45.6248C177.201 45.3175 177.166 44.9235 177.166 44.443V42.1465H178.401V44.4011C178.401 44.7531 178.409 45.0381 178.425 45.256C178.446 45.4683 178.497 45.6472 178.577 45.7924C178.661 45.9322 178.792 46.002 178.967 46.002C179.169 46.002 179.315 45.9126 179.405 45.7338C179.501 45.555 179.549 45.3314 179.549 45.0632V42.1465H180.768V45.5829ZM186.432 42.6661C186.241 42.6661 186.119 42.7918 186.066 43.0433C186.013 43.2891 185.986 43.6076 185.986 43.9988V46.4211H184.767V42.1465L185.763 42.0459L185.819 42.8002C185.904 42.5432 186.042 42.342 186.233 42.1967C186.424 42.0515 186.65 41.9788 186.91 41.9788C187.213 41.9788 187.452 42.071 187.627 42.2554C187.808 42.4342 187.898 42.6801 187.898 42.993C187.898 43.2556 187.832 43.4568 187.699 43.5965C187.567 43.7362 187.378 43.806 187.133 43.806C187.075 43.806 187.006 43.7976 186.926 43.7809C186.847 43.7641 186.788 43.7417 186.751 43.7138C186.788 43.5909 186.807 43.4456 186.807 43.278C186.807 42.87 186.682 42.6661 186.432 42.6661ZM195.862 46.4211V40.554L197.081 40.4198V46.4211H195.862ZM198.419 42.1465H199.551L198.308 43.8731L199.591 46.4211H198.236L197.192 44.0658L198.419 42.1465ZM203.702 40.2522C203.92 40.2522 204.092 40.3053 204.22 40.4115C204.353 40.5177 204.419 40.6657 204.419 40.8557C204.419 41.0512 204.35 41.2021 204.212 41.3083C204.074 41.4089 203.896 41.4592 203.678 41.4592C203.465 41.4592 203.29 41.4089 203.152 41.3083C203.019 41.2021 202.953 41.0568 202.953 40.8725C202.953 40.6769 203.022 40.526 203.16 40.4198C203.304 40.3081 203.484 40.2522 203.702 40.2522ZM204.276 45.5829C204.276 45.7394 204.294 45.8763 204.332 45.9936C204.369 46.1109 204.433 46.2143 204.523 46.3037C204.465 46.3819 204.374 46.4406 204.252 46.4797C204.135 46.5244 204.018 46.5468 203.901 46.5468C203.625 46.5468 203.415 46.4741 203.272 46.3289C203.128 46.178 203.057 45.9573 203.057 45.6667V42.1465H204.276V45.5829ZM207.87 42.5236V42.2638C208.125 42.1632 208.383 42.0235 208.643 41.8447C208.903 41.6659 209.118 41.4759 209.289 41.2748H209.631V42.1465H210.364V42.5236H209.623V45.5075C209.623 45.6807 209.652 45.8148 209.711 45.9098C209.775 45.9992 209.875 46.0579 210.014 46.0858C209.96 46.2311 209.862 46.3429 209.719 46.4211C209.576 46.5049 209.416 46.5468 209.241 46.5468C208.964 46.5468 208.755 46.4686 208.611 46.3121C208.473 46.1556 208.404 45.9293 208.404 45.6332V42.5236H207.87ZM215.521 42.4817C215.085 42.4817 214.867 43.0712 214.867 44.2502C214.867 44.7196 214.929 45.0912 215.051 45.365C215.173 45.6388 215.404 45.7757 215.744 45.7757C215.967 45.7757 216.156 45.7142 216.309 45.5913C216.469 45.4683 216.586 45.2952 216.66 45.0716C216.75 45.1051 216.819 45.161 216.867 45.2393C216.915 45.3119 216.939 45.3985 216.939 45.4991C216.939 45.7338 216.873 45.9349 216.74 46.1026C216.607 46.2646 216.435 46.3875 216.222 46.4713C216.009 46.5608 215.784 46.6055 215.545 46.6055C214.907 46.6055 214.424 46.4015 214.094 45.9936C213.77 45.5857 213.608 45.0269 213.608 44.3173C213.608 43.5909 213.781 43.0209 214.126 42.6074C214.471 42.1884 214.976 41.9788 215.64 41.9788C216.044 41.9788 216.376 42.0599 216.636 42.2219C216.902 42.3784 217.035 42.6326 217.035 42.9846C217.035 43.1969 216.963 43.3562 216.819 43.4624C216.676 43.5685 216.493 43.6216 216.27 43.6216C216.206 43.6216 216.137 43.616 216.062 43.6048C215.993 43.5881 215.941 43.5657 215.903 43.5378C215.935 43.3702 215.951 43.2388 215.951 43.1439C215.951 42.7024 215.808 42.4817 215.521 42.4817ZM221.937 41.3921C221.937 41.9621 221.91 42.3671 221.857 42.6074C221.979 42.3951 222.138 42.2386 222.335 42.1381C222.537 42.0319 222.762 41.9788 223.012 41.9788C223.474 41.9788 223.803 42.1102 224 42.3728C224.196 42.6298 224.295 43.0237 224.295 43.5546V45.5829C224.295 45.7394 224.313 45.8763 224.351 45.9936C224.388 46.1109 224.451 46.2143 224.542 46.3037C224.483 46.3819 224.393 46.4406 224.271 46.4797C224.154 46.5244 224.037 46.5468 223.921 46.5468C223.644 46.5468 223.434 46.4741 223.291 46.3289C223.148 46.178 223.076 45.9573 223.076 45.6667V43.6216C223.076 43.2975 223.044 43.0489 222.98 42.8756C222.921 42.7024 222.786 42.6158 222.574 42.6158C222.313 42.6158 222.141 42.7415 222.056 42.993C221.976 43.2444 221.937 43.5769 221.937 43.9904V46.4211H220.717V40.554L221.937 40.4198V41.3921ZM231.235 45.1135C231.373 45.1806 231.442 45.3175 231.442 45.5242C231.442 45.7533 231.37 45.9489 231.227 46.1109C231.084 46.273 230.897 46.3959 230.669 46.4797C230.446 46.5635 230.215 46.6055 229.976 46.6055C229.339 46.6055 228.855 46.4015 228.526 45.9936C228.202 45.5857 228.04 45.0269 228.04 44.3173C228.04 43.5853 228.215 43.0125 228.566 42.5991C228.921 42.1856 229.434 41.9788 230.103 41.9788C230.534 41.9788 230.889 42.0822 231.171 42.2889C231.452 42.4957 231.593 42.8002 231.593 43.2025C231.593 43.6998 231.426 44.0435 231.091 44.2335C230.757 44.4235 230.3 44.5184 229.721 44.5184C229.54 44.5184 229.399 44.5101 229.299 44.4933C229.315 44.89 229.386 45.203 229.514 45.432C229.646 45.6611 229.867 45.7757 230.175 45.7757C230.403 45.7757 230.61 45.7198 230.797 45.608C230.988 45.4907 231.134 45.3258 231.235 45.1135ZM229.984 42.4733C229.729 42.4733 229.551 42.6382 229.45 42.9678C229.355 43.292 229.304 43.6719 229.299 44.1077H229.458C229.793 44.1134 230.045 44.0491 230.215 43.915C230.39 43.7809 230.478 43.5518 230.478 43.2277C230.478 43.0154 230.435 42.8365 230.35 42.6913C230.271 42.546 230.148 42.4733 229.984 42.4733ZM235.279 42.1465L236.275 42.0459L236.331 42.8002C236.533 42.2526 236.95 41.9788 237.582 41.9788C238.044 41.9788 238.371 42.1102 238.562 42.3728C238.759 42.6354 238.857 43.0293 238.857 43.5546V45.5829C238.857 45.7394 238.876 45.8763 238.913 45.9936C238.95 46.1109 239.014 46.2143 239.104 46.3037C239.046 46.3819 238.956 46.4406 238.833 46.4797C238.717 46.5244 238.6 46.5468 238.482 46.5468C238.207 46.5468 237.996 46.4741 237.853 46.3289C237.71 46.178 237.638 45.9573 237.638 45.6667V43.6216C237.638 43.292 237.609 43.0433 237.55 42.8756C237.492 42.7024 237.354 42.6158 237.136 42.6158C236.876 42.6158 236.703 42.7415 236.618 42.993C236.538 43.2444 236.499 43.5769 236.499 43.9904V46.4211H235.279V42.1465Z" fill="white"/>
<path d="M29.5136 11.0322H17.4913V27.5087H29.5136V11.0322Z" stroke="white"/>
<path d="M45.072 41.1199H1.93301V46.8509H45.072V41.1199Z" stroke="white"/>
<path d="M20.3201 43.9854H25.9777" stroke="white" stroke-width="2"/>
<path d="M18.1985 43.9854H18.9057" stroke="white" stroke-width="2"/>
<path d="M27.3921 43.9854H28.0993" stroke="white" stroke-width="2"/>
<path d="M28.8065 43.9854H29.5136" stroke="white" stroke-width="2"/>
<path d="M16.7841 43.9854H17.4913" stroke="white" stroke-width="2"/>
<path d="M17.9417 27.3447L1.67621 40.9558" stroke="white"/>
<path d="M29.773 28.0632L45.3313 40.9579" stroke="white"/>
<path d="M28.8065 32.8816C31.3452 32.8816 33.4032 30.7968 33.4032 28.2252C33.4032 25.6534 31.3452 23.5687 28.8065 23.5687C26.2678 23.5687 24.2097 25.6534 24.2097 28.2252C24.2097 30.7968 26.2678 32.8816 28.8065 32.8816Z" fill="white"/>
<path d="M30.8556 27.037C30.6567 26.3042 30.133 25.7072 29.4898 25.4806C29.2644 25.4012 29.0324 25.3597 28.8069 25.3597C28.3462 25.3597 27.9019 25.5222 27.5307 25.8394C26.9804 26.3004 26.6522 27.037 26.6522 27.8152C26.6522 28.3516 26.8013 28.8616 27.0832 29.2886L28.8069 31.8071L30.5307 29.2886C30.9517 28.6463 31.0711 27.8266 30.8556 27.037ZM28.8069 29.1374C28.1671 29.1374 27.6467 28.5443 27.6467 27.8152C27.6467 27.0862 28.1671 26.493 28.8069 26.493C29.4468 26.493 29.9672 27.0862 29.9672 27.8152C29.9672 28.5443 29.4468 29.1374 28.8069 29.1374Z" fill="#FF3636"/>
<path d="M30.5307 29.2886L28.8069 31.8071V29.1374C29.4468 29.1374 29.9672 28.5443 29.9672 27.8152C29.9672 27.0862 29.4468 26.493 28.8069 26.493V25.3597C29.0323 25.3597 29.2644 25.4012 29.4898 25.4806C30.133 25.7072 30.6567 26.3042 30.8556 27.037C31.071 27.8266 30.9517 28.6463 30.5307 29.2886Z" fill="#F40000"/>
<path d="M52.0968 43.5197H93.1613" stroke="white"/>
</svg>
