<svg width="33" height="33" viewBox="0 0 33 33" fill="none" xmlns="http://www.w3.org/2000/svg">
<g clip-path="url(#clip0)">
<path d="M30.7862 20.0359H28.1374C28.307 19.7717 28.4196 19.4659 28.4569 19.1348L29.1476 12.9986H29.1771C30.1478 12.9986 30.9375 12.2089 30.9375 11.2382C30.9375 10.2675 30.1478 9.47777 29.1771 9.47777H26.9221C27.0492 9.25598 27.1341 9.00565 27.1643 8.73694L27.3272 7.28952C27.357 7.02423 27.1662 6.78492 26.9009 6.75507C26.6354 6.7253 26.3963 6.91608 26.3664 7.18137L26.2036 8.62879C26.1492 9.11174 25.7417 9.47596 25.2556 9.47596H7.74425C7.2582 9.47596 6.85073 9.1118 6.7964 8.62879L6.18906 3.23323H26.8108L26.6188 4.93975C26.589 5.20504 26.7798 5.44436 27.0451 5.4742C27.3104 5.50365 27.5497 5.31313 27.5796 5.0479L27.7839 3.23239C28.6593 3.21383 29.3658 2.4964 29.3658 1.61668C29.3658 0.725227 28.6405 0 27.7491 0H5.25068C4.3593 0 3.63407 0.725227 3.63407 1.61661C3.63407 2.4964 4.34061 3.21376 5.21601 3.23232L5.8356 8.73694C5.86582 9.00565 5.95058 9.25598 6.07781 9.47777H3.82279C2.85206 9.47777 2.06232 10.2675 2.06232 11.2382C2.06232 12.209 2.85206 12.9986 3.82279 12.9986H3.85224L4.54292 19.1348C4.58018 19.4659 4.69284 19.7717 4.86248 20.0359H2.21359C1.15346 20.0359 0.291016 20.8983 0.291016 21.9585C0.291016 22.9568 1.06548 23.881 2.29048 23.881L3.08609 30.9496C3.2177 32.1185 4.20403 33 5.38036 33H9.0937C9.36066 33 9.5771 32.7836 9.5771 32.5166C9.5771 32.2496 9.36066 32.0332 9.0937 32.0332H5.38036C4.69664 32.0332 4.1234 31.5209 4.04696 30.8414L3.26346 23.881H29.7364L28.953 30.8414C28.8765 31.5209 28.3033 32.0332 27.6195 32.0332H11.3495C11.0825 32.0332 10.8661 32.2496 10.8661 32.5166C10.8661 32.7836 11.0825 33 11.3495 33H27.6195C28.7959 33 29.7821 32.1185 29.9137 30.9496L30.7093 23.881C31.9343 23.881 32.7088 22.9558 32.7088 21.9585C32.7088 20.8983 31.8464 20.0359 30.7862 20.0359ZM4.60087 1.61661C4.60087 1.25832 4.89239 0.966797 5.25068 0.966797H27.7491C28.1075 0.966797 28.399 1.25832 28.399 1.61661C28.399 1.97491 28.1075 2.26643 27.7491 2.26643C27.4561 2.26643 5.53557 2.26643 5.25068 2.26643C4.89239 2.26643 4.60087 1.97491 4.60087 1.61661ZM3.02911 11.2382C3.02911 10.8006 3.38515 10.4446 3.82279 10.4446H29.1771C29.6147 10.4446 29.9707 10.8006 29.9707 11.2382C29.9707 11.6759 29.6147 12.0319 29.1771 12.0319C28.6089 12.0319 4.49136 12.0319 3.82279 12.0319C3.38515 12.0319 3.02911 11.6759 3.02911 11.2382ZM5.50373 19.0268L4.82523 12.9987H28.1747L27.4962 19.0268C27.4315 19.6021 26.9461 20.036 26.3671 20.036H6.63282C6.0539 20.0359 5.56844 19.6021 5.50373 19.0268ZM30.7862 22.9142C29.5772 22.9142 3.40526 22.9142 2.21359 22.9142C1.68655 22.9142 1.25781 22.4855 1.25781 21.9585C1.25781 21.4315 1.68655 21.0027 2.21359 21.0027H30.7862C31.3133 21.0027 31.742 21.4314 31.742 21.9585C31.742 22.4855 31.3133 22.9142 30.7862 22.9142Z" fill="#D7210A"/>
</g>
<defs>
<clipPath id="clip0">
<rect width="33" height="33" fill="white"/>
</clipPath>
</defs>
</svg>
