<svg width="34" height="31" viewBox="0 0 34 31" fill="none" xmlns="http://www.w3.org/2000/svg">
<path fill-rule="evenodd" clip-rule="evenodd" d="M16.9968 0.0149414C16.4352 0.0149258 15.8757 0.0112459 15.3206 0.00759393C8.9949 -0.034018 3.22085 -0.0720011 0.899405 5.35585C-0.0223839 7.5109 -0.0114073 10.2348 0.00363925 13.9685C0.00562154 14.4604 0.00767446 14.9699 0.00767446 15.4978C0.00767446 15.9267 0.00604883 16.3528 0.00443897 16.7748C-0.00889046 20.2686 -0.021139 23.479 0.899405 25.638C3.21534 31.0686 9.03344 31.0299 15.3255 30.9881H15.3257H15.3258H15.326C15.8799 30.9844 16.4374 30.9807 16.9966 30.9807C17.5805 30.9807 18.166 30.9855 18.7501 30.9904C24.8354 31.0408 30.7633 31.0899 33.0957 25.638C34.018 23.4642 34.0069 20.7789 33.9916 17.0466C33.9895 16.5493 33.9874 16.0335 33.9874 15.4978C33.9874 14.9191 33.9908 14.3599 33.994 13.8194L33.994 13.8182C34.0247 8.71041 34.0454 5.26381 31.1339 2.61289C28.211 -0.049942 24.3649 -0.0262849 18.9361 0.00710618C18.311 0.0109512 17.6649 0.0149252 16.9968 0.0149414ZM15.4778 2.80507C16.4437 2.80368 17.3535 2.79587 18.2102 2.78852C30.2356 2.68534 31.7833 2.67206 30.8309 21.749C30.5018 28.3117 25.4912 28.2616 19.0134 28.1969C18.357 28.1903 17.6855 28.1836 17.0023 28.1836C3.46337 28.1836 3.07408 27.8307 3.07408 15.4908C3.07408 3.00774 4.14799 2.81206 15.4778 2.80158V2.80507ZM24.0326 7.23225C24.0326 6.20669 24.9455 5.37507 26.0711 5.37507C27.1968 5.37507 28.1097 6.20669 28.1097 7.23225C28.1097 8.2578 27.1968 9.08942 26.0711 9.08942C24.9455 9.08942 24.0326 8.2578 24.0326 7.23225ZM17.0004 7.54673C12.1812 7.54673 8.27488 11.1073 8.27488 15.4978C8.27488 19.8883 12.1812 23.4472 17.0004 23.4472C21.8196 23.4472 25.724 19.8883 25.724 15.4978C25.724 11.1073 21.8196 7.54673 17.0004 7.54673ZM17.0004 10.3369C24.489 10.3369 24.4986 20.6588 17.0004 20.6588C9.51372 20.6588 9.50221 10.3369 17.0004 10.3369Z" fill="white"/>
</svg>
