<svg width="46" height="28" viewBox="0 0 46 28" fill="none" xmlns="http://www.w3.org/2000/svg">
<path fill-rule="evenodd" clip-rule="evenodd" d="M46 4.10314C46 4.3988 45.6984 4.63837 45.3262 4.63837C44.954 4.63837 44.6523 4.3988 44.6523 4.10314V2.61342C44.6523 1.76262 43.781 1.07046 42.7098 1.07046H34.8369V24.5567H42.7098C43.781 24.5567 44.6523 23.8645 44.6523 23.0137V6.60088C44.6523 6.30522 44.954 6.06565 45.3262 6.06565C45.6984 6.06565 46 6.30522 46 6.60088V23.0137C46 24.4547 44.524 25.6271 42.7098 25.6271H42.1626V26.9798C42.1626 27.5423 41.5864 27.9999 40.8783 27.9999H36.8666C36.1584 27.9999 35.5823 27.5423 35.5823 26.9798V25.6271H17.4507C17.0785 25.6271 16.7769 25.3875 16.7769 25.0918C16.7769 24.7962 17.0785 24.5566 17.4507 24.5566H33.4893V23.6364C33.2645 23.7031 33.0214 23.7397 32.7677 23.7397C31.6268 23.7397 30.6985 23.0024 30.6985 22.0961V3.53095C30.6985 2.62469 31.6268 1.88736 32.7677 1.88736C33.0214 1.88736 33.2645 1.92404 33.4893 1.9907V1.07046H3.29017C2.21905 1.07046 1.34766 1.76262 1.34766 2.61342V23.0137C1.34766 23.8645 2.21905 24.5567 3.29017 24.5567H14.3062C14.6784 24.5567 14.98 24.7963 14.98 25.0919C14.98 25.3876 14.6784 25.6271 14.3062 25.6271H10.5629V26.9799C10.5629 27.5423 9.98676 28 9.27861 28H5.26691C4.55876 28 3.98259 27.5423 3.98259 26.9799V25.6271H3.29017C1.47595 25.6271 0 24.4548 0 23.0137V2.61342C0 1.17237 1.47595 0 3.29017 0H42.7098C44.524 0 46 1.17237 46 2.61342V4.10314ZM9.21536 26.9293V25.627H5.33034V26.9293H9.21536ZM40.8149 25.627V26.9293H36.9299V25.627H40.8149ZM32.0464 22.0963C32.0464 22.4123 32.3701 22.6694 32.768 22.6694C33.1658 22.6694 33.4895 22.4124 33.4895 22.0963V3.53113C33.4895 3.21513 33.1658 2.95801 32.768 2.95801C32.3701 2.95801 32.0464 3.21506 32.0464 3.53113V22.0963Z" fill="#D7210A"/>
<path fill-rule="evenodd" clip-rule="evenodd" d="M42.9334 3.51772V9.65899C42.9334 10.2363 42.3285 10.706 41.5849 10.706H37.1263C36.3827 10.706 35.7778 10.2363 35.7778 9.65899V3.51772C35.7778 2.94037 36.3827 2.4707 37.1263 2.4707H41.5849C42.3285 2.4707 42.9334 2.94037 42.9334 3.51772ZM41.5853 9.67727C41.5982 9.67727 41.6087 9.66904 41.6087 9.65902V3.51776C41.6087 3.50767 41.5981 3.49951 41.5853 3.49951H37.1266C37.1136 3.49951 37.1031 3.50774 37.1031 3.51776V9.65902C37.1031 9.66911 37.1137 9.67727 37.1266 9.67727H41.5853Z" fill="#D7210A"/>
<path fill-rule="evenodd" clip-rule="evenodd" d="M36.7998 21C36.7998 19.8647 38.1756 18.9412 39.8665 18.9412C41.5574 18.9412 42.9331 19.8647 42.9331 21C42.9331 22.1353 41.5575 23.0588 39.8665 23.0588C38.1755 23.0588 36.7998 22.1353 36.7998 21ZM38.2575 20.9999C38.2575 21.5955 38.9793 22.0801 39.8665 22.0801C40.7536 22.0801 41.4755 21.5955 41.4755 20.9999C41.4755 20.4043 40.7536 19.9197 39.8665 19.9197C38.9793 19.9197 38.2575 20.4043 38.2575 20.9999Z" fill="#D7210A"/>
<path fill-rule="evenodd" clip-rule="evenodd" d="M36.7998 14.4116C36.7998 13.2763 38.1756 12.3528 39.8665 12.3528C41.5574 12.3528 42.9331 13.2763 42.9331 14.4116C42.9331 15.5469 41.5575 16.4704 39.8665 16.4704C38.1755 16.4704 36.7998 15.5469 36.7998 14.4116ZM38.2575 14.4117C38.2575 15.0073 38.9793 15.4919 39.8665 15.4919C40.7536 15.4919 41.4755 15.0073 41.4755 14.4117C41.4755 13.8162 40.7536 13.3315 39.8665 13.3315C38.9793 13.3315 38.2575 13.8162 38.2575 14.4117Z" fill="#D7210A"/>
<path fill-rule="evenodd" clip-rule="evenodd" d="M29.6442 5.53203V20.8205C29.6442 21.6005 28.8325 22.2351 27.8348 22.2351H4.87574C3.87804 22.2351 3.06641 21.6005 3.06641 20.8205V5.53203C3.06641 4.752 3.87804 4.11743 4.87574 4.11743H27.8349C28.8326 4.11743 29.6442 4.752 29.6442 5.53203ZM4.41594 5.53253V20.821C4.41594 21.0194 4.62251 21.1809 4.8763 21.1809H27.8353C28.0891 21.1809 28.2957 21.0194 28.2957 20.821V5.53253C28.2957 5.33411 28.0891 5.17261 27.8353 5.17261H4.8763C4.62251 5.17261 4.41594 5.33411 4.41594 5.53253Z" fill="#D7210A"/>
</svg>
