<svg width="45" height="36" viewBox="0 0 45 36" fill="none" xmlns="http://www.w3.org/2000/svg">
<path d="M24.3244 21.2727C24.3244 20.9715 23.8888 20.7273 23.3515 20.7273C22.8141 20.7273 22.3785 20.9715 22.3785 21.2727C22.3785 21.6132 22.1486 21.7605 21.7678 22.0045C21.307 22.2997 20.6758 22.7042 20.6758 23.4546C20.6758 24.205 21.307 24.6094 21.7678 24.9047C22.1486 25.1486 22.3785 25.2959 22.3785 25.6364C22.3785 25.9376 22.8141 26.1818 23.3515 26.1818C23.8888 26.1818 24.3244 25.9376 24.3244 25.6364C24.3244 24.886 23.6932 24.4815 23.2324 24.1863C22.8516 23.9423 22.6217 23.7951 22.6217 23.4546C22.6217 23.1141 22.8516 22.9668 23.2324 22.7228C23.6932 22.4276 24.3244 22.0232 24.3244 21.2727Z" fill="#D7210A"/>
<path d="M29.1892 21.2727C29.1892 20.9715 28.7536 20.7273 28.2162 20.7273C27.6788 20.7273 27.2432 20.9715 27.2432 21.2727C27.2432 21.6132 27.0134 21.7605 26.6326 22.0045C26.1717 22.2997 25.5405 22.7042 25.5405 23.4546C25.5405 24.205 26.1717 24.6094 26.6326 24.9047C27.0134 25.1486 27.2432 25.2959 27.2432 25.6364C27.2432 25.9376 27.6788 26.1818 28.2162 26.1818C28.7536 26.1818 29.1892 25.9376 29.1892 25.6364C29.1892 24.886 28.558 24.4815 28.0971 24.1863C27.7163 23.9423 27.4865 23.7951 27.4865 23.4546C27.4865 23.1141 27.7163 22.9668 28.0971 22.7228C28.558 22.4276 29.1892 22.0232 29.1892 21.2727Z" fill="#D7210A"/>
<path d="M19.4597 21.2727C19.4597 20.9715 19.0241 20.7273 18.4867 20.7273C17.9494 20.7273 17.5137 20.9715 17.5137 21.2727C17.5137 21.6132 17.2839 21.7605 16.9031 22.0045C16.4423 22.2997 15.811 22.7042 15.811 23.4546C15.811 24.205 16.4423 24.6094 16.9031 24.9047C17.2839 25.1486 17.5137 25.2959 17.5137 25.6364C17.5137 25.9376 17.9494 26.1818 18.4867 26.1818C19.0241 26.1818 19.4597 25.9376 19.4597 25.6364C19.4597 24.886 18.8285 24.4815 18.3676 24.1863C17.9868 23.9423 17.757 23.7951 17.757 23.4546C17.757 23.1141 17.9868 22.9668 18.3676 22.7228C18.8285 22.4276 19.4597 22.0232 19.4597 21.2727Z" fill="#D7210A"/>
<path fill-rule="evenodd" clip-rule="evenodd" d="M5.59954 9.81812H39.4002C39.806 9.81812 40.135 10.088 40.135 10.421V32.1243C40.135 32.4573 39.806 32.7272 39.4002 32.7272H5.59954C5.19373 32.7272 4.86475 32.4573 4.86475 32.1243V10.421C4.86475 10.088 5.19373 9.81812 5.59954 9.81812ZM6.33466 31.5215H38.6657V11.0239H6.33466V31.5215Z" fill="#D7210A"/>
<path fill-rule="evenodd" clip-rule="evenodd" d="M40.875 0H4.125C1.84787 0.00202533 0.00253166 1.4783 0 3.3V32.7C0.00253166 34.5217 1.84787 35.998 4.125 36H40.875C43.1521 35.998 44.9975 34.5217 45 32.7V3.3C44.9975 1.4783 43.1521 0.00202533 40.875 0ZM1.50008 3.30011C1.50173 2.14086 2.67602 1.20143 4.12508 1.20011H40.8751C42.3241 1.20143 43.4984 2.14086 43.5001 3.30011V6.00011H1.50008V3.30011ZM4.12508 34.8001H40.8751C42.3241 34.7988 43.4984 33.8594 43.5001 32.7001V7.20011H1.50008V32.7001C1.50173 33.8594 2.67602 34.7988 4.12508 34.8001Z" fill="#D7210A"/>
<path fill-rule="evenodd" clip-rule="evenodd" d="M17.787 2.18188H28.4289C28.8487 2.18188 29.189 2.5075 29.189 2.90916V5.81825C29.189 6.21991 28.8487 6.54552 28.4289 6.54552H17.787C17.3672 6.54552 17.0269 6.21991 17.0269 5.81825V2.90916C17.0269 2.5075 17.3672 2.18188 17.787 2.18188ZM18.5473 5.09082H27.6689V3.63627H18.5473V5.09082Z" fill="#D7210A"/>
<path fill-rule="evenodd" clip-rule="evenodd" d="M35.5142 18.5454H10.7023C9.63637 18.545 8.72567 17.971 8.54541 17.1857C8.36515 16.4005 8.96771 15.6323 9.97252 15.3665V13.6363C9.97252 13.335 10.2992 13.0908 10.7023 13.0908H13.6213C14.0244 13.0908 14.3511 13.335 14.3511 13.6363V15.2726H31.8654V13.6363C31.8654 13.335 32.1922 13.0908 32.5952 13.0908H35.5142C35.9173 13.0908 36.244 13.335 36.244 13.6363V15.3665C37.2488 15.6323 37.8514 16.4005 37.6711 17.1857C37.4909 17.971 36.5802 18.545 35.5142 18.5454ZM34.7843 14.1818H33.3248V15.2727H34.7843V14.1818ZM11.4317 14.1818H12.8912V15.2727H11.4317V14.1818ZM35.5143 16.3636H10.7024C10.2993 16.3636 9.97262 16.6078 9.97262 16.9091C9.97262 17.2103 10.2993 17.4545 10.7024 17.4545H35.5143C35.9174 17.4545 36.2441 17.2103 36.2441 16.9091C36.2441 16.6078 35.9174 16.3636 35.5143 16.3636Z" fill="#D7210A"/>
<path fill-rule="evenodd" clip-rule="evenodd" d="M10.9458 4.3637C10.9458 3.15872 11.7626 2.18188 12.7701 2.18188C13.7772 2.18324 14.5933 3.15928 14.5944 4.3637C14.5944 5.56869 13.7777 6.54552 12.7701 6.54552C11.7626 6.54552 10.9458 5.56869 10.9458 4.3637ZM12.1622 4.36355C12.1622 4.76521 12.4344 5.09082 12.7703 5.09082C13.106 5.09037 13.378 4.76502 13.3784 4.36355C13.3784 3.96189 13.1061 3.63627 12.7703 3.63627C12.4344 3.63627 12.1622 3.96189 12.1622 4.36355Z" fill="#D7210A"/>
<path fill-rule="evenodd" clip-rule="evenodd" d="M4.86475 4.3637C4.86475 3.15872 5.68152 2.18188 6.68907 2.18188C7.69615 2.18324 8.51226 3.15928 8.51339 4.3637C8.51339 5.56869 7.69662 6.54552 6.68907 6.54552C5.68152 6.54552 4.86475 5.56869 4.86475 4.3637ZM6.08108 4.36355C6.08108 4.76521 6.35334 5.09082 6.68919 5.09082C7.02488 5.09037 7.29692 4.76502 7.2973 4.36355C7.2973 3.96189 7.02504 3.63627 6.68919 3.63627C6.35334 3.63627 6.08108 3.96189 6.08108 4.36355Z" fill="#D7210A"/>
<path fill-rule="evenodd" clip-rule="evenodd" d="M36.4863 4.3637C36.4863 3.15872 37.3031 2.18188 38.3107 2.18188C39.3177 2.18324 40.1338 3.15928 40.135 4.3637C40.135 5.56869 39.3182 6.54552 38.3107 6.54552C37.3031 6.54552 36.4863 5.56869 36.4863 4.3637ZM37.7027 4.36355C37.7027 4.76521 37.975 5.09082 38.3108 5.09082C38.6465 5.09037 38.9185 4.76502 38.9189 4.36355C38.9189 3.96189 38.6467 3.63627 38.3108 3.63627C37.975 3.63627 37.7027 3.96189 37.7027 4.36355Z" fill="#D7210A"/>
<path fill-rule="evenodd" clip-rule="evenodd" d="M30.4053 4.3637C30.4053 3.15872 31.2221 2.18188 32.2296 2.18188C33.2367 2.18324 34.0528 3.15928 34.0539 4.3637C34.0539 5.56869 33.2371 6.54552 32.2296 6.54552C31.2221 6.54552 30.4053 5.56869 30.4053 4.3637ZM31.6216 4.36355C31.6216 4.76521 31.8939 5.09082 32.2297 5.09082C32.5654 5.09037 32.8375 4.76502 32.8378 4.36355C32.8378 3.96189 32.5656 3.63627 32.2297 3.63627C31.8939 3.63627 31.6216 3.96189 31.6216 4.36355Z" fill="#D7210A"/>
<path d="M29.615 29.4546H15.3853C14.9487 29.4546 14.5947 29.6988 14.5947 30C14.5947 30.3013 14.9487 30.5455 15.3853 30.5455H29.615C30.0516 30.5455 30.4055 30.3013 30.4055 30C30.4055 29.6988 30.0516 29.4546 29.615 29.4546Z" fill="#D7210A"/>
<path d="M33.2432 29.4546H32.4324C31.9846 29.4546 31.6216 29.6988 31.6216 30C31.6216 30.3013 31.9846 30.5455 32.4324 30.5455H33.2432C33.691 30.5455 34.054 30.3013 34.054 30C34.054 29.6988 33.691 29.4546 33.2432 29.4546Z" fill="#D7210A"/>
</svg>
