<svg width="33" height="51" viewBox="0 0 33 51" fill="none" xmlns="http://www.w3.org/2000/svg">
<path fill-rule="evenodd" clip-rule="evenodd" d="M31.5393 1.42779V1.42252C30.6098 0.512503 29.3463 0.000526859 28.0284 0H4.96623C2.22709 0.00869318 0.00892623 2.16895 0 4.83657V46.1582C0.000540984 47.4417 0.526242 48.6722 1.46066 49.5775C2.38885 50.4862 3.65015 50.998 4.96623 51H28.0338C29.3498 50.998 30.6112 50.4862 31.5393 49.5775C32.4724 48.6735 32.998 47.4451 33 46.1634V4.84184C32.998 3.56012 32.4724 2.33175 31.5393 1.42779ZM16.5 47.7177C15.759 47.7177 15.1584 47.1327 15.1584 46.4111C15.1584 45.6894 15.759 45.1044 16.5 45.1044C17.241 45.1044 17.8416 45.6894 17.8416 46.4111C17.8416 47.1327 17.241 47.7177 16.5 47.7177ZM25.8103 42.6756C27.603 42.6756 29.0562 41.2603 29.0562 39.5145L29.0616 8.71952C29.0616 6.97364 27.6084 5.55837 25.8157 5.55837H7.18426C5.39158 5.55837 3.93836 6.97364 3.93836 8.71952V39.5145C3.93836 41.2603 5.39158 42.6756 7.18426 42.6756H25.8103Z" fill="#D7210A"/>
</svg>
