<svg width="39" height="42" viewBox="0 0 39 42" fill="none" xmlns="http://www.w3.org/2000/svg">
<path d="M38.25 27.0575H36.75V7.67291C36.75 7.22691 36.4142 6.86523 36 6.86523H3.00003C2.58588 6.86523 2.25004 7.22691 2.25004 7.67291V27.0576H0.749988C0.335842 27.0576 0 27.4192 0 27.8652V34.3268C0 34.7728 0.335842 35.1344 0.749988 35.1344H38.25C38.6642 35.1344 39 34.7728 39 34.3268V27.8652C39 27.4191 38.6642 27.0575 38.25 27.0575ZM30.7245 24.6344H35.2501V27.0575H30.7501V25.4421C30.75 25.1707 30.7408 24.9015 30.7245 24.6344ZM30.5238 23.019C30.3644 22.1764 30.1229 21.3656 29.8097 20.596H31.5476V23.019H30.5238ZM33.0475 23.019V20.596H35.25V23.019H33.0475ZM35.25 14.9421H31.5V12.519H35.25V14.9421ZM30.375 8.48068H35.25V10.9037H30.375V8.48068ZM30.375 16.5576H35.25V18.9807H30.375V16.5576ZM30 14.9421H25.5V12.519H30V14.9421ZM22.9164 20.4739C22.8642 20.1061 22.5856 19.8244 22.2415 19.7915C21.8962 19.7592 21.5771 19.9829 21.4652 20.3349C21.4619 20.3455 21.1157 21.4037 20.2124 21.4037C19.6366 21.4037 18.9698 19.8588 18.7291 18.7918C18.6556 18.4619 18.3983 18.2168 18.0851 18.1782C17.7722 18.14 17.47 18.316 17.3291 18.6195C17.2646 18.7584 15.7499 22.0551 15.7499 25.0384C15.7499 25.7851 15.9837 26.4796 16.3836 27.0576H9.75V25.4422C9.75 19.6524 14.1238 14.9422 19.5 14.9422C24.8762 14.9422 29.25 19.6524 29.25 25.4422V27.0576H22.6163C23.0162 26.4796 23.25 25.785 23.25 25.0384C23.25 22.8482 22.9299 20.5698 22.9164 20.4739ZM21.75 25.0383C21.75 26.1517 20.7406 27.0575 19.5 27.0575C18.2594 27.0575 17.25 26.1517 17.25 25.0383C17.25 23.7152 17.6151 22.2696 17.9751 21.1659C18.7291 22.6909 19.6015 23.0191 20.2125 23.0191C20.7783 23.0191 21.2506 22.8422 21.635 22.5782C21.6973 23.3173 21.75 24.192 21.75 25.0383ZM8.25002 14.9421V12.519H12V14.9421H8.25002ZM11.8603 16.5576C11.2047 17.2118 10.6215 17.9487 10.125 18.7531V16.5576H11.8603ZM13.5 14.9421V12.519H18V13.4347C16.5212 13.6478 15.1324 14.171 13.8923 14.9421H13.5ZM19.5 13.3268V12.5191H24V14.3394C22.6212 13.6888 21.0992 13.3268 19.5 13.3268ZM27.1397 16.5576H28.875V18.7531C28.3785 17.9487 27.7953 17.2118 27.1397 16.5576ZM23.625 8.48068H28.875V10.9037H23.625V8.48068ZM16.875 8.48068H22.125V10.9037H16.875V8.48068ZM10.125 8.48068H15.375V10.9037H10.125V8.48068ZM3.75002 8.48068H8.62502V10.9037H3.75002V8.48068ZM3.75002 12.519H6.75005V14.9421H3.75002V12.519ZM3.75002 16.5576H8.62502V18.9807H3.75002V16.5576ZM9.19036 20.596C8.87722 21.3656 8.63568 22.1764 8.47618 23.019H7.50003V20.596H9.19036ZM3.75002 20.596H5.99998V23.019H3.75002V20.596ZM3.75002 24.6344H8.27562C8.25916 24.9015 8.25002 25.1707 8.25002 25.4421V27.0575H3.75002V24.6344ZM10.5 31.9157C20.1488 31.9157 34.1299 31.9066 37.5 31.9042V33.519H1.49998V31.9094C2.22094 31.9129 3.54062 31.9136 5.99953 31.9147C5.99968 31.9147 5.99975 31.9147 5.99991 31.9147C6.41398 31.9147 6.74974 31.5533 6.74989 31.1074C6.75012 30.6614 6.41443 30.2995 6.00029 30.2993C3.55159 30.2982 2.20868 30.2961 1.49998 30.2939V28.6729H37.4999V30.2888H37.5C34.1318 30.2911 20.1494 30.3003 10.5 30.3003C10.0858 30.3003 9.75 30.662 9.75 31.108C9.75 31.554 10.0858 31.9157 10.5 31.9157Z" fill="#D7210A"/>
<path d="M8.24999 30.3C7.83584 30.3 7.5 30.6621 7.5 31.1081C7.5 31.5542 7.83584 31.9158 8.24999 31.9158C8.66413 31.9158 8.99998 31.5541 8.99998 31.1081V31.1072C8.99998 30.6612 8.66413 30.3 8.24999 30.3Z" fill="#D7210A"/>
</svg>
