<svg width="13" height="13" viewBox="0 0 13 13" fill="none" xmlns="http://www.w3.org/2000/svg">
<path fill-rule="evenodd" clip-rule="evenodd" d="M6.82084 0.0400391C8.8598 0.0400391 10.6927 0.841294 11.8492 2.23808C13.0001 3.6278 13.2658 5.38722 12.5601 6.94447C12.3732 7.36555 12.0742 7.77753 11.6723 8.16622L7.2241 12.5263C7.12347 12.6251 6.97603 12.6819 6.82084 12.6819C6.66565 12.6819 6.51821 12.6251 6.41758 12.5263L1.96814 8.16503C1.56805 7.77856 1.26859 7.36615 1.0802 6.94166C0.375877 5.38722 0.64161 3.6278 1.79245 2.23808C2.94897 0.841294 4.78188 0.0400391 6.82084 0.0400391ZM10.8694 7.58992C11.1889 7.28095 11.4241 6.95974 11.5681 6.63485C12.152 5.34636 11.9308 3.89164 10.9777 2.74075C10.0217 1.58616 8.50664 0.924011 6.82081 0.924011C5.13496 0.924011 3.61968 1.58618 2.66377 2.74075C1.71085 3.89164 1.48979 5.34636 2.07227 6.63192C2.21775 6.95992 2.45295 7.2811 2.77218 7.58979L6.82081 11.5582L10.867 7.59229C10.8677 7.5914 10.8686 7.59066 10.8694 7.58992L10.8694 7.58992Z" fill="#D7210A"/>
<path fill-rule="evenodd" clip-rule="evenodd" d="M5.20799 4.69762C5.20799 3.22999 6.07618 2.03613 7.1432 2.03613C8.21022 2.03613 9.07841 3.23015 9.07841 4.69762C9.07841 6.16524 8.21034 7.3591 7.1432 7.3591C6.07607 7.3591 5.20799 6.16524 5.20799 4.69762ZM5.89976 4.69762C5.89976 5.64102 6.45786 6.40857 7.14383 6.40857C7.82979 6.40857 8.3879 5.64102 8.3879 4.69762C8.3879 3.75421 7.82979 2.98666 7.14383 2.98666C6.45786 2.98666 5.89976 3.75421 5.89976 4.69762Z" fill="#D7210A"/>
</svg>
