<svg width="405" height="21" viewBox="0 0 405 21" fill="none" xmlns="http://www.w3.org/2000/svg">
<path d="M16.9413 6.2C17.8113 4.7 18.1113 3.56 18.1113 2.72C18.1113 2.27 17.9913 1.91 17.8413 1.58C17.5413 0.919999 17.0913 0.829998 16.5513 1.52C15.3513 3.11 12.7713 7.7 10.8513 11.51C9.20133 11.66 7.67133 12.05 5.78133 12.32L8.99133 6.47C9.71133 5.15 9.98133 3.98 9.98133 3.14C9.98133 2.63 9.89133 2.24 9.71133 1.91C9.38133 1.34 8.93133 1.25 8.45133 1.88C7.19133 3.68 4.46133 8.66 2.60133 12.53C2.27133 12.53 2.09133 12.47 1.64133 12.44C0.831328 12.38 0.651328 12.59 0.951328 13.16C1.07133 13.37 1.31133 13.73 1.91133 14.06C0.651328 17.03 0.351328 17.93 0.351328 18.8C0.351328 19.49 0.591328 20 0.861328 20.36C1.22133 20.87 1.76133 20.72 1.97133 20.21C2.84133 18.29 3.71133 16.37 4.58133 14.57C5.93133 14.57 7.85133 14.21 9.71133 13.97C9.23133 14.96 8.84133 15.95 8.63133 16.52C8.36133 17.33 8.24133 17.93 8.24133 18.38C8.24133 19.04 8.48133 19.49 8.75133 19.91C9.08133 20.45 9.59133 20.3 9.80133 19.82C10.7913 17.63 11.7813 15.59 12.7413 13.7C13.2513 13.7 13.6713 13.73 14.1213 13.79C14.6913 13.88 14.9013 13.64 14.8113 13.25C14.6913 12.77 14.3613 12.26 13.7313 11.93C14.3913 10.73 15.0513 9.56 16.9413 6.2ZM14.0398 18.86C14.3698 19.4 14.5798 19.88 14.7898 20.18C15.1798 20.75 15.6598 20.75 16.3798 20.54C18.0298 20.09 21.2398 19.31 22.8298 19.34C23.4598 19.34 23.5498 19.1 23.3998 18.68C23.0398 17.69 22.1998 17.21 20.5798 17.27C19.6198 17.33 17.7298 17.66 16.4998 17.99C17.0998 16.64 17.7298 15.41 18.5698 13.82C20.1898 13.4 22.2898 13.04 23.7598 13.04C24.4498 13.04 24.5098 12.74 24.3598 12.35C24.0298 11.39 23.2498 10.85 21.5998 10.91C21.1798 10.94 20.6698 10.97 20.0398 11.06C21.4498 8.51 22.8298 6.02 23.8198 4.52C24.2698 4.46 24.5698 4.4 25.0198 4.31C26.4298 4.04 28.0498 3.74 29.5498 3.74C30.1198 3.74 30.3298 3.47 30.2098 3.14C29.8198 2.09 29.0698 1.55 27.6898 1.58C26.9098 1.58 26.0698 1.73 25.0498 1.88C23.6098 2.12 22.0198 2.3 20.3698 2.3C19.9198 2.3 19.5898 2.48 19.6798 2.9C19.8298 3.47 20.1898 3.95 20.8798 4.4C18.3898 8.27 15.5098 13.7 14.1598 17.24C13.8598 18.08 13.7998 18.47 14.0398 18.86ZM35.5777 20.21C35.7577 19.91 35.8777 19.55 35.8777 19.19C35.8777 18.71 35.7277 18.14 35.4577 17.63C34.8877 16.52 33.8677 15.08 32.7877 13.79C36.0577 12.95 39.1477 11.12 40.6777 9.05C41.7877 7.52 42.4177 5.81 41.6077 3.8C40.8577 1.91 39.3877 1.25 37.7977 1.31C36.6877 1.37 35.6377 1.67 34.4977 2.03C33.4177 2.39 32.2777 2.72 31.0777 2.9C30.4477 2.99 30.2977 3.23 30.5377 3.65C30.8977 4.28 31.3177 4.7 32.3077 4.88C29.6677 8.99 27.0277 14.45 26.2777 17.06C26.1277 17.6 26.0677 18.14 26.0677 18.56C26.0677 19.31 26.3077 19.79 26.6377 20.15C27.0877 20.6 27.4177 20.54 27.6277 19.97C28.5277 17.75 29.3077 16.04 30.0577 14.57C31.2577 15.92 32.6977 17.84 34.5577 20.3C34.9177 20.78 35.2477 20.72 35.5777 20.21ZM35.9977 4.31C36.9577 3.98 38.0977 3.59 38.7877 3.59C39.2377 3.59 39.5677 3.74 39.7477 4.22C40.5277 6.2 37.5877 10.16 31.5877 11.69C32.1277 10.76 32.8777 9.5 33.6877 8C34.4377 6.59 34.7977 5.54 34.8277 4.7L35.9977 4.31ZM38.532 18.86C38.862 19.4 39.072 19.88 39.282 20.18C39.672 20.75 40.152 20.75 40.872 20.54C42.522 20.09 45.732 19.31 47.322 19.34C47.952 19.34 48.042 19.1 47.892 18.68C47.532 17.69 46.692 17.21 45.072 17.27C44.112 17.33 42.222 17.66 40.992 17.99C41.592 16.64 42.222 15.41 43.062 13.82C44.682 13.4 46.782 13.04 48.252 13.04C48.942 13.04 49.002 12.74 48.852 12.35C48.522 11.39 47.742 10.85 46.092 10.91C45.672 10.94 45.162 10.97 44.532 11.06C45.942 8.51 47.322 6.02 48.312 4.52C48.762 4.46 49.062 4.4 49.512 4.31C50.922 4.04 52.542 3.74 54.042 3.74C54.612 3.74 54.822 3.47 54.702 3.14C54.312 2.09 53.562 1.55 52.182 1.58C51.402 1.58 50.562 1.73 49.542 1.88C48.102 2.12 46.512 2.3 44.862 2.3C44.412 2.3 44.082 2.48 44.172 2.9C44.322 3.47 44.682 3.95 45.372 4.4C42.882 8.27 40.002 13.7 38.652 17.24C38.352 18.08 38.292 18.47 38.532 18.86ZM58.5169 2.96C58.8769 2.39 59.1469 1.64 58.9369 1.04C58.7269 0.499999 58.2769 0.29 57.6769 0.949998C56.5969 2.12 54.8869 5.21 54.2269 6.68C54.0469 7.07 54.2569 7.37 54.5569 7.43C54.8869 7.49 55.2469 7.43 55.6369 6.95C56.4469 5.99 57.8269 4.04 58.5169 2.96ZM53.6086 16.67C55.9786 19.4 58.8886 20.63 61.0786 20.63C62.8786 20.63 64.3486 20 65.1286 19.1C65.9086 18.17 66.2986 17.39 66.2986 16.7C66.2986 16.13 65.9686 15.59 65.3986 15.17C64.2286 14.33 60.1186 12.62 60.2086 10.64C60.3586 7.19 66.9286 2.78 68.0386 3.59C68.4586 3.89 67.6486 5.21 66.8986 6.32C65.9086 7.64 65.5186 8.78 65.5186 9.44C65.5186 10.13 65.8186 10.64 66.2386 11.06C66.8086 11.66 67.1386 11.42 67.4086 10.94C67.8286 10.22 68.6986 8.66 69.4186 7.7C69.8686 7.04 70.6186 5.84 70.3186 4.61C70.1086 3.8 69.5686 2.81 68.7286 2.03C68.2186 1.61 67.6186 1.4 66.8986 1.4C66.2086 1.4 65.5786 1.49 64.5886 1.91C61.8886 3.05 57.2086 6.62 57.2086 10.7C57.2086 13.76 61.3786 15.38 63.5386 17.06C63.8686 17.33 64.0186 17.87 63.5686 18.32C63.2386 18.65 62.6386 18.8 61.9786 18.8C60.2386 18.8 58.2586 17.3 57.0886 16.34C56.4586 15.83 55.6186 15.59 54.7486 15.59C54.3886 15.59 54.0586 15.62 53.8186 15.68C53.3986 15.83 53.1886 16.16 53.6086 16.67ZM91.5605 6.2C92.4305 4.7 92.7305 3.56 92.7305 2.72C92.7305 2.27 92.6105 1.91 92.4605 1.58C92.1605 0.919999 91.7105 0.829998 91.1705 1.52C89.9705 3.11 87.3905 7.7 85.4705 11.51C83.8205 11.66 82.2905 12.05 80.4005 12.32L83.6105 6.47C84.3305 5.15 84.6005 3.98 84.6005 3.14C84.6005 2.63 84.5105 2.24 84.3305 1.91C84.0005 1.34 83.5505 1.25 83.0705 1.88C81.8105 3.68 79.0805 8.66 77.2205 12.53C76.8905 12.53 76.7105 12.47 76.2605 12.44C75.4505 12.38 75.2705 12.59 75.5705 13.16C75.6905 13.37 75.9305 13.73 76.5305 14.06C75.2705 17.03 74.9705 17.93 74.9705 18.8C74.9705 19.49 75.2105 20 75.4805 20.36C75.8405 20.87 76.3805 20.72 76.5905 20.21C77.4605 18.29 78.3305 16.37 79.2005 14.57C80.5505 14.57 82.4705 14.21 84.3305 13.97C83.8505 14.96 83.4605 15.95 83.2505 16.52C82.9805 17.33 82.8605 17.93 82.8605 18.38C82.8605 19.04 83.1005 19.49 83.3705 19.91C83.7005 20.45 84.2105 20.3 84.4205 19.82C85.4105 17.63 86.4005 15.59 87.3605 13.7C87.8705 13.7 88.2905 13.73 88.7405 13.79C89.3105 13.88 89.5205 13.64 89.4305 13.25C89.3105 12.77 88.9805 12.26 88.3505 11.93C89.0105 10.73 89.6705 9.56 91.5605 6.2ZM101.169 1.16C100.539 1.16 99.9689 1.25 99.3689 1.46C95.9489 2.66 90.3089 8.21 90.3089 14.54C90.3089 17.03 91.2989 19.28 93.8789 20.24C94.5389 20.48 95.1689 20.6 95.8889 20.6C99.3389 20.6 102.369 17.51 104.409 13.79C105.549 11.69 106.329 9.11 106.329 6.89C106.329 4.76 105.549 2.93 103.599 2.06C103.089 1.52 102.249 1.16 101.169 1.16ZM94.8989 18.95C93.7589 18.95 93.0089 17.78 93.0089 15.68C93.0089 13.73 93.6689 11.15 95.1989 8.78C97.9289 4.61 101.469 2.63 102.789 3.11C103.419 3.35 103.719 4.31 103.719 5.75C103.719 7.58 103.119 10.1 101.679 12.77C99.5489 16.67 96.7589 18.95 94.8989 18.95ZM113.11 17.6C113.11 18.68 113.62 19.52 114.34 20.24C114.88 20.75 115.33 20.57 115.69 20.06C118.45 15.8 121.93 11.33 124.3 8.27C127.33 4.37 127.69 2.99 127.54 1.91C127.45 1.22 126.94 1.04 126.4 1.7C123.49 5.39 119.05 10.7 115.93 15.53C117.04 11.24 117.88 9.23 118.81 6.47C119.2 5.33 119.35 4.61 119.35 4.07C119.35 3.41 119.14 2.96 118.78 2.48C118.36 1.88 117.88 2.03 117.55 2.42C114.91 5.6 111.16 10.61 108.43 14.81C109.54 11.06 110.14 9.83 111.13 7.19C111.73 5.57 112.12 4.25 112.12 3.41C112.12 2.87 112.03 2.48 111.73 1.94C111.34 1.28 110.83 1.31 110.41 2.06C108.94 4.88 106.54 11.69 105.49 16.16C105.34 16.85 105.25 17.39 105.25 17.93C105.25 19.01 105.61 19.73 106.39 20.42C106.99 20.9 107.47 20.69 107.77 20.21C109.84 16.88 112.84 12.59 115.3 9.26C114.52 11.66 113.65 14.33 113.29 16.01C113.17 16.61 113.11 17.15 113.11 17.6ZM135.239 14.12C137.939 11.21 140.099 9.17 143.549 5.9C145.349 4.13 145.559 2.6 145.349 1.7C145.229 1.22 144.809 1.13 144.269 1.64C141.959 3.74 138.299 7.28 135.599 10.19C135.719 8.03 135.959 6.8 136.019 5.15C136.079 3.2 135.359 1.97 134.639 1.52C134.159 1.25 133.859 1.31 133.709 2.03C133.139 4.79 132.929 9.41 132.869 12.95C132.029 14.66 131.369 16.22 131.039 17.21C130.889 17.72 130.829 18.23 130.829 18.68C130.829 19.43 131.159 20.18 131.549 20.51C131.999 20.9 132.299 20.75 132.509 20.18C133.109 18.47 134.129 16.31 135.239 14.12ZM152.966 1.16C152.336 1.16 151.766 1.25 151.166 1.46C147.746 2.66 142.106 8.21 142.106 14.54C142.106 17.03 143.096 19.28 145.676 20.24C146.336 20.48 146.966 20.6 147.686 20.6C151.136 20.6 154.166 17.51 156.206 13.79C157.346 11.69 158.126 9.11 158.126 6.89C158.126 4.76 157.346 2.93 155.396 2.06C154.886 1.52 154.046 1.16 152.966 1.16ZM146.696 18.95C145.556 18.95 144.806 17.78 144.806 15.68C144.806 13.73 145.466 11.15 146.996 8.78C149.726 4.61 153.266 2.63 154.586 3.11C155.216 3.35 155.516 4.31 155.516 5.75C155.516 7.58 154.916 10.1 153.476 12.77C151.346 16.67 148.556 18.95 146.696 18.95ZM161.219 20.69C163.049 20.69 165.029 19.67 166.619 17.48C168.599 14.75 172.289 7.91 173.309 5.63C173.789 4.61 173.969 3.71 173.969 3.05C173.969 2.6 173.849 2.15 173.669 1.82C173.309 1.28 172.829 1.16 172.439 1.79C170.819 4.37 167.549 10.22 165.929 13.37C164.159 16.85 162.179 19.22 160.649 19.22C159.989 19.22 159.539 18.8 159.539 17.81C159.539 17.42 159.629 16.94 159.749 16.4C160.559 13.28 163.439 8.81 164.879 6.14C165.569 4.85 165.809 3.89 165.809 3.2C165.809 2.66 165.659 2.24 165.419 1.85C165.059 1.31 164.579 1.22 164.159 1.82C161.459 5.96 158.069 11.57 157.259 14.84C157.109 15.5 157.049 16.07 157.049 16.64C157.049 18.74 158.219 19.85 159.479 20.36C159.989 20.57 160.559 20.69 161.219 20.69ZM188.665 13.67C186.925 17 184.795 18.92 183.145 18.92C182.065 18.92 180.925 17.78 180.925 15.2C180.925 13.4 181.495 10.94 182.815 8.81C185.305 4.79 189.565 2.18 190.285 2.96C190.645 3.35 190.285 4.31 189.865 5.36C189.685 5.81 189.475 6.29 189.355 6.74C189.235 7.13 189.175 7.49 189.175 7.85C189.175 8.72 189.595 9.38 190.195 9.77C190.795 10.13 191.215 9.83 191.365 9.32C191.575 8.66 191.995 7.64 192.505 6.62C192.805 6.02 192.925 5.42 192.925 4.88C192.925 3.71 192.145 2.54 191.125 1.64C190.615 1.22 189.925 1.01 189.175 1.01C188.425 1.01 187.585 1.22 186.805 1.52C183.415 3.05 178.045 8.48 178.165 14.54C178.225 17 179.455 18.89 180.865 19.64C181.615 20.06 182.515 20.27 183.505 20.27C184.795 20.27 186.145 19.91 187.375 19.04C188.455 18.23 190.075 16.49 190.075 14.75C190.075 14.45 190.015 14.09 189.865 13.76C189.565 13.07 188.875 13.25 188.665 13.67ZM199.957 13.22C199.147 13.25 198.487 13.37 197.467 13.49C196.897 13.58 196.297 13.64 195.697 13.7C197.587 10.76 199.747 7.88 201.667 5.57C200.917 7.82 200.317 10.73 199.957 13.22ZM200.827 20.27C201.367 20.51 201.757 20.39 201.757 19.85C201.817 18.38 201.967 16.85 202.147 15.35L203.197 15.53C203.737 15.62 203.947 15.5 203.797 15.02C203.587 14.39 203.287 13.82 202.477 13.46C203.047 10.31 203.887 7.19 204.577 5.03C204.757 4.58 204.817 4.16 204.817 3.8C204.817 3.44 204.727 3.11 204.577 2.75C204.367 2.24 204.187 1.91 203.887 1.52C203.437 0.919999 202.987 0.889999 202.327 1.43C199.177 4.1 195.037 9.89 192.787 13.82C192.367 13.79 192.127 13.76 191.707 13.7C190.927 13.58 190.807 13.76 191.047 14.33C191.137 14.51 191.407 14.93 191.947 15.32C191.617 15.95 191.407 16.46 191.227 16.91C190.867 17.78 190.747 18.47 190.747 18.95C190.747 19.43 190.927 19.7 191.107 20.06C191.317 20.48 191.827 20.6 192.187 19.97C192.877 18.74 193.537 17.24 194.347 15.83C195.187 15.86 196.357 15.74 197.557 15.62L199.657 15.41C199.567 16.19 199.567 16.88 199.567 17.42C199.597 19.16 200.167 19.94 200.827 20.27ZM210.318 17.54C210.438 19.07 210.918 19.85 211.908 20.36C212.418 20.63 212.748 20.45 212.928 20.09C214.758 16.04 218.448 8.99 220.128 6.23C221.058 4.73 221.238 3.68 221.238 2.96C221.238 2.54 221.148 2.15 220.968 1.79C220.638 1.22 220.278 1.07 219.828 1.7C217.848 4.79 214.938 10.04 212.898 14.33C213.108 10.88 213.378 7.76 213.798 5.33C213.888 4.79 213.948 4.31 213.948 3.89C213.948 2.81 213.528 2.18 212.628 1.52C212.178 1.16 211.818 1.16 211.428 1.82C209.148 5.6 205.338 12.74 203.778 16.76C203.538 17.39 203.388 18.11 203.388 18.56C203.388 19.25 203.658 19.85 203.958 20.24C204.378 20.69 204.828 20.66 205.038 20.06C206.358 16.37 208.488 12.23 210.618 8.57C210.348 11.12 210.228 13.61 210.228 15.35C210.228 16.07 210.258 16.67 210.318 17.54ZM233.83 20.21C234.01 19.91 234.13 19.55 234.13 19.19C234.13 18.71 233.98 18.14 233.71 17.63C233.14 16.52 232.12 15.08 231.04 13.79C234.31 12.95 237.4 11.12 238.93 9.05C240.04 7.52 240.67 5.81 239.86 3.8C239.11 1.91 237.64 1.25 236.05 1.31C234.94 1.37 233.89 1.67 232.75 2.03C231.67 2.39 230.53 2.72 229.33 2.9C228.7 2.99 228.55 3.23 228.79 3.65C229.15 4.28 229.57 4.7 230.56 4.88C227.92 8.99 225.28 14.45 224.53 17.06C224.38 17.6 224.32 18.14 224.32 18.56C224.32 19.31 224.56 19.79 224.89 20.15C225.34 20.6 225.67 20.54 225.88 19.97C226.78 17.75 227.56 16.04 228.31 14.57C229.51 15.92 230.95 17.84 232.81 20.3C233.17 20.78 233.5 20.72 233.83 20.21ZM234.25 4.31C235.21 3.98 236.35 3.59 237.04 3.59C237.49 3.59 237.82 3.74 238 4.22C238.78 6.2 235.84 10.16 229.84 11.69C230.38 10.76 231.13 9.5 231.94 8C232.69 6.59 233.05 5.54 233.08 4.7L234.25 4.31ZM236.784 18.86C237.114 19.4 237.324 19.88 237.534 20.18C237.924 20.75 238.404 20.75 239.124 20.54C240.774 20.09 243.984 19.31 245.574 19.34C246.204 19.34 246.294 19.1 246.144 18.68C245.784 17.69 244.944 17.21 243.324 17.27C242.364 17.33 240.474 17.66 239.244 17.99C239.844 16.64 240.474 15.41 241.314 13.82C242.934 13.4 245.034 13.04 246.504 13.04C247.194 13.04 247.254 12.74 247.104 12.35C246.774 11.39 245.994 10.85 244.344 10.91C243.924 10.94 243.414 10.97 242.784 11.06C244.194 8.51 245.574 6.02 246.564 4.52C247.014 4.46 247.314 4.4 247.764 4.31C249.174 4.04 250.794 3.74 252.294 3.74C252.864 3.74 253.074 3.47 252.954 3.14C252.564 2.09 251.814 1.55 250.434 1.58C249.654 1.58 248.814 1.73 247.794 1.88C246.354 2.12 244.764 2.3 243.114 2.3C242.664 2.3 242.334 2.48 242.424 2.9C242.574 3.47 242.934 3.95 243.624 4.4C241.134 8.27 238.254 13.7 236.904 17.24C236.604 18.08 236.544 18.47 236.784 18.86ZM256.295 13.22C255.485 13.25 254.825 13.37 253.805 13.49C253.235 13.58 252.635 13.64 252.035 13.7C253.925 10.76 256.085 7.88 258.005 5.57C257.255 7.82 256.655 10.73 256.295 13.22ZM257.165 20.27C257.705 20.51 258.095 20.39 258.095 19.85C258.155 18.38 258.305 16.85 258.485 15.35L259.535 15.53C260.075 15.62 260.285 15.5 260.135 15.02C259.925 14.39 259.625 13.82 258.815 13.46C259.385 10.31 260.225 7.19 260.915 5.03C261.095 4.58 261.155 4.16 261.155 3.8C261.155 3.44 261.065 3.11 260.915 2.75C260.705 2.24 260.525 1.91 260.225 1.52C259.775 0.919999 259.325 0.889999 258.665 1.43C255.515 4.1 251.375 9.89 249.125 13.82C248.705 13.79 248.465 13.76 248.045 13.7C247.265 13.58 247.145 13.76 247.385 14.33C247.475 14.51 247.745 14.93 248.285 15.32C247.955 15.95 247.745 16.46 247.565 16.91C247.205 17.78 247.085 18.47 247.085 18.95C247.085 19.43 247.265 19.7 247.445 20.06C247.655 20.48 248.165 20.6 248.525 19.97C249.215 18.74 249.875 17.24 250.685 15.83C251.525 15.86 252.695 15.74 253.895 15.62L255.995 15.41C255.905 16.19 255.905 16.88 255.905 17.42C255.935 19.16 256.505 19.94 257.165 20.27ZM271.546 13.67C269.806 17 267.676 18.92 266.026 18.92C264.946 18.92 263.806 17.78 263.806 15.2C263.806 13.4 264.376 10.94 265.696 8.81C268.186 4.79 272.446 2.18 273.166 2.96C273.526 3.35 273.166 4.31 272.746 5.36C272.566 5.81 272.356 6.29 272.236 6.74C272.116 7.13 272.056 7.49 272.056 7.85C272.056 8.72 272.476 9.38 273.076 9.77C273.676 10.13 274.096 9.83 274.246 9.32C274.456 8.66 274.876 7.64 275.386 6.62C275.686 6.02 275.806 5.42 275.806 4.88C275.806 3.71 275.026 2.54 274.006 1.64C273.496 1.22 272.806 1.01 272.056 1.01C271.306 1.01 270.466 1.22 269.686 1.52C266.296 3.05 260.926 8.48 261.046 14.54C261.106 17 262.336 18.89 263.746 19.64C264.496 20.06 265.396 20.27 266.386 20.27C267.676 20.27 269.026 19.91 270.256 19.04C271.336 18.23 272.956 16.49 272.956 14.75C272.956 14.45 272.896 14.09 272.746 13.76C272.446 13.07 271.756 13.25 271.546 13.67ZM289.812 6.2C290.682 4.7 290.982 3.56 290.982 2.72C290.982 2.27 290.862 1.91 290.712 1.58C290.412 0.919999 289.962 0.829998 289.422 1.52C288.222 3.11 285.642 7.7 283.722 11.51C282.072 11.66 280.542 12.05 278.652 12.32L281.862 6.47C282.582 5.15 282.852 3.98 282.852 3.14C282.852 2.63 282.762 2.24 282.582 1.91C282.252 1.34 281.802 1.25 281.322 1.88C280.062 3.68 277.332 8.66 275.472 12.53C275.142 12.53 274.962 12.47 274.512 12.44C273.702 12.38 273.522 12.59 273.822 13.16C273.942 13.37 274.182 13.73 274.782 14.06C273.522 17.03 273.222 17.93 273.222 18.8C273.222 19.49 273.462 20 273.732 20.36C274.092 20.87 274.632 20.72 274.842 20.21C275.712 18.29 276.582 16.37 277.452 14.57C278.802 14.57 280.722 14.21 282.582 13.97C282.102 14.96 281.712 15.95 281.502 16.52C281.232 17.33 281.112 17.93 281.112 18.38C281.112 19.04 281.352 19.49 281.622 19.91C281.952 20.45 282.462 20.3 282.672 19.82C283.662 17.63 284.652 15.59 285.612 13.7C286.122 13.7 286.542 13.73 286.992 13.79C287.562 13.88 287.772 13.64 287.682 13.25C287.562 12.77 287.232 12.26 286.602 11.93C287.262 10.73 287.922 9.56 289.812 6.2ZM306.013 1.16C305.383 1.16 304.813 1.25 304.213 1.46C300.793 2.66 295.153 8.21 295.153 14.54C295.153 17.03 296.143 19.28 298.723 20.24C299.383 20.48 300.013 20.6 300.733 20.6C304.183 20.6 307.213 17.51 309.253 13.79C310.393 11.69 311.173 9.11 311.173 6.89C311.173 4.76 310.393 2.93 308.443 2.06C307.933 1.52 307.093 1.16 306.013 1.16ZM299.743 18.95C298.603 18.95 297.853 17.78 297.853 15.68C297.853 13.73 298.513 11.15 300.043 8.78C302.773 4.61 306.313 2.63 307.633 3.11C308.263 3.35 308.563 4.31 308.563 5.75C308.563 7.58 307.963 10.1 306.523 12.77C304.393 16.67 301.603 18.95 299.743 18.95ZM314.266 20.69C316.096 20.69 318.076 19.67 319.666 17.48C321.646 14.75 325.336 7.91 326.356 5.63C326.836 4.61 327.016 3.71 327.016 3.05C327.016 2.6 326.896 2.15 326.716 1.82C326.356 1.28 325.876 1.16 325.486 1.79C323.866 4.37 320.596 10.22 318.976 13.37C317.206 16.85 315.226 19.22 313.696 19.22C313.036 19.22 312.586 18.8 312.586 17.81C312.586 17.42 312.676 16.94 312.796 16.4C313.606 13.28 316.486 8.81 317.926 6.14C318.616 4.85 318.856 3.89 318.856 3.2C318.856 2.66 318.706 2.24 318.466 1.85C318.106 1.31 317.626 1.22 317.206 1.82C314.506 5.96 311.116 11.57 310.306 14.84C310.156 15.5 310.096 16.07 310.096 16.64C310.096 18.74 311.266 19.85 312.526 20.36C313.036 20.57 313.606 20.69 314.266 20.69ZM325.303 18.47C325.303 19.22 325.483 19.7 325.933 20.12C326.353 20.54 326.713 20.51 326.953 19.97C328.693 16.04 330.853 12.05 332.413 9.23C333.703 6.98 334.573 5.24 334.543 4.16C336.163 3.89 337.903 3.62 339.193 3.77C339.883 3.83 340.003 3.47 339.853 3.11C339.403 1.85 338.143 1.49 336.763 1.49C335.023 1.49 330.223 2.3 327.613 2.3C327.193 2.3 326.953 2.48 327.043 2.87C327.373 4.04 328.663 4.73 330.613 4.73C331.033 4.73 331.453 4.67 331.903 4.61C329.263 8.69 326.233 14.78 325.483 17.27C325.363 17.66 325.303 18.11 325.303 18.47ZM343.995 18.47C343.995 19.22 344.175 19.7 344.625 20.12C345.045 20.54 345.405 20.51 345.645 19.97C347.385 16.04 349.545 12.05 351.105 9.23C352.395 6.98 353.265 5.24 353.235 4.16C354.855 3.89 356.595 3.62 357.885 3.77C358.575 3.83 358.695 3.47 358.545 3.11C358.095 1.85 356.835 1.49 355.455 1.49C353.715 1.49 348.915 2.3 346.305 2.3C345.885 2.3 345.645 2.48 345.735 2.87C346.065 4.04 347.355 4.73 349.305 4.73C349.725 4.73 350.145 4.67 350.595 4.61C347.955 8.69 344.925 14.78 344.175 17.27C344.055 17.66 343.995 18.11 343.995 18.47ZM364.665 1.16C364.035 1.16 363.465 1.25 362.865 1.46C359.445 2.66 353.805 8.21 353.805 14.54C353.805 17.03 354.795 19.28 357.375 20.24C358.035 20.48 358.665 20.6 359.385 20.6C362.835 20.6 365.865 17.51 367.905 13.79C369.045 11.69 369.825 9.11 369.825 6.89C369.825 4.76 369.045 2.93 367.095 2.06C366.585 1.52 365.745 1.16 364.665 1.16ZM358.395 18.95C357.255 18.95 356.505 17.78 356.505 15.68C356.505 13.73 357.165 11.15 358.695 8.78C361.425 4.61 364.965 2.63 366.285 3.11C366.915 3.35 367.215 4.31 367.215 5.75C367.215 7.58 366.615 10.1 365.175 12.77C363.045 16.67 360.255 18.95 358.395 18.95ZM379.51 20.69C381.34 20.69 383.32 19.67 384.91 17.48C386.89 14.75 390.58 7.91 391.6 5.63C392.08 4.61 392.26 3.71 392.26 3.05C392.26 2.6 392.14 2.15 391.96 1.82C391.6 1.28 391.12 1.16 390.73 1.79C389.11 4.37 385.84 10.22 384.22 13.37C382.45 16.85 380.47 19.22 378.94 19.22C378.28 19.22 377.83 18.8 377.83 17.81C377.83 17.42 377.92 16.94 378.04 16.4C378.85 13.28 381.73 8.81 383.17 6.14C383.86 4.85 384.1 3.89 384.1 3.2C384.1 2.66 383.95 2.24 383.71 1.85C383.35 1.31 382.87 1.22 382.45 1.82C379.75 5.96 376.36 11.57 375.55 14.84C375.4 15.5 375.34 16.07 375.34 16.64C375.34 18.74 376.51 19.85 377.77 20.36C378.28 20.57 378.85 20.69 379.51 20.69ZM387.359 16.67C389.729 19.4 392.639 20.63 394.829 20.63C396.629 20.63 398.099 20 398.879 19.1C399.659 18.17 400.049 17.39 400.049 16.7C400.049 16.13 399.719 15.59 399.149 15.17C397.979 14.33 393.869 12.62 393.959 10.64C394.109 7.19 400.679 2.78 401.789 3.59C402.209 3.89 401.399 5.21 400.649 6.32C399.659 7.64 399.269 8.78 399.269 9.44C399.269 10.13 399.569 10.64 399.989 11.06C400.559 11.66 400.889 11.42 401.159 10.94C401.579 10.22 402.449 8.66 403.169 7.7C403.619 7.04 404.369 5.84 404.069 4.61C403.859 3.8 403.319 2.81 402.479 2.03C401.969 1.61 401.369 1.4 400.649 1.4C399.959 1.4 399.329 1.49 398.339 1.91C395.639 3.05 390.959 6.62 390.959 10.7C390.959 13.76 395.129 15.38 397.289 17.06C397.619 17.33 397.769 17.87 397.319 18.32C396.989 18.65 396.389 18.8 395.729 18.8C393.989 18.8 392.009 17.3 390.839 16.34C390.209 15.83 389.369 15.59 388.499 15.59C388.139 15.59 387.809 15.62 387.569 15.68C387.149 15.83 386.939 16.16 387.359 16.67Z" fill="#FBFBFB"/>
</svg>
