<svg width="17" height="15" viewBox="0 0 17 15" fill="none" xmlns="http://www.w3.org/2000/svg">
<path fill-rule="evenodd" clip-rule="evenodd" d="M11.732 9.53693L16.2626 13.7137C16.3895 13.8307 16.3895 14.0204 16.2627 14.1374L15.8033 14.5609C15.6763 14.6779 15.4706 14.6779 15.3437 14.5609L10.8131 10.3841C9.7522 11.1763 8.40348 11.6532 6.93505 11.6532C3.53096 11.6532 0.761475 9.09999 0.761475 5.96173C0.761475 2.82347 3.53093 0.270264 6.93502 0.270264C10.3391 0.270264 13.1086 2.82347 13.1086 5.96173C13.1086 7.31549 12.5913 8.55889 11.732 9.53693ZM2.0612 5.96174C2.0612 8.43947 4.24746 10.455 6.93506 10.455C9.62266 10.455 11.8089 8.43947 11.8089 5.96174C11.8089 3.48402 9.62266 1.46849 6.93506 1.46849C4.24746 1.46849 2.0612 3.48402 2.0612 5.96174Z" fill="#868686"/>
</svg>
