<svg width="78" height="74" viewBox="0 0 78 74" fill="none" xmlns="http://www.w3.org/2000/svg">
<g clip-path="url(#clip0)">
<path d="M59.048 44.6933V15.034C59.048 13.64 57.8525 12.5059 56.3832 12.5059H17.5803C16.111 12.5059 14.9155 13.64 14.9155 15.034V44.6931C14.9155 46.0871 16.111 47.2213 17.5803 47.2213H56.3832C57.8525 47.2214 59.048 46.0873 59.048 44.6933ZM17.1996 44.6933V33.1139L23.2471 27.3764C23.3439 27.2843 23.4573 27.2706 23.5162 27.2706C23.5752 27.2706 23.6882 27.2843 23.7854 27.3764L25.0868 28.611C25.5325 29.0342 26.2557 29.034 26.7019 28.611C27.1478 28.1878 27.1478 27.5019 26.7018 27.0787L25.4006 25.8442C24.8974 25.3667 24.2281 25.1036 23.5164 25.1036C22.8045 25.1036 22.1354 25.3665 21.6321 25.8441L17.1999 30.0491V15.034C17.1999 14.8348 17.3707 14.6728 17.5806 14.6728H56.3835C56.5934 14.6728 56.7642 14.8348 56.7642 15.034V44.6931C56.7642 44.8923 56.5934 45.0543 56.3835 45.0543H55.2694L41.0403 31.5548C40.0012 30.5694 38.3108 30.5694 37.2717 31.5549L34.3462 34.3305L30.3412 30.5309C29.8953 30.1078 29.1723 30.1078 28.7259 30.5309C28.28 30.954 28.28 31.6401 28.7259 32.0633L33.0003 36.1184C33.3598 36.4593 33.8378 36.6472 34.3462 36.6472C34.8546 36.6472 35.3328 36.4593 35.6922 36.1182L38.887 33.0873C39.0354 32.9465 39.2768 32.9465 39.4253 33.0873L52.0391 45.0543H17.5803C17.3704 45.0543 17.1996 44.8923 17.1996 44.6933Z" fill="#268C08"/>
<path d="M66.7138 52.9565V39.0805C66.7138 38.4822 66.2026 37.997 65.5717 37.997C64.9409 37.997 64.4296 38.482 64.4296 39.0805V51.3228C62.5162 50.2477 60.2863 49.628 57.9058 49.628C51.3675 49.628 45.9584 54.2878 45.1651 60.2902H10.6757C10.0459 60.2902 9.5336 59.8041 9.5336 59.2066V3.25051C9.5336 2.65302 10.0459 2.16696 10.6757 2.16696H63.2875C63.9173 2.16696 64.4296 2.65302 64.4296 3.25051V33.6827C64.4296 34.2811 64.9409 34.7663 65.5717 34.7663C66.2026 34.7663 66.7138 34.2812 66.7138 33.6827V3.25051C66.7138 1.45818 65.1768 0 63.2876 0H10.6757C8.78651 0 7.24951 1.45818 7.24951 3.25051V59.2066C7.24951 60.999 8.78651 62.4572 10.6757 62.4572H45.0809C45.2034 64.6917 45.9614 66.8327 47.2957 68.6841C47.6517 69.1781 48.3625 69.3046 48.8829 68.9671C49.4036 68.6294 49.5372 67.9551 49.1812 67.4611C47.9801 65.7944 47.3453 63.8416 47.3453 61.814C47.3453 56.2894 52.0827 51.7951 57.9058 51.7951C63.7288 51.7951 68.4663 56.2896 68.4663 61.814C68.4663 67.3384 63.7288 71.833 57.9058 71.833C56.1698 71.833 54.4491 71.4252 52.9296 70.6535C52.3734 70.3713 51.6813 70.57 51.3838 71.0974C51.0861 71.6249 51.2956 72.2815 51.8518 72.5639C53.7016 73.5034 55.7951 73.9999 57.9058 73.9999C64.9884 73.9999 70.7505 68.5332 70.7505 61.8138C70.7505 58.327 69.1964 55.1799 66.7138 52.9565Z" fill="#268C08"/>
<path d="M57.906 56.2385C57.2751 56.2385 56.7638 56.7236 56.7638 57.3221V60.7618H53.1382C52.5074 60.7618 51.9961 61.2468 51.9961 61.8453C51.9961 62.4438 52.5074 62.9289 53.1382 62.9289H56.7638V66.3686C56.7638 66.9669 57.2751 67.4521 57.906 67.4521C58.5368 67.4521 59.0481 66.9671 59.0481 66.3686V62.9289H62.6737C63.3046 62.9289 63.8158 62.4438 63.8158 61.8453C63.8158 61.2468 63.3046 60.7618 62.6737 60.7618H59.0481V57.3221C59.0479 56.7237 58.5367 56.2385 57.906 56.2385Z" fill="#268C08"/>
<path d="M19.2501 52.45C19.3376 51.616 18.6958 50.8726 17.8167 50.7897C16.9376 50.7067 16.154 51.3155 16.0666 52.1495C15.9791 52.9836 16.6209 53.7269 17.5 53.8099C18.3791 53.8929 19.1626 53.2841 19.2501 52.45Z" fill="#268C08"/>
<path d="M24.9059 52.4503C24.9933 51.6163 24.3516 50.8729 23.4725 50.7899C22.5934 50.7069 21.8098 51.3157 21.7223 52.1498C21.6349 52.9838 22.2766 53.7272 23.1557 53.8102C24.0348 53.8932 24.8184 53.2843 24.9059 52.4503Z" fill="#268C08"/>
<path d="M30.5616 52.4513C30.6491 51.6172 30.0074 50.8739 29.1282 50.7909C28.2491 50.7079 27.4656 51.3167 27.3781 52.1508C27.2906 52.9848 27.9324 53.7282 28.8115 53.8111C29.6906 53.8941 30.4742 53.2853 30.5616 52.4513Z" fill="#268C08"/>
<path d="M41.3744 9.00646C42.0053 9.00646 42.5165 8.52141 42.5165 7.92291C42.5165 7.3244 42.0053 6.83936 41.3744 6.83936H36.4258C35.795 6.83936 35.2837 7.3244 35.2837 7.92291C35.2837 8.52141 35.795 9.00646 36.4258 9.00646H41.3744Z" fill="#268C08"/>
<path d="M30.5632 9.00646C31.1941 9.00646 31.7053 8.52141 31.7053 7.92291C31.7053 7.3244 31.1941 6.83936 30.5632 6.83936H17.0479C16.417 6.83936 15.9058 7.3244 15.9058 7.92291C15.9058 8.52141 16.417 9.00646 17.0479 9.00646H30.5632Z" fill="#268C08"/>
<path d="M46.6564 27.7038C48.8868 27.7038 50.7014 25.9822 50.7014 23.8662C50.7014 21.7501 48.8868 20.0286 46.6564 20.0286C44.4259 20.0286 42.6113 21.7501 42.6113 23.8662C42.6113 25.9822 44.4259 27.7038 46.6564 27.7038ZM46.6564 22.1957C47.6272 22.1957 48.4172 22.9451 48.4172 23.8662C48.4172 24.7873 47.6272 25.5367 46.6564 25.5367C45.6855 25.5367 44.8956 24.7873 44.8956 23.8662C44.8954 22.9452 45.6855 22.1957 46.6564 22.1957Z" fill="#268C08"/>
</g>
<defs>
<clipPath id="clip0">
<rect width="78" height="74" fill="white"/>
</clipPath>
</defs>
</svg>
