<svg width="35" height="28" viewBox="0 0 35 28" fill="none" xmlns="http://www.w3.org/2000/svg">
<g clip-path="url(#clip0)">
<path d="M31.3545 24.4999H3.64616C3.24366 24.4999 2.91699 24.2386 2.91699 23.9166C2.91699 23.5946 3.24366 23.3333 3.64616 23.3333H31.3545C31.757 23.3333 32.0837 23.5946 32.0837 23.9166C32.0837 24.2386 31.757 24.4999 31.3545 24.4999Z" fill="#D7210A"/>
<path d="M31.3545 11.6667H3.64616C3.24366 11.6667 2.91699 11.4053 2.91699 11.0833C2.91699 10.7613 3.24366 10.5 3.64616 10.5H31.3545C31.757 10.5 32.0837 10.7613 32.0837 11.0833C32.0837 11.4053 31.757 11.6667 31.3545 11.6667Z" fill="#D7210A"/>
<path d="M28.4375 24.5001H18.2292C17.8267 24.5001 17.5 24.2387 17.5 23.9167V15.7501C17.5 15.4281 17.8267 15.1667 18.2292 15.1667H28.4375C28.84 15.1667 29.1667 15.4281 29.1667 15.7501V23.9167C29.1667 24.2387 28.84 24.5001 28.4375 24.5001ZM18.9583 23.3334H27.7083V16.3334H18.9583V23.3334Z" fill="#D7210A"/>
<path d="M23.3337 19.8334C22.9312 19.8334 22.6045 19.5721 22.6045 19.2501V15.7501C22.6045 15.4281 22.9312 15.1667 23.3337 15.1667C23.7362 15.1667 24.0628 15.4281 24.0628 15.7501V19.2501C24.0628 19.5721 23.7362 19.8334 23.3337 19.8334Z" fill="#D7210A"/>
<path d="M18.2295 11.6666H8.02116C7.61866 11.6666 7.29199 11.4053 7.29199 11.0833V2.91659C7.29199 2.59459 7.61866 2.33325 8.02116 2.33325H18.2295C18.632 2.33325 18.9586 2.59459 18.9586 2.91659V11.0833C18.9586 11.4053 18.632 11.6666 18.2295 11.6666ZM8.75032 10.4999H17.5003V3.49992H8.75032V10.4999Z" fill="#D7210A"/>
<path d="M13.1247 6.99991C12.7222 6.99991 12.3955 6.73858 12.3955 6.41658V2.91658C12.3955 2.59458 12.7222 2.33325 13.1247 2.33325C13.5272 2.33325 13.8538 2.59458 13.8538 2.91658V6.41658C13.8538 6.73858 13.5272 6.99991 13.1247 6.99991Z" fill="#D7210A"/>
<path d="M15.3122 24.4999H6.56217C6.15967 24.4999 5.83301 24.2386 5.83301 23.9166V16.9166C5.83301 16.5946 6.15967 16.3333 6.56217 16.3333H15.3122C15.7147 16.3333 16.0413 16.5946 16.0413 16.9166V23.9166C16.0413 24.2386 15.7147 24.4999 15.3122 24.4999ZM7.29134 23.3333H14.583V17.4999H7.29134V23.3333Z" fill="#D7210A"/>
<path d="M10.9372 19.8333C10.5347 19.8333 10.208 19.5719 10.208 19.2499V16.9166C10.208 16.5946 10.5347 16.3333 10.9372 16.3333C11.3397 16.3333 11.6663 16.5946 11.6663 16.9166V19.2499C11.6663 19.5719 11.3397 19.8333 10.9372 19.8333Z" fill="#D7210A"/>
<path d="M3.64583 28H0.729167C0.326667 28 0 27.7387 0 27.4167V0.583333C0 0.261333 0.326667 0 0.729167 0H3.64583C4.04833 0 4.375 0.261333 4.375 0.583333V27.4167C4.375 27.7387 4.04833 28 3.64583 28ZM1.45833 26.8333H2.91667V1.16667H1.45833V26.8333Z" fill="#D7210A"/>
<path d="M34.2708 28H31.3542C30.9517 28 30.625 27.7387 30.625 27.4167V0.583333C30.625 0.261333 30.9517 0 31.3542 0H34.2708C34.6733 0 35 0.261333 35 0.583333V27.4167C35 27.7387 34.6733 28 34.2708 28ZM32.0833 26.8333H33.5417V1.16667H32.0833V26.8333Z" fill="#D7210A"/>
</g>
<defs>
<clipPath id="clip0">
<rect width="35" height="28" fill="white"/>
</clipPath>
</defs>
</svg>
