<svg width="45" height="38" viewBox="0 0 45 38" fill="none" xmlns="http://www.w3.org/2000/svg">
<path d="M0 19C0 19.6558 0.629561 20.1875 1.40625 20.1875H2.10938V21.9688C2.10938 28.8441 8.73316 34.4375 16.875 34.4375H17.5781V36.8125C17.5781 37.4683 18.2077 38 18.9844 38C19.7611 38 20.3906 37.4683 20.3906 36.8125V34.4375H24.6094V36.8125C24.6094 37.4683 25.2389 38 26.0156 38C26.7923 38 27.4219 37.4683 27.4219 36.8125V34.4375H28.125C36.2668 34.4375 42.8906 28.8441 42.8906 21.9688V20.1875H43.5938C44.3704 20.1875 45 19.6558 45 19C45 18.3442 44.3704 17.8125 43.5938 17.8125C41.6329 17.8125 37.6801 17.8125 36.5625 17.8125V15.2231L39.5888 14.8299C40.3565 14.7302 40.883 14.1239 40.7649 13.4757C40.6469 12.8275 39.9292 12.3826 39.1613 12.4826C29.2158 13.7746 29.9593 13.6687 29.7769 13.7218C29.4352 13.8208 29.1458 14.0311 28.9788 14.3113C28.7769 14.6498 28.8281 14.5687 28.8281 17.8125H26.7188V8.3125C26.7188 3.72897 22.3029 0 16.875 0C11.4471 0 7.03125 3.72897 7.03125 8.3125V8.90625C7.03125 9.56205 7.66081 10.0938 8.4375 10.0938H14.0625C14.8392 10.0938 15.4688 9.56205 15.4688 8.90625V8.3125C15.4688 7.65774 16.0996 7.125 16.875 7.125C17.6504 7.125 18.2812 7.65774 18.2812 8.3125V17.8125H16.1719C16.1719 14.5789 16.185 14.7634 16.1358 14.5798C16.0096 14.114 15.5659 13.7576 15.0093 13.6753C14.8959 13.6584 16.0479 13.8088 5.83884 12.4826C5.07103 12.3827 4.35331 12.8274 4.23519 13.4757C4.11706 14.1239 4.64353 14.7302 5.41125 14.8299L8.4375 15.2231V17.8125C6.69146 17.8125 2.02526 17.8125 1.40625 17.8125C0.629561 17.8125 0 18.3442 0 19H0ZM13.3594 17.8125H11.25V15.5885L13.3594 15.8625V17.8125ZM23.9062 17.8125H21.0938V8.3125C21.0938 6.34815 19.2013 4.75 16.875 4.75C14.7883 4.75 13.0505 6.03599 12.7149 7.71875H9.87856C10.2326 4.72261 13.2352 2.375 16.875 2.375C20.752 2.375 23.9062 5.03856 23.9062 8.3125V17.8125ZM33.75 17.8125H31.6406V15.8626L33.75 15.5885V17.8125ZM4.92188 20.1875H40.0781V21.9688C40.0781 27.5345 34.7159 32.0625 28.125 32.0625C26.8723 32.0625 18.3737 32.0625 16.875 32.0625C10.2841 32.0625 4.92188 27.5345 4.92188 21.9688V20.1875Z" fill="#D7210A"/>
</svg>
