<svg width="53" height="45" viewBox="0 0 53 45" fill="none" xmlns="http://www.w3.org/2000/svg">
<path d="M36.4377 9.59253H9.97907C9.78689 9.59253 9.60258 9.65735 9.46669 9.77273C9.3308 9.88811 9.25446 10.0446 9.25446 10.2078V20.6843H8.53564C8.34347 20.6843 8.15916 20.7491 8.02327 20.8645C7.88738 20.9799 7.81104 21.1364 7.81104 21.2996V25.261C7.81104 25.4241 7.88738 25.5806 8.02327 25.696C8.15916 25.8114 8.34347 25.8762 8.53564 25.8762H9.25239V32.7974C9.25239 32.9606 9.32873 33.1171 9.46462 33.2324C9.60051 33.3478 9.78482 33.4126 9.977 33.4126H11.1198V34.7925C11.1199 34.9557 11.1963 35.1121 11.3322 35.2275C11.468 35.3428 11.6523 35.4077 11.8444 35.4078H18.1891C18.3813 35.4078 18.5656 35.3429 18.7015 35.2276C18.8374 35.1122 18.9137 34.9557 18.9137 34.7925V33.4126H35.5267V34.7925C35.5267 34.9557 35.6031 35.1122 35.739 35.2276C35.8748 35.3429 36.0592 35.4078 36.2513 35.4078H42.5956C42.7878 35.4078 42.9721 35.3429 43.108 35.2276C43.2439 35.1122 43.3202 34.9557 43.3202 34.7925V33.4126H44.4634C44.6556 33.4126 44.8399 33.3478 44.9758 33.2324C45.1117 33.1171 45.188 32.9606 45.188 32.7974V17.0246C45.1853 15.0546 44.2626 13.166 42.6223 11.7728C40.9819 10.3796 38.7578 9.59551 36.4377 9.59253ZM43.7417 17.0246V17.1627C43.7417 18.4165 43.3039 19.6421 42.4835 20.6846C41.6632 21.7271 40.4972 22.5397 39.133 23.0196C37.7688 23.4995 36.2676 23.6252 34.8193 23.3808C33.371 23.1364 32.0405 22.5328 30.9961 21.6465C29.9518 20.7601 29.2404 19.6307 28.952 18.4011C28.6635 17.1714 28.811 15.8968 29.3757 14.7383C29.9404 13.5798 30.897 12.5895 32.1245 11.8926C33.352 11.1957 34.7954 10.8235 36.272 10.823H36.4377C38.3739 10.8252 40.23 11.4794 41.5989 12.6419C42.9679 13.8045 43.7379 15.3806 43.7401 17.0246H43.7417ZM11.8838 26.5958V25.8751H22.796V26.5958H11.8838ZM9.26025 24.6447V21.9148H25.4195V24.6447H9.26025ZM17.4645 34.1773H12.569V33.4126H17.4645V34.1773ZM41.8722 34.1773H36.9759V33.4126H41.871L41.8722 34.1773ZM10.7016 32.1822V27.8263H43.7401V32.1822H10.7016ZM43.7401 26.5958H24.2452V25.8751H26.1441C26.3362 25.8751 26.5205 25.8102 26.6563 25.6948C26.7922 25.5795 26.8686 25.4231 26.8687 25.2599V21.2996C26.8686 21.1364 26.7922 20.98 26.6563 20.8646C26.5205 20.7493 26.3362 20.6844 26.1441 20.6843H10.7016V18.9592H17.3399C17.532 18.9592 17.7163 18.8944 17.8522 18.779C17.9881 18.6636 18.0645 18.5071 18.0645 18.344C18.0645 18.1808 17.9881 18.0243 17.8522 17.9089C17.7163 17.7936 17.532 17.7287 17.3399 17.7287H10.7016V16.3995H17.3399C17.532 16.3995 17.7163 16.3347 17.8522 16.2193C17.9881 16.1039 18.0645 15.9474 18.0645 15.7842C18.0645 15.6211 17.9881 15.4646 17.8522 15.3492C17.7163 15.2338 17.532 15.169 17.3399 15.169H10.7016V13.8398H17.3399C17.532 13.8398 17.7163 13.7749 17.8522 13.6596C17.9881 13.5442 18.0645 13.3877 18.0645 13.2245C18.0645 13.0614 17.9881 12.9049 17.8522 12.7895C17.7163 12.6741 17.532 12.6093 17.3399 12.6093H10.7016V10.823H31.4163C30.303 11.4366 29.3652 12.2537 28.6714 13.2145C27.9777 14.1754 27.5456 15.2557 27.4067 16.3765C27.2678 17.4973 27.4257 18.6303 27.8687 19.6927C28.3117 20.755 29.0287 21.72 29.9672 22.5169C30.9058 23.3138 32.0422 23.9226 33.2934 24.2988C34.5447 24.6749 35.8791 24.809 37.1992 24.6911C38.5192 24.5732 39.7916 24.2064 40.9233 23.6174C42.0549 23.0284 43.0173 22.2322 43.7401 21.2869V26.5958Z" fill="#D7210A"/>
<path d="M33.3955 17.163C33.3954 17.6464 33.5642 18.119 33.8805 18.521C34.1969 18.923 34.6465 19.2364 35.1726 19.4214C35.6987 19.6064 36.2775 19.6547 36.836 19.5603C37.3945 19.466 37.9074 19.2331 38.31 18.8911C38.7125 18.5492 38.9866 18.1136 39.0975 17.6394C39.2084 17.1652 39.1512 16.6737 38.9331 16.2271C38.715 15.7805 38.3458 15.3989 37.8721 15.1305C37.3985 14.8621 36.8418 14.719 36.2724 14.7192C35.5096 14.7203 34.7783 14.9781 34.239 15.4362C33.6997 15.8943 33.3964 16.5152 33.3955 17.163ZM37.7018 17.163C37.7018 17.403 37.6181 17.6377 37.4611 17.8373C37.3041 18.0369 37.0809 18.1925 36.8197 18.2844C36.5585 18.3763 36.2711 18.4004 35.9938 18.3536C35.7165 18.3068 35.4618 18.1913 35.2619 18.0216C35.0619 17.8519 34.9257 17.6356 34.8706 17.4002C34.8154 17.1648 34.8437 16.9207 34.9518 16.699C35.06 16.4772 35.2432 16.2876 35.4783 16.1543C35.7133 16.0209 35.9897 15.9497 36.2724 15.9497C36.6515 15.9497 37.0152 16.0775 37.2834 16.305C37.5516 16.5325 37.7026 16.8411 37.703 17.163H37.7018Z" fill="#D7210A"/>
</svg>
