<svg width="44" height="40" viewBox="0 0 44 40" fill="none" xmlns="http://www.w3.org/2000/svg">
<g clip-path="url(#clip0)">
<path d="M24.2134 23.5459C24.5693 23.5459 24.8579 23.2836 24.8579 22.96C24.8579 22.6364 24.5693 22.374 24.2134 22.374C23.8574 22.374 23.5688 22.6364 23.5688 22.96C23.5688 23.2836 23.8574 23.5459 24.2134 23.5459Z" fill="#D7210A"/>
<path d="M20.5674 23.5459C20.9233 23.5459 21.2119 23.2836 21.2119 22.96C21.2119 22.6364 20.9233 22.374 20.5674 22.374C20.2114 22.374 19.9229 22.6364 19.9229 22.96C19.9229 23.2836 20.2114 23.5459 20.5674 23.5459Z" fill="#D7210A"/>
<path d="M43.8117 0.171569C43.5599 -0.0571895 43.1519 -0.0571895 42.9002 0.171569L41.4998 1.44458C39.734 0.242743 37.2124 0.370404 35.6079 1.82881C34.7557 2.60361 34.2864 3.63364 34.2864 4.72923C34.2864 5.62699 34.602 6.48038 35.1846 7.18564L34.2406 8.0438L30.1388 4.31484C29.887 4.08616 29.4789 4.086 29.2272 4.31484L25.581 7.62949C25.4602 7.73941 25.3923 7.8884 25.3923 8.04388C25.3923 8.19935 25.4602 8.34826 25.581 8.45827L29.6829 12.1873L28.7714 13.0159L26.4926 10.9443C25.2358 9.80198 23.1914 9.80198 21.9348 10.9444C20.6783 12.0867 20.6783 13.9453 21.9348 15.0877L24.2136 17.1594L23.3021 17.988L21.0233 15.9163C20.4146 15.363 19.6053 15.0583 18.7444 15.0583C17.8836 15.0583 17.0743 15.363 16.4656 15.9163C16.1513 16.2021 15.9058 16.544 15.7444 16.9181C15.3329 17.0648 14.9568 17.2879 14.6425 17.5737C13.3859 18.716 13.3859 20.5747 14.6425 21.7171L16.9213 23.7887L16.0098 24.6173L11.9079 20.8883C11.787 20.7785 11.6231 20.7167 11.4521 20.7167C11.2812 20.7167 11.1172 20.7785 10.9964 20.8883L7.35018 24.203C7.22927 24.313 7.16137 24.462 7.16137 24.6174C7.16137 24.7729 7.22927 24.9218 7.35018 25.0318L9.17324 26.6891C9.42496 26.9179 9.83309 26.9179 10.0847 26.6891C10.3364 26.4602 10.3364 26.0893 10.0847 25.8604L8.71741 24.6175L11.452 22.1315L15.7095 26.0019C15.5078 25.9829 15.3037 25.9733 15.0981 25.9733C13.5486 25.9733 12.0919 26.5218 10.9963 27.5178C10.7446 27.7468 10.7446 28.1177 10.9963 28.3465L11.452 28.7609L10.5247 29.6039C8.84478 28.2721 6.72041 27.5447 4.4753 27.5447C3.9588 27.5447 3.47324 27.7276 3.10799 28.0596C2.74274 28.3916 2.54164 28.833 2.54164 29.3026C2.54164 30.2718 3.40904 31.0605 4.4753 31.0605C5.68749 31.0605 6.83849 31.427 7.77868 32.1003L6.41197 33.3427C5.91481 33.7946 5.59966 34.3673 5.50057 34.9986L5.13576 37.3216C5.07637 37.7001 4.8873 38.0434 4.589 38.3145C4.22375 38.6466 3.73819 38.8295 3.22169 38.8295C2.70519 38.8295 2.21962 38.6466 1.85438 38.3145C1.10051 37.6292 1.10051 36.514 1.85438 35.8286C2.10609 35.5998 2.10609 35.2287 1.85438 35C1.60266 34.7712 1.19452 34.7711 0.94289 35.0001C-0.313646 36.1424 -0.313646 38.001 0.94289 39.1433C1.5712 39.7145 2.39649 40.0001 3.22177 40.0001C4.04706 40.0001 4.87235 39.7145 5.50066 39.1433C5.99774 38.6914 6.31297 38.1188 6.41206 37.4873L6.77696 35.1643C6.83635 34.7858 7.02541 34.4425 7.32371 34.1714L8.69043 32.9289C9.43106 33.7836 9.83412 34.83 9.83421 35.9319C9.83421 36.9011 10.7016 37.6898 11.7678 37.6898C12.2845 37.6898 12.77 37.5069 13.1352 37.1749C13.5004 36.8429 13.7015 36.4014 13.7015 35.9319C13.7015 33.891 12.9015 31.9597 11.4365 30.4326L12.3639 29.5895L16.4658 33.3185C16.5916 33.4329 16.7566 33.4901 16.9215 33.4901C17.0865 33.4901 17.2515 33.4329 17.3773 33.3185L21.0235 30.0039C21.1444 29.8939 21.2123 29.7449 21.2123 29.5895C21.2123 29.434 21.1444 29.2851 21.0235 29.1751L19.2042 27.5212C19.203 27.52 19.2017 27.5189 19.2004 27.5177C19.1967 27.5142 19.1928 27.5108 19.189 27.5073L16.9216 25.446L17.8332 24.6174L20.112 26.6891C20.7403 27.2603 21.5656 27.5458 22.3909 27.5458C23.2162 27.5458 24.0414 27.2603 24.6698 26.6891C24.9841 26.4033 25.2295 26.0614 25.3909 25.6873C25.8025 25.5406 26.1785 25.3175 26.4928 25.0317C27.7494 23.8894 27.7494 22.0307 26.4928 20.8883L24.214 18.8167L25.1255 17.9881L27.4043 20.0597C28.0327 20.6309 28.8579 20.9164 29.6832 20.9164C30.5086 20.9164 31.3338 20.6309 31.9622 20.0597C33.2187 18.9173 33.2187 17.0586 31.9622 15.9163L29.6834 13.8446L30.5944 13.0161L34.6963 16.745C34.8172 16.8549 34.9811 16.9166 35.1521 16.9166C35.3231 16.9166 35.4869 16.8549 35.6079 16.745L39.2541 13.4303C39.5059 13.2014 39.5059 12.8305 39.2541 12.6016L35.1523 8.87265L36.0962 8.0145C36.872 8.54421 37.8108 8.83109 38.7983 8.83109C40.0034 8.83109 41.1365 8.40444 41.9888 7.62972C43.5931 6.17115 43.7334 3.87889 42.4114 2.27344L43.8118 1.00035C44.0634 0.771433 44.0634 0.400483 43.8117 0.171569ZM12.4123 35.9318C12.4123 36.0884 12.3452 36.2356 12.2235 36.3462C12.1018 36.4568 11.94 36.5178 11.7679 36.5178C11.4123 36.5178 11.1232 36.2549 11.1232 35.9318C11.1232 34.32 10.431 32.8029 9.1741 31.6603C7.91722 30.5178 6.2486 29.8885 4.47547 29.8884C4.12002 29.8884 3.83092 29.6256 3.83092 29.3024C3.83092 29.1459 3.89795 28.9988 4.01965 28.8881C4.14142 28.7774 4.30325 28.7165 4.47547 28.7165C6.59185 28.7165 8.58403 29.4679 10.0849 30.8324C11.5857 32.1968 12.4123 34.0079 12.4123 35.9318ZM18.2776 28.3363L19.656 29.5894L16.9214 32.0753L12.3958 27.9611C13.1717 27.4314 14.1108 27.145 15.0983 27.145C16.2982 27.145 17.4267 27.568 18.2776 28.3363ZM25.5809 21.7171C26.3349 22.4024 26.3349 23.5177 25.5809 24.203C25.3411 24.4211 25.0415 24.5784 24.7144 24.6577C24.4914 24.7117 24.3173 24.8701 24.2579 25.0728C24.1705 25.37 23.9977 25.6424 23.7579 25.8604C23.004 26.5459 21.7772 26.5457 21.0232 25.8604L15.554 20.8883C14.8 20.203 14.8 19.0877 15.554 18.4024C15.7938 18.1843 16.0934 18.027 16.4205 17.9477C16.6434 17.8937 16.8176 17.7353 16.877 17.5326C16.9643 17.2354 17.1373 16.9631 17.3771 16.745C17.7424 16.413 18.2279 16.2301 18.7444 16.2301C19.2609 16.2301 19.7465 16.413 20.1117 16.745L25.5809 21.7171ZM23.7862 15.1134L22.8464 14.259C22.0925 13.5736 22.0925 12.4583 22.8464 11.773C23.2115 11.4409 23.6971 11.2581 24.2137 11.2581C24.7302 11.2581 25.2158 11.4409 25.5809 11.773L26.5208 12.6274C25.9835 12.8856 25.4346 13.287 24.9732 13.7065C24.5119 14.126 24.0703 14.625 23.7862 15.1134ZM24.7691 16.007C24.8229 15.7955 25.114 15.236 25.8849 14.5353C26.656 13.8342 27.2714 13.5697 27.5037 13.521L29.1276 14.9972C29.0737 15.2088 28.7825 15.7682 28.0118 16.4689C27.2405 17.1701 26.6253 17.4344 26.3929 17.4831L24.7691 16.007ZM30.1103 15.8906L31.0502 16.745C31.4154 17.077 31.6166 17.5184 31.6166 17.988C31.6166 18.4576 31.4154 18.899 31.0502 19.231C30.685 19.563 30.1994 19.7459 29.6829 19.7459C29.1664 19.7459 28.6808 19.563 28.3156 19.231L27.375 18.3759C27.9125 18.1177 28.4617 17.7171 28.9234 17.2975C29.3846 16.8781 29.8262 16.379 30.1103 15.8906ZM31.4734 12.1578L26.9482 8.04388L29.6829 5.55793L31.0502 6.80094C31.9024 7.57574 32.3717 8.60569 32.3717 9.70136C32.3718 10.5991 32.0561 11.4525 31.4734 12.1578ZM37.8867 13.0159L35.1521 15.502L32.3918 12.9925C33.2136 12.061 33.661 10.9126 33.661 9.70128C33.661 9.51401 33.6495 9.32837 33.6285 9.1447L37.8867 13.0159ZM41.0771 6.80094C40.4684 7.3544 39.6591 7.6591 38.7982 7.6591C37.9374 7.6591 37.1281 7.3544 36.5193 6.80094C35.9106 6.24764 35.5755 5.51191 35.5755 4.72931C35.5755 3.9467 35.9106 3.21097 36.5194 2.65759C37.1477 2.08632 37.9728 1.80084 38.7982 1.80084C39.6232 1.80084 40.4484 2.08632 41.0765 2.65705C42.3336 3.80052 42.3335 5.65887 41.0771 6.80094Z" fill="#D7210A"/>
</g>
<defs>
<clipPath id="clip0">
<rect width="44" height="40" fill="white"/>
</clipPath>
</defs>
</svg>
