<svg width="35" height="38" viewBox="0 0 35 38" fill="none" xmlns="http://www.w3.org/2000/svg">
<g clip-path="url(#clip0)">
<path d="M26.7968 38.0001C28.493 38.0001 29.873 36.5019 29.873 34.6603C29.873 33.2161 29.1562 32.6251 27.6848 29.6504C27.2915 28.9111 26.3041 28.9073 25.9089 29.6504C24.4308 32.6386 23.7207 33.2174 23.7207 34.6603C23.7206 36.5019 25.1006 38.0001 26.7968 38.0001ZM26.7968 32.4333C27.6153 34.0526 27.8222 34.164 27.8222 34.6603C27.8222 35.2741 27.3622 35.7736 26.7968 35.7736C26.2314 35.7736 25.7714 35.2741 25.7714 34.6603C25.7714 34.164 25.9794 34.0505 26.7968 32.4333Z" fill="#D7210A"/>
<path d="M21.1034 33.4294C21.6099 33.1544 21.8152 32.4857 21.5619 31.9357L20.5365 29.7091C20.2833 29.1593 19.6673 28.9363 19.1608 29.2113C18.6543 29.4863 18.449 30.155 18.7022 30.7049L19.7276 32.9315C19.981 33.4815 20.597 33.7043 21.1034 33.4294Z" fill="#D7210A"/>
<path d="M34.4329 29.2112C33.9265 28.9363 33.3105 29.1592 33.0572 29.7091L32.0318 31.9357C31.7785 32.4856 31.9839 33.1543 32.4904 33.4293C32.9975 33.7047 33.6132 33.4806 33.8661 32.9315L34.8915 30.7049C35.1448 30.1549 34.9395 29.4862 34.4329 29.2112Z" fill="#D7210A"/>
<path d="M23.7206 13.3603H19.4823C18.9169 13.3603 18.4569 12.8609 18.4569 12.247V10.0204C18.4569 9.40563 17.9978 8.90718 17.4315 8.90718H14.3554V4.45408H16.5825C17.0058 5.74985 18.1455 6.68062 19.4823 6.68062C21.1785 6.68062 22.5585 5.18238 22.5585 3.3408C22.5585 1.49922 21.1785 0.000976562 19.4823 0.000976562C18.1455 0.000976562 17.0058 0.931749 16.5825 2.22753H10.0775C9.6542 0.931749 8.51445 0.000976562 7.17769 0.000976562C5.4815 0.000976562 4.10154 1.49922 4.10154 3.3408C4.10154 5.18238 5.4815 6.68062 7.17769 6.68062C8.51445 6.68062 9.6542 5.74985 10.0775 4.45408H12.3046V8.90718H9.22846C8.66218 8.90718 8.20308 9.40563 8.20308 10.0204V12.247C8.20308 12.8609 7.74309 13.3603 7.17769 13.3603H1.02538C0.459099 13.3603 0 13.8587 0 14.4735V21.1532C0 21.768 0.459099 22.2665 1.02538 22.2665H8.33836C11.135 25.2291 15.5179 25.2366 18.3216 22.2665H21.6698C22.2352 22.2665 22.6952 22.7659 22.6952 23.3797V25.6063C22.6952 26.2211 23.1543 26.7196 23.7206 26.7196H29.8729C30.4392 26.7196 30.8983 26.2211 30.8983 25.6063V21.1532C30.8983 16.8561 27.6783 13.3603 23.7206 13.3603ZM19.4823 2.22753C20.0477 2.22753 20.5077 2.72694 20.5077 3.3408C20.5077 3.95466 20.0477 4.45408 19.4823 4.45408C18.9169 4.45408 18.4569 3.95466 18.4569 3.3408C18.4569 2.72694 18.9169 2.22753 19.4823 2.22753ZM7.17769 4.45408C6.6123 4.45408 6.15231 3.95466 6.15231 3.3408C6.15231 2.72694 6.6123 2.22753 7.17769 2.22753C7.74309 2.22753 8.20308 2.72694 8.20308 3.3408C8.20308 3.95466 7.74309 4.45408 7.17769 4.45408ZM28.8475 24.493H24.7459V23.3797C24.7459 21.5382 23.366 20.0399 21.6698 20.0399H17.8856C17.5951 20.0399 17.3183 20.1737 17.1238 20.408C15.0781 22.8734 11.6063 22.9029 9.53615 20.408C9.34173 20.1737 9.06481 20.0399 8.77428 20.0399H2.05077V15.5868H7.17769C8.87388 15.5868 10.2538 14.0886 10.2538 12.247V11.1337H16.4062V12.247C16.4062 14.0886 17.7861 15.5868 19.4823 15.5868H23.7206C26.5475 15.5868 28.8475 18.0839 28.8475 21.1532V24.493Z" fill="#D7210A"/>
</g>
<defs>
<clipPath id="clip0">
<rect width="35" height="38" fill="white"/>
</clipPath>
</defs>
</svg>
