<svg width="54" height="39" viewBox="0 0 54 39" fill="none" xmlns="http://www.w3.org/2000/svg">
<path d="M53.2617 23.3506H46.9239V20.1895C46.9218 18.9173 46.221 17.6975 44.9754 16.7979C43.7298 15.8983 42.0409 15.3922 40.2794 15.3907H37.5735V7.87313C40.0085 6.84084 40.5346 5.74854 40.5346 4.9984C40.5346 2.14835 33.1948 0 23.4617 0C13.7287 0 6.3893 2.14835 6.3893 4.9984C6.3893 5.74854 6.91537 6.84084 9.35044 7.87313V15.3907H6.64453C4.88291 15.3921 3.19401 15.8982 1.94836 16.7978C0.702702 17.6975 0.00200984 18.9172 0 20.1895L0 33.7481C0.000781499 34.2126 0.256605 34.6579 0.711358 34.9863C1.16611 35.3147 1.78266 35.4995 2.42578 35.5001H3.63867V37.5521C3.63934 37.9358 3.85068 38.3037 4.22634 38.575C4.602 38.8463 5.11131 38.9989 5.64258 38.9994H8.54297C9.07423 38.9989 9.58354 38.8463 9.9592 38.575C10.3349 38.3037 10.5462 37.9358 10.5469 37.5521V35.5001H36.377V37.5521C36.3776 37.9358 36.5889 38.3037 36.9646 38.5751C37.3402 38.8464 37.8496 38.999 38.3809 38.9994H41.2813C41.8126 38.9989 42.3219 38.8463 42.6976 38.575C43.0732 38.3037 43.2845 37.9358 43.2852 37.5521V35.5001H44.4981C45.1412 35.4995 45.7578 35.3147 46.2125 34.9863C46.6673 34.6579 46.9231 34.2126 46.9239 33.7481V27.8448H53.2617C53.4575 27.8448 53.6453 27.7886 53.7838 27.6886C53.9222 27.5886 54 27.453 54 27.3116V23.8838C53.9999 23.7425 53.9221 23.6069 53.7836 23.5069C53.6452 23.4069 53.4575 23.3507 53.2617 23.3506ZM10.4393 7.09191C8.77964 6.44597 7.86586 5.70253 7.86586 4.9984C7.86586 3.13828 14.2708 1.06641 23.4617 1.06641C32.6527 1.06641 39.058 3.13828 39.058 4.99931C39.058 5.70345 38.1443 6.44688 36.4846 7.09282C36.3673 7.13855 36.2694 7.20634 36.2011 7.28899C36.1329 7.37165 36.0969 7.4661 36.0969 7.56234V15.3928H10.8266V7.56234C10.8269 7.46598 10.791 7.37136 10.7228 7.28853C10.6546 7.2057 10.5567 7.13775 10.4393 7.09191ZM6.64242 16.4571H40.2794C41.6495 16.4582 42.9631 16.8518 43.9319 17.5515C44.9008 18.2513 45.4458 19.2 45.4473 20.1895V30.4688H1.47656V20.1895C1.47801 19.1999 2.02296 18.2512 2.99183 17.5514C3.9607 16.8517 5.27435 16.4581 6.64453 16.4571H6.64242ZM9.0682 37.5518C9.06809 37.6528 9.0125 37.7496 8.91362 37.821C8.81475 37.8925 8.68069 37.9326 8.54086 37.9327H5.64258C5.50275 37.9326 5.36869 37.8925 5.26981 37.821C5.17094 37.7496 5.11535 37.6528 5.11523 37.5518V35.4998H9.07031L9.0682 37.5518ZM41.8057 37.5518C41.8055 37.6528 41.7499 37.7496 41.651 37.821C41.5522 37.8923 41.4182 37.9325 41.2784 37.9327H38.3809C38.2411 37.9326 38.107 37.8925 38.0082 37.821C37.9093 37.7496 37.8537 37.6528 37.8536 37.5518V35.4998H41.8078L41.8057 37.5518ZM44.4952 34.4333H2.42578C2.1741 34.4332 1.93279 34.3609 1.75483 34.2324C1.57686 34.1038 1.47679 33.9296 1.47656 33.7478V31.5352H45.4473V33.7478C45.447 33.9295 45.3469 34.1038 45.1689 34.2323C44.991 34.3608 44.7498 34.4331 44.4981 34.4333H44.4952ZM52.5234 26.7784H46.9239V24.417H52.5234V26.7784Z" fill="#D7210A"/>
<path d="M17.4555 10.9268C17.5456 10.9267 17.6348 10.9147 17.7188 10.8912L29.9017 7.50486C29.9942 7.48081 30.0791 7.44367 30.1514 7.39561C30.2238 7.34756 30.2821 7.28955 30.323 7.22499C30.3639 7.16044 30.3865 7.09064 30.3895 7.01968C30.3926 6.94872 30.376 6.87804 30.3407 6.81179C30.3054 6.74553 30.2522 6.68502 30.1841 6.63382C30.116 6.58262 30.0344 6.54176 29.9442 6.51363C29.854 6.48549 29.7568 6.47066 29.6585 6.46999C29.5603 6.46933 29.4628 6.48284 29.3718 6.50975L17.1902 9.89604C17.0293 9.9408 16.8952 10.0248 16.8111 10.1335C16.727 10.2422 16.6982 10.3687 16.7297 10.4911C16.7612 10.6135 16.8511 10.724 16.9836 10.8036C17.1162 10.8832 17.2831 10.9268 17.4555 10.9268Z" fill="#D7210A"/>
<path d="M20.3189 7.42173C20.4095 7.42164 20.4993 7.40955 20.5839 7.38608L27.0385 5.59177C27.129 5.56663 27.2118 5.52885 27.2821 5.48061C27.3523 5.43236 27.4088 5.37459 27.4482 5.31059C27.4875 5.24659 27.5091 5.17762 27.5115 5.10761C27.514 5.0376 27.4973 4.96793 27.4625 4.90257C27.4277 4.83721 27.3754 4.77744 27.3086 4.72668C27.2418 4.67592 27.1618 4.63516 27.0732 4.60673C26.9846 4.57829 26.8891 4.56274 26.7921 4.56096C26.6952 4.55918 26.5987 4.57121 26.5082 4.59636L20.0536 6.39066C19.8924 6.43529 19.758 6.51927 19.6737 6.62802C19.5894 6.73677 19.5605 6.86342 19.592 6.98596C19.6236 7.1085 19.7135 7.21919 19.8463 7.2988C19.9791 7.37841 20.1463 7.4219 20.3189 7.42173Z" fill="#D7210A"/>
<path d="M26.5085 10.0114L20.0538 11.8054C19.9633 11.8305 19.8805 11.8683 19.8103 11.9166C19.74 11.9648 19.6835 12.0226 19.6442 12.0866C19.6048 12.1506 19.5833 12.2196 19.5808 12.2896C19.5783 12.3596 19.595 12.4292 19.6298 12.4946C19.6646 12.56 19.7169 12.6197 19.7837 12.6705C19.8505 12.7212 19.9305 12.762 20.0191 12.7904C20.1078 12.8189 20.2033 12.8344 20.3002 12.8362C20.3971 12.838 20.4936 12.826 20.5841 12.8008L27.0388 11.0065C27.1308 10.9822 27.2151 10.9448 27.2869 10.8967C27.3587 10.8486 27.4165 10.7907 27.457 10.7262C27.4975 10.6618 27.5198 10.5922 27.5227 10.5215C27.5256 10.4508 27.509 10.3804 27.4738 10.3143C27.4386 10.2483 27.3856 10.188 27.3178 10.1369C27.25 10.0859 27.1688 10.045 27.079 10.0168C26.9891 9.98864 26.8924 9.97364 26.7945 9.9727C26.6965 9.97177 26.5993 9.98492 26.5085 10.0114Z" fill="#D7210A"/>
<path d="M6.90694 22.3205C7.43861 22.3205 7.95834 22.2066 8.40041 21.9933C8.84248 21.7799 9.18703 21.4767 9.39049 21.1219C9.59396 20.7672 9.64719 20.3768 9.54347 20.0002C9.43974 19.6236 9.18372 19.2777 8.80777 19.0061C8.43182 18.7346 7.95283 18.5497 7.43137 18.4748C6.90992 18.3999 6.36941 18.4383 5.87821 18.5853C5.38701 18.7322 4.96717 18.9811 4.67179 19.3003C4.37641 19.6196 4.21875 19.995 4.21875 20.379C4.21964 20.8937 4.50315 21.3871 5.00709 21.7511C5.51103 22.1151 6.19426 22.3198 6.90694 22.3205ZM6.90694 19.5039C7.14657 19.5039 7.38083 19.5552 7.58008 19.6514C7.77933 19.7475 7.93462 19.8842 8.02633 20.0441C8.11803 20.204 8.14203 20.3799 8.09528 20.5497C8.04853 20.7194 7.93313 20.8754 7.76368 20.9977C7.59423 21.1201 7.37834 21.2035 7.14331 21.2372C6.90828 21.271 6.66466 21.2537 6.44327 21.1874C6.22187 21.1212 6.03264 21.009 5.89951 20.8651C5.76637 20.7212 5.69531 20.552 5.69531 20.379C5.69565 20.147 5.82341 19.9245 6.05056 19.7605C6.27771 19.5964 6.5857 19.5042 6.90694 19.5039Z" fill="#D7210A"/>
<path d="M15.0286 22.3205C15.5603 22.3205 16.0801 22.2067 16.5222 21.9934C16.9643 21.7801 17.3089 21.4769 17.5125 21.1222C17.716 20.7674 17.7693 20.377 17.6656 20.0004C17.5619 19.6238 17.3059 19.2778 16.93 19.0063C16.5541 18.7347 16.0751 18.5498 15.5536 18.4748C15.0321 18.3999 14.4916 18.4383 14.0004 18.5853C13.5092 18.7322 13.0893 18.981 12.7939 19.3003C12.4985 19.6196 12.3408 19.995 12.3408 20.379C12.3417 20.8936 12.6252 21.387 13.129 21.751C13.6329 22.1149 14.316 22.3197 15.0286 22.3205ZM15.0286 19.5039C15.2682 19.5039 15.5025 19.5551 15.7018 19.6512C15.9012 19.7474 16.0565 19.884 16.1483 20.0439C16.2401 20.2038 16.2641 20.3797 16.2174 20.5495C16.1707 20.7193 16.0553 20.8752 15.8859 20.9976C15.7165 21.12 15.5006 21.2034 15.2655 21.2372C15.0305 21.271 14.7869 21.2537 14.5654 21.1875C14.344 21.1212 14.1548 21.0091 14.0216 20.8652C13.8885 20.7213 13.8174 20.5521 13.8174 20.379C13.8177 20.147 13.9454 19.9246 14.1725 19.7606C14.3995 19.5965 14.7074 19.5042 15.0286 19.5039Z" fill="#D7210A"/>
</svg>
