<svg width="46" height="34" viewBox="0 0 46 34" fill="none" xmlns="http://www.w3.org/2000/svg">
<path d="M21.644 0.000244141H24.3499V34H21.644V0.000244141Z" fill="#D7210A"/>
<path d="M16.2457 8.77818C15.927 8.56299 15.6066 8.38959 15.2995 8.24946C15.8897 7.6088 16.2354 6.83567 16.2354 6.00387C16.2354 3.79829 13.8077 2.00391 10.8236 2.00391C7.83961 2.00391 5.41192 3.79829 5.41192 6.00387C5.41192 6.83753 5.75926 7.61226 6.35184 8.25379C6.04292 8.39532 5.72047 8.57045 5.39965 8.78779C4.17083 9.62038 2.70605 11.2698 2.70605 14.3999V16.9999L4.15216 31.9998H17.4951L18.9412 17.0356V14.3999C18.9411 11.2574 17.4754 9.60831 16.2457 8.77818ZM10.8235 4.00389C12.3156 4.00389 13.5294 4.90108 13.5294 6.00387C13.5294 7.10667 12.3156 8.00386 10.8235 8.00386C9.33154 8.00386 8.11769 7.10667 8.11769 6.00387C8.11769 4.90108 9.33154 4.00389 10.8235 4.00389ZM5.41183 14.3999C5.41183 10.4089 8.1387 9.75804 8.66229 9.66998C9.32477 9.88418 10.0554 10.0038 10.8235 10.0038C11.5924 10.0038 12.3238 9.88398 12.9867 9.66938C13.4919 9.75058 16.2353 10.3774 16.2353 14.3999V16.9643L16.2318 16.9999H5.41525L5.41183 16.9643V14.3999ZM12.1765 29.9998V20.9998H9.47062V29.9998H6.67158L5.60854 18.9998H16.0386L14.9755 29.9998H12.1765Z" fill="#D7210A"/>
<path d="M43.2937 14.3999C43.2937 11.2574 41.8279 9.60831 40.5983 8.77818C40.2795 8.56299 39.9591 8.38959 39.652 8.24946C40.2423 7.6088 40.5879 6.83567 40.5879 6.00387C40.5879 3.79829 38.1602 2.00391 35.1762 2.00391C32.1921 2.00391 29.7645 3.79829 29.7645 6.00387C29.7645 6.83753 30.1118 7.61226 30.7044 8.25379C30.3955 8.39532 30.073 8.57045 29.7522 8.78779C28.5234 9.62038 27.0586 11.2698 27.0586 14.3999V18.9999H29.5799L27.325 31.9998H43.0273L40.7724 18.9999H43.2937V14.3999H43.2937ZM35.1761 4.00389C36.6681 4.00389 37.8819 4.90108 37.8819 6.00387C37.8819 7.10667 36.6681 8.00386 35.1761 8.00386C33.6841 8.00386 32.4702 7.10667 32.4702 6.00387C32.4702 4.90108 33.6841 4.00389 35.1761 4.00389ZM30.3999 29.9998L32.3079 18.9998H38.0443L39.9523 29.9998H30.3999ZM40.5878 16.9999H29.7644V14.3999C29.7644 10.4089 32.4912 9.75804 33.0148 9.66998C33.6773 9.88418 34.408 10.0038 35.1761 10.0038C35.9449 10.0038 36.6763 9.88398 37.3392 9.66938C37.8444 9.75058 40.5878 10.3774 40.5878 14.3999V16.9999Z" fill="#D7210A"/>
</svg>
