<svg width="52" height="42" viewBox="0 0 52 42" fill="none" xmlns="http://www.w3.org/2000/svg">
<path d="M52 4.97215C50.0662 5.81538 48.0057 6.37431 45.8575 6.64569C48.0675 5.334 49.7542 3.27277 50.5472 0.788308C48.4867 2.00954 46.2118 2.87215 43.7873 3.35354C41.8307 1.28262 39.0423 0 36.0003 0C30.0983 0 25.3468 4.76215 25.3468 10.6002C25.3468 11.4402 25.4182 12.2478 25.5938 13.0168C16.731 12.5871 8.88875 8.36446 3.6205 1.932C2.70075 3.51831 2.16125 5.334 2.16125 7.28862C2.16125 10.9588 4.0625 14.2122 6.8965 16.0957C5.18375 16.0634 3.5035 15.5691 2.08 14.7905C2.08 14.8228 2.08 14.8648 2.08 14.9068C2.08 20.0566 5.77525 24.3342 10.621 25.3195C9.75325 25.5554 8.8075 25.6685 7.826 25.6685C7.1435 25.6685 6.4545 25.6297 5.80775 25.4875C7.189 29.6843 11.1085 32.7697 15.769 32.8698C12.142 35.6903 7.53675 37.3897 2.55125 37.3897C1.677 37.3897 0.8385 37.3509 0 37.2443C4.72225 40.2715 10.3188 42 16.354 42C35.971 42 46.696 25.8462 46.696 11.844C46.696 11.3755 46.6798 10.9232 46.657 10.4742C48.7728 8.98154 50.5505 7.11738 52 4.97215Z" fill="#03A9F4"/>
</svg>
