<svg width="44" height="47" viewBox="0 0 44 47" fill="none" xmlns="http://www.w3.org/2000/svg">
<path d="M35.3655 28.3862V9.54858C35.3655 8.6632 34.5685 7.94287 33.589 7.94287H7.72038C6.74081 7.94287 5.94385 8.6632 5.94385 9.54858V28.3861C5.94385 29.2715 6.74081 29.9918 7.72038 29.9918H33.589C34.5685 29.9919 35.3655 29.2716 35.3655 28.3862ZM7.46657 28.3862V21.0317L11.4982 17.3877C11.5628 17.3292 11.6384 17.3205 11.6777 17.3205C11.717 17.3205 11.7923 17.3292 11.8571 17.3877L12.7247 18.1718C13.0218 18.4406 13.504 18.4405 13.8014 18.1718C14.0987 17.903 14.0987 17.4674 13.8013 17.1986L12.9339 16.4145C12.5984 16.1112 12.1523 15.9442 11.6778 15.9442C11.2032 15.9442 10.7571 16.1111 10.4215 16.4144L7.46678 19.0852V9.54858C7.46678 9.42209 7.58063 9.31918 7.72058 9.31918H33.5892C33.7291 9.31918 33.843 9.42209 33.843 9.54858V28.3861C33.843 28.5126 33.7291 28.6155 33.5892 28.6155H32.8464L23.3604 20.0415C22.6676 19.4157 21.5407 19.4157 20.8479 20.0416L18.8976 21.8045L16.2277 19.3912C15.9304 19.1225 15.4484 19.1225 15.1508 19.3912C14.8535 19.6599 14.8535 20.0957 15.1508 20.3645L18.0003 22.94C18.24 23.1566 18.5587 23.2759 18.8976 23.2759C19.2366 23.2759 19.5554 23.1566 19.7949 22.9399L21.9248 21.0148C22.0237 20.9254 22.1847 20.9254 22.2837 21.0148L30.6929 28.6155H7.72038C7.58043 28.6155 7.46657 28.5126 7.46657 28.3862Z" fill="#215512"/>
<path d="M40.4759 33.6346V24.8214C40.4759 24.4414 40.1351 24.1332 39.7145 24.1332C39.2939 24.1332 38.9531 24.4413 38.9531 24.8214V32.5969C37.6774 31.9141 36.1909 31.5205 34.6039 31.5205C30.245 31.5205 26.6389 34.4801 26.1101 38.2924H3.11715C2.69729 38.2924 2.35573 37.9837 2.35573 37.6042V2.06451C2.35573 1.68502 2.69729 1.37631 3.11715 1.37631H38.1917C38.6115 1.37631 38.9531 1.68502 38.9531 2.06451V21.3931C38.9531 21.7731 39.2939 22.0813 39.7145 22.0813C40.1351 22.0813 40.4759 21.7732 40.4759 21.3931V2.06451C40.4759 0.926139 39.4512 0 38.1918 0H3.11715C1.85767 0 0.833008 0.926139 0.833008 2.06451V37.6042C0.833008 38.7426 1.85767 39.6687 3.11715 39.6687H26.0539C26.1356 41.088 26.641 42.4478 27.5304 43.6237C27.7678 43.9375 28.2417 44.0178 28.5886 43.8035C28.9358 43.5889 29.0248 43.1607 28.7875 42.8469C27.9868 41.7883 27.5635 40.5481 27.5635 39.2602C27.5635 35.7514 30.7218 32.8969 34.6039 32.8969C38.4859 32.8969 41.6442 35.7515 41.6442 39.2602C41.6442 42.769 38.4859 45.6237 34.6039 45.6237C33.4466 45.6237 32.2994 45.3646 31.2864 44.8745C30.9156 44.6953 30.4542 44.8215 30.2559 45.1564C30.0574 45.4915 30.1971 45.9085 30.5679 46.0879C31.801 46.6846 33.1967 46.9999 34.6039 46.9999C39.3256 46.9999 43.167 43.5279 43.167 39.2601C43.167 37.0455 42.131 35.0467 40.4759 33.6346Z" fill="#215512"/>
<path d="M34.604 35.719C34.1834 35.719 33.8426 36.0271 33.8426 36.4072V38.5919H31.4255C31.0049 38.5919 30.6641 38.8999 30.6641 39.2801C30.6641 39.6602 31.0049 39.9683 31.4255 39.9683H33.8426V42.1529C33.8426 42.533 34.1834 42.8411 34.604 42.8411C35.0245 42.8411 35.3654 42.5331 35.3654 42.1529V39.9683H37.7825C38.203 39.9683 38.5439 39.6602 38.5439 39.2801C38.5439 38.8999 38.203 38.5919 37.7825 38.5919H35.3654V36.4072C35.3653 36.0272 35.0244 35.719 34.604 35.719Z" fill="#215512"/>
<path d="M8.8334 33.3128C8.89171 32.7831 8.46388 32.3109 7.87781 32.2582C7.29174 32.2055 6.76937 32.5922 6.71105 33.1219C6.65274 33.6516 7.08057 34.1238 7.66664 34.1765C8.25272 34.2292 8.77509 33.8425 8.8334 33.3128Z" fill="#215512"/>
<path d="M12.6039 33.313C12.6622 32.7833 12.2344 32.3112 11.6483 32.2584C11.0623 32.2057 10.5399 32.5924 10.4816 33.1222C10.4232 33.6519 10.8511 34.124 11.4372 34.1767C12.0232 34.2294 12.5456 33.8427 12.6039 33.313Z" fill="#215512"/>
<path d="M16.3744 33.3138C16.4327 32.784 16.0049 32.3119 15.4188 32.2592C14.8328 32.2065 14.3104 32.5932 14.2521 33.1229C14.1938 33.6526 14.6216 34.1248 15.2077 34.1775C15.7937 34.2302 16.3161 33.8435 16.3744 33.3138Z" fill="#215512"/>
<path d="M23.5829 5.72015C24.0035 5.72015 24.3444 5.41208 24.3444 5.03195C24.3444 4.65182 24.0035 4.34375 23.5829 4.34375H20.2839C19.8633 4.34375 19.5225 4.65182 19.5225 5.03195C19.5225 5.41208 19.8633 5.72015 20.2839 5.72015H23.5829Z" fill="#215512"/>
<path d="M16.3756 5.72015C16.7962 5.72015 17.1371 5.41208 17.1371 5.03195C17.1371 4.65182 16.7962 4.34375 16.3756 4.34375H7.36542C6.94485 4.34375 6.604 4.65182 6.604 5.03195C6.604 5.41208 6.94485 5.72015 7.36542 5.72015H16.3756Z" fill="#215512"/>
<path d="M27.1044 17.5957C28.5914 17.5957 29.8011 16.5023 29.8011 15.1583C29.8011 13.8143 28.5914 12.7209 27.1044 12.7209C25.6174 12.7209 24.4077 13.8143 24.4077 15.1583C24.4077 16.5023 25.6174 17.5957 27.1044 17.5957ZM27.1044 14.0974C27.7517 14.0974 28.2783 14.5733 28.2783 15.1583C28.2783 15.7434 27.7517 16.2193 27.1044 16.2193C26.4571 16.2193 25.9305 15.7434 25.9305 15.1583C25.9304 14.5734 26.4571 14.0974 27.1044 14.0974Z" fill="#215512"/>
</svg>
