<svg width="47" height="34" viewBox="0 0 47 34" fill="none" xmlns="http://www.w3.org/2000/svg">
<path d="M44.6133 25.6328H31.4496V24.6675H40.4303C40.6007 24.6675 40.7641 24.6186 40.8847 24.5314C41.0052 24.4442 41.0729 24.326 41.0729 24.2027V4.16155C41.0729 4.03826 41.0052 3.92003 40.8847 3.83285C40.7641 3.74568 40.6007 3.6967 40.4303 3.6967H29.0152V1.72656C29.0152 1.60328 28.9475 1.48504 28.827 1.39787C28.7064 1.31069 28.543 1.26172 28.3726 1.26172H18.6274C18.457 1.26172 18.2936 1.31069 18.173 1.39787C18.0525 1.48504 17.9848 1.60328 17.9848 1.72656V3.6967H6.56972C6.3993 3.6967 6.23585 3.74568 6.11535 3.83285C5.99484 3.92003 5.92714 4.03826 5.92714 4.16155V24.2027C5.92714 24.326 5.99484 24.4442 6.11535 24.5314C6.23585 24.6186 6.3993 24.6675 6.56972 24.6675H15.5504V25.6328H2.38672C2.2163 25.6328 2.05285 25.6818 1.93235 25.769C1.81184 25.8561 1.74414 25.9744 1.74414 26.0977V27.6914C1.74414 27.8147 1.81184 27.9329 1.93235 28.0201C2.05285 28.1073 2.2163 28.1562 2.38672 28.1562H3.30102V30.6797C3.30102 30.803 3.36872 30.9212 3.48922 31.0084C3.60973 31.0956 3.77317 31.1445 3.94359 31.1445H5.98883V32.2734C5.98883 32.3967 6.05653 32.515 6.17703 32.6021C6.29754 32.6893 6.46098 32.7383 6.63141 32.7383H12.018C12.1885 32.7383 12.3519 32.6893 12.4724 32.6021C12.5929 32.515 12.6606 32.3967 12.6606 32.2734V31.1445H34.3394V32.2734C34.3394 32.3967 34.4071 32.515 34.5276 32.6021C34.6481 32.6893 34.8115 32.7383 34.982 32.7383H40.3686C40.539 32.7383 40.7025 32.6893 40.823 32.6021C40.9435 32.515 41.0112 32.3967 41.0112 32.2734V31.1445H43.0564C43.2268 31.1445 43.3903 31.0956 43.5108 31.0084C43.6313 30.9212 43.699 30.803 43.699 30.6797V28.1562H44.6133C44.7837 28.1562 44.9471 28.1073 45.0676 28.0201C45.1882 27.9329 45.2559 27.8147 45.2559 27.6914V26.0977C45.2559 25.9744 45.1882 25.8561 45.0676 25.769C44.9471 25.6818 44.7837 25.6328 44.6133 25.6328ZM19.27 2.19141H27.73V3.6967H19.27V2.19141ZM7.2123 4.62639H18.6164H18.6271C18.6271 4.62639 18.634 4.62639 18.6377 4.62639H28.3619H28.3726C28.3726 4.62639 28.3796 4.62639 28.3832 4.62639H39.7877V23.7378H7.2123V4.62639ZM16.8355 24.6675H30.1645V25.6328H16.8355V24.6675ZM11.3755 31.8086H7.27398V31.1445H11.3755V31.8086ZM39.726 31.8086H35.6245V31.1445H39.726V31.8086ZM42.4138 30.2148H4.58617V28.1562H42.4138V30.2148ZM43.9707 27.2266H3.0293V26.5625H43.9707V27.2266Z" fill="#D7210A"/>
<path d="M21.8475 6.08813H9.87354C9.70311 6.08813 9.53967 6.13711 9.41916 6.22428C9.29866 6.31146 9.23096 6.42969 9.23096 6.55298V12.9864C9.23105 13.1097 9.29879 13.2279 9.41927 13.315C9.53976 13.4022 9.70314 13.4512 9.87354 13.4513H21.8475C22.0179 13.4512 22.1813 13.4022 22.3018 13.315C22.4223 13.2279 22.49 13.1097 22.4901 12.9864V6.55298C22.4901 6.42969 22.4224 6.31146 22.3019 6.22428C22.1814 6.13711 22.0179 6.08813 21.8475 6.08813ZM21.2049 12.5216H10.5161V7.01782H21.2049V12.5216Z" fill="#D7210A"/>
<path d="M11.7554 7.57202H13.6317V8.58007H11.7554V7.57202Z" fill="#D7210A"/>
<path d="M14.9224 7.57202H16.7987V8.58007H14.9224V7.57202Z" fill="#D7210A"/>
<path d="M18.0894 7.57202H19.9657V8.58007H18.0894V7.57202Z" fill="#D7210A"/>
<path d="M11.7554 9.26538H13.6317V10.2734H11.7554V9.26538Z" fill="#D7210A"/>
<path d="M14.9224 9.26538H16.7987V10.2734H14.9224V9.26538Z" fill="#D7210A"/>
<path d="M18.0894 9.26538H19.9657V10.2734H18.0894V9.26538Z" fill="#D7210A"/>
<path d="M11.7554 10.9587H13.6317V11.9668H11.7554V10.9587Z" fill="#D7210A"/>
<path d="M14.9224 10.9587H16.7987V11.9668H14.9224V10.9587Z" fill="#D7210A"/>
<path d="M18.0894 10.9587H19.9657V11.9668H18.0894V10.9587Z" fill="#D7210A"/>
<path d="M21.8475 14.9121H9.87354C9.70311 14.9121 9.53967 14.9611 9.41916 15.0483C9.29866 15.1354 9.23096 15.2537 9.23096 15.377V21.813C9.23096 21.9363 9.29866 22.0546 9.41916 22.1417C9.53967 22.2289 9.70311 22.2779 9.87354 22.2779H21.8475C22.0179 22.2779 22.1814 22.2289 22.3019 22.1417C22.4224 22.0546 22.4901 21.9363 22.4901 21.813V15.377C22.4901 15.2537 22.4224 15.1354 22.3019 15.0483C22.1814 14.9611 22.0179 14.9121 21.8475 14.9121ZM21.2049 21.3482H10.5161V15.8418H21.2049V21.3482Z" fill="#D7210A"/>
<path d="M37.1263 6.08813H25.1523C24.9819 6.08813 24.8185 6.13711 24.698 6.22428C24.5775 6.31146 24.5098 6.42969 24.5098 6.55298V12.9864C24.5099 13.1097 24.5776 13.2279 24.6981 13.315C24.8186 13.4022 24.982 13.4512 25.1523 13.4513H37.1263C37.2967 13.4512 37.4601 13.4022 37.5806 13.315C37.7011 13.2279 37.7688 13.1097 37.7689 12.9864V6.55298C37.7689 6.42969 37.7012 6.31146 37.5807 6.22428C37.4602 6.13711 37.2968 6.08813 37.1263 6.08813ZM36.4837 12.5216H25.7949V7.01782H36.4837V12.5216Z" fill="#D7210A"/>
<path d="M37.1263 14.9121H25.1523C24.9819 14.9121 24.8185 14.9611 24.698 15.0483C24.5775 15.1354 24.5098 15.2537 24.5098 15.377V21.813C24.5098 21.9363 24.5775 22.0546 24.698 22.1417C24.8185 22.2289 24.9819 22.2779 25.1523 22.2779H37.1263C37.2968 22.2779 37.4602 22.2289 37.5807 22.1417C37.7012 22.0546 37.7689 21.9363 37.7689 21.813V15.377C37.7689 15.2537 37.7012 15.1354 37.5807 15.0483C37.4602 14.9611 37.2968 14.9121 37.1263 14.9121ZM36.4837 21.3482H25.7949V15.8418H36.4837V21.3482Z" fill="#D7210A"/>
<path d="M27.0342 7.57202H28.9105V8.58007H27.0342V7.57202Z" fill="#D7210A"/>
<path d="M30.2012 7.57202H32.0775V8.58007H30.2012V7.57202Z" fill="#D7210A"/>
<path d="M33.3682 7.57202H35.2445V8.58007H33.3682V7.57202Z" fill="#D7210A"/>
<path d="M27.0342 9.26538H28.9105V10.2734H27.0342V9.26538Z" fill="#D7210A"/>
<path d="M30.2012 9.26538H32.0775V10.2734H30.2012V9.26538Z" fill="#D7210A"/>
<path d="M33.3682 9.26538H35.2445V10.2734H33.3682V9.26538Z" fill="#D7210A"/>
<path d="M27.0342 10.9587H28.9105V11.9668H27.0342V10.9587Z" fill="#D7210A"/>
<path d="M30.2012 10.9587H32.0775V11.9668H30.2012V10.9587Z" fill="#D7210A"/>
<path d="M33.3682 10.9587H35.2445V11.9668H33.3682V10.9587Z" fill="#D7210A"/>
<path d="M11.7554 16.3975H13.6317V17.4055H11.7554V16.3975Z" fill="#D7210A"/>
<path d="M14.9224 16.3975H16.7987V17.4055H14.9224V16.3975Z" fill="#D7210A"/>
<path d="M18.0894 16.3975H19.9657V17.4055H18.0894V16.3975Z" fill="#D7210A"/>
<path d="M11.7554 18.0911H13.6317V19.0991H11.7554V18.0911Z" fill="#D7210A"/>
<path d="M14.9224 18.0911H16.7987V19.0991H14.9224V18.0911Z" fill="#D7210A"/>
<path d="M18.0894 18.0911H19.9657V19.0991H18.0894V18.0911Z" fill="#D7210A"/>
<path d="M11.7554 19.7844H13.6317V20.7925H11.7554V19.7844Z" fill="#D7210A"/>
<path d="M14.9224 19.7844H16.7987V20.7925H14.9224V19.7844Z" fill="#D7210A"/>
<path d="M18.0894 19.7844H19.9657V20.7925H18.0894V19.7844Z" fill="#D7210A"/>
<path d="M27.0342 16.3975H28.9105V17.4055H27.0342V16.3975Z" fill="#D7210A"/>
<path d="M30.2012 16.3975H32.0775V17.4055H30.2012V16.3975Z" fill="#D7210A"/>
<path d="M33.3682 16.3975H35.2445V17.4055H33.3682V16.3975Z" fill="#D7210A"/>
<path d="M27.0342 18.0911H28.9105V19.0991H27.0342V18.0911Z" fill="#D7210A"/>
<path d="M30.2012 18.0911H32.0775V19.0991H30.2012V18.0911Z" fill="#D7210A"/>
<path d="M33.3682 18.0911H35.2445V19.0991H33.3682V18.0911Z" fill="#D7210A"/>
<path d="M27.0342 19.7844H28.9105V20.7925H27.0342V19.7844Z" fill="#D7210A"/>
<path d="M30.2012 19.7844H32.0775V20.7925H30.2012V19.7844Z" fill="#D7210A"/>
<path d="M33.3682 19.7844H35.2445V20.7925H33.3682V19.7844Z" fill="#D7210A"/>
</svg>
