<svg width="37" height="31" viewBox="0 0 37 31" fill="none" xmlns="http://www.w3.org/2000/svg">
<g clip-path="url(#clip0)">
<path d="M21.9179 3.41776C21.0635 2.365 20.3096 1.39646 19.606 0.512148C19.5054 0.385817 19.3547 0.259487 19.2039 0.175266C18.6007 -0.161616 17.7966 0.0068249 17.3945 0.512148C16.7411 1.39646 15.9872 2.32289 15.0825 3.41776C11.1119 8.30255 5.18115 15.6718 5.18115 19.8829C5.18115 22.9569 6.68897 25.7362 9.10148 27.7575C11.514 29.7367 14.8312 31 18.5002 31C22.1692 31 25.4865 29.7367 27.899 27.7154C30.3115 25.6941 31.8193 22.9148 31.8193 19.8408C31.8193 15.6297 25.8885 8.30255 21.9179 3.41776ZM26.0896 26.1994C24.1294 27.8417 21.4656 28.8102 18.5002 28.8102C15.5348 28.8102 12.871 27.7996 10.9109 26.1994C8.9507 24.5571 7.79471 22.3253 7.79471 19.8408C7.79471 16.3035 13.4742 9.27108 17.2437 4.59684C17.6961 4.04941 18.0981 3.50198 18.5002 3.03876C18.9023 3.50198 19.3044 4.04941 19.7567 4.59684C23.5263 9.31319 29.2057 16.3035 29.2057 19.8408C29.2057 22.3253 27.9995 24.5571 26.0896 26.1994Z" fill="#D7210A"/>
<path d="M26.2903 19.0827C25.5867 19.0406 24.9835 19.5038 24.9333 20.0934C24.883 21.0198 24.5312 21.9041 23.9783 22.6621C23.4255 23.4201 22.6213 24.0939 21.6663 24.515C21.0632 24.8097 20.8119 25.4835 21.1637 25.9888C21.5658 26.5784 22.37 26.7468 22.9731 26.452C24.3302 25.8204 25.4359 24.894 26.1898 23.8412C26.994 22.7884 27.4463 21.5251 27.4966 20.2197C27.5468 19.6302 26.994 19.1248 26.2903 19.0827Z" fill="#D7210A"/>
</g>
<defs>
<clipPath id="clip0">
<rect width="37" height="31" fill="white"/>
</clipPath>
</defs>
</svg>
