<svg width="41" height="34" viewBox="0 0 41 34" fill="none" xmlns="http://www.w3.org/2000/svg">
<path d="M20.4999 24.0188C18.4997 24.0188 16.8726 25.3682 16.8726 27.0268C16.8726 28.6854 18.4997 30.0348 20.4999 30.0348C22.5 30.0348 24.1272 28.6854 24.1272 27.0268C24.1272 25.3682 22.5 24.0188 20.4999 24.0188Z" fill="#D7210A"/>
<path d="M20.5 17.3342C16.843 17.3342 13.5735 18.7345 11.4287 20.9222L15.3702 24.1907C15.3702 24.1907 17.2086 22.0157 20.5 22.0157C23.7243 22.0157 25.6298 24.1907 25.6298 24.1907L29.5714 20.9222C27.4264 18.7345 24.157 17.3342 20.5 17.3342Z" fill="#D7210A"/>
<path d="M20.5 3.96533C7.53239 3.96533 0.272025 11.199 0 11.4447L4.00206 14.7635C8.06339 11.01 13.9545 8.64452 20.5 8.64452C27.0455 8.64452 32.9367 11.0101 36.9979 14.7635L41 11.4447C40.728 11.199 33.4509 3.96533 20.5 3.96533Z" fill="#D7210A"/>
<path d="M20.5002 10.6497C14.6214 10.6497 9.33525 12.7917 5.71436 16.1832L9.71242 19.4986C12.3021 16.9506 16.1767 15.3288 20.5002 15.3288C24.8236 15.3288 28.6983 16.9506 31.288 19.4986L35.2861 16.1832C31.6652 12.7917 26.3791 10.6497 20.5002 10.6497Z" fill="#D7210A"/>
</svg>
